<svg id="svg" version="1.1" xmlns="http://www.w3.org/2000/svg" xmlns:xlink="http://www.w3.org/1999/xlink" width="400" height="231.11111111111111" viewBox="0, 0, 400,231.11111111111111"><g id="svgg"><path id="path0" d="M248.555 79.607 C 248.555 92.140,248.353 94.001,246.532 98.266 C 243.231 105.995,234.599 113.803,227.387 115.583 C 223.817 116.464,221.624 116.536,198.640 116.534 C 183.625 116.533,176.044 116.612,175.403 116.778 C 172.397 117.555,170.729 118.214,168.795 119.388 C 167.391 120.241,164.938 122.140,164.160 122.977 C 161.397 125.949,159.831 128.482,159.068 131.214 C 158.560 133.030,158.462 181.656,158.962 183.532 C 160.455 189.135,164.906 193.734,172.267 197.279 C 175.258 198.720,179.048 200.080,182.428 200.927 C 184.653 201.485,187.803 202.120,189.257 202.304 C 190.152 202.417,191.141 202.571,191.454 202.645 C 193.969 203.242,207.468 203.170,211.329 202.539 C 215.160 201.914,217.456 201.485,218.786 201.146 C 232.422 197.669,241.107 191.409,243.094 183.623 C 243.410 182.387,243.468 180.616,243.468 172.236 L 243.468 162.312 222.562 162.312 C 211.064 162.312,201.492 162.249,201.291 162.172 C 200.812 161.988,200.741 156.673,201.214 156.379 C 201.373 156.280,216.954 156.185,235.838 156.169 L 270.173 156.138 271.792 155.604 C 275.934 154.236,280.136 150.393,282.978 145.375 C 283.248 144.898,283.676 144.141,283.931 143.692 C 284.185 143.243,284.393 142.732,284.393 142.556 C 284.393 142.379,284.481 142.200,284.588 142.158 C 285.205 141.913,287.989 133.485,288.813 129.364 C 290.885 119.008,290.670 104.692,288.314 96.069 C 288.175 95.561,287.981 94.780,287.882 94.335 C 286.941 90.099,282.624 80.621,281.036 79.302 C 280.848 79.146,280.694 78.915,280.694 78.788 C 280.694 77.939,275.723 73.695,273.526 72.668 C 270.773 71.381,269.181 71.232,258.092 71.222 L 248.555 71.214 248.555 79.607 M227.538 172.293 C 233.187 174.231,234.927 181.580,230.751 185.869 C 223.305 193.518,211.960 183.385,218.434 174.868 C 220.172 172.580,224.669 171.309,227.538 172.293 " stroke="none" fill="#f4c43c" fill-rule="evenodd"></path><path id="path1" d="M0.000 115.607 L 0.000 231.214 200.000 231.214 L 400.000 231.214 400.000 115.607 L 400.000 0.000 200.000 0.000 L 0.000 0.000 0.000 115.607 M210.173 24.503 C 211.254 24.642,212.607 24.847,213.179 24.957 C 216.192 25.538,217.076 25.720,217.919 25.932 C 218.428 26.060,219.208 26.253,219.653 26.360 C 224.639 27.559,231.313 30.327,234.335 32.449 C 239.230 35.884,242.183 39.421,243.319 43.207 C 243.677 44.401,243.815 84.427,243.474 88.324 C 243.234 91.081,242.950 92.745,242.548 93.757 C 242.447 94.012,242.229 94.688,242.063 95.260 C 241.026 98.838,236.887 104.517,233.757 106.657 C 233.185 107.048,232.660 107.451,232.590 107.553 C 232.270 108.018,228.601 109.900,226.936 110.452 L 225.087 111.065 204.855 111.232 C 181.268 111.428,176.732 111.548,174.220 112.043 C 173.202 112.243,172.032 112.462,171.618 112.530 C 171.205 112.597,170.867 112.744,170.867 112.858 C 170.867 112.971,170.710 113.064,170.517 113.064 C 170.325 113.064,169.986 113.157,169.766 113.271 C 169.545 113.384,168.640 113.827,167.754 114.253 C 166.869 114.680,165.880 115.246,165.558 115.511 C 165.235 115.775,164.571 116.260,164.082 116.588 C 161.215 118.506,157.717 122.506,156.227 125.569 C 154.399 129.324,154.220 131.072,154.220 145.092 C 154.220 150.982,154.156 155.965,154.079 156.166 C 153.954 156.492,152.774 156.532,143.139 156.532 C 130.286 156.532,130.544 156.568,126.480 154.205 C 125.826 153.825,123.908 152.097,122.262 150.405 C 120.432 148.524,118.233 145.046,116.925 141.965 C 116.736 141.520,116.325 140.584,116.011 139.884 C 114.599 136.736,113.264 131.816,112.370 126.474 C 111.660 122.224,111.572 120.878,111.567 114.104 C 111.559 105.002,111.926 101.616,113.622 95.145 C 114.656 91.195,116.240 86.808,117.454 84.528 C 118.495 82.573,119.355 81.057,119.599 80.749 C 119.726 80.589,119.998 80.153,120.204 79.780 C 122.000 76.532,126.689 72.731,130.173 71.699 C 130.746 71.530,131.516 71.299,131.884 71.187 C 132.259 71.073,147.516 70.983,166.493 70.983 L 200.432 70.983 200.505 68.670 L 200.578 66.357 200.000 66.321 C 199.682 66.301,190.308 66.275,179.169 66.264 C 162.134 66.246,158.853 66.191,158.524 65.918 C 158.072 65.543,158.100 46.882,158.557 44.393 C 159.705 38.127,165.818 32.333,175.029 28.782 C 176.237 28.316,177.434 27.851,177.688 27.748 C 178.397 27.461,179.432 27.134,180.578 26.832 C 181.150 26.681,181.931 26.471,182.312 26.364 C 182.694 26.257,183.578 26.047,184.277 25.896 C 184.977 25.746,185.913 25.534,186.358 25.426 C 191.520 24.174,203.916 23.694,210.173 24.503 M174.714 39.766 C 166.201 43.087,168.319 55.027,177.426 55.053 C 187.626 55.083,187.770 39.709,177.572 39.383 C 176.313 39.342,175.530 39.447,174.714 39.766 M270.520 71.312 C 273.129 71.954,275.799 73.296,277.409 74.774 C 278.904 76.146,281.387 78.865,281.387 79.130 C 281.387 79.238,281.575 79.527,281.804 79.773 C 282.033 80.019,282.433 80.613,282.693 81.093 C 283.528 82.634,284.206 83.809,284.398 84.046 C 284.742 84.473,286.404 88.469,286.811 89.849 C 287.033 90.600,287.296 91.422,287.396 91.676 C 287.496 91.931,287.705 92.607,287.862 93.179 C 288.018 93.751,288.228 94.480,288.328 94.798 C 288.429 95.116,288.631 95.896,288.779 96.532 C 288.926 97.168,289.139 98.052,289.251 98.497 C 290.480 103.355,291.057 118.402,290.201 123.237 C 290.077 123.936,289.859 125.237,289.716 126.127 C 289.573 127.017,289.368 128.162,289.259 128.671 C 289.151 129.179,288.941 130.168,288.792 130.867 C 288.643 131.566,288.437 132.399,288.335 132.717 C 288.233 133.035,288.017 133.867,287.855 134.566 C 287.692 135.266,287.484 135.994,287.392 136.185 C 287.300 136.376,287.100 136.948,286.948 137.457 C 286.635 138.505,285.052 142.252,284.848 142.428 C 284.774 142.491,284.571 142.908,284.397 143.353 C 284.223 143.798,283.891 144.438,283.659 144.776 C 283.427 145.113,283.237 145.455,283.237 145.536 C 283.237 147.139,276.540 153.937,273.670 155.247 C 270.687 156.609,272.970 156.532,235.550 156.532 L 201.387 156.532 201.341 158.266 C 201.316 159.220,201.290 160.390,201.283 160.867 L 201.272 161.734 222.428 161.850 L 243.584 161.965 243.576 172.717 C 243.571 179.907,243.483 183.755,243.312 184.335 C 242.469 187.176,239.348 191.431,236.647 193.420 C 236.139 193.795,235.671 194.154,235.607 194.219 C 234.713 195.128,228.616 198.382,226.474 199.094 C 225.965 199.263,225.450 199.484,225.329 199.585 C 225.209 199.686,224.921 199.769,224.691 199.769 C 224.460 199.769,224.091 199.864,223.870 199.980 C 222.966 200.457,218.493 201.606,215.260 202.191 C 209.081 203.310,209.134 203.306,201.272 203.296 C 193.139 203.287,190.861 203.092,185.566 201.958 C 181.803 201.151,177.161 199.828,175.915 199.206 C 175.516 199.007,175.098 198.844,174.987 198.844 C 174.560 198.844,170.426 196.761,168.504 195.577 C 162.311 191.762,159.228 187.652,158.379 182.081 C 157.784 178.169,158.378 131.632,159.044 130.061 C 162.883 121.005,169.749 116.599,180.462 116.315 C 183.642 116.231,193.781 116.191,202.994 116.228 C 224.094 116.310,226.446 116.121,231.093 113.962 C 233.353 112.912,237.450 109.881,239.653 107.629 C 242.665 104.551,245.682 100.133,246.362 97.803 C 246.455 97.486,246.611 97.121,246.710 96.994 C 247.671 95.755,248.287 88.182,248.311 77.322 C 248.318 74.005,248.393 71.222,248.478 71.137 C 248.797 70.818,269.171 70.980,270.520 71.312 M221.620 172.938 C 213.765 176.841,216.165 188.055,224.855 188.059 C 227.905 188.061,230.885 186.279,231.954 183.815 C 232.753 181.974,232.832 181.648,232.832 180.231 C 232.832 178.751,232.714 178.301,231.851 176.493 C 230.129 172.883,225.187 171.166,221.620 172.938 " stroke="none" fill="#f4f4f4" fill-rule="evenodd"></path><path id="path2" d="M194.217 24.586 C 194.155 24.647,193.064 24.813,191.792 24.955 C 190.520 25.098,188.960 25.307,188.324 25.421 C 185.718 25.887,184.572 26.113,183.584 26.356 C 183.012 26.496,182.179 26.694,181.734 26.795 C 180.079 27.173,175.279 28.888,173.314 29.804 C 172.197 30.325,171.253 30.751,171.215 30.751 C 171.078 30.751,167.950 32.695,166.705 33.553 C 165.072 34.679,161.387 38.256,161.387 38.715 C 161.387 38.773,161.093 39.268,160.733 39.815 C 158.777 42.789,158.617 44.005,158.614 55.896 L 158.613 65.665 163.179 65.673 C 165.691 65.677,174.957 65.677,183.770 65.672 C 192.584 65.667,200.049 65.726,200.360 65.804 C 200.918 65.944,200.925 65.980,200.925 68.580 L 200.925 71.214 167.572 71.218 C 130.550 71.224,131.719 71.180,128.555 72.672 C 123.902 74.866,119.156 80.637,116.540 87.283 C 116.240 88.046,115.924 88.775,115.839 88.902 C 115.753 89.029,115.451 89.913,115.167 90.867 C 114.883 91.821,114.562 92.861,114.455 93.179 C 114.266 93.737,113.929 95.094,113.192 98.266 C 111.581 105.205,111.235 116.573,112.394 124.509 C 113.217 130.147,114.747 136.209,116.083 139.130 C 116.330 139.670,116.532 140.209,116.532 140.330 C 116.532 142.685,123.002 151.414,126.474 153.743 C 130.106 156.178,130.030 156.167,142.659 156.177 L 153.642 156.185 153.789 146.127 C 154.017 130.517,154.066 129.903,155.328 126.734 C 157.511 121.251,163.641 115.399,169.772 112.944 C 173.670 111.384,172.924 111.441,192.486 111.199 C 219.958 110.860,225.238 110.691,226.995 110.100 C 228.564 109.573,231.440 108.114,232.084 107.519 C 232.305 107.315,232.954 106.825,233.526 106.430 C 237.503 103.686,241.007 98.287,242.577 92.486 C 243.453 89.251,243.944 47.489,243.145 44.152 C 241.457 37.095,234.450 31.367,222.905 27.607 C 221.578 27.174,220.258 26.821,219.971 26.821 C 219.684 26.821,219.394 26.731,219.326 26.621 C 219.258 26.511,218.757 26.347,218.214 26.257 C 217.670 26.166,216.757 26.000,216.185 25.888 C 210.857 24.839,209.125 24.683,201.616 24.577 C 197.609 24.521,194.279 24.525,194.217 24.586 M179.868 39.356 C 189.372 42.583,185.792 57.264,175.953 55.407 C 168.121 53.929,166.493 42.971,173.642 39.846 C 173.960 39.707,174.480 39.484,174.798 39.350 C 175.599 39.012,178.868 39.016,179.868 39.356 " stroke="none" fill="#347cf3" fill-rule="evenodd"></path><path id="path3" d="M196.069 24.181 C 193.160 24.307,188.518 24.903,186.358 25.426 C 185.913 25.534,184.977 25.746,184.277 25.896 C 183.578 26.047,182.694 26.257,182.312 26.364 C 181.931 26.471,181.150 26.681,180.578 26.832 C 179.432 27.134,178.397 27.461,177.688 27.748 C 177.434 27.851,176.237 28.316,175.029 28.782 C 165.818 32.333,159.705 38.127,158.557 44.393 C 158.100 46.882,158.072 65.543,158.524 65.918 C 158.853 66.191,162.134 66.246,179.169 66.264 C 190.308 66.275,199.682 66.301,200.000 66.321 L 200.578 66.357 200.505 68.670 L 200.432 70.983 166.493 70.983 C 147.516 70.983,132.259 71.073,131.884 71.187 C 131.516 71.299,130.746 71.530,130.173 71.699 C 126.689 72.731,122.000 76.532,120.204 79.780 C 119.998 80.153,119.726 80.589,119.599 80.749 C 119.355 81.057,118.495 82.573,117.454 84.528 C 116.240 86.808,114.656 91.195,113.622 95.145 C 111.926 101.616,111.559 105.002,111.567 114.104 C 111.572 120.878,111.660 122.224,112.370 126.474 C 113.264 131.816,114.599 136.736,116.011 139.884 C 116.325 140.584,116.736 141.520,116.925 141.965 C 118.233 145.046,120.432 148.524,122.262 150.405 C 123.908 152.097,125.826 153.825,126.480 154.205 C 130.544 156.568,130.286 156.532,143.139 156.532 C 152.774 156.532,153.954 156.492,154.079 156.166 C 154.156 155.965,154.220 150.982,154.220 145.092 C 154.220 131.072,154.399 129.324,156.227 125.569 C 157.717 122.506,161.215 118.506,164.082 116.588 C 164.571 116.260,165.235 115.775,165.558 115.511 C 165.880 115.246,166.869 114.680,167.754 114.253 C 168.640 113.827,169.545 113.384,169.766 113.271 C 169.986 113.157,170.325 113.064,170.517 113.064 C 170.710 113.064,170.867 112.971,170.867 112.858 C 170.867 112.744,171.205 112.597,171.618 112.530 C 172.032 112.462,173.202 112.243,174.220 112.043 C 176.732 111.548,181.268 111.428,204.855 111.232 L 225.087 111.065 226.936 110.452 C 228.601 109.900,232.270 108.018,232.590 107.553 C 232.660 107.451,233.185 107.048,233.757 106.657 C 236.887 104.517,241.026 98.838,242.063 95.260 C 242.229 94.688,242.447 94.012,242.548 93.757 C 242.950 92.745,243.234 91.081,243.474 88.324 C 243.815 84.427,243.677 44.401,243.319 43.207 C 242.183 39.421,239.230 35.884,234.335 32.449 C 231.313 30.327,224.639 27.559,219.653 26.360 C 219.208 26.253,218.428 26.060,217.919 25.932 C 217.076 25.720,216.192 25.538,213.179 24.957 C 209.849 24.316,201.588 23.940,196.069 24.181 M210.636 24.938 C 212.529 25.220,214.562 25.568,216.185 25.888 C 216.757 26.000,217.670 26.166,218.214 26.257 C 218.757 26.347,219.258 26.511,219.326 26.621 C 219.394 26.731,219.684 26.821,219.971 26.821 C 220.258 26.821,221.578 27.174,222.905 27.607 C 234.450 31.367,241.457 37.095,243.145 44.152 C 243.944 47.489,243.453 89.251,242.577 92.486 C 241.007 98.287,237.503 103.686,233.526 106.430 C 232.954 106.825,232.305 107.315,232.084 107.519 C 231.440 108.114,228.564 109.573,226.995 110.100 C 225.238 110.691,219.958 110.860,192.486 111.199 C 172.924 111.441,173.670 111.384,169.772 112.944 C 163.641 115.399,157.511 121.251,155.328 126.734 C 154.066 129.903,154.017 130.517,153.789 146.127 L 153.642 156.185 142.659 156.177 C 130.030 156.167,130.106 156.178,126.474 153.743 C 123.002 151.414,116.532 142.685,116.532 140.330 C 116.532 140.209,116.330 139.670,116.083 139.130 C 114.747 136.209,113.217 130.147,112.394 124.509 C 111.235 116.573,111.581 105.205,113.192 98.266 C 113.929 95.094,114.266 93.737,114.455 93.179 C 114.562 92.861,114.883 91.821,115.167 90.867 C 115.451 89.913,115.753 89.029,115.839 88.902 C 115.924 88.775,116.240 88.046,116.540 87.283 C 119.156 80.637,123.902 74.866,128.555 72.672 C 131.719 71.180,130.550 71.224,167.572 71.218 L 200.925 71.214 200.925 68.580 C 200.925 65.980,200.918 65.944,200.360 65.804 C 200.049 65.726,192.584 65.667,183.770 65.672 C 174.957 65.677,165.691 65.677,163.179 65.673 L 158.613 65.665 158.614 55.896 C 158.617 44.005,158.777 42.789,160.733 39.815 C 161.093 39.268,161.387 38.773,161.387 38.715 C 161.387 38.256,165.072 34.679,166.705 33.553 C 167.950 32.695,171.078 30.751,171.215 30.751 C 171.253 30.751,172.197 30.325,173.314 29.804 C 175.279 28.888,180.079 27.173,181.734 26.795 C 182.179 26.694,183.012 26.496,183.584 26.356 C 184.572 26.113,185.718 25.887,188.324 25.421 C 188.960 25.307,190.520 25.098,191.792 24.955 C 193.064 24.813,194.155 24.647,194.217 24.586 C 194.436 24.372,208.921 24.683,210.636 24.938 M174.798 39.350 C 174.480 39.484,173.960 39.707,173.642 39.846 C 166.493 42.971,168.121 53.929,175.953 55.407 C 183.321 56.797,188.409 48.021,183.716 42.016 C 181.854 39.633,177.334 38.282,174.798 39.350 M180.723 40.085 C 184.530 41.822,186.309 46.681,184.532 50.494 C 180.966 58.150,169.460 55.791,169.437 47.400 C 169.420 41.413,175.293 37.606,180.723 40.085 " stroke="none" fill="#a3c5f4" fill-rule="evenodd"></path><path id="path4" d="M248.478 71.137 C 248.393 71.222,248.318 74.005,248.311 77.322 C 248.287 88.182,247.671 95.755,246.710 96.994 C 246.611 97.121,246.455 97.486,246.362 97.803 C 245.804 99.712,243.700 103.048,241.405 105.662 C 236.235 111.548,230.990 114.852,225.603 115.616 C 223.651 115.892,223.335 116.069,224.791 116.069 C 231.739 116.069,242.795 107.016,246.532 98.266 C 248.353 94.001,248.555 92.140,248.555 79.607 L 248.555 71.214 258.092 71.222 C 269.181 71.232,270.773 71.381,273.526 72.668 C 275.723 73.695,280.694 77.939,280.694 78.788 C 280.694 78.915,280.848 79.146,281.036 79.302 C 282.624 80.621,286.941 90.099,287.882 94.335 C 287.981 94.780,288.175 95.561,288.314 96.069 C 290.670 104.692,290.885 119.008,288.813 129.364 C 287.989 133.485,285.205 141.913,284.588 142.158 C 284.481 142.200,284.393 142.379,284.393 142.556 C 284.393 142.732,284.185 143.243,283.931 143.692 C 283.676 144.141,283.248 144.898,282.978 145.375 C 280.136 150.393,275.934 154.236,271.792 155.604 L 270.173 156.138 235.838 156.169 C 216.954 156.185,201.373 156.280,201.214 156.379 C 200.741 156.673,200.812 161.988,201.291 162.172 C 201.492 162.249,211.064 162.312,222.562 162.312 L 243.468 162.312 243.468 172.236 C 243.468 180.616,243.410 182.387,243.094 183.623 C 241.107 191.409,232.422 197.669,218.786 201.146 C 217.456 201.485,215.160 201.914,211.329 202.539 C 207.468 203.170,193.969 203.242,191.454 202.645 C 191.141 202.571,190.152 202.417,189.257 202.304 C 186.418 201.944,181.610 200.819,178.613 199.812 C 172.030 197.601,167.449 195.035,163.678 191.445 C 161.370 189.249,159.770 186.564,158.962 183.532 C 158.462 181.656,158.560 133.030,159.068 131.214 C 159.831 128.482,161.397 125.949,164.160 122.977 C 164.938 122.140,167.391 120.241,168.795 119.388 C 170.729 118.214,172.397 117.555,175.403 116.778 C 176.042 116.613,183.788 116.526,198.986 116.515 C 211.434 116.505,222.087 116.427,222.659 116.341 C 223.231 116.255,213.139 116.197,200.231 116.211 C 175.306 116.240,175.673 116.227,172.832 117.176 C 168.295 118.691,164.205 121.817,161.303 125.990 C 160.164 127.626,159.789 128.302,159.044 130.061 C 158.378 131.632,157.784 178.169,158.379 182.081 C 159.228 187.652,162.311 191.762,168.504 195.577 C 170.426 196.761,174.560 198.844,174.987 198.844 C 175.098 198.844,175.516 199.007,175.915 199.206 C 177.161 199.828,181.803 201.151,185.566 201.958 C 190.861 203.092,193.139 203.287,201.272 203.296 C 209.134 203.306,209.081 203.310,215.260 202.191 C 218.493 201.606,222.966 200.457,223.870 199.980 C 224.091 199.864,224.460 199.769,224.691 199.769 C 224.921 199.769,225.209 199.686,225.329 199.585 C 225.450 199.484,225.965 199.263,226.474 199.094 C 228.616 198.382,234.713 195.128,235.607 194.219 C 235.671 194.154,236.139 193.795,236.647 193.420 C 239.348 191.431,242.469 187.176,243.312 184.335 C 243.483 183.755,243.571 179.907,243.576 172.717 L 243.584 161.965 222.428 161.850 L 201.272 161.734 201.283 160.867 C 201.290 160.390,201.316 159.220,201.341 158.266 L 201.387 156.532 235.550 156.532 C 272.970 156.532,270.687 156.609,273.670 155.247 C 276.540 153.937,283.237 147.139,283.237 145.536 C 283.237 145.455,283.427 145.113,283.659 144.776 C 283.891 144.438,284.223 143.798,284.397 143.353 C 284.571 142.908,284.774 142.491,284.848 142.428 C 285.052 142.252,286.635 138.505,286.948 137.457 C 287.100 136.948,287.300 136.376,287.392 136.185 C 287.484 135.994,287.692 135.266,287.855 134.566 C 288.017 133.867,288.233 133.035,288.335 132.717 C 288.437 132.399,288.643 131.566,288.792 130.867 C 288.941 130.168,289.151 129.179,289.259 128.671 C 289.368 128.162,289.573 127.017,289.716 126.127 C 289.859 125.237,290.077 123.936,290.201 123.237 C 291.057 118.402,290.480 103.355,289.251 98.497 C 289.139 98.052,288.926 97.168,288.779 96.532 C 288.631 95.896,288.429 95.116,288.328 94.798 C 288.228 94.480,288.018 93.751,287.862 93.179 C 287.705 92.607,287.496 91.931,287.396 91.676 C 287.296 91.422,287.033 90.600,286.811 89.849 C 286.404 88.469,284.742 84.473,284.398 84.046 C 284.206 83.809,283.528 82.634,282.693 81.093 C 282.433 80.613,282.033 80.019,281.804 79.773 C 281.575 79.527,281.387 79.238,281.387 79.130 C 281.387 78.865,278.904 76.146,277.409 74.774 C 275.799 73.296,273.129 71.954,270.520 71.312 C 269.171 70.980,248.797 70.818,248.478 71.137 M222.072 172.340 C 216.251 174.505,214.624 181.823,219.009 186.121 C 224.387 191.394,233.380 187.346,233.019 179.815 C 232.754 174.298,227.131 170.458,222.072 172.340 M228.324 172.997 C 230.283 174.008,231.523 175.498,232.572 178.103 C 232.909 178.941,232.907 181.528,232.569 182.359 C 231.792 184.263,231.501 184.723,230.389 185.803 C 224.148 191.861,213.917 184.949,217.513 177.104 C 219.422 172.940,224.485 171.017,228.324 172.997 " stroke="none" fill="#f8df9d" fill-rule="evenodd"></path></g></svg>