<svg id="svg" version="1.1" xmlns="http://www.w3.org/2000/svg" xmlns:xlink="http://www.w3.org/1999/xlink" width="400" height="400" viewBox="0, 0, 400,400"><g id="svgg"><path id="path0" d="M0.000 200.000 L 0.000 400.000 200.000 400.000 L 400.000 400.000 400.000 200.000 L 400.000 0.000 200.000 0.000 L 0.000 0.000 0.000 200.000 M191.430 14.895 L 192.400 15.658 192.394 39.529 C 192.390 53.860,192.236 63.640,192.009 64.000 C 191.402 64.961,160.520 65.811,157.325 64.954 C 156.466 64.724,155.405 62.639,155.811 61.982 C 155.922 61.802,156.075 59.397,156.151 56.636 C 156.337 49.830,155.325 50.400,167.225 50.400 C 174.728 50.400,177.232 50.278,177.476 49.900 C 177.654 49.625,177.735 41.884,177.656 32.697 C 177.476 11.961,176.714 13.996,184.633 14.074 C 189.706 14.124,190.585 14.230,191.430 14.895 M245.214 14.889 C 246.541 16.481,246.367 26.869,244.990 28.246 L 243.981 29.255 228.411 29.128 C 211.316 28.987,212.307 28.843,212.784 31.400 C 213.093 33.060,213.853 33.135,230.654 33.170 L 244.708 33.200 245.354 34.186 C 246.508 35.947,246.311 63.289,245.136 64.464 L 244.272 65.328 221.636 65.057 C 201.127 64.812,198.953 64.724,198.500 64.117 C 197.935 63.360,197.783 51.761,198.327 50.905 C 198.567 50.527,202.488 50.384,214.821 50.305 L 231.000 50.200 231.000 48.400 L 231.000 46.600 215.000 46.498 C 200.525 46.407,198.952 46.333,198.500 45.722 C 198.121 45.211,198.000 41.491,198.000 30.400 C 198.000 15.313,198.050 14.812,199.600 14.290 C 199.930 14.179,210.157 14.064,222.327 14.033 L 244.454 13.978 245.214 14.889 M331.358 87.336 C 332.598 88.148,332.593 87.945,331.628 98.600 C 331.389 101.240,330.904 106.640,330.551 110.600 C 329.849 118.475,329.079 126.673,328.429 133.200 C 327.690 140.612,327.197 146.828,326.777 154.000 C 326.552 157.850,326.192 162.260,325.977 163.800 C 325.761 165.340,325.402 169.300,325.178 172.600 C 324.954 175.900,324.590 179.950,324.369 181.600 C 324.149 183.250,323.726 187.750,323.430 191.600 C 323.134 195.450,322.692 200.310,322.447 202.400 C 322.203 204.490,321.824 209.350,321.605 213.200 C 321.387 217.050,321.026 220.829,320.804 221.597 C 320.582 222.366,320.384 224.616,320.365 226.597 C 320.346 228.579,320.191 231.730,320.021 233.600 C 319.499 239.344,318.435 249.629,318.014 253.000 C 317.794 254.760,317.424 259.260,317.192 263.000 C 316.959 266.740,316.608 270.250,316.411 270.800 C 316.214 271.350,315.940 275.310,315.801 279.600 C 315.663 283.890,315.307 288.930,315.009 290.800 C 314.712 292.670,314.351 296.891,314.206 300.180 C 314.056 303.612,313.720 306.697,313.417 307.420 C 313.099 308.181,312.784 311.361,312.621 315.441 C 312.473 319.158,312.101 323.640,311.795 325.400 C 311.489 327.160,311.128 331.660,310.993 335.400 C 310.859 339.140,310.587 343.030,310.390 344.044 C 310.194 345.058,309.908 347.811,309.756 350.162 C 309.450 354.893,308.808 356.000,306.370 356.000 C 305.752 356.000,305.145 356.166,305.019 356.369 C 304.894 356.572,304.208 356.852,303.495 356.991 C 302.783 357.130,300.940 357.611,299.400 358.059 C 294.226 359.567,292.423 360.059,286.400 361.603 C 285.410 361.857,284.060 362.247,283.400 362.470 C 282.740 362.693,281.390 363.050,280.400 363.263 C 279.410 363.477,278.060 363.896,277.400 364.196 C 275.758 364.941,271.344 366.266,269.400 366.598 C 268.520 366.749,267.612 367.027,267.383 367.216 C 267.154 367.405,265.804 367.824,264.383 368.145 C 259.587 369.232,255.414 370.306,252.600 371.178 C 251.060 371.656,248.990 372.218,248.000 372.428 C 247.010 372.638,245.300 373.154,244.200 373.575 C 240.785 374.881,236.835 376.000,235.641 376.000 C 235.012 376.000,234.294 376.245,234.045 376.545 C 233.796 376.845,232.608 377.206,231.405 377.348 C 230.201 377.489,228.628 377.855,227.908 378.160 C 227.189 378.465,225.070 379.109,223.200 379.590 C 221.330 380.072,219.350 380.655,218.800 380.886 C 218.250 381.117,216.630 381.539,215.200 381.824 C 212.109 382.440,208.625 383.339,205.600 384.300 C 202.399 385.318,196.988 385.210,193.400 384.056 C 191.860 383.561,189.970 382.954,189.200 382.708 C 188.430 382.462,186.630 382.029,185.200 381.747 C 183.770 381.465,181.340 380.874,179.800 380.434 C 178.260 379.994,176.028 379.365,174.841 379.037 C 173.653 378.709,172.492 378.252,172.261 378.021 C 172.029 377.789,171.201 377.592,170.420 377.582 C 169.639 377.573,168.280 377.289,167.400 376.953 C 166.520 376.616,164.644 376.080,163.231 375.762 C 161.818 375.444,160.468 375.032,160.231 374.847 C 159.994 374.662,159.102 374.404,158.248 374.272 C 157.395 374.141,155.775 373.685,154.648 373.259 C 151.642 372.123,148.839 371.253,146.800 370.823 C 145.810 370.614,143.560 370.063,141.800 369.597 C 140.040 369.132,137.520 368.491,136.200 368.173 C 134.880 367.854,133.523 367.437,133.185 367.246 C 132.846 367.055,131.766 366.769,130.785 366.611 C 129.803 366.453,128.640 366.097,128.200 365.820 C 127.760 365.544,126.500 365.184,125.400 365.021 C 124.300 364.858,123.147 364.517,122.839 364.263 C 122.530 364.008,121.360 363.588,120.239 363.329 C 117.069 362.596,113.519 361.642,112.200 361.168 C 111.540 360.930,110.010 360.495,108.800 360.201 C 107.590 359.907,105.340 359.280,103.800 358.809 C 102.260 358.338,99.833 357.688,98.407 357.363 C 96.980 357.039,95.639 356.599,95.427 356.387 C 95.214 356.174,94.617 356.000,94.100 356.000 C 91.056 356.000,90.556 354.971,90.216 348.000 C 90.103 345.690,89.832 341.640,89.614 339.000 C 89.395 336.360,89.021 331.268,88.782 327.684 C 88.543 324.101,88.194 320.681,88.007 320.084 C 87.820 319.488,87.558 316.390,87.425 313.200 C 87.293 310.010,87.005 306.680,86.787 305.800 C 86.568 304.920,86.120 300.690,85.791 296.400 C 85.462 292.110,85.025 287.250,84.821 285.600 C 84.617 283.950,84.435 280.710,84.417 278.400 C 84.400 276.090,84.114 272.310,83.783 270.000 C 83.452 267.690,83.010 262.830,82.801 259.200 C 82.592 255.570,82.237 251.507,82.013 250.170 C 81.789 248.834,81.316 244.514,80.963 240.570 C 80.610 236.627,80.174 231.960,79.993 230.200 C 79.812 228.440,79.649 225.524,79.632 223.720 C 79.614 221.916,79.426 219.576,79.213 218.520 C 79.001 217.464,78.635 213.180,78.401 209.000 C 78.166 204.820,77.793 199.960,77.570 198.200 C 77.347 196.440,77.008 192.660,76.816 189.800 C 76.625 186.940,76.202 183.160,75.878 181.400 C 75.553 179.640,75.167 175.410,75.019 172.000 C 74.872 168.590,74.493 164.180,74.177 162.200 C 73.861 160.220,73.587 156.350,73.568 153.600 C 73.548 150.850,73.374 147.520,73.179 146.200 C 72.985 144.880,72.547 140.380,72.206 136.200 C 71.865 132.020,71.405 127.340,71.185 125.800 C 70.965 124.260,70.612 120.480,70.401 117.400 C 70.189 114.320,69.834 110.540,69.611 109.000 C 69.389 107.460,69.014 102.960,68.778 99.000 C 68.543 95.040,68.195 91.103,68.006 90.251 C 67.592 88.381,67.730 87.949,68.986 87.187 C 70.647 86.179,329.818 86.326,331.358 87.336 M175.000 143.192 L 162.200 143.400 161.980 153.000 C 161.859 158.280,161.808 190.590,161.867 224.800 C 161.941 267.633,161.843 287.408,161.552 288.312 C 161.089 289.753,159.957 289.808,156.913 288.537 C 156.205 288.242,155.092 288.000,154.439 288.000 C 153.786 288.000,152.745 287.790,152.126 287.532 C 151.507 287.275,149.650 286.754,148.000 286.375 C 146.350 285.995,143.740 285.294,142.200 284.818 C 140.660 284.341,138.500 283.766,137.400 283.540 C 136.300 283.314,135.220 282.989,135.000 282.817 C 134.780 282.645,133.880 282.382,133.000 282.233 C 130.494 281.809,124.312 280.020,123.138 279.379 C 122.554 279.061,121.592 278.800,120.999 278.800 C 120.406 278.800,119.354 278.540,118.660 278.222 C 117.426 277.656,113.370 276.800,111.921 276.800 C 111.224 276.800,111.195 277.472,111.295 291.048 L 111.400 305.295 114.200 306.065 C 115.740 306.488,118.209 307.092,119.687 307.406 C 121.166 307.720,122.696 308.155,123.087 308.373 C 123.479 308.590,124.610 308.945,125.600 309.162 C 126.590 309.379,129.110 310.036,131.200 310.621 C 133.290 311.207,135.990 311.929,137.200 312.227 C 138.410 312.525,140.750 313.149,142.400 313.613 C 144.050 314.077,146.390 314.693,147.600 314.981 C 148.810 315.269,150.469 315.797,151.287 316.153 C 152.105 316.509,153.419 316.800,154.207 316.800 C 154.995 316.800,156.126 317.045,156.720 317.344 C 157.314 317.644,158.570 318.007,159.512 318.151 C 160.453 318.295,162.433 318.783,163.912 319.236 C 165.390 319.688,167.500 320.304,168.600 320.604 C 172.517 321.673,175.046 322.382,178.400 323.354 C 180.270 323.895,182.462 324.448,183.271 324.582 C 184.080 324.716,184.800 324.997,184.871 325.206 C 184.942 325.416,185.900 325.635,187.000 325.694 L 189.000 325.800 189.200 234.872 C 189.393 147.279,189.347 142.688,188.280 142.892 C 188.016 142.942,182.040 143.077,175.000 143.192 M211.900 143.160 C 211.625 143.248,211.310 143.456,211.200 143.622 C 210.779 144.257,211.052 253.212,211.476 253.636 C 211.938 254.098,218.039 253.421,219.248 252.774 C 219.623 252.574,221.924 252.235,224.361 252.021 C 226.799 251.807,229.143 251.445,229.571 251.216 C 229.999 250.987,232.104 250.617,234.249 250.395 C 236.395 250.172,238.797 249.816,239.588 249.603 C 240.379 249.390,242.910 249.049,245.213 248.845 C 247.516 248.641,249.880 248.287,250.468 248.059 C 251.966 247.477,256.736 247.376,257.275 247.915 C 257.755 248.395,257.145 258.249,256.410 261.893 C 256.199 262.942,255.832 266.230,255.594 269.200 C 255.357 272.170,254.994 275.770,254.789 277.200 C 254.584 278.630,254.412 280.912,254.408 282.271 C 254.399 285.139,253.569 286.132,250.790 286.602 C 249.918 286.749,249.114 287.016,249.003 287.195 C 248.892 287.375,247.676 287.647,246.301 287.801 C 244.925 287.956,243.260 288.325,242.600 288.623 C 241.465 289.136,239.143 289.762,233.901 290.970 C 232.637 291.262,231.377 291.682,231.101 291.905 C 230.825 292.127,229.790 292.429,228.800 292.576 C 227.810 292.722,226.370 293.086,225.600 293.385 C 224.221 293.919,220.249 294.943,216.880 295.632 C 215.934 295.825,214.893 296.250,214.567 296.576 C 214.241 296.902,213.378 297.280,212.649 297.417 L 211.325 297.666 211.062 305.497 C 210.729 315.437,210.729 321.769,211.061 324.190 L 211.321 326.092 212.978 325.865 C 213.890 325.740,215.168 325.360,215.818 325.021 C 216.468 324.682,217.270 324.406,217.600 324.408 C 217.930 324.410,219.370 324.055,220.800 323.618 C 223.491 322.797,226.693 321.902,232.200 320.432 C 236.252 319.350,240.485 318.131,242.800 317.380 C 243.790 317.059,245.140 316.789,245.800 316.780 C 246.460 316.772,247.720 316.492,248.600 316.158 C 249.480 315.825,251.190 315.307,252.400 315.007 C 255.818 314.159,258.001 313.549,260.502 312.742 C 261.767 312.334,263.146 312.000,263.566 312.000 C 263.986 312.000,265.290 311.662,266.464 311.248 C 268.729 310.451,271.115 309.791,273.900 309.191 C 277.553 308.403,277.869 307.851,278.200 301.664 C 278.361 298.664,278.632 295.841,278.804 295.390 C 278.975 294.940,279.322 291.517,279.575 287.785 C 279.827 284.053,280.290 278.480,280.602 275.400 C 280.914 272.320,281.278 267.550,281.411 264.800 C 281.544 262.050,281.821 259.260,282.026 258.600 C 282.231 257.940,282.572 254.880,282.784 251.800 C 282.996 248.720,283.360 245.032,283.592 243.604 C 283.825 242.175,284.297 237.675,284.642 233.604 C 284.987 229.532,285.458 224.099,285.689 221.531 C 286.249 215.312,286.318 215.439,282.531 215.794 C 280.850 215.951,278.780 216.325,277.933 216.624 C 277.085 216.923,274.999 217.284,273.296 217.426 C 271.593 217.568,269.300 217.924,268.200 218.219 C 267.100 218.513,264.580 218.875,262.600 219.024 C 260.620 219.173,258.820 219.432,258.600 219.600 C 258.380 219.767,256.760 220.027,255.000 220.177 C 253.240 220.328,250.720 220.711,249.400 221.029 C 245.906 221.871,239.290 221.977,238.795 221.200 C 238.036 220.009,238.293 171.787,239.061 171.149 C 239.603 170.699,244.184 170.581,264.361 170.493 C 285.695 170.400,289.060 170.305,289.449 169.786 C 289.889 169.199,290.138 166.840,290.819 156.800 C 291.005 154.050,291.361 150.023,291.610 147.851 C 291.938 144.988,291.942 143.782,291.624 143.464 C 291.207 143.047,213.186 142.749,211.900 143.160 " stroke="none" fill="#f4f4f3" fill-rule="evenodd"></path><path id="path1" d="M199.600 88.000 L 69.400 88.200 69.535 92.000 C 69.609 94.090,69.837 97.510,70.043 99.600 C 70.248 101.690,70.675 106.669,70.992 110.664 C 71.308 114.659,71.666 118.349,71.786 118.864 C 71.907 119.379,72.269 123.580,72.590 128.200 C 72.911 132.820,73.348 137.590,73.560 138.800 C 73.773 140.010,74.058 143.160,74.195 145.800 C 74.331 148.440,74.692 153.120,74.997 156.200 C 75.303 159.280,75.669 164.050,75.812 166.800 C 75.954 169.550,76.225 172.631,76.415 173.646 C 76.604 174.662,76.947 178.172,77.176 181.446 C 77.405 184.721,77.784 188.750,78.017 190.400 C 78.429 193.315,79.064 201.184,80.179 217.200 C 80.478 221.490,80.923 226.440,81.169 228.200 C 81.598 231.270,82.230 238.550,83.375 253.600 C 83.667 257.450,84.103 261.950,84.343 263.600 C 84.582 265.250,84.963 269.750,85.189 273.600 C 85.415 277.450,85.775 282.310,85.988 284.400 C 86.507 289.496,87.103 296.245,87.614 302.800 C 87.845 305.770,88.308 310.450,88.643 313.200 C 89.244 318.138,89.820 325.214,90.989 342.000 C 91.811 353.814,91.982 354.402,94.800 355.095 C 96.010 355.393,97.567 355.898,98.260 356.218 C 98.954 356.538,99.944 356.799,100.460 356.798 C 100.977 356.797,102.210 357.060,103.200 357.383 C 107.974 358.939,111.725 360.000,112.451 360.000 C 112.892 360.000,113.633 360.204,114.098 360.452 C 114.563 360.701,115.946 361.136,117.172 361.419 C 118.397 361.703,120.660 362.324,122.200 362.800 C 126.702 364.193,130.429 365.236,132.961 365.813 C 134.259 366.108,135.429 366.516,135.561 366.719 C 135.692 366.923,136.700 367.210,137.800 367.359 C 138.900 367.507,140.430 367.876,141.200 368.179 C 142.644 368.747,146.302 369.714,149.791 370.449 C 150.886 370.680,152.086 371.032,152.458 371.231 C 153.128 371.590,155.194 372.196,160.600 373.622 C 165.242 374.846,174.404 377.412,178.600 378.664 C 179.700 378.993,181.500 379.486,182.600 379.762 C 183.700 380.037,184.902 380.397,185.271 380.563 C 185.640 380.728,186.990 381.106,188.271 381.403 C 192.962 382.489,196.711 383.524,197.519 383.957 C 198.689 384.583,201.848 384.507,203.340 383.818 C 204.033 383.497,205.680 382.968,207.000 382.641 C 210.124 381.868,212.928 381.122,217.600 379.819 C 221.267 378.797,225.214 377.718,229.400 376.594 C 230.500 376.299,232.750 375.665,234.400 375.187 C 236.050 374.708,238.300 374.080,239.400 373.791 C 240.500 373.501,241.940 373.085,242.600 372.866 C 243.260 372.647,245.420 371.997,247.400 371.422 C 249.380 370.847,251.810 370.121,252.800 369.808 C 253.790 369.496,255.410 369.116,256.400 368.965 C 257.390 368.814,258.388 368.544,258.617 368.365 C 258.846 368.186,260.196 367.771,261.617 367.442 C 263.038 367.114,265.550 366.459,267.200 365.987 C 268.850 365.515,271.370 364.800,272.800 364.398 C 274.230 363.996,276.660 363.278,278.200 362.804 C 279.740 362.329,282.125 361.706,283.500 361.419 C 284.876 361.132,286.226 360.716,286.500 360.494 C 286.775 360.272,287.810 359.959,288.800 359.799 C 289.790 359.638,290.932 359.333,291.338 359.119 C 291.743 358.906,294.263 358.195,296.938 357.539 C 299.612 356.883,302.351 356.096,303.025 355.790 C 303.699 355.484,304.986 355.116,305.885 354.972 C 308.188 354.604,308.684 353.244,309.008 346.400 C 309.149 343.430,309.433 339.650,309.639 338.000 C 309.845 336.350,310.195 331.850,310.417 328.000 C 310.639 324.150,310.997 319.885,311.214 318.522 C 311.431 317.160,311.875 312.660,312.201 308.522 C 312.527 304.385,312.970 299.290,313.185 297.200 C 313.844 290.803,314.399 283.811,314.987 274.486 C 315.296 269.583,315.736 264.633,315.964 263.486 C 316.192 262.339,316.572 258.250,316.808 254.400 C 317.043 250.550,317.399 246.860,317.598 246.200 C 317.796 245.540,318.152 241.615,318.388 237.478 C 318.625 233.341,318.990 229.111,319.200 228.078 C 319.410 227.045,319.759 222.690,319.974 218.400 C 320.190 214.110,320.554 209.971,320.783 209.203 C 321.012 208.434,321.206 206.454,321.213 204.803 C 321.221 203.151,321.406 199.910,321.626 197.600 C 321.845 195.290,322.373 189.620,322.799 185.000 C 323.226 180.380,323.761 174.800,323.989 172.600 C 324.663 166.094,325.149 159.966,325.766 150.200 C 326.085 145.140,326.537 140.153,326.771 139.119 C 327.004 138.084,327.299 134.844,327.425 131.919 C 327.552 128.993,327.904 124.980,328.208 123.000 C 328.512 121.020,328.868 117.150,328.999 114.400 C 329.131 111.650,329.491 107.150,329.800 104.400 C 330.108 101.650,330.473 97.330,330.609 94.800 C 330.746 92.270,330.951 89.810,331.064 89.333 C 331.204 88.743,331.035 88.359,330.535 88.133 C 330.131 87.950,271.210 87.890,199.600 88.000 M190.037 142.245 C 190.847 143.221,190.941 325.376,190.131 326.700 C 189.550 327.651,188.448 327.852,187.295 327.218 C 186.152 326.590,179.945 324.800,178.909 324.800 C 178.380 324.800,177.554 324.588,177.074 324.328 C 176.193 323.852,173.895 323.216,169.304 322.178 C 167.931 321.868,166.183 321.353,165.419 321.034 C 164.655 320.715,163.169 320.329,162.115 320.176 C 161.062 320.024,160.020 319.769,159.800 319.611 C 159.580 319.453,157.690 318.914,155.600 318.414 C 153.510 317.914,150.720 317.179,149.400 316.781 C 146.664 315.956,143.203 315.006,140.000 314.200 C 138.790 313.895,136.720 313.355,135.400 313.000 C 134.080 312.644,132.100 312.110,131.000 311.814 C 129.900 311.518,127.740 310.901,126.200 310.444 C 124.660 309.987,122.680 309.439,121.800 309.227 C 120.303 308.865,118.924 308.494,113.056 306.871 C 111.247 306.370,110.627 305.998,110.338 305.236 C 109.661 303.457,110.088 276.044,110.800 275.571 C 111.439 275.146,114.279 275.414,114.980 275.965 C 115.211 276.147,116.120 276.417,117.000 276.565 C 117.880 276.713,119.410 277.085,120.400 277.392 C 125.562 278.991,131.498 280.665,136.800 282.018 C 138.670 282.495,141.280 283.211,142.600 283.610 C 143.920 284.009,145.630 284.461,146.400 284.614 C 147.170 284.767,147.980 285.026,148.200 285.189 C 148.420 285.352,149.770 285.708,151.200 285.980 C 152.630 286.252,153.980 286.617,154.200 286.789 C 154.930 287.363,159.365 287.935,160.090 287.550 C 160.738 287.205,160.780 282.929,160.795 215.314 C 160.808 151.898,160.881 143.336,161.414 142.522 L 162.018 141.600 175.760 141.600 C 187.909 141.600,189.564 141.675,190.037 142.245 M292.445 142.484 C 292.936 143.401,292.259 157.901,291.595 160.715 C 291.372 161.658,291.162 164.139,291.129 166.229 C 291.036 171.995,294.005 171.382,265.554 171.509 C 243.524 171.607,240.970 171.684,240.320 172.272 C 239.638 172.889,239.599 174.253,239.623 196.420 C 239.651 222.905,239.484 221.498,242.532 220.815 C 243.584 220.580,246.262 220.200,248.484 219.972 C 250.706 219.744,253.523 219.297,254.746 218.979 C 255.968 218.660,257.727 218.400,258.655 218.400 C 259.582 218.400,262.109 218.060,264.271 217.644 C 266.432 217.228,269.550 216.766,271.200 216.617 C 272.850 216.469,274.971 216.089,275.914 215.774 C 276.857 215.458,278.477 215.196,279.514 215.190 C 280.551 215.185,282.204 214.995,283.187 214.769 C 286.396 214.029,287.920 215.089,287.210 217.566 C 287.010 218.263,286.638 222.111,286.384 226.117 C 286.130 230.123,285.781 233.580,285.608 233.800 C 285.434 234.020,285.170 236.720,285.020 239.800 C 284.870 242.880,284.503 247.020,284.204 249.000 C 283.906 250.980,283.541 254.580,283.395 257.000 C 283.249 259.420,282.956 262.660,282.745 264.200 C 282.533 265.740,282.101 270.510,281.783 274.800 C 281.465 279.090,281.028 284.220,280.810 286.200 C 280.592 288.180,280.235 292.140,280.016 295.000 C 279.450 302.399,278.607 307.966,277.958 308.604 C 277.329 309.223,271.513 311.200,270.323 311.200 C 269.896 311.200,269.222 311.374,268.825 311.587 C 268.428 311.799,266.954 312.228,265.551 312.539 C 264.148 312.850,262.460 313.299,261.800 313.537 C 261.140 313.775,258.710 314.444,256.400 315.024 C 254.090 315.604,251.882 316.245,251.493 316.447 C 251.105 316.649,249.665 317.064,248.293 317.368 C 246.922 317.672,244.360 318.315,242.600 318.797 C 231.083 321.951,228.383 322.701,226.000 323.406 C 224.790 323.764,222.777 324.295,221.526 324.586 C 220.275 324.876,218.475 325.389,217.526 325.725 C 211.869 327.727,210.021 327.910,209.981 326.473 C 209.971 326.103,209.978 319.410,209.997 311.600 C 210.037 295.201,209.667 296.564,214.400 295.412 C 216.050 295.010,217.588 294.537,217.817 294.361 C 218.046 294.184,219.441 293.761,220.917 293.420 C 222.393 293.079,224.807 292.521,226.283 292.180 C 227.759 291.839,229.182 291.381,229.446 291.162 C 229.710 290.943,230.798 290.600,231.863 290.400 C 232.928 290.201,235.060 289.675,236.600 289.232 C 238.140 288.790,240.480 288.146,241.800 287.801 C 243.120 287.457,245.100 286.919,246.200 286.606 C 247.300 286.293,248.948 285.846,249.862 285.613 C 252.982 284.818,253.144 284.495,253.592 278.200 C 253.810 275.120,254.165 271.520,254.379 270.200 C 254.594 268.880,255.048 264.920,255.389 261.400 C 255.730 257.880,256.155 253.930,256.334 252.622 C 256.513 251.314,256.577 249.812,256.476 249.285 C 256.275 248.235,256.701 248.246,251.200 249.143 C 249.770 249.376,247.160 249.763,245.400 250.003 C 240.221 250.708,235.158 251.494,232.800 251.957 C 231.590 252.195,229.340 252.560,227.800 252.767 C 221.395 253.629,216.058 254.468,213.869 254.957 C 209.520 255.927,209.973 262.466,209.966 198.654 C 209.960 146.884,210.006 143.057,210.641 142.355 C 211.734 141.147,291.797 141.273,292.445 142.484 " stroke="none" fill="#edce2d" fill-rule="evenodd"></path><path id="path2" d="M179.077 15.856 C 178.925 16.009,178.800 23.897,178.800 33.387 C 178.800 46.273,178.678 50.762,178.320 51.120 C 177.973 51.467,175.105 51.600,167.934 51.600 C 156.225 51.600,157.200 51.055,157.200 57.600 C 157.200 64.282,155.294 63.600,173.965 63.600 C 186.927 63.600,189.986 63.498,190.354 63.055 C 190.682 62.660,190.778 56.072,190.703 39.155 L 190.600 15.800 184.977 15.689 C 181.885 15.629,179.230 15.704,179.077 15.856 M199.700 15.863 C 198.856 16.206,198.986 44.232,199.833 44.557 C 200.181 44.691,207.435 44.800,215.953 44.800 C 233.516 44.800,232.400 44.565,232.400 48.266 C 232.400 51.770,233.261 51.600,215.506 51.600 C 204.104 51.600,200.037 51.723,199.680 52.080 C 198.778 52.982,199.035 62.683,199.974 63.186 C 200.480 63.457,208.229 63.600,222.366 63.600 L 243.985 63.600 244.204 62.700 C 244.325 62.205,244.373 55.680,244.312 48.200 L 244.200 34.600 228.361 34.400 C 210.226 34.171,211.200 34.375,211.200 30.800 C 211.200 27.436,210.233 27.623,228.235 27.505 L 244.200 27.400 244.200 21.600 L 244.200 15.800 222.200 15.730 C 210.100 15.691,199.975 15.751,199.700 15.863 " stroke="none" fill="#0b0b0b" fill-rule="evenodd"></path><path id="path3" d="M178.217 14.898 C 177.698 15.638,177.614 17.241,177.686 24.989 L 177.772 34.200 177.986 24.685 C 178.243 13.280,177.521 14.285,185.200 14.631 C 192.578 14.963,191.960 14.183,192.101 23.342 L 192.218 31.000 192.309 23.329 L 192.400 15.658 191.430 14.895 C 189.837 13.642,179.095 13.644,178.217 14.898 M199.300 14.425 C 198.805 14.617,198.400 14.825,198.399 14.887 C 198.399 14.949,202.584 14.887,207.699 14.750 C 212.815 14.612,223.161 14.477,230.691 14.450 L 244.382 14.400 245.030 15.390 C 245.879 16.686,245.734 26.676,244.851 27.739 C 244.359 28.331,242.656 28.406,228.451 28.459 C 219.265 28.493,213.609 28.643,215.000 28.817 C 216.320 28.982,223.400 29.129,230.733 29.144 L 244.065 29.171 245.033 28.204 C 246.370 26.867,246.512 16.445,245.214 14.889 L 244.454 13.978 222.327 14.027 C 210.157 14.054,199.795 14.233,199.300 14.425 M198.166 22.800 C 198.166 26.870,198.225 28.535,198.298 26.500 C 198.371 24.465,198.371 21.135,198.298 19.100 C 198.225 17.065,198.166 18.730,198.166 22.800 M212.447 31.067 C 212.354 32.770,212.792 33.203,214.543 33.143 L 216.200 33.086 214.602 32.843 C 213.229 32.634,212.969 32.431,212.750 31.400 C 212.565 30.531,212.482 30.439,212.447 31.067 M244.571 33.829 C 245.442 34.699,245.531 63.627,244.665 64.346 C 244.301 64.648,239.547 64.825,229.765 64.900 L 215.400 65.010 229.900 65.105 C 243.933 65.197,244.426 65.174,245.200 64.400 C 247.067 62.533,246.245 33.200,244.325 33.200 C 244.115 33.200,244.226 33.483,244.571 33.829 M177.701 36.200 C 177.705 37.080,177.787 37.393,177.883 36.895 C 177.979 36.398,177.975 35.678,177.875 35.295 C 177.775 34.913,177.696 35.320,177.701 36.200 M198.000 44.635 C 198.000 46.374,198.157 46.392,215.000 46.498 L 231.000 46.600 231.000 48.463 C 231.000 49.487,231.135 50.242,231.300 50.139 C 231.784 49.839,231.644 47.004,231.120 46.480 C 230.763 46.123,226.618 46.000,214.943 46.000 L 199.245 46.000 198.623 45.111 C 198.280 44.622,198.000 44.408,198.000 44.635 M177.502 49.400 C 177.397 49.950,177.466 50.400,177.655 50.400 C 177.845 50.400,178.000 49.950,178.000 49.400 C 178.000 48.850,177.931 48.400,177.847 48.400 C 177.762 48.400,177.607 48.850,177.502 49.400 M156.749 51.100 C 156.271 51.709,156.278 51.740,156.800 51.338 C 157.130 51.084,157.850 50.794,158.400 50.693 L 159.400 50.509 158.349 50.454 C 157.770 50.424,157.052 50.714,156.749 51.100 M164.122 50.699 C 166.499 50.770,170.279 50.769,172.522 50.698 C 174.765 50.627,172.820 50.569,168.200 50.569 C 163.580 50.570,161.745 50.628,164.122 50.699 M198.190 51.230 C 198.046 51.687,198.033 52.167,198.163 52.297 C 198.294 52.427,198.400 52.242,198.400 51.887 C 198.400 51.531,198.715 51.056,199.100 50.832 C 199.739 50.460,199.741 50.423,199.127 50.412 C 198.757 50.405,198.335 50.774,198.190 51.230 M217.705 50.687 C 218.314 50.779,219.214 50.777,219.705 50.682 C 220.197 50.587,219.700 50.511,218.600 50.514 C 217.500 50.517,217.097 50.595,217.705 50.687 M222.105 50.687 C 222.714 50.779,223.614 50.777,224.105 50.682 C 224.597 50.587,224.100 50.511,223.000 50.514 C 221.900 50.517,221.497 50.595,222.105 50.687 M226.900 50.687 C 227.505 50.778,228.495 50.778,229.100 50.687 C 229.705 50.595,229.210 50.520,228.000 50.520 C 226.790 50.520,226.295 50.595,226.900 50.687 M156.114 55.400 C 156.117 56.500,156.195 56.903,156.287 56.295 C 156.379 55.686,156.377 54.786,156.282 54.295 C 156.187 53.803,156.111 54.300,156.114 55.400 M155.973 60.600 C 155.735 62.700,156.193 64.800,156.888 64.800 C 157.159 64.800,157.153 64.625,156.870 64.285 C 156.635 64.001,156.388 62.606,156.321 61.185 L 156.200 58.600 155.973 60.600 M192.000 62.400 C 192.000 62.840,191.640 63.560,191.200 64.000 C 190.760 64.440,190.567 64.800,190.771 64.800 C 191.478 64.800,192.400 63.539,192.400 62.571 C 192.400 62.037,192.310 61.600,192.200 61.600 C 192.090 61.600,192.000 61.960,192.000 62.400 M164.300 65.099 C 168.095 65.165,174.305 65.165,178.100 65.099 C 181.895 65.034,178.790 64.980,171.200 64.980 C 163.610 64.980,160.505 65.034,164.300 65.099 M68.986 87.187 C 67.730 87.949,67.592 88.381,68.006 90.251 C 68.195 91.103,68.543 95.040,68.778 99.000 C 69.014 102.960,69.389 107.460,69.611 109.000 C 69.834 110.540,70.189 114.320,70.401 117.400 C 70.612 120.480,70.965 124.260,71.185 125.800 C 71.405 127.340,71.865 132.020,72.206 136.200 C 72.547 140.380,72.985 144.880,73.179 146.200 C 73.374 147.520,73.548 150.850,73.568 153.600 C 73.587 156.350,73.861 160.220,74.177 162.200 C 74.493 164.180,74.872 168.590,75.019 172.000 C 75.167 175.410,75.553 179.640,75.878 181.400 C 76.202 183.160,76.625 186.940,76.816 189.800 C 77.008 192.660,77.347 196.440,77.570 198.200 C 77.793 199.960,78.166 204.820,78.401 209.000 C 78.635 213.180,79.001 217.464,79.213 218.520 C 79.426 219.576,79.614 221.916,79.632 223.720 C 79.649 225.524,79.812 228.440,79.993 230.200 C 80.174 231.960,80.610 236.627,80.963 240.570 C 81.316 244.514,81.789 248.834,82.013 250.170 C 82.237 251.507,82.592 255.570,82.801 259.200 C 83.010 262.830,83.452 267.690,83.783 270.000 C 84.114 272.310,84.400 276.090,84.417 278.400 C 84.435 280.710,84.617 283.950,84.821 285.600 C 85.025 287.250,85.462 292.110,85.791 296.400 C 86.120 300.690,86.568 304.920,86.787 305.800 C 87.005 306.680,87.293 310.010,87.425 313.200 C 87.558 316.390,87.820 319.488,88.007 320.084 C 88.194 320.681,88.543 324.101,88.782 327.684 C 89.021 331.268,89.395 336.360,89.614 339.000 C 89.832 341.640,90.103 345.690,90.216 348.000 C 90.556 354.971,91.056 356.000,94.100 356.000 C 94.617 356.000,95.214 356.174,95.427 356.387 C 95.639 356.599,96.980 357.039,98.407 357.363 C 99.833 357.688,102.260 358.338,103.800 358.809 C 105.340 359.280,107.590 359.907,108.800 360.201 C 110.010 360.495,111.540 360.930,112.200 361.168 C 113.519 361.642,117.069 362.596,120.239 363.329 C 121.360 363.588,122.530 364.008,122.839 364.263 C 123.147 364.517,124.300 364.858,125.400 365.021 C 126.500 365.184,127.760 365.544,128.200 365.820 C 128.640 366.097,129.803 366.453,130.785 366.611 C 131.766 366.769,132.846 367.055,133.185 367.246 C 133.523 367.437,134.880 367.854,136.200 368.173 C 137.520 368.491,140.040 369.132,141.800 369.597 C 143.560 370.063,145.810 370.614,146.800 370.823 C 148.839 371.253,151.642 372.123,154.648 373.259 C 155.775 373.685,157.395 374.141,158.248 374.272 C 159.102 374.404,159.994 374.662,160.231 374.847 C 160.468 375.032,161.818 375.444,163.231 375.762 C 164.644 376.080,166.520 376.616,167.400 376.953 C 168.280 377.289,169.639 377.573,170.420 377.582 C 171.201 377.592,172.029 377.789,172.261 378.021 C 172.492 378.252,173.653 378.709,174.841 379.037 C 176.028 379.365,178.260 379.994,179.800 380.434 C 181.340 380.874,183.770 381.465,185.200 381.747 C 186.630 382.029,188.430 382.462,189.200 382.708 C 189.970 382.954,191.860 383.561,193.400 384.056 C 196.988 385.210,202.399 385.318,205.600 384.300 C 208.625 383.339,212.109 382.440,215.200 381.824 C 216.630 381.539,218.250 381.117,218.800 380.886 C 219.350 380.655,221.330 380.072,223.200 379.590 C 225.070 379.109,227.189 378.465,227.908 378.160 C 228.628 377.855,230.201 377.489,231.405 377.348 C 232.608 377.206,233.796 376.845,234.045 376.545 C 234.294 376.245,235.012 376.000,235.641 376.000 C 236.835 376.000,240.785 374.881,244.200 373.575 C 245.300 373.154,247.010 372.638,248.000 372.428 C 248.990 372.218,251.060 371.656,252.600 371.178 C 255.414 370.306,259.587 369.232,264.383 368.145 C 265.804 367.824,267.154 367.405,267.383 367.216 C 267.612 367.027,268.520 366.749,269.400 366.598 C 271.344 366.266,275.758 364.941,277.400 364.196 C 278.060 363.896,279.410 363.477,280.400 363.263 C 281.390 363.050,282.740 362.693,283.400 362.470 C 284.060 362.247,285.410 361.857,286.400 361.603 C 292.423 360.059,294.226 359.567,299.400 358.059 C 300.940 357.611,302.783 357.130,303.495 356.991 C 304.208 356.852,304.894 356.572,305.019 356.369 C 305.145 356.166,305.752 356.000,306.370 356.000 C 308.808 356.000,309.450 354.893,309.756 350.162 C 309.908 347.811,310.194 345.058,310.390 344.044 C 310.587 343.030,310.859 339.140,310.993 335.400 C 311.128 331.660,311.489 327.160,311.795 325.400 C 312.101 323.640,312.473 319.158,312.621 315.441 C 312.784 311.361,313.099 308.181,313.417 307.420 C 313.720 306.697,314.056 303.612,314.206 300.180 C 314.351 296.891,314.712 292.670,315.009 290.800 C 315.307 288.930,315.663 283.890,315.801 279.600 C 315.940 275.310,316.214 271.350,316.411 270.800 C 316.608 270.250,316.959 266.740,317.192 263.000 C 317.424 259.260,317.794 254.760,318.014 253.000 C 318.435 249.629,319.499 239.344,320.021 233.600 C 320.191 231.730,320.346 228.579,320.365 226.597 C 320.384 224.616,320.582 222.366,320.804 221.597 C 321.026 220.829,321.387 217.050,321.605 213.200 C 321.824 209.350,322.203 204.490,322.447 202.400 C 322.692 200.310,323.134 195.450,323.430 191.600 C 323.726 187.750,324.149 183.250,324.369 181.600 C 324.590 179.950,324.954 175.900,325.178 172.600 C 325.402 169.300,325.761 165.340,325.977 163.800 C 326.192 162.260,326.552 157.850,326.777 154.000 C 327.197 146.828,327.690 140.612,328.429 133.200 C 329.079 126.673,329.849 118.475,330.551 110.600 C 330.904 106.640,331.389 101.240,331.628 98.600 C 332.593 87.945,332.598 88.148,331.358 87.336 C 329.818 86.326,70.647 86.179,68.986 87.187 M331.064 89.333 C 330.951 89.810,330.746 92.270,330.609 94.800 C 330.473 97.330,330.108 101.650,329.800 104.400 C 329.491 107.150,329.131 111.650,328.999 114.400 C 328.868 117.150,328.512 121.020,328.208 123.000 C 327.904 124.980,327.552 128.993,327.425 131.919 C 327.299 134.844,327.004 138.084,326.771 139.119 C 326.537 140.153,326.085 145.140,325.766 150.200 C 325.149 159.966,324.663 166.094,323.989 172.600 C 323.761 174.800,323.226 180.380,322.799 185.000 C 322.373 189.620,321.845 195.290,321.626 197.600 C 321.406 199.910,321.221 203.151,321.213 204.803 C 321.206 206.454,321.012 208.434,320.783 209.203 C 320.554 209.971,320.190 214.110,319.974 218.400 C 319.759 222.690,319.410 227.045,319.200 228.078 C 318.990 229.111,318.625 233.341,318.388 237.478 C 318.152 241.615,317.796 245.540,317.598 246.200 C 317.399 246.860,317.043 250.550,316.808 254.400 C 316.572 258.250,316.192 262.339,315.964 263.486 C 315.736 264.633,315.296 269.583,314.987 274.486 C 314.399 283.811,313.844 290.803,313.185 297.200 C 312.970 299.290,312.527 304.385,312.201 308.522 C 311.875 312.660,311.431 317.160,311.214 318.522 C 310.997 319.885,310.639 324.150,310.417 328.000 C 310.195 331.850,309.845 336.350,309.639 338.000 C 309.433 339.650,309.149 343.430,309.008 346.400 C 308.684 353.244,308.188 354.604,305.885 354.972 C 304.986 355.116,303.699 355.484,303.025 355.790 C 302.351 356.096,299.612 356.883,296.938 357.539 C 294.263 358.195,291.743 358.906,291.338 359.119 C 290.932 359.333,289.790 359.638,288.800 359.799 C 287.810 359.959,286.775 360.272,286.500 360.494 C 286.226 360.716,284.876 361.132,283.500 361.419 C 282.125 361.706,279.740 362.329,278.200 362.804 C 276.660 363.278,274.230 363.996,272.800 364.398 C 271.370 364.800,268.850 365.515,267.200 365.987 C 265.550 366.459,263.038 367.114,261.617 367.442 C 260.196 367.771,258.846 368.186,258.617 368.365 C 258.388 368.544,257.390 368.814,256.400 368.965 C 255.410 369.116,253.790 369.496,252.800 369.808 C 251.810 370.121,249.380 370.847,247.400 371.422 C 245.420 371.997,243.260 372.647,242.600 372.866 C 241.940 373.085,240.500 373.501,239.400 373.791 C 238.300 374.080,236.050 374.708,234.400 375.187 C 232.750 375.665,230.500 376.299,229.400 376.594 C 225.214 377.718,221.267 378.797,217.600 379.819 C 212.928 381.122,210.124 381.868,207.000 382.641 C 205.680 382.968,204.033 383.497,203.340 383.818 C 201.848 384.507,198.689 384.583,197.519 383.957 C 196.711 383.524,192.962 382.489,188.271 381.403 C 186.990 381.106,185.640 380.728,185.271 380.563 C 184.902 380.397,183.700 380.037,182.600 379.762 C 181.500 379.486,179.700 378.993,178.600 378.664 C 174.404 377.412,165.242 374.846,160.600 373.622 C 155.194 372.196,153.128 371.590,152.458 371.231 C 152.086 371.032,150.886 370.680,149.791 370.449 C 146.302 369.714,142.644 368.747,141.200 368.179 C 140.430 367.876,138.900 367.507,137.800 367.359 C 136.700 367.210,135.692 366.923,135.561 366.719 C 135.429 366.516,134.259 366.108,132.961 365.813 C 130.429 365.236,126.702 364.193,122.200 362.800 C 120.660 362.324,118.397 361.703,117.172 361.419 C 115.946 361.136,114.563 360.701,114.098 360.452 C 113.633 360.204,112.892 360.000,112.451 360.000 C 111.725 360.000,107.974 358.939,103.200 357.383 C 102.210 357.060,100.977 356.797,100.460 356.798 C 99.944 356.799,98.954 356.538,98.260 356.218 C 97.567 355.898,96.010 355.393,94.800 355.095 C 91.982 354.402,91.811 353.814,90.989 342.000 C 89.820 325.214,89.244 318.138,88.643 313.200 C 88.308 310.450,87.845 305.770,87.614 302.800 C 87.103 296.245,86.507 289.496,85.988 284.400 C 85.775 282.310,85.415 277.450,85.189 273.600 C 84.963 269.750,84.582 265.250,84.343 263.600 C 84.103 261.950,83.667 257.450,83.375 253.600 C 82.230 238.550,81.598 231.270,81.169 228.200 C 80.923 226.440,80.478 221.490,80.179 217.200 C 79.064 201.184,78.429 193.315,78.017 190.400 C 77.784 188.750,77.405 184.721,77.176 181.446 C 76.947 178.172,76.604 174.662,76.415 173.646 C 76.225 172.631,75.954 169.550,75.812 166.800 C 75.669 164.050,75.303 159.280,74.997 156.200 C 74.692 153.120,74.331 148.440,74.195 145.800 C 74.058 143.160,73.773 140.010,73.560 138.800 C 73.348 137.590,72.911 132.820,72.590 128.200 C 72.269 123.580,71.907 119.379,71.786 118.864 C 71.666 118.349,71.308 114.659,70.992 110.664 C 70.675 106.669,70.248 101.690,70.043 99.600 C 69.837 97.510,69.609 94.090,69.535 92.000 L 69.400 88.200 199.600 88.000 C 271.210 87.890,330.131 87.950,330.535 88.133 C 331.035 88.359,331.204 88.743,331.064 89.333 M161.414 142.522 C 160.881 143.336,160.808 151.898,160.795 215.314 C 160.780 282.929,160.738 287.205,160.090 287.550 C 159.365 287.935,154.930 287.363,154.200 286.789 C 153.980 286.617,152.630 286.252,151.200 285.980 C 149.770 285.708,148.420 285.352,148.200 285.189 C 147.980 285.026,147.170 284.767,146.400 284.614 C 145.630 284.461,143.920 284.009,142.600 283.610 C 141.280 283.211,138.670 282.495,136.800 282.018 C 131.498 280.665,125.562 278.991,120.400 277.392 C 119.410 277.085,117.880 276.713,117.000 276.565 C 116.120 276.417,115.211 276.147,114.980 275.965 C 114.279 275.414,111.439 275.146,110.800 275.571 C 110.088 276.044,109.661 303.457,110.338 305.236 C 110.627 305.998,111.247 306.370,113.056 306.871 C 118.924 308.494,120.303 308.865,121.800 309.227 C 122.680 309.439,124.660 309.987,126.200 310.444 C 127.740 310.901,129.900 311.518,131.000 311.814 C 132.100 312.110,134.080 312.644,135.400 313.000 C 136.720 313.355,138.790 313.895,140.000 314.200 C 143.203 315.006,146.664 315.956,149.400 316.781 C 150.720 317.179,153.510 317.914,155.600 318.414 C 157.690 318.914,159.580 319.453,159.800 319.611 C 160.020 319.769,161.062 320.024,162.115 320.176 C 163.169 320.329,164.655 320.715,165.419 321.034 C 166.183 321.353,167.931 321.868,169.304 322.178 C 173.895 323.216,176.193 323.852,177.074 324.328 C 177.554 324.588,178.380 324.800,178.909 324.800 C 179.945 324.800,186.152 326.590,187.295 327.218 C 188.448 327.852,189.550 327.651,190.131 326.700 C 190.941 325.376,190.847 143.221,190.037 142.245 C 189.564 141.675,187.909 141.600,175.760 141.600 L 162.018 141.600 161.414 142.522 M210.641 142.355 C 210.006 143.057,209.960 146.884,209.966 198.654 C 209.973 262.466,209.520 255.927,213.869 254.957 C 216.058 254.468,221.395 253.629,227.800 252.767 C 229.340 252.560,231.590 252.195,232.800 251.957 C 235.158 251.494,240.221 250.708,245.400 250.003 C 247.160 249.763,249.770 249.376,251.200 249.143 C 256.701 248.246,256.275 248.235,256.476 249.285 C 256.577 249.812,256.513 251.314,256.334 252.622 C 256.155 253.930,255.730 257.880,255.389 261.400 C 255.048 264.920,254.594 268.880,254.379 270.200 C 254.165 271.520,253.810 275.120,253.592 278.200 C 253.144 284.495,252.982 284.818,249.862 285.613 C 248.948 285.846,247.300 286.293,246.200 286.606 C 245.100 286.919,243.120 287.457,241.800 287.801 C 240.480 288.146,238.140 288.790,236.600 289.232 C 235.060 289.675,232.928 290.201,231.863 290.400 C 230.798 290.600,229.710 290.943,229.446 291.162 C 229.182 291.381,227.759 291.839,226.283 292.180 C 224.807 292.521,222.393 293.079,220.917 293.420 C 219.441 293.761,218.046 294.184,217.817 294.361 C 217.588 294.537,216.050 295.010,214.400 295.412 C 209.667 296.564,210.037 295.201,209.997 311.600 C 209.978 319.410,209.971 326.103,209.981 326.473 C 210.021 327.910,211.869 327.727,217.526 325.725 C 218.475 325.389,220.275 324.876,221.526 324.586 C 222.777 324.295,224.790 323.764,226.000 323.406 C 228.383 322.701,231.083 321.951,242.600 318.797 C 244.360 318.315,246.922 317.672,248.293 317.368 C 249.665 317.064,251.105 316.649,251.493 316.447 C 251.882 316.245,254.090 315.604,256.400 315.024 C 258.710 314.444,261.140 313.775,261.800 313.537 C 262.460 313.299,264.148 312.850,265.551 312.539 C 266.954 312.228,268.428 311.799,268.825 311.587 C 269.222 311.374,269.896 311.200,270.323 311.200 C 271.513 311.200,277.329 309.223,277.958 308.604 C 278.607 307.966,279.450 302.399,280.016 295.000 C 280.235 292.140,280.592 288.180,280.810 286.200 C 281.028 284.220,281.465 279.090,281.783 274.800 C 282.101 270.510,282.533 265.740,282.745 264.200 C 282.956 262.660,283.249 259.420,283.395 257.000 C 283.541 254.580,283.906 250.980,284.204 249.000 C 284.503 247.020,284.870 242.880,285.020 239.800 C 285.170 236.720,285.434 234.020,285.608 233.800 C 285.781 233.580,286.130 230.123,286.384 226.117 C 286.638 222.111,287.010 218.263,287.210 217.566 C 287.920 215.089,286.396 214.029,283.187 214.769 C 282.204 214.995,280.551 215.185,279.514 215.190 C 278.477 215.196,276.857 215.458,275.914 215.774 C 274.971 216.089,272.850 216.469,271.200 216.617 C 269.550 216.766,266.432 217.228,264.271 217.644 C 262.109 218.060,259.582 218.400,258.655 218.400 C 257.727 218.400,255.968 218.660,254.746 218.979 C 253.523 219.297,250.706 219.744,248.484 219.972 C 246.262 220.200,243.584 220.580,242.532 220.815 C 239.484 221.498,239.651 222.905,239.623 196.420 C 239.599 174.253,239.638 172.889,240.320 172.272 C 240.970 171.684,243.524 171.607,265.554 171.509 C 294.005 171.382,291.036 171.995,291.129 166.229 C 291.162 164.139,291.372 161.658,291.595 160.715 C 292.259 157.901,292.936 143.401,292.445 142.484 C 291.797 141.273,211.734 141.147,210.641 142.355 M189.080 143.372 C 189.256 143.686,189.310 184.861,189.200 234.872 L 189.000 325.800 187.000 325.694 C 185.900 325.635,184.942 325.416,184.871 325.206 C 184.800 324.997,184.080 324.716,183.271 324.582 C 182.462 324.448,180.270 323.895,178.400 323.354 C 175.046 322.382,172.517 321.673,168.600 320.604 C 167.500 320.304,165.390 319.688,163.912 319.236 C 162.433 318.783,160.453 318.295,159.512 318.151 C 158.570 318.007,157.314 317.644,156.720 317.344 C 156.126 317.045,154.995 316.800,154.207 316.800 C 153.419 316.800,152.105 316.509,151.287 316.153 C 150.469 315.797,148.810 315.269,147.600 314.981 C 146.390 314.693,144.050 314.077,142.400 313.613 C 140.750 313.149,138.410 312.525,137.200 312.227 C 135.990 311.929,133.290 311.207,131.200 310.621 C 129.110 310.036,126.590 309.379,125.600 309.162 C 124.610 308.945,123.479 308.590,123.087 308.373 C 122.696 308.155,121.166 307.720,119.687 307.406 C 118.209 307.092,115.740 306.488,114.200 306.065 L 111.400 305.295 111.295 291.048 C 111.195 277.472,111.224 276.800,111.921 276.800 C 113.370 276.800,117.426 277.656,118.660 278.222 C 119.354 278.540,120.406 278.800,120.999 278.800 C 121.592 278.800,122.554 279.061,123.138 279.379 C 124.312 280.020,130.494 281.809,133.000 282.233 C 133.880 282.382,134.780 282.645,135.000 282.817 C 135.220 282.989,136.300 283.314,137.400 283.540 C 138.500 283.766,140.660 284.341,142.200 284.818 C 143.740 285.294,146.350 285.995,148.000 286.375 C 149.650 286.754,151.507 287.275,152.126 287.532 C 152.745 287.790,153.786 288.000,154.439 288.000 C 155.092 288.000,156.205 288.242,156.913 288.537 C 159.957 289.808,161.089 289.753,161.552 288.312 C 161.843 287.408,161.941 267.633,161.867 224.800 C 161.808 190.590,161.859 158.280,161.980 153.000 L 162.200 143.400 175.000 143.192 C 182.040 143.077,188.016 142.942,188.280 142.892 C 188.544 142.841,188.904 143.057,189.080 143.372 M291.624 143.464 C 291.942 143.782,291.938 144.988,291.610 147.851 C 291.361 150.023,291.005 154.050,290.819 156.800 C 290.138 166.840,289.889 169.199,289.449 169.786 C 289.060 170.305,285.695 170.400,264.361 170.493 C 244.184 170.581,239.603 170.699,239.061 171.149 C 238.293 171.787,238.036 220.009,238.795 221.200 C 239.290 221.977,245.906 221.871,249.400 221.029 C 250.720 220.711,253.240 220.328,255.000 220.177 C 256.760 220.027,258.380 219.767,258.600 219.600 C 258.820 219.432,260.620 219.173,262.600 219.024 C 264.580 218.875,267.100 218.513,268.200 218.219 C 269.300 217.924,271.593 217.568,273.296 217.426 C 274.999 217.284,277.085 216.923,277.933 216.624 C 278.780 216.325,280.850 215.951,282.531 215.794 C 286.318 215.439,286.249 215.312,285.689 221.531 C 285.458 224.099,284.987 229.532,284.642 233.604 C 284.297 237.675,283.825 242.175,283.592 243.604 C 283.360 245.032,282.996 248.720,282.784 251.800 C 282.572 254.880,282.231 257.940,282.026 258.600 C 281.821 259.260,281.544 262.050,281.411 264.800 C 281.278 267.550,280.914 272.320,280.602 275.400 C 280.290 278.480,279.827 284.053,279.575 287.785 C 279.322 291.517,278.975 294.940,278.804 295.390 C 278.632 295.841,278.361 298.664,278.200 301.664 C 277.869 307.851,277.553 308.403,273.900 309.191 C 271.115 309.791,268.729 310.451,266.464 311.248 C 265.290 311.662,263.986 312.000,263.566 312.000 C 263.146 312.000,261.767 312.334,260.502 312.742 C 258.001 313.549,255.818 314.159,252.400 315.007 C 251.190 315.307,249.480 315.825,248.600 316.158 C 247.720 316.492,246.460 316.772,245.800 316.780 C 245.140 316.789,243.790 317.059,242.800 317.380 C 240.485 318.131,236.252 319.350,232.200 320.432 C 226.693 321.902,223.491 322.797,220.800 323.618 C 219.370 324.055,217.930 324.410,217.600 324.408 C 217.270 324.406,216.468 324.682,215.818 325.021 C 215.168 325.360,213.890 325.740,212.978 325.865 L 211.321 326.092 211.061 324.190 C 210.729 321.769,210.729 315.437,211.062 305.497 L 211.325 297.666 212.649 297.417 C 213.378 297.280,214.241 296.902,214.567 296.576 C 214.893 296.250,215.934 295.825,216.880 295.632 C 220.249 294.943,224.221 293.919,225.600 293.385 C 226.370 293.086,227.810 292.722,228.800 292.576 C 229.790 292.429,230.825 292.127,231.101 291.905 C 231.377 291.682,232.637 291.262,233.901 290.970 C 239.143 289.762,241.465 289.136,242.600 288.623 C 243.260 288.325,244.925 287.956,246.301 287.801 C 247.676 287.647,248.892 287.375,249.003 287.195 C 249.114 287.016,249.918 286.749,250.790 286.602 C 253.569 286.132,254.399 285.139,254.408 282.271 C 254.412 280.912,254.584 278.630,254.789 277.200 C 254.994 275.770,255.357 272.170,255.594 269.200 C 255.832 266.230,256.199 262.942,256.410 261.893 C 257.145 258.249,257.755 248.395,257.275 247.915 C 256.736 247.376,251.966 247.477,250.468 248.059 C 249.880 248.287,247.516 248.641,245.213 248.845 C 242.910 249.049,240.379 249.390,239.588 249.603 C 238.797 249.816,236.395 250.172,234.249 250.395 C 232.104 250.617,229.999 250.987,229.571 251.216 C 229.143 251.445,226.799 251.807,224.361 252.021 C 221.924 252.235,219.623 252.574,219.248 252.774 C 218.039 253.421,211.938 254.098,211.476 253.636 C 211.052 253.212,210.779 144.257,211.200 143.622 C 211.310 143.456,211.625 143.248,211.900 143.160 C 213.186 142.749,291.207 143.047,291.624 143.464 " stroke="none" fill="#f0e196" fill-rule="evenodd"></path><path id="path4" d="M178.667 14.990 C 178.065 15.592,178.000 17.344,178.000 32.984 L 178.000 50.311 176.619 50.570 C 175.859 50.713,171.263 50.805,166.406 50.776 C 159.983 50.738,157.414 50.856,156.987 51.211 C 156.216 51.851,156.120 63.560,156.880 64.320 C 157.238 64.678,161.564 64.800,173.880 64.800 C 192.698 64.800,191.680 64.992,192.233 61.329 C 192.744 57.948,192.071 15.895,191.497 15.352 C 190.598 14.499,179.472 14.186,178.667 14.990 M206.800 14.787 L 198.600 15.000 198.251 29.496 C 197.935 42.643,197.964 44.085,198.560 44.996 L 199.218 46.000 214.929 46.000 C 232.180 46.000,231.600 45.913,231.600 48.490 C 231.600 50.784,231.429 50.805,214.703 50.554 C 201.800 50.360,199.693 50.411,199.000 50.934 C 197.792 51.845,197.772 63.352,198.976 64.233 C 200.031 65.004,243.953 65.087,244.720 64.320 C 245.535 63.505,245.394 34.652,244.571 33.829 C 244.022 33.279,241.998 33.200,228.414 33.200 C 211.373 33.200,212.400 33.354,212.400 30.800 C 212.400 28.245,211.355 28.400,228.594 28.400 C 242.711 28.400,244.358 28.333,244.851 27.739 C 245.734 26.676,245.879 16.686,245.030 15.390 L 244.382 14.400 229.691 14.487 C 221.611 14.536,211.310 14.671,206.800 14.787 M190.703 39.155 C 190.778 56.072,190.682 62.660,190.354 63.055 C 189.986 63.498,186.927 63.600,173.965 63.600 C 155.294 63.600,157.200 64.282,157.200 57.600 C 157.200 51.055,156.225 51.600,167.934 51.600 C 175.105 51.600,177.973 51.467,178.320 51.120 C 178.678 50.762,178.800 46.273,178.800 33.387 C 178.800 23.897,178.925 16.009,179.077 15.856 C 179.230 15.704,181.885 15.629,184.977 15.689 L 190.600 15.800 190.703 39.155 M244.200 21.600 L 244.200 27.400 228.235 27.505 C 210.233 27.623,211.200 27.436,211.200 30.800 C 211.200 34.375,210.226 34.171,228.361 34.400 L 244.200 34.600 244.312 48.200 C 244.373 55.680,244.325 62.205,244.204 62.700 L 243.985 63.600 222.366 63.600 C 208.229 63.600,200.480 63.457,199.974 63.186 C 199.035 62.683,198.778 52.982,199.680 52.080 C 200.037 51.723,204.104 51.600,215.506 51.600 C 233.261 51.600,232.400 51.770,232.400 48.266 C 232.400 44.565,233.516 44.800,215.953 44.800 C 207.435 44.800,200.181 44.691,199.833 44.557 C 198.986 44.232,198.856 16.206,199.700 15.863 C 199.975 15.751,210.100 15.691,222.200 15.730 L 244.200 15.800 244.200 21.600 " stroke="none" fill="#848484" fill-rule="evenodd"></path></g></svg>