<svg id="svg" version="1.1" xmlns="http://www.w3.org/2000/svg" xmlns:xlink="http://www.w3.org/1999/xlink" width="400" height="231.11111111111111" viewBox="0, 0, 400,231.11111111111111"><g id="svgg"><path id="path0" d="M0.000 115.607 L 0.000 231.214 200.000 231.214 L 400.000 231.214 400.000 115.607 L 400.000 0.000 200.000 0.000 L 0.000 0.000 0.000 115.607 M149.562 6.780 C 149.720 6.971,149.840 8.652,149.879 11.231 L 149.942 15.376 153.295 15.376 L 156.647 15.376 156.718 14.104 C 156.815 12.376,156.744 12.405,160.819 12.425 C 162.804 12.434,164.914 12.360,165.509 12.260 C 166.227 12.139,164.978 12.068,161.792 12.050 C 159.153 12.035,156.994 11.989,156.994 11.948 C 156.994 11.559,157.720 6.840,157.800 6.711 C 157.857 6.618,160.067 6.584,162.709 6.635 L 167.514 6.729 167.657 8.156 C 167.736 8.942,167.836 14.841,167.880 21.266 C 167.956 32.368,167.885 34.393,167.250 39.354 L 167.111 40.443 163.035 40.510 C 160.794 40.548,158.465 40.546,157.861 40.508 L 156.763 40.437 156.763 36.057 L 156.763 31.676 153.415 31.676 C 149.631 31.676,149.961 31.489,149.747 33.757 C 149.535 35.996,149.127 38.993,148.945 39.653 L 148.753 40.347 143.758 40.409 C 139.147 40.467,138.753 40.440,138.646 40.062 C 138.582 39.837,138.497 33.514,138.456 26.012 L 138.382 12.370 143.295 12.370 C 145.997 12.370,148.208 12.292,148.208 12.197 C 148.208 12.101,147.714 12.019,147.110 12.015 C 146.506 12.010,144.399 11.984,142.428 11.957 L 138.844 11.908 138.868 11.214 C 138.900 10.312,139.369 7.344,139.557 6.854 C 139.754 6.341,149.140 6.272,149.562 6.780 M198.123 6.843 C 198.582 6.990,198.348 21.467,197.881 21.763 C 197.711 21.870,195.934 21.960,193.931 21.962 L 190.289 21.965 190.288 22.601 C 190.281 27.912,189.749 40.368,189.524 40.512 C 189.199 40.718,180.699 40.751,179.942 40.548 L 179.422 40.408 179.422 31.187 L 179.422 21.965 175.395 21.965 C 170.080 21.965,170.636 22.504,170.636 17.352 C 170.636 12.146,170.535 12.333,173.295 12.445 C 180.985 12.758,197.688 12.712,197.688 12.378 C 197.688 12.063,196.210 12.023,184.524 12.023 C 171.532 12.023,171.359 12.017,171.213 11.557 C 171.071 11.110,171.466 7.046,171.686 6.690 C 171.796 6.512,197.552 6.661,198.123 6.843 M212.153 6.882 C 212.288 6.976,213.067 8.040,213.884 9.249 C 214.701 10.457,215.484 11.566,215.624 11.713 C 215.764 11.860,216.232 12.537,216.664 13.216 C 217.096 13.895,217.633 14.653,217.858 14.899 C 218.082 15.146,218.266 15.439,218.266 15.552 C 218.266 16.482,219.744 14.641,223.649 8.849 L 225.087 6.716 229.838 6.711 C 233.232 6.707,234.669 6.784,234.867 6.983 C 235.264 7.380,235.253 12.251,234.855 12.263 C 234.697 12.268,232.512 12.264,230.000 12.255 C 227.046 12.243,225.434 12.320,225.434 12.473 C 225.434 12.623,227.248 12.730,230.462 12.770 L 235.491 12.832 235.559 17.110 C 235.626 21.403,235.252 40.432,235.097 40.587 C 234.930 40.754,225.195 40.764,225.028 40.597 C 224.933 40.502,224.803 37.784,224.740 34.557 L 224.624 28.689 222.890 31.258 C 220.554 34.718,218.987 36.842,218.616 37.051 C 218.401 37.173,217.808 36.485,216.621 34.739 C 215.692 33.372,214.746 32.053,214.518 31.806 C 214.290 31.560,214.104 31.221,214.104 31.055 C 214.104 30.888,214.022 30.751,213.921 30.751 C 213.821 30.751,213.435 30.231,213.064 29.595 C 212.047 27.855,212.023 27.970,212.023 34.566 L 212.023 40.694 207.110 40.690 C 204.408 40.688,202.062 40.601,201.897 40.497 C 201.606 40.312,201.492 14.230,201.777 13.121 C 201.872 12.751,202.317 12.717,206.966 12.717 C 213.352 12.717,213.395 12.371,207.030 12.191 C 201.411 12.031,201.854 12.297,202.017 9.191 L 202.147 6.705 207.027 6.709 C 209.711 6.711,212.018 6.789,212.153 6.882 M249.307 7.136 C 249.500 7.327,249.926 11.806,249.777 12.081 C 249.726 12.176,247.557 12.254,244.957 12.254 C 241.961 12.254,240.231 12.339,240.231 12.486 C 240.231 12.632,242.001 12.717,245.079 12.717 C 250.986 12.717,250.397 11.983,250.188 19.075 C 250.074 22.912,250.100 24.724,250.272 24.949 C 250.479 25.220,251.501 25.248,256.445 25.121 C 263.380 24.943,262.748 24.666,263.108 28.040 C 263.459 31.331,264.088 31.051,256.773 30.857 C 251.066 30.705,250.464 30.725,250.333 31.067 C 250.201 31.411,250.783 31.445,256.886 31.445 L 263.584 31.445 263.584 36.187 L 263.584 40.929 251.618 40.869 L 239.653 40.809 239.440 38.960 C 239.203 36.904,239.195 12.434,239.430 9.089 C 239.566 7.141,239.621 6.957,240.078 6.892 C 241.053 6.753,249.136 6.967,249.307 7.136 M148.959 21.329 C 149.117 21.803,156.301 21.865,156.301 21.393 C 156.301 21.092,155.761 21.040,152.582 21.040 C 149.710 21.040,148.885 21.106,148.959 21.329 M193.873 42.653 C 208.243 42.729,221.092 42.762,222.428 42.725 C 227.686 42.581,277.449 42.921,277.630 43.102 C 277.683 43.155,277.872 44.274,278.049 45.588 C 278.227 46.902,278.470 48.549,278.589 49.249 C 278.851 50.797,278.571 54.614,277.688 61.503 C 277.566 62.457,277.359 64.225,277.228 65.434 C 277.097 66.642,276.932 68.098,276.860 68.671 C 276.789 69.243,276.634 70.699,276.516 71.908 C 276.399 73.116,276.201 74.988,276.077 76.069 C 275.835 78.169,275.528 80.911,275.158 84.277 C 275.032 85.422,274.813 87.295,274.673 88.439 C 274.405 90.613,274.202 92.502,273.776 96.763 C 273.636 98.162,273.212 102.012,272.834 105.318 C 272.098 111.748,271.809 114.367,271.430 118.035 C 271.299 119.306,271.139 120.763,271.074 121.272 C 270.759 123.760,270.122 129.312,269.827 132.139 C 269.372 136.492,268.746 142.141,268.456 144.509 C 268.339 145.462,268.080 147.803,267.879 149.711 C 267.679 151.618,267.306 155.000,267.050 157.225 C 266.795 159.451,266.476 162.312,266.343 163.584 C 266.209 164.855,266.008 166.676,265.896 167.630 C 265.502 170.978,265.186 173.777,264.971 175.838 C 264.852 176.983,264.642 178.908,264.506 180.116 C 264.370 181.324,264.158 183.249,264.036 184.393 C 263.914 185.538,263.713 187.306,263.591 188.324 C 263.241 191.229,262.887 194.440,262.750 195.954 C 262.593 197.690,262.269 198.382,261.614 198.382 C 261.336 198.382,260.808 198.473,260.439 198.586 C 259.440 198.890,258.086 199.248,256.532 199.618 C 254.641 200.069,249.849 201.351,248.691 201.716 C 248.171 201.880,247.277 202.143,246.705 202.301 C 246.133 202.459,245.484 202.682,245.263 202.797 C 245.042 202.912,244.658 203.006,244.410 203.006 C 244.161 203.006,243.892 203.113,243.811 203.244 C 243.719 203.393,243.995 203.472,244.549 203.455 C 245.576 203.423,248.786 203.967,248.786 204.172 C 248.786 204.249,247.843 204.420,246.690 204.552 C 244.121 204.847,243.396 205.306,245.574 205.260 C 246.387 205.242,247.427 205.311,247.886 205.413 C 248.620 205.577,248.734 205.541,248.847 205.112 C 248.990 204.564,250.747 204.458,253.064 204.857 C 257.741 205.662,257.549 205.602,257.680 206.293 C 257.748 206.647,257.862 207.239,257.933 207.608 C 258.026 208.094,258.235 208.324,258.684 208.436 C 259.026 208.521,259.618 208.819,260.000 209.098 C 260.382 209.377,260.977 209.749,261.323 209.925 C 262.126 210.333,262.536 211.478,262.197 212.369 C 261.877 213.209,261.818 213.180,264.277 213.410 C 265.447 213.520,266.448 213.654,266.502 213.708 C 267.108 214.314,264.272 215.792,260.591 216.787 C 259.899 216.974,259.203 217.235,259.045 217.366 C 258.621 217.718,257.804 217.203,257.800 216.581 C 257.793 215.570,257.445 215.330,256.657 215.796 C 256.270 216.024,255.954 216.161,255.954 216.100 C 255.954 216.039,255.408 216.180,254.740 216.414 C 253.447 216.867,250.261 217.572,249.510 217.572 C 249.166 217.572,249.022 217.785,248.907 218.466 L 248.756 219.359 246.632 219.649 C 245.464 219.808,244.092 220.028,243.584 220.137 C 241.816 220.516,240.277 220.401,239.991 219.868 C 239.709 219.341,240.188 219.340,234.335 219.883 C 231.548 220.142,230.983 220.364,230.983 221.200 C 230.983 221.406,230.630 221.506,229.884 221.514 C 229.280 221.520,227.434 221.615,225.780 221.726 C 222.900 221.920,222.757 221.908,222.364 221.451 C 221.735 220.720,213.954 220.945,213.447 221.708 C 213.037 222.325,204.721 222.485,204.488 221.880 C 204.296 221.378,195.607 221.340,195.607 221.840 C 195.607 222.545,187.207 222.351,186.667 221.633 C 186.020 220.775,178.100 220.625,177.725 221.464 C 177.547 221.864,177.355 221.958,176.897 221.870 C 176.569 221.807,175.052 221.681,173.526 221.590 C 170.870 221.431,169.934 221.367,169.311 221.301 C 169.154 221.285,168.961 221.012,168.881 220.694 C 168.801 220.376,168.565 220.108,168.356 220.099 C 167.766 220.073,163.913 219.626,161.102 219.256 C 160.327 219.155,160.213 219.208,159.998 219.775 C 159.774 220.363,159.690 220.396,158.781 220.260 C 158.243 220.180,156.555 219.955,155.029 219.759 C 151.122 219.259,151.289 219.318,151.114 218.386 C 151.006 217.808,150.816 217.542,150.452 217.458 C 150.172 217.394,149.215 217.177,148.326 216.976 C 147.437 216.775,146.604 216.526,146.476 216.423 C 146.348 216.319,145.618 216.062,144.855 215.851 C 142.231 215.127,142.459 215.099,142.289 216.164 C 142.084 217.442,142.078 217.443,139.733 216.641 C 138.608 216.256,137.347 215.851,136.931 215.740 C 136.515 215.629,135.903 215.345,135.571 215.110 C 135.239 214.875,134.765 214.564,134.516 214.420 C 133.461 213.807,133.650 213.711,136.436 213.455 C 139.403 213.183,139.673 213.106,139.233 212.667 C 138.516 211.950,139.395 209.653,140.492 209.378 C 141.428 209.142,142.003 208.439,142.224 207.260 C 142.480 205.890,142.307 206.020,144.563 205.505 C 149.036 204.486,151.214 204.422,151.214 205.311 C 151.214 205.811,152.654 206.025,152.937 205.567 C 153.079 205.337,155.853 204.964,156.705 205.061 C 156.991 205.093,157.225 205.008,157.225 204.872 C 157.225 204.723,156.606 204.615,155.665 204.601 C 154.806 204.589,153.532 204.511,152.832 204.428 L 151.561 204.277 154.297 203.743 C 155.801 203.449,157.326 203.273,157.685 203.352 C 158.053 203.433,158.403 203.389,158.489 203.251 C 158.577 203.108,158.439 203.006,158.161 203.006 C 157.897 203.006,157.501 202.912,157.280 202.797 C 157.059 202.682,156.410 202.462,155.838 202.308 C 155.266 202.154,154.590 201.948,154.335 201.850 C 154.081 201.752,153.457 201.556,152.948 201.416 C 151.669 201.062,148.931 200.263,148.085 199.996 C 147.184 199.712,141.107 198.141,140.347 197.995 C 138.965 197.730,138.802 197.515,138.645 195.758 C 138.563 194.849,138.389 193.168,138.258 192.023 C 138.127 190.879,137.922 189.058,137.803 187.977 C 137.685 186.896,137.479 185.075,137.347 183.931 C 137.215 182.786,136.998 180.809,136.864 179.538 C 136.730 178.266,136.517 176.237,136.390 175.029 C 136.164 172.881,135.930 170.780,135.500 167.052 C 135.383 166.035,135.174 164.058,135.037 162.659 C 134.900 161.260,134.579 158.295,134.324 156.069 C 134.070 153.844,133.709 150.514,133.523 148.671 C 133.337 146.827,133.076 144.434,132.944 143.353 C 132.426 139.126,132.226 137.371,132.013 135.202 C 131.671 131.716,131.313 128.389,131.060 126.358 C 130.934 125.341,130.746 123.676,130.643 122.659 C 130.381 120.078,130.006 116.580,129.713 113.988 C 129.576 112.780,129.371 110.908,129.257 109.827 C 129.058 107.942,128.832 105.996,128.319 101.734 C 128.188 100.653,127.981 98.624,127.858 97.225 C 127.554 93.783,127.199 90.523,126.699 86.590 C 126.569 85.572,126.362 83.699,126.238 82.428 C 125.995 79.929,125.662 76.810,125.324 73.873 C 124.974 70.828,124.636 67.762,124.392 65.434 C 124.266 64.225,124.057 62.405,123.928 61.387 C 123.066 54.597,122.718 49.948,122.990 48.867 C 123.130 48.313,123.452 46.802,123.707 45.509 C 123.962 44.216,124.284 43.021,124.423 42.854 C 124.852 42.337,131.264 42.319,193.873 42.653 M187.283 48.549 C 181.370 48.641,175.220 48.799,173.617 48.899 C 171.718 49.018,170.653 49.000,170.559 48.849 C 170.480 48.721,170.130 48.672,169.781 48.738 C 169.230 48.844,169.205 48.881,169.593 49.017 C 169.933 49.136,169.792 49.223,169.009 49.380 C 167.522 49.677,193.606 49.886,214.972 49.749 C 224.669 49.687,232.547 49.579,232.478 49.511 C 232.410 49.443,229.902 49.376,226.905 49.363 C 222.162 49.342,221.430 49.291,221.249 48.969 C 221.065 48.640,220.132 48.597,213.006 48.589 C 208.587 48.585,203.410 48.536,201.503 48.481 C 199.595 48.426,193.197 48.457,187.283 48.549 M223.517 84.565 L 201.139 84.627 200.694 85.665 L 200.249 86.703 178.448 86.762 L 156.647 86.821 156.676 88.671 C 156.691 89.688,156.827 91.717,156.976 93.179 C 157.302 96.363,157.639 99.874,158.363 107.630 C 158.494 109.029,158.710 111.318,158.844 112.717 C 158.977 114.116,159.186 116.353,159.307 117.688 C 159.427 119.023,159.688 121.884,159.885 124.046 C 160.082 126.208,160.307 128.705,160.384 129.595 C 160.462 130.486,160.619 131.396,160.733 131.618 C 160.930 132.001,162.632 132.023,191.541 132.023 C 215.747 132.023,222.186 132.084,222.362 132.312 C 223.583 133.899,224.635 139.439,223.931 140.577 C 223.882 140.657,223.732 141.912,223.598 143.367 C 223.369 145.861,223.216 147.422,222.657 152.948 C 222.529 154.220,222.267 156.977,222.076 159.075 C 221.629 163.984,221.527 164.295,220.276 164.589 C 219.352 164.806,216.506 165.542,208.555 167.619 C 206.584 168.134,204.191 168.722,203.237 168.925 C 201.077 169.385,201.202 169.244,200.910 171.568 C 200.776 172.639,200.644 173.537,200.616 173.565 C 200.530 173.651,197.033 172.802,192.832 171.675 C 190.607 171.078,188.162 170.449,187.399 170.276 C 186.156 169.996,184.408 169.539,181.272 168.675 C 179.888 168.294,179.696 167.491,179.418 160.925 C 179.302 158.191,179.106 155.173,178.983 154.220 C 178.501 150.511,178.227 148.275,178.112 147.110 L 177.992 145.896 175.181 145.895 C 173.635 145.895,170.094 145.826,167.311 145.742 L 162.253 145.589 162.417 146.494 C 162.507 146.992,162.628 148.231,162.685 149.249 C 162.743 150.266,162.886 151.306,163.005 151.561 C 163.124 151.815,163.273 152.803,163.335 153.757 C 163.398 154.711,163.510 156.428,163.585 157.572 C 163.660 158.717,163.815 159.861,163.930 160.116 C 164.045 160.370,164.194 161.410,164.262 162.428 C 164.666 168.503,164.453 167.945,166.590 168.528 C 167.098 168.666,168.182 168.989,168.998 169.245 C 169.814 169.501,170.718 169.711,171.007 169.711 C 171.297 169.711,171.598 169.815,171.676 169.942 C 171.755 170.069,172.067 170.173,172.370 170.173 C 172.673 170.173,172.985 170.277,173.064 170.405 C 173.142 170.532,173.506 170.636,173.873 170.636 C 174.239 170.636,174.603 170.740,174.682 170.867 C 174.761 170.994,175.125 171.098,175.491 171.098 C 175.858 171.098,176.222 171.202,176.301 171.329 C 176.379 171.457,176.664 171.561,176.934 171.561 C 177.203 171.561,178.108 171.767,178.943 172.019 C 179.779 172.271,181.451 172.743,182.659 173.067 C 184.842 173.653,186.444 174.116,189.413 175.019 C 190.266 175.279,191.170 175.491,191.422 175.491 C 191.674 175.491,191.945 175.595,192.023 175.723 C 192.102 175.850,192.466 175.954,192.832 175.954 C 193.199 175.954,193.563 176.058,193.642 176.185 C 193.720 176.312,194.034 176.416,194.338 176.416 C 194.642 176.416,195.131 176.509,195.423 176.623 C 195.715 176.737,196.422 176.957,196.994 177.112 C 197.566 177.267,198.243 177.478,198.497 177.581 C 198.751 177.684,199.246 177.828,199.595 177.902 C 199.945 177.975,200.500 178.100,200.829 178.181 C 201.157 178.261,201.833 178.209,202.331 178.065 C 202.829 177.921,203.627 177.698,204.104 177.569 C 210.557 175.823,214.739 174.698,217.110 174.069 C 218.064 173.816,219.156 173.520,219.538 173.410 C 219.919 173.301,221.012 173.004,221.965 172.752 C 222.919 172.499,224.480 172.079,225.434 171.819 C 229.529 170.701,230.812 170.356,233.903 169.541 L 237.171 168.679 237.324 167.172 C 237.408 166.343,237.576 164.780,237.697 163.699 C 237.963 161.323,238.278 158.368,238.595 155.260 C 238.840 152.866,239.182 149.672,239.538 146.474 C 239.992 142.385,240.231 140.118,240.452 137.803 C 240.580 136.468,240.887 133.503,241.135 131.214 C 241.382 128.925,241.647 126.039,241.722 124.800 L 241.859 122.548 221.912 122.488 C 200.046 122.422,201.195 122.368,200.834 123.486 L 200.578 124.277 188.622 124.337 L 176.666 124.397 176.401 123.412 C 175.977 121.843,175.672 119.790,175.585 117.919 C 175.540 116.965,175.442 115.821,175.367 115.376 C 175.292 114.931,175.137 113.474,175.023 112.139 C 174.909 110.803,174.707 108.671,174.575 107.399 C 173.838 100.309,173.836 100.158,174.464 98.093 L 175.043 96.186 210.585 96.128 L 246.127 96.069 246.314 93.295 C 246.664 88.090,246.635 84.521,246.243 84.511 C 246.052 84.507,235.826 84.531,223.517 84.565 M191.618 98.933 C 186.487 99.065,185.371 99.154,185.074 99.451 C 184.209 100.316,230.286 100.609,231.195 99.745 C 231.966 99.010,207.789 98.514,191.618 98.933 M184.393 135.230 C 182.834 135.339,182.312 135.457,182.312 135.699 C 182.312 135.877,182.104 136.104,181.850 136.203 C 181.595 136.302,185.413 136.391,190.333 136.400 C 196.065 136.410,199.330 136.333,199.422 136.185 C 199.501 136.058,199.793 135.944,200.071 135.933 C 200.350 135.922,200.058 135.761,199.422 135.576 C 198.131 135.201,188.099 134.969,184.393 135.230 M160.004 203.626 C 160.014 204.165,160.393 204.349,161.159 204.185 C 161.937 204.019,161.945 204.007,161.387 203.838 C 160.169 203.469,160.000 203.443,160.004 203.626 M268.570 210.983 C 268.842 212.431,268.515 213.179,267.612 213.179 L 266.821 213.179 266.821 211.222 L 266.821 209.264 267.623 209.738 C 268.201 210.078,268.466 210.427,268.570 210.983 M133.179 211.676 C 133.179 213.327,133.161 213.357,132.488 212.781 C 131.911 212.287,131.880 211.167,132.428 210.611 C 133.080 209.950,133.179 210.090,133.179 211.676 " stroke="none" fill="#f2f2f2" fill-rule="evenodd"></path><path id="path1" d="M139.581 42.948 C 139.189 43.628,139.191 45.291,139.583 45.286 C 139.812 45.283,146.032 45.287,153.405 45.296 C 163.763 45.308,166.873 45.246,167.085 45.026 C 167.417 44.678,167.867 43.088,167.684 42.906 C 167.485 42.707,139.695 42.749,139.581 42.948 M171.561 43.917 C 171.561 44.545,171.666 45.125,171.795 45.204 C 172.105 45.396,196.135 45.367,196.637 45.174 C 196.851 45.092,197.141 45.141,197.282 45.282 C 197.746 45.746,198.150 45.105,198.150 43.902 L 198.150 42.775 184.855 42.775 L 171.561 42.775 171.561 43.917 M202.001 43.111 C 201.915 43.335,201.961 44.183,202.102 44.996 L 202.360 46.474 206.220 46.474 C 208.915 46.474,210.165 46.390,210.358 46.197 C 210.574 45.981,210.636 45.984,210.636 46.212 C 210.636 46.424,211.043 46.491,212.101 46.453 C 212.906 46.424,213.687 46.475,213.835 46.566 C 214.276 46.839,214.146 46.338,213.364 44.751 C 212.446 42.890,212.899 43.026,207.062 42.851 C 202.512 42.714,202.146 42.733,202.001 43.111 M224.682 43.406 C 224.328 43.800,223.121 46.056,223.121 46.326 C 223.121 46.398,225.770 46.461,229.007 46.466 L 234.892 46.474 235.035 45.712 C 235.114 45.294,235.145 44.539,235.104 44.036 L 235.029 43.121 230.040 43.059 C 225.514 43.003,225.017 43.035,224.682 43.406 M239.624 43.960 C 239.704 44.357,239.769 44.756,239.769 44.847 C 239.769 45.186,240.835 45.502,241.231 45.281 C 241.446 45.160,241.721 45.123,241.842 45.197 C 242.094 45.353,261.516 45.382,261.671 45.227 C 261.727 45.171,261.830 44.700,261.900 44.181 L 262.026 43.237 250.753 43.237 L 239.480 43.237 239.624 43.960 M123.328 51.821 C 123.467 53.729,123.696 55.967,124.158 59.942 C 124.454 62.492,124.760 65.164,125.076 67.977 C 125.212 69.185,125.424 71.058,125.546 72.139 C 125.804 74.417,126.114 77.303,126.453 80.578 C 127.116 86.994,127.415 89.770,127.639 91.561 C 127.773 92.642,127.987 94.566,128.113 95.838 C 128.441 99.137,128.741 101.995,129.011 104.393 C 129.140 105.538,129.303 107.254,129.375 108.208 C 129.446 109.162,129.598 110.150,129.712 110.405 C 129.826 110.659,129.976 111.699,130.045 112.717 C 130.189 114.820,130.501 117.993,130.863 121.040 C 130.999 122.185,131.204 124.006,131.319 125.087 C 131.434 126.168,131.637 127.988,131.769 129.133 C 131.901 130.277,132.170 132.775,132.368 134.682 C 133.109 141.858,133.186 142.594,133.412 144.624 C 133.766 147.810,134.099 150.883,134.339 153.179 C 134.574 155.434,134.888 158.288,135.241 161.387 C 135.365 162.468,135.572 164.341,135.702 165.549 C 135.833 166.757,136.046 168.734,136.176 169.942 C 136.306 171.150,136.521 173.075,136.653 174.220 C 136.785 175.364,136.992 177.237,137.112 178.382 C 137.531 182.367,138.024 186.950,138.255 189.017 C 138.383 190.162,138.548 191.775,138.622 192.601 C 138.695 193.428,138.863 194.805,138.993 195.662 L 139.231 197.219 140.194 197.477 C 140.723 197.618,141.395 197.828,141.687 197.942 C 141.979 198.057,142.467 198.150,142.772 198.150 C 143.076 198.150,143.390 198.254,143.468 198.382 C 143.547 198.509,143.911 198.613,144.277 198.613 C 144.644 198.613,145.001 198.705,145.071 198.818 C 145.141 198.932,145.537 199.080,145.952 199.149 C 147.202 199.355,148.067 199.562,148.555 199.769 C 148.809 199.877,149.277 200.018,149.595 200.082 C 149.913 200.146,150.590 200.317,151.098 200.462 C 151.607 200.606,152.387 200.814,152.832 200.923 C 153.277 201.032,155.046 201.503,156.763 201.970 C 158.480 202.436,160.249 202.901,160.694 203.004 C 161.404 203.168,162.224 203.396,165.780 204.422 C 166.225 204.550,166.954 204.745,167.399 204.855 C 167.844 204.966,168.624 205.174,169.133 205.318 C 169.642 205.462,170.422 205.670,170.867 205.780 C 171.619 205.967,172.224 206.134,174.162 206.690 C 174.575 206.808,175.173 206.974,175.491 207.058 C 176.226 207.252,178.470 207.921,180.116 208.436 C 181.510 208.873,181.895 208.981,184.624 209.711 C 185.642 209.983,186.786 210.293,187.168 210.401 C 187.886 210.604,190.621 211.328,194.483 212.339 C 195.709 212.659,197.507 213.153,198.478 213.435 C 200.558 214.039,200.399 214.060,207.283 212.253 C 209.827 211.585,212.272 210.962,212.717 210.867 C 213.162 210.773,214.358 210.467,215.376 210.187 C 216.393 209.906,217.850 209.522,218.613 209.331 C 219.376 209.141,220.208 208.901,220.462 208.797 C 220.717 208.693,221.393 208.480,221.965 208.323 C 222.538 208.167,223.266 207.948,223.584 207.836 C 223.902 207.725,225.202 207.364,226.474 207.034 C 227.746 206.705,229.150 206.332,229.595 206.206 C 230.040 206.080,230.821 205.888,231.329 205.780 C 231.838 205.672,232.671 205.465,233.179 205.320 C 233.688 205.175,234.468 204.966,234.913 204.855 C 235.358 204.745,236.113 204.544,236.590 204.408 C 237.066 204.273,237.847 204.051,238.324 203.916 C 238.801 203.780,239.607 203.574,240.116 203.457 C 240.624 203.340,241.405 203.146,241.850 203.026 C 243.157 202.675,250.899 200.672,251.908 200.425 C 252.416 200.300,253.171 200.142,253.586 200.073 C 254.000 200.005,254.397 199.856,254.467 199.743 C 254.537 199.630,254.946 199.538,255.376 199.538 C 255.806 199.538,256.215 199.445,256.285 199.332 C 256.355 199.219,256.777 199.063,257.223 198.985 C 257.670 198.907,258.400 198.780,258.846 198.703 C 259.292 198.625,259.715 198.469,259.785 198.356 C 259.854 198.243,260.244 198.147,260.649 198.143 C 262.001 198.129,262.121 197.869,262.524 194.094 C 262.727 192.192,262.951 190.220,263.020 189.711 C 263.090 189.202,263.246 187.876,263.366 186.763 C 263.486 185.650,263.696 183.777,263.834 182.601 C 263.971 181.425,264.177 179.578,264.292 178.497 C 264.571 175.868,264.886 173.070,265.202 170.405 C 265.346 169.197,265.560 167.350,265.680 166.301 C 265.799 165.251,265.994 163.535,266.114 162.486 C 266.552 158.651,267.083 153.687,267.616 148.439 C 267.816 146.468,268.086 143.971,268.216 142.890 C 268.524 140.335,268.878 137.255,269.146 134.798 C 269.618 130.471,269.880 128.127,270.075 126.474 C 270.188 125.520,270.384 123.803,270.511 122.659 C 270.638 121.514,270.849 119.642,270.981 118.497 C 271.112 117.353,271.276 115.584,271.344 114.566 C 271.413 113.549,271.564 112.509,271.680 112.254 C 271.797 112.000,271.944 111.012,272.007 110.058 C 272.071 109.104,272.225 107.439,272.349 106.358 C 272.601 104.166,272.863 101.667,273.380 96.532 C 273.572 94.624,273.844 92.127,273.985 90.983 C 274.125 89.838,274.347 87.913,274.478 86.705 C 274.959 82.253,275.174 80.304,275.382 78.497 C 275.789 74.972,276.100 72.245,276.319 70.289 C 276.649 67.350,276.959 64.625,277.215 62.428 C 277.340 61.347,277.551 59.474,277.683 58.266 C 278.219 53.348,278.367 52.101,278.508 51.301 L 278.657 50.463 224.357 50.318 C 194.493 50.239,159.512 50.109,146.622 50.029 L 123.187 49.884 123.328 51.821 M236.647 62.565 C 252.289 62.642,265.121 62.738,265.164 62.778 C 265.241 62.852,264.926 66.050,264.503 69.480 C 264.377 70.497,264.162 72.318,264.024 73.526 C 263.887 74.734,263.687 76.451,263.579 77.341 C 262.618 85.310,262.317 87.847,261.633 93.757 C 261.442 95.410,261.128 98.064,260.936 99.653 C 260.744 101.243,260.431 103.844,260.240 105.434 C 259.780 109.262,259.061 114.481,258.600 117.341 C 258.395 118.613,258.140 120.486,258.033 121.503 C 257.760 124.103,257.558 124.975,257.318 124.590 C 257.161 124.337,257.036 124.332,256.658 124.566 C 256.320 124.776,254.724 124.855,250.870 124.855 L 245.549 124.855 245.549 123.399 C 245.549 122.591,245.670 121.821,245.821 121.670 C 246.087 121.405,246.121 118.941,245.871 118.097 C 245.681 117.456,242.673 117.612,242.624 118.266 C 242.239 123.366,241.897 127.133,241.396 131.792 C 241.280 132.873,241.075 134.798,240.940 136.069 C 240.804 137.341,240.599 139.266,240.482 140.347 C 240.366 141.428,240.102 143.977,239.896 146.012 C 239.535 149.567,239.330 151.542,238.829 156.301 C 238.230 161.992,238.124 163.028,237.944 164.971 C 237.839 166.116,237.694 167.208,237.624 167.399 C 237.239 168.438,237.246 169.646,237.640 170.076 C 238.074 170.549,239.411 173.165,239.273 173.271 C 239.228 173.306,236.173 174.194,232.486 175.245 C 228.798 176.296,225.052 177.364,224.162 177.618 C 221.000 178.521,219.297 179.004,218.613 179.191 C 218.231 179.295,217.139 179.601,216.185 179.872 C 214.259 180.418,212.686 180.858,210.694 181.407 C 208.932 181.893,208.018 182.151,207.110 182.416 C 200.583 184.324,201.065 184.299,196.647 182.955 C 195.630 182.645,194.069 182.181,193.179 181.923 C 192.289 181.666,191.301 181.374,190.983 181.274 C 190.665 181.175,189.988 180.979,189.480 180.838 C 188.341 180.523,185.522 179.684,184.740 179.428 C 184.422 179.324,183.382 179.013,182.428 178.737 C 181.474 178.460,180.434 178.148,180.116 178.043 C 179.798 177.938,178.757 177.626,177.803 177.349 C 176.850 177.073,175.809 176.757,175.491 176.647 C 174.780 176.400,171.248 175.349,167.399 174.240 C 163.057 172.988,162.674 172.874,162.480 172.775 C 162.268 172.666,163.094 171.081,163.957 169.942 C 164.518 169.201,164.552 169.036,164.363 167.977 C 164.250 167.341,164.049 165.728,163.918 164.393 C 163.786 163.058,163.585 161.081,163.470 160.000 C 163.355 158.919,163.161 156.994,163.039 155.723 C 162.916 154.451,162.680 152.214,162.514 150.751 C 162.347 149.289,162.208 147.468,162.204 146.705 L 162.197 145.318 170.110 145.265 C 179.313 145.203,178.331 144.853,178.743 148.343 C 179.545 155.153,179.809 157.250,180.016 158.441 C 180.203 159.518,179.827 159.330,184.056 160.461 C 186.022 160.986,188.202 161.574,188.902 161.767 C 189.601 161.960,190.902 162.309,191.792 162.543 C 192.682 162.778,193.983 163.126,194.682 163.318 C 195.382 163.509,196.994 163.947,198.266 164.290 C 199.538 164.633,200.760 164.965,200.983 165.027 C 201.205 165.090,201.387 165.036,201.387 164.909 C 201.387 164.781,201.673 164.619,202.023 164.549 C 202.373 164.479,203.127 164.304,203.699 164.159 C 204.272 164.015,205.079 163.841,205.493 163.773 C 205.908 163.704,206.304 163.556,206.374 163.443 C 206.444 163.330,206.757 163.237,207.069 163.237 C 207.381 163.237,207.817 163.143,208.038 163.028 C 208.259 162.914,209.792 162.496,211.445 162.100 C 213.098 161.703,215.647 161.060,217.110 160.670 C 218.572 160.280,220.115 159.875,220.539 159.769 C 221.662 159.490,221.754 159.215,222.095 155.145 C 222.483 150.502,222.920 145.607,223.032 144.624 C 223.105 143.988,223.253 142.532,223.362 141.387 C 223.470 140.243,223.630 138.812,223.717 138.208 L 223.875 137.110 211.995 137.077 C 197.728 137.037,187.932 137.003,170.925 136.932 C 156.159 136.870,157.487 137.184,159.199 134.162 L 160.249 132.311 160.003 129.219 C 159.868 127.518,159.656 125.087,159.533 123.815 C 159.409 122.543,159.201 120.358,159.071 118.960 C 158.941 117.561,158.730 115.324,158.603 113.988 C 158.476 112.653,158.273 110.416,158.153 109.017 C 158.033 107.618,157.820 105.329,157.681 103.931 C 157.441 101.515,157.276 99.742,156.795 94.451 C 156.679 93.179,156.463 90.422,156.315 88.324 C 156.167 86.225,155.951 84.040,155.835 83.468 C 155.720 82.896,155.595 82.116,155.558 81.734 L 155.491 81.040 178.208 80.982 C 190.702 80.949,200.925 80.878,200.925 80.823 C 200.925 80.768,200.823 80.457,200.699 80.131 L 200.474 79.538 178.484 79.538 C 160.994 79.538,156.513 79.478,156.590 79.249 C 156.666 79.021,161.222 78.949,178.152 78.908 C 189.958 78.879,199.724 78.820,199.854 78.777 C 200.214 78.657,200.421 75.880,200.584 69.017 C 200.666 65.584,200.777 62.633,200.831 62.459 C 200.912 62.203,201.608 62.170,204.569 62.284 C 206.571 62.362,221.006 62.488,236.647 62.565 M156.012 78.547 C 155.662 78.600,155.090 78.600,154.740 78.547 C 154.390 78.494,154.676 78.451,155.376 78.451 C 156.075 78.451,156.361 78.494,156.012 78.547 M155.607 79.306 C 155.607 79.434,155.197 79.538,154.696 79.538 C 154.195 79.538,153.720 79.434,153.642 79.306 C 153.554 79.165,153.909 79.075,154.553 79.075 C 155.133 79.075,155.607 79.179,155.607 79.306 M247.481 80.865 C 247.309 80.979,247.173 82.375,247.093 84.855 C 247.025 86.954,246.858 90.127,246.722 91.908 C 246.363 96.607,246.364 96.687,246.812 97.693 C 247.037 98.199,247.356 98.918,247.522 99.292 L 247.824 99.972 247.948 99.177 C 248.016 98.739,248.133 97.601,248.208 96.647 C 248.283 95.694,248.433 94.081,248.541 93.064 C 249.180 87.021,249.346 84.974,249.354 83.006 L 249.364 80.809 248.555 80.749 C 248.110 80.716,247.627 80.768,247.481 80.865 M174.335 101.726 C 174.335 102.442,174.431 103.128,174.547 103.249 C 174.663 103.369,174.818 104.509,174.891 105.780 C 174.964 107.052,175.125 109.029,175.248 110.173 C 175.371 111.318,175.557 113.419,175.661 114.843 C 175.766 116.267,175.906 117.486,175.972 117.552 C 176.038 117.618,181.652 117.683,188.446 117.696 C 200.927 117.719,201.368 117.691,200.721 116.911 C 200.547 116.702,200.539 115.213,200.694 111.890 C 201.015 105.029,200.993 100.816,200.636 100.702 C 200.477 100.652,194.494 100.568,187.341 100.516 L 174.335 100.422 174.335 101.726 M247.630 123.815 C 247.630 124.006,247.786 124.162,247.977 124.162 C 248.168 124.162,248.324 124.006,248.324 123.815 C 248.324 123.624,248.168 123.468,247.977 123.468 C 247.786 123.468,247.630 123.624,247.630 123.815 M245.546 126.171 C 245.548 126.450,245.445 126.742,245.318 126.821 C 245.177 126.908,245.088 126.574,245.090 125.967 C 245.093 125.239,245.154 125.064,245.318 125.318 C 245.441 125.509,245.544 125.893,245.546 126.171 " stroke="none" fill="#dd4417" fill-rule="evenodd"></path><path id="path2" d="M212.158 9.884 C 212.247 11.124,212.384 12.191,212.461 12.254 C 212.750 12.491,214.335 15.030,214.335 15.257 C 214.335 15.386,214.415 15.491,214.512 15.491 C 214.609 15.491,214.946 15.908,215.260 16.416 C 215.574 16.925,215.911 17.341,216.008 17.341 C 216.105 17.341,216.185 17.477,216.185 17.644 C 216.185 17.811,216.393 18.171,216.647 18.444 C 216.902 18.717,217.110 19.049,217.110 19.181 C 217.110 19.314,217.197 19.422,217.304 19.422 C 217.411 19.422,217.617 19.682,217.761 20.000 C 218.280 21.139,218.515 20.637,218.447 18.533 L 218.381 16.488 216.896 14.314 C 216.080 13.117,215.351 12.087,215.278 12.023 C 215.204 11.960,214.997 11.623,214.818 11.276 C 214.639 10.928,214.323 10.460,214.115 10.235 C 213.908 10.010,213.399 9.332,212.985 8.728 C 211.983 7.266,211.970 7.284,212.158 9.884 M148.930 11.498 L 148.612 12.939 143.628 13.001 L 138.644 13.064 138.705 26.358 C 138.746 35.128,138.849 39.751,139.007 39.942 C 139.301 40.296,147.772 40.357,148.421 40.010 C 148.765 39.826,148.861 39.347,148.993 37.177 C 149.164 34.366,149.548 31.971,149.903 31.497 C 150.069 31.276,150.972 31.218,153.501 31.266 L 156.879 31.329 156.994 35.723 L 157.110 40.116 162.081 40.116 L 167.052 40.116 167.116 39.191 C 167.222 37.670,167.343 10.658,167.239 11.850 L 167.142 12.948 162.092 12.948 L 157.041 12.948 156.872 15.875 C 156.779 17.485,156.764 19.453,156.838 20.248 C 156.947 21.420,156.906 21.719,156.618 21.829 C 156.149 22.009,149.275 22.005,148.805 21.825 C 148.417 21.676,148.303 20.920,148.637 20.714 C 148.746 20.647,148.905 20.042,148.990 19.371 C 149.075 18.700,149.220 17.630,149.312 16.994 C 149.404 16.358,149.428 14.538,149.364 12.948 L 149.249 10.058 148.930 11.498 M171.252 13.102 C 170.950 13.405,171.077 21.230,171.387 21.431 C 171.546 21.534,173.470 21.655,175.662 21.699 L 179.648 21.780 179.708 31.063 L 179.769 40.347 184.492 40.410 C 187.090 40.444,189.299 40.389,189.401 40.287 C 189.502 40.185,189.657 35.969,189.743 30.918 L 189.901 21.734 193.768 21.734 C 198.378 21.734,197.911 22.287,197.916 16.821 L 197.919 12.948 184.663 12.948 C 177.372 12.948,171.337 13.017,171.252 13.102 M202.232 13.127 C 202.177 13.219,202.056 19.408,201.962 26.879 L 201.792 40.462 206.788 40.462 L 211.784 40.462 211.846 34.297 C 211.884 30.437,211.994 28.106,212.139 28.066 C 212.266 28.030,213.676 29.939,215.272 32.308 C 216.868 34.678,218.291 36.656,218.435 36.704 C 218.698 36.792,219.955 35.134,222.903 30.809 C 223.792 29.506,224.604 28.439,224.708 28.439 C 224.812 28.439,224.969 31.054,225.056 34.251 C 225.142 37.447,225.269 40.152,225.337 40.262 C 225.495 40.518,234.846 40.527,235.004 40.271 C 235.185 39.978,235.214 13.634,235.033 13.453 C 234.947 13.366,232.767 13.260,230.190 13.217 L 225.504 13.139 224.806 14.026 C 224.422 14.514,223.732 15.486,223.273 16.185 C 222.350 17.590,220.265 20.559,219.939 20.931 C 219.825 21.061,219.546 21.452,219.319 21.798 C 219.092 22.144,218.774 22.428,218.611 22.428 C 218.373 22.428,216.160 19.496,215.145 17.835 C 215.017 17.627,214.857 17.405,214.788 17.341 C 214.719 17.277,214.095 16.364,213.401 15.312 C 212.668 14.201,211.945 13.359,211.676 13.304 C 210.781 13.119,202.331 12.961,202.232 13.127 M239.904 14.382 C 239.612 16.204,239.564 40.103,239.851 40.390 C 240.062 40.601,262.812 40.654,263.150 40.444 C 263.269 40.371,263.389 38.394,263.417 36.051 L 263.468 31.792 256.674 31.676 L 249.880 31.561 249.853 22.486 L 249.827 13.411 244.943 13.411 L 240.059 13.410 239.904 14.382 M155.580 81.098 C 155.541 81.356,155.602 82.107,155.727 82.890 L 155.837 83.584 177.956 83.524 C 202.211 83.458,200.694 83.564,200.694 81.937 L 200.694 80.925 178.150 80.925 C 165.751 80.925,155.595 81.003,155.580 81.098 M176.158 118.759 C 176.099 119.202,176.220 119.918,176.455 120.520 L 176.704 121.156 188.575 121.156 C 201.839 121.156,200.925 121.275,200.925 119.553 L 200.925 118.844 189.075 118.841 C 182.558 118.839,176.991 118.775,176.705 118.698 C 176.419 118.622,176.173 118.649,176.158 118.759 M180.116 160.860 C 180.221 162.278,180.283 162.434,180.809 162.589 C 181.749 162.866,185.875 163.933,187.746 164.382 C 191.567 165.300,195.282 166.290,195.662 166.492 C 195.882 166.609,196.247 166.707,196.471 166.709 C 196.695 166.711,197.704 166.920,198.713 167.174 C 200.804 167.701,200.916 167.646,200.921 166.083 C 200.926 164.918,201.104 165.039,198.264 164.282 C 196.993 163.943,195.382 163.509,194.682 163.318 C 193.983 163.126,192.682 162.778,191.792 162.543 C 190.902 162.309,189.601 161.960,188.902 161.767 C 188.202 161.574,186.058 160.996,184.138 160.483 C 182.217 159.969,180.500 159.493,180.323 159.425 C 180.060 159.324,180.021 159.589,180.116 160.860 M185.029 210.823 C 183.489 211.558,184.423 213.120,186.276 212.908 C 186.844 212.843,186.927 212.743,186.870 212.197 C 186.792 211.455,187.158 211.356,187.514 212.023 C 187.689 212.349,187.999 212.486,188.563 212.486 C 189.121 212.486,189.364 212.591,189.364 212.832 C 189.364 213.073,189.630 213.190,190.231 213.214 C 190.929 213.242,190.974 213.267,190.462 213.345 C 187.834 213.743,193.100 214.209,196.994 213.923 L 199.422 213.745 198.089 213.339 C 197.355 213.116,195.795 212.683,194.620 212.377 C 193.446 212.071,191.620 211.593,190.562 211.314 C 189.131 210.936,188.572 210.873,188.377 211.068 C 187.982 211.463,187.403 211.383,186.936 210.867 C 186.453 210.333,186.074 210.324,185.029 210.823 M214.066 210.520 C 214.002 210.583,213.491 210.728,212.929 210.842 C 211.816 211.066,205.484 212.678,202.890 213.397 L 201.272 213.845 202.819 213.859 C 203.670 213.867,204.414 213.951,204.473 214.046 C 204.811 214.593,211.215 213.909,211.823 213.261 C 212.377 212.672,212.936 212.566,213.343 212.974 C 213.647 213.277,216.879 213.021,216.879 212.693 C 216.879 212.579,216.662 212.486,216.397 212.486 C 215.759 212.486,215.949 211.930,216.621 211.832 C 217.362 211.723,217.155 211.002,216.356 210.909 C 216.008 210.869,215.723 210.739,215.723 210.620 C 215.723 210.400,214.274 210.312,214.066 210.520 " stroke="none" fill="#262626" fill-rule="evenodd"></path><path id="path3" d="M124.374 43.171 C 123.616 45.165,122.748 50.224,122.962 51.398 L 123.182 52.601 123.210 51.243 L 123.237 49.884 146.647 50.029 C 159.523 50.109,194.497 50.239,224.367 50.318 L 278.677 50.463 278.547 49.335 C 278.215 46.444,277.626 43.341,277.381 43.185 C 277.232 43.090,268.630 43.002,258.266 42.988 C 247.902 42.974,232.503 42.939,224.046 42.910 C 215.590 42.880,209.521 42.916,210.560 42.989 C 211.599 43.062,212.497 43.173,212.555 43.237 C 213.204 43.941,214.330 46.872,213.835 46.566 C 213.687 46.475,212.906 46.424,212.101 46.453 C 211.043 46.491,210.636 46.424,210.636 46.212 C 210.636 45.984,210.574 45.981,210.358 46.197 C 210.165 46.390,208.915 46.474,206.220 46.474 L 202.360 46.474 202.102 44.996 C 201.961 44.183,201.909 43.351,201.988 43.147 C 202.112 42.822,201.874 42.775,200.140 42.775 L 198.150 42.775 198.150 43.902 C 198.150 45.105,197.746 45.746,197.282 45.282 C 197.141 45.141,196.851 45.092,196.637 45.174 C 196.135 45.367,172.105 45.396,171.795 45.204 C 171.666 45.125,171.561 44.545,171.561 43.917 L 171.561 42.775 169.595 42.775 C 168.514 42.775,167.651 42.853,167.677 42.948 C 167.783 43.340,167.365 44.827,167.084 45.060 C 166.873 45.235,162.709 45.307,153.391 45.296 C 146.026 45.287,139.812 45.283,139.583 45.286 C 139.164 45.291,139.203 43.421,139.632 42.950 C 139.718 42.855,145.975 42.751,153.536 42.717 C 164.022 42.670,162.222 42.642,145.948 42.599 L 124.613 42.543 124.374 43.171 M235.104 44.036 C 235.145 44.539,235.114 45.294,235.035 45.712 L 234.892 46.474 229.007 46.466 C 225.770 46.461,223.121 46.398,223.121 46.326 C 223.121 46.253,223.390 45.659,223.718 45.005 C 224.790 42.865,224.389 42.989,230.040 43.059 L 235.029 43.121 235.104 44.036 M261.900 44.181 C 261.830 44.700,261.727 45.171,261.671 45.227 C 261.516 45.382,242.094 45.353,241.842 45.197 C 241.721 45.123,241.446 45.160,241.231 45.281 C 240.835 45.502,239.769 45.186,239.769 44.847 C 239.769 44.756,239.704 44.357,239.624 43.960 L 239.480 43.237 250.753 43.237 L 262.026 43.237 261.900 44.181 M227.414 48.903 C 235.347 49.415,234.782 49.648,225.318 49.767 C 208.216 49.984,167.307 49.764,166.623 49.453 L 165.984 49.162 166.996 48.905 C 167.656 48.737,172.104 48.627,179.779 48.587 C 186.253 48.554,191.593 48.484,191.646 48.432 C 191.883 48.194,222.718 48.600,227.414 48.903 M278.324 52.100 C 278.228 52.333,278.162 53.061,278.176 53.718 L 278.201 54.913 278.411 53.873 C 278.662 52.628,278.602 51.419,278.324 52.100 M123.384 55.145 C 123.461 56.162,123.564 57.038,123.612 57.091 C 123.800 57.298,123.654 54.192,123.455 53.757 C 123.318 53.459,123.293 53.950,123.384 55.145 M277.853 56.301 C 277.765 56.809,277.705 57.694,277.720 58.266 C 277.742 59.150,277.777 59.064,277.954 57.688 C 278.183 55.899,278.106 54.839,277.853 56.301 M123.850 59.538 C 123.930 60.555,124.033 61.431,124.079 61.484 C 124.278 61.714,124.132 58.347,123.930 58.035 C 123.779 57.803,123.753 58.304,123.850 59.538 M277.392 60.424 C 277.300 60.656,277.238 61.385,277.252 62.042 L 277.279 63.237 277.490 61.967 C 277.725 60.547,277.672 59.711,277.392 60.424 M124.251 63.006 C 124.329 63.769,124.556 65.850,124.756 67.630 C 125.286 72.356,125.522 74.515,125.793 77.110 C 125.926 78.382,126.131 80.306,126.249 81.387 C 126.366 82.468,126.568 84.383,126.697 85.643 C 126.826 86.903,126.984 87.986,127.049 88.051 C 127.229 88.231,127.189 87.271,126.923 84.971 C 126.790 83.827,126.576 81.850,126.447 80.578 C 126.154 77.681,125.834 74.679,125.546 72.139 C 124.929 66.690,124.817 65.637,124.669 63.891 C 124.581 62.853,124.419 61.916,124.309 61.811 C 124.198 61.703,124.172 62.230,124.251 63.006 M200.831 62.459 C 200.777 62.633,200.666 65.584,200.584 69.017 C 200.421 75.880,200.214 78.657,199.854 78.777 C 199.724 78.820,189.958 78.879,178.152 78.908 C 161.222 78.949,156.666 79.021,156.590 79.249 C 156.513 79.478,160.995 79.538,178.490 79.538 L 200.486 79.538 200.732 80.241 L 200.977 80.944 225.170 80.915 L 249.364 80.886 249.354 83.044 C 249.346 84.978,249.179 87.034,248.541 93.064 C 248.433 94.081,248.283 95.694,248.208 96.647 C 248.133 97.601,248.016 98.739,247.948 99.177 L 247.824 99.972 247.522 99.292 C 247.356 98.918,247.038 98.201,246.814 97.699 C 246.574 97.159,246.406 96.211,246.403 95.386 C 246.400 94.170,246.388 94.131,246.308 95.086 L 246.217 96.184 210.692 96.242 L 175.166 96.301 174.742 97.457 C 174.509 98.092,174.282 99.289,174.238 100.116 C 174.194 100.942,174.203 101.349,174.259 101.020 L 174.359 100.422 187.353 100.516 C 194.500 100.568,200.477 100.652,200.636 100.702 C 200.992 100.816,201.015 105.027,200.695 111.864 C 200.528 115.430,200.542 116.666,200.752 117.002 C 200.929 117.285,200.947 117.510,200.803 117.624 C 200.276 118.043,175.993 117.705,175.881 117.277 C 175.800 116.970,175.770 116.992,175.749 117.374 C 175.709 118.118,175.796 118.123,188.439 118.126 C 194.861 118.128,209.651 118.184,221.306 118.251 C 239.487 118.357,242.515 118.327,242.623 118.045 C 242.821 117.529,245.719 117.584,245.874 118.107 C 246.122 118.944,246.085 121.406,245.821 121.670 C 245.670 121.821,245.549 122.591,245.549 123.399 L 245.549 124.855 250.870 124.855 C 254.724 124.855,256.320 124.776,256.658 124.566 C 257.036 124.332,257.161 124.337,257.318 124.590 C 257.558 124.975,257.760 124.103,258.033 121.503 C 258.140 120.486,258.395 118.613,258.600 117.341 C 259.061 114.481,259.780 109.262,260.240 105.434 C 260.431 103.844,260.744 101.243,260.936 99.653 C 261.128 98.064,261.442 95.410,261.633 93.757 C 262.317 87.847,262.618 85.310,263.579 77.341 C 263.687 76.451,263.887 74.734,264.024 73.526 C 264.162 72.318,264.377 70.497,264.503 69.480 C 264.926 66.050,265.241 62.852,265.164 62.778 C 265.121 62.738,252.289 62.642,236.647 62.565 C 221.006 62.488,206.571 62.362,204.569 62.284 C 201.608 62.170,200.912 62.203,200.831 62.459 M276.930 64.354 C 276.838 64.587,276.776 65.472,276.792 66.319 L 276.822 67.861 277.029 66.243 C 277.257 64.466,277.213 63.634,276.930 64.354 M276.437 68.701 C 276.373 69.002,276.264 69.977,276.195 70.867 C 276.127 71.757,275.969 73.370,275.844 74.451 C 275.450 77.885,275.127 80.753,274.919 82.659 C 274.809 83.676,274.611 85.497,274.479 86.705 C 274.348 87.913,274.128 89.838,273.990 90.983 C 273.322 96.552,273.148 98.725,273.389 98.478 C 273.440 98.425,273.606 97.237,273.756 95.838 C 273.907 94.439,274.116 92.514,274.221 91.561 C 274.326 90.607,274.524 88.786,274.661 87.514 C 274.798 86.243,275.013 84.318,275.137 83.237 C 275.262 82.156,275.470 80.309,275.601 79.133 C 275.731 77.957,275.945 76.032,276.076 74.855 C 276.699 69.241,276.777 68.377,276.670 68.269 C 276.606 68.205,276.502 68.400,276.437 68.701 M154.740 78.547 C 155.090 78.600,155.662 78.600,156.012 78.547 C 156.361 78.494,156.075 78.451,155.376 78.451 C 154.676 78.451,154.390 78.494,154.740 78.547 M153.642 79.306 C 153.720 79.434,154.195 79.538,154.696 79.538 C 155.197 79.538,155.607 79.434,155.607 79.306 C 155.607 79.179,155.133 79.075,154.553 79.075 C 153.909 79.075,153.554 79.165,153.642 79.306 M246.990 87.168 C 246.990 87.613,247.038 87.795,247.096 87.572 C 247.154 87.350,247.154 86.986,247.096 86.763 C 247.038 86.540,246.990 86.723,246.990 87.168 M246.759 88.786 C 246.759 89.231,246.806 89.413,246.865 89.191 C 246.923 88.968,246.923 88.604,246.865 88.382 C 246.806 88.159,246.759 88.341,246.759 88.786 M127.210 89.711 C 127.201 90.283,127.280 91.168,127.386 91.676 L 127.577 92.601 127.586 91.676 C 127.592 91.168,127.512 90.283,127.411 89.711 L 127.226 88.671 127.210 89.711 M156.354 89.711 C 156.354 90.156,156.402 90.338,156.460 90.116 C 156.518 89.893,156.518 89.529,156.460 89.306 C 156.402 89.084,156.354 89.266,156.354 89.711 M246.532 92.832 C 246.535 93.341,246.582 93.522,246.638 93.234 C 246.693 92.947,246.691 92.531,246.633 92.309 C 246.575 92.088,246.530 92.324,246.532 92.832 M127.676 93.757 C 127.670 94.393,127.748 95.382,127.849 95.954 L 128.035 96.994 128.046 95.838 C 128.053 95.202,127.975 94.214,127.873 93.642 L 127.688 92.601 127.676 93.757 M156.821 95.145 C 156.824 95.653,156.871 95.834,156.927 95.546 C 156.982 95.259,156.980 94.843,156.922 94.622 C 156.864 94.401,156.819 94.636,156.821 95.145 M128.113 98.497 C 128.144 100.360,128.494 101.546,128.522 99.884 C 128.536 99.058,128.447 98.225,128.324 98.035 C 128.156 97.776,128.103 97.893,128.113 98.497 M229.343 99.194 C 235.688 100.027,226.532 100.433,205.434 100.254 C 187.130 100.099,184.398 99.988,185.074 99.430 C 185.865 98.778,224.597 98.570,229.343 99.194 M273.008 100.000 C 272.914 100.509,272.848 101.393,272.862 101.965 L 272.886 103.006 273.099 101.734 C 273.216 101.035,273.281 100.150,273.245 99.769 C 273.182 99.122,273.166 99.138,273.008 100.000 M157.279 100.347 C 157.279 100.792,157.327 100.974,157.385 100.751 C 157.443 100.529,157.443 100.165,157.385 99.942 C 157.327 99.720,157.279 99.902,157.279 100.347 M128.688 103.699 C 128.773 104.590,128.882 105.361,128.930 105.414 C 129.140 105.646,128.986 102.739,128.772 102.428 C 128.604 102.184,128.579 102.560,128.688 103.699 M174.457 104.886 C 174.672 107.246,174.798 107.339,174.798 105.139 C 174.798 104.112,174.692 103.315,174.544 103.223 C 174.363 103.111,174.338 103.588,174.457 104.886 M272.537 104.277 C 272.449 104.595,272.387 105.324,272.400 105.896 L 272.424 106.936 272.634 105.667 C 272.865 104.272,272.800 103.334,272.537 104.277 M129.168 107.977 C 129.245 109.058,129.347 109.986,129.394 110.039 C 129.580 110.248,129.434 106.907,129.238 106.474 C 129.104 106.180,129.079 106.728,129.168 107.977 M174.965 109.711 C 175.036 110.855,175.131 111.835,175.177 111.888 C 175.353 112.091,175.218 108.531,175.033 108.092 C 174.919 107.823,174.891 108.497,174.965 109.711 M272.052 108.333 C 271.972 108.539,271.921 109.350,271.938 110.135 L 271.968 111.561 272.167 109.844 C 272.365 108.133,272.326 107.619,272.052 108.333 M158.209 110.173 C 158.211 110.682,158.259 110.863,158.314 110.575 C 158.369 110.288,158.367 109.872,158.309 109.650 C 158.251 109.429,158.206 109.665,158.209 110.173 M129.500 110.911 C 129.511 111.268,129.601 112.081,129.700 112.717 L 129.880 113.873 129.911 112.210 C 129.928 111.296,129.838 110.483,129.711 110.405 C 129.576 110.321,129.488 110.533,129.500 110.911 M175.410 114.220 C 175.487 115.428,175.589 116.460,175.636 116.513 C 175.824 116.722,175.676 112.918,175.480 112.486 C 175.347 112.193,175.321 112.830,175.410 114.220 M271.618 112.272 C 271.523 112.368,271.458 113.132,271.473 113.969 L 271.501 115.491 271.707 114.104 C 271.927 112.616,271.897 111.991,271.618 112.272 M130.030 115.838 C 130.111 116.792,130.278 118.405,130.400 119.422 C 130.792 122.695,131.064 125.143,131.325 127.746 C 131.465 129.145,131.678 131.069,131.797 132.023 C 131.917 132.977,132.132 134.954,132.276 136.416 C 132.597 139.692,132.995 142.018,132.830 139.653 C 132.718 138.044,132.163 132.543,131.769 129.133 C 131.637 127.988,131.434 126.168,131.319 125.087 C 131.204 124.006,131.000 122.185,130.865 121.040 C 130.730 119.896,130.540 117.949,130.443 116.713 C 130.346 115.477,130.180 114.385,130.074 114.285 C 129.968 114.186,129.949 114.884,130.030 115.838 M158.653 114.913 C 158.645 115.231,158.725 115.908,158.831 116.416 C 158.953 117.009,159.027 117.134,159.035 116.763 C 159.043 116.445,158.962 115.769,158.857 115.260 C 158.734 114.667,158.661 114.543,158.653 114.913 M271.142 116.538 C 271.058 116.852,271.001 117.682,271.015 118.382 L 271.041 119.653 271.247 118.047 C 271.462 116.370,271.405 115.553,271.142 116.538 M159.133 119.884 C 159.136 120.393,159.183 120.574,159.239 120.286 C 159.294 119.999,159.292 119.583,159.234 119.361 C 159.176 119.140,159.131 119.376,159.133 119.884 M270.730 120.135 C 270.718 120.251,270.612 121.335,270.494 122.543 C 270.376 123.751,270.188 125.520,270.075 126.474 C 269.880 128.127,269.618 130.471,269.146 134.798 C 268.898 137.070,268.556 140.062,268.216 142.948 C 267.692 147.386,267.522 149.052,267.519 149.807 C 267.511 151.298,267.738 150.373,267.971 147.962 C 268.193 145.673,268.314 144.575,268.912 139.422 C 269.157 137.312,269.266 136.316,269.813 131.214 C 269.950 129.942,270.163 128.069,270.287 127.052 C 270.742 123.331,271.010 120.182,270.882 120.054 C 270.810 119.982,270.742 120.018,270.730 120.135 M159.360 121.618 C 159.360 122.064,159.408 122.246,159.466 122.023 C 159.524 121.801,159.524 121.436,159.466 121.214 C 159.408 120.991,159.360 121.173,159.360 121.618 M248.324 123.815 C 248.324 124.006,248.168 124.162,247.977 124.162 C 247.786 124.162,247.630 124.006,247.630 123.815 C 247.630 123.624,247.786 123.468,247.977 123.468 C 248.168 123.468,248.324 123.624,248.324 123.815 M159.578 124.740 C 159.571 124.994,159.650 125.618,159.756 126.127 C 159.916 126.905,159.947 126.942,159.946 126.358 C 159.945 125.548,159.600 124.029,159.578 124.740 M245.090 125.967 C 245.088 126.574,245.177 126.908,245.318 126.821 C 245.611 126.640,245.611 125.772,245.318 125.318 C 245.154 125.064,245.093 125.239,245.090 125.967 M160.160 130.690 C 160.282 132.212,160.260 132.291,159.217 134.131 C 157.485 137.189,156.151 136.870,170.925 136.932 C 187.932 137.003,197.728 137.037,211.995 137.077 L 223.875 137.110 223.717 138.208 C 223.541 139.428,223.267 142.113,222.911 146.127 C 222.781 147.590,222.569 149.775,222.439 150.983 C 222.146 153.730,222.142 155.717,222.435 153.873 C 222.535 153.237,222.733 151.416,222.874 149.827 C 223.146 146.759,223.417 144.102,223.807 140.667 C 224.116 137.944,224.109 136.593,223.783 135.791 C 223.637 135.436,223.387 134.832,223.227 134.451 C 223.066 134.069,222.774 133.367,222.578 132.891 L 222.221 132.025 191.406 131.966 L 160.591 131.908 160.313 130.520 L 160.035 129.133 160.160 130.690 M200.729 135.354 C 202.984 136.354,198.048 136.698,185.482 136.416 C 180.378 136.302,179.389 136.125,180.067 135.447 C 180.446 135.069,199.888 134.981,200.729 135.354 M202.490 136.142 C 202.541 136.294,202.371 136.416,202.107 136.416 C 201.775 136.416,201.674 136.310,201.770 136.060 C 201.921 135.665,202.348 135.714,202.490 136.142 M132.992 142.659 C 132.987 143.104,133.066 143.936,133.167 144.509 L 133.353 145.549 133.354 144.393 C 133.355 143.757,133.276 142.925,133.179 142.543 L 133.003 141.850 132.992 142.659 M162.232 145.376 C 162.172 145.471,163.233 145.522,164.588 145.488 C 169.134 145.376,169.623 145.290,165.967 145.246 C 163.972 145.222,162.291 145.280,162.232 145.376 M171.561 145.359 C 174.620 145.526,178.214 145.535,178.115 145.376 C 178.056 145.280,176.271 145.222,174.148 145.246 C 172.026 145.270,170.861 145.321,171.561 145.359 M133.456 146.705 C 133.450 147.214,133.528 148.098,133.630 148.671 L 133.815 149.711 133.827 148.786 C 133.833 148.277,133.755 147.393,133.653 146.821 L 133.468 145.780 133.456 146.705 M178.306 146.358 C 178.299 146.676,178.379 147.353,178.484 147.861 C 178.607 148.455,178.680 148.579,178.688 148.208 C 178.696 147.890,178.616 147.214,178.510 146.705 C 178.388 146.112,178.314 145.988,178.306 146.358 M239.596 147.630 C 239.598 148.139,239.646 148.320,239.701 148.032 C 239.756 147.744,239.754 147.328,239.696 147.107 C 239.639 146.886,239.593 147.121,239.596 147.630 M178.765 150.173 C 178.759 150.428,178.841 151.052,178.946 151.561 L 179.138 152.486 179.141 151.676 C 179.143 151.231,179.061 150.607,178.960 150.289 C 178.810 149.822,178.773 149.799,178.765 150.173 M133.913 151.214 C 133.910 151.659,133.990 152.491,134.092 153.064 L 134.277 154.104 134.283 152.832 C 134.287 152.133,134.206 151.301,134.104 150.983 C 133.936 150.457,133.918 150.479,133.913 151.214 M239.141 152.254 C 239.143 152.890,239.188 153.123,239.241 152.771 C 239.294 152.420,239.293 151.900,239.238 151.615 C 239.183 151.331,239.140 151.618,239.141 152.254 M267.225 152.023 C 267.133 152.532,267.068 153.364,267.082 153.873 C 267.105 154.740,267.119 154.719,267.318 153.526 C 267.435 152.827,267.500 151.994,267.462 151.676 C 267.408 151.229,267.355 151.307,267.225 152.023 M179.346 154.913 C 179.422 155.613,179.523 156.228,179.569 156.281 C 179.748 156.486,179.610 154.542,179.414 154.104 C 179.279 153.802,179.255 154.083,179.346 154.913 M134.490 156.416 C 134.563 157.306,134.663 158.078,134.711 158.131 C 134.883 158.321,134.747 155.941,134.554 155.376 C 134.429 155.011,134.406 155.394,134.490 156.416 M238.684 156.416 C 238.686 157.179,238.729 157.463,238.780 157.048 C 238.832 156.632,238.831 156.008,238.778 155.661 C 238.725 155.313,238.683 155.653,238.684 156.416 M163.069 156.301 C 163.069 156.873,163.114 157.107,163.169 156.821 C 163.224 156.535,163.224 156.066,163.169 155.780 C 163.114 155.494,163.069 155.728,163.069 156.301 M266.763 156.272 C 266.668 156.701,266.601 157.481,266.615 158.006 L 266.640 158.960 266.850 157.919 C 266.966 157.347,267.032 156.566,266.998 156.185 L 266.936 155.491 266.763 156.272 M221.871 156.794 C 221.668 157.748,221.604 159.271,221.771 159.168 C 221.982 159.038,222.293 156.551,222.120 156.378 C 222.047 156.306,221.935 156.492,221.871 156.794 M179.791 158.266 C 179.983 159.413,180.117 159.597,180.112 158.709 C 180.110 158.338,180.002 157.879,179.872 157.688 C 179.703 157.439,179.680 157.603,179.791 158.266 M134.965 160.694 C 135.035 161.647,135.131 162.471,135.177 162.524 C 135.342 162.715,135.210 160.102,135.025 159.538 C 134.914 159.195,134.889 159.667,134.965 160.694 M238.189 160.578 C 238.165 161.087,238.095 161.919,238.033 162.428 L 237.921 163.353 238.163 162.581 C 238.296 162.157,238.367 161.324,238.319 160.731 C 238.235 159.664,238.233 159.663,238.189 160.578 M266.294 160.462 C 266.206 160.780,266.145 161.561,266.159 162.197 L 266.184 163.353 266.389 161.965 C 266.614 160.448,266.555 159.524,266.294 160.462 M163.522 160.925 C 163.522 161.370,163.569 161.552,163.628 161.329 C 163.686 161.107,163.686 160.743,163.628 160.520 C 163.569 160.298,163.522 160.480,163.522 160.925 M135.310 163.699 C 135.308 164.145,135.385 165.081,135.482 165.780 L 135.657 167.052 135.663 165.665 C 135.665 164.902,135.588 163.965,135.491 163.584 L 135.315 162.890 135.310 163.699 M202.775 164.393 C 202.466 164.592,202.466 164.617,202.775 164.617 C 202.965 164.617,203.277 164.516,203.468 164.393 C 203.776 164.194,203.776 164.169,203.468 164.169 C 203.277 164.169,202.965 164.270,202.775 164.393 M265.831 164.470 C 265.740 164.703,265.677 165.483,265.693 166.204 L 265.721 167.514 265.926 166.127 C 266.156 164.578,266.109 163.764,265.831 164.470 M163.954 165.222 C 163.966 165.720,164.065 166.387,164.174 166.705 C 164.302 167.080,164.324 166.795,164.237 165.896 C 164.083 164.289,163.920 163.902,163.954 165.222 M237.605 165.858 C 237.502 166.600,237.472 167.260,237.538 167.326 C 237.722 167.510,237.967 165.940,237.874 165.181 C 237.815 164.698,237.739 164.889,237.605 165.858 M135.855 168.671 C 135.958 170.175,136.066 171.219,136.654 176.416 C 136.915 178.720,137.263 181.944,137.472 184.003 C 137.554 184.805,137.673 185.410,137.737 185.346 C 137.849 185.234,137.327 179.680,136.888 176.301 C 136.772 175.410,136.558 173.486,136.411 172.023 C 136.060 168.515,135.693 166.299,135.855 168.671 M164.476 168.614 C 164.557 168.925,164.379 169.388,163.972 169.923 C 163.098 171.075,162.266 172.665,162.480 172.775 C 162.674 172.874,163.057 172.988,167.399 174.240 C 170.824 175.227,177.079 177.102,178.497 177.566 C 178.815 177.670,179.855 177.981,180.809 178.258 C 181.763 178.534,182.803 178.846,183.121 178.951 C 183.439 179.057,184.480 179.369,185.434 179.645 C 186.387 179.921,187.428 180.232,187.746 180.336 C 188.064 180.440,188.792 180.653,189.364 180.809 C 189.936 180.966,190.665 181.175,190.983 181.274 C 191.301 181.374,192.289 181.666,193.179 181.923 C 194.069 182.181,195.630 182.645,196.647 182.955 C 201.065 184.299,200.583 184.324,207.110 182.416 C 208.018 182.151,208.932 181.893,210.694 181.407 C 212.686 180.858,214.259 180.418,216.185 179.872 C 217.139 179.601,218.231 179.295,218.613 179.191 C 219.390 178.978,221.873 178.275,224.222 177.602 C 225.079 177.357,228.798 176.296,232.486 175.245 C 236.173 174.194,239.228 173.306,239.273 173.271 C 239.412 173.163,238.071 170.545,237.630 170.064 C 237.333 169.741,237.251 169.405,237.348 168.908 C 237.431 168.482,237.406 168.321,237.284 168.497 C 237.173 168.656,236.309 168.993,235.362 169.247 C 234.416 169.500,232.497 170.022,231.098 170.405 C 229.699 170.789,227.150 171.475,225.434 171.929 C 223.717 172.383,221.584 172.950,220.694 173.188 C 214.257 174.911,211.199 175.733,209.595 176.169 C 200.222 178.722,201.257 178.567,198.555 177.830 C 192.884 176.282,190.416 175.583,188.671 175.029 C 188.353 174.928,186.480 174.407,184.509 173.872 C 182.538 173.337,180.301 172.716,179.538 172.491 C 178.248 172.111,172.405 170.470,168.671 169.439 C 167.780 169.193,166.444 168.798,165.701 168.563 L 164.350 168.134 164.476 168.614 M265.362 168.561 C 265.277 168.876,265.221 169.757,265.235 170.520 L 265.262 171.908 265.463 170.173 C 265.673 168.363,265.624 167.581,265.362 168.561 M264.949 172.042 C 264.851 172.479,264.470 176.907,264.404 178.382 C 264.326 180.130,264.331 180.156,264.504 178.844 C 264.923 175.672,265.231 172.206,265.105 172.080 C 265.031 172.006,264.961 171.989,264.949 172.042 M263.958 181.075 C 263.893 181.501,263.773 182.578,263.692 183.468 C 263.495 185.629,263.179 188.571,263.021 189.711 C 262.951 190.220,262.727 192.192,262.524 194.094 C 262.121 197.869,262.001 198.129,260.649 198.143 C 260.244 198.147,259.847 198.254,259.769 198.382 C 259.592 198.668,259.605 198.668,261.007 198.367 C 262.371 198.075,262.555 197.737,262.759 195.145 C 262.890 193.478,263.057 191.897,263.576 187.399 C 264.111 182.769,264.310 180.533,264.196 180.419 C 264.130 180.353,264.023 180.648,263.958 181.075 M137.843 187.168 C 137.836 187.676,137.916 188.509,138.021 189.017 L 138.213 189.942 138.226 189.017 C 138.233 188.509,138.153 187.676,138.048 187.168 L 137.857 186.243 137.843 187.168 M138.314 191.098 C 138.306 191.607,138.383 192.491,138.485 193.064 C 138.746 194.527,138.766 192.985,138.508 191.329 C 138.332 190.203,138.327 190.197,138.314 191.098 M138.756 195.405 C 138.688 196.910,138.968 197.442,139.971 197.713 C 140.496 197.855,141.185 198.057,141.503 198.162 C 142.689 198.553,143.647 198.672,143.483 198.406 C 143.396 198.265,143.076 198.150,142.772 198.150 C 142.467 198.150,141.979 198.057,141.687 197.942 C 141.395 197.828,140.722 197.618,140.190 197.476 C 139.258 197.226,139.217 197.175,139.004 196.007 C 138.883 195.342,138.771 195.071,138.756 195.405 M143.834 198.696 C 144.107 198.931,145.227 199.071,145.092 198.853 C 145.011 198.721,144.672 198.613,144.341 198.613 C 144.009 198.613,143.781 198.650,143.834 198.696 M258.035 198.844 C 257.844 198.967,257.408 199.070,257.066 199.072 C 256.723 199.074,256.379 199.179,256.301 199.306 C 256.103 199.626,256.313 199.600,258.035 199.092 C 258.885 198.841,259.287 198.642,258.960 198.634 C 258.642 198.626,258.225 198.721,258.035 198.844 M145.896 199.306 C 146.787 199.592,147.262 199.592,146.821 199.306 C 146.630 199.183,146.214 199.091,145.896 199.102 L 145.318 199.121 145.896 199.306 M147.630 199.769 C 148.272 200.045,148.726 200.045,148.555 199.769 C 148.476 199.642,148.132 199.545,147.790 199.554 C 147.234 199.568,147.217 199.591,147.630 199.769 M254.451 199.769 C 254.287 200.035,254.661 200.035,255.491 199.769 C 256.043 199.592,256.036 199.583,255.332 199.561 C 254.926 199.548,254.529 199.642,254.451 199.769 M149.249 200.231 C 149.933 200.525,150.744 200.525,150.289 200.231 C 150.098 200.108,149.682 200.013,149.364 200.020 C 148.835 200.031,148.825 200.049,149.249 200.231 M252.717 200.231 C 252.275 200.517,252.750 200.517,253.642 200.231 L 254.220 200.046 253.642 200.027 C 253.324 200.016,252.908 200.108,252.717 200.231 M151.098 200.694 C 151.790 200.991,152.367 200.991,151.908 200.694 C 151.717 200.570,151.353 200.475,151.098 200.482 L 150.636 200.495 151.098 200.694 M250.867 200.694 C 250.425 200.979,250.901 200.979,251.792 200.694 L 252.370 200.509 251.792 200.489 C 251.474 200.478,251.058 200.570,250.867 200.694 M152.832 201.156 C 153.023 201.279,153.387 201.380,153.642 201.380 C 154.025 201.380,154.044 201.342,153.757 201.156 C 153.566 201.033,153.202 200.932,152.948 200.932 C 152.565 200.932,152.545 200.970,152.832 201.156 M249.133 201.156 L 248.671 201.355 249.133 201.355 C 249.387 201.355,249.803 201.265,250.058 201.156 L 250.520 200.957 250.058 200.957 C 249.803 200.957,249.387 201.047,249.133 201.156 M154.247 201.492 C 154.304 201.549,155.544 201.907,157.002 202.287 C 158.460 202.667,160.846 203.292,162.303 203.675 C 163.761 204.058,164.991 204.334,165.038 204.288 C 165.084 204.242,164.932 204.146,164.700 204.075 C 163.939 203.842,161.520 203.196,160.694 203.005 C 160.249 202.903,158.688 202.498,157.225 202.107 C 154.593 201.403,154.044 201.289,154.247 201.492 M245.318 202.092 C 243.983 202.452,242.214 202.914,241.387 203.117 C 239.656 203.543,238.284 203.908,237.457 204.162 C 236.585 204.430,235.110 204.816,234.366 204.971 C 234.001 205.047,233.753 205.160,233.815 205.222 C 233.931 205.337,234.477 205.219,237.457 204.431 C 238.410 204.179,240.439 203.642,241.965 203.239 C 244.751 202.502,245.427 202.330,247.457 201.844 C 248.561 201.580,248.903 201.366,248.150 201.412 C 247.928 201.425,246.653 201.731,245.318 202.092 M165.337 204.476 C 165.390 204.522,165.746 204.629,166.127 204.714 C 166.634 204.828,166.727 204.806,166.474 204.635 C 166.162 204.424,165.105 204.276,165.337 204.476 M166.956 204.938 C 167.009 204.983,167.416 205.087,167.861 205.169 C 168.431 205.273,168.568 205.250,168.324 205.090 C 168.010 204.884,166.726 204.742,166.956 204.938 M168.805 205.401 C 168.858 205.447,169.214 205.554,169.595 205.639 C 170.102 205.753,170.195 205.731,169.942 205.560 C 169.630 205.348,168.573 205.201,168.805 205.401 M232.370 205.560 C 232.117 205.731,232.210 205.753,232.717 205.639 C 233.567 205.449,233.751 205.317,233.160 205.321 C 232.916 205.323,232.561 205.431,232.370 205.560 M170.867 206.012 C 171.758 206.297,172.234 206.297,171.792 206.012 C 171.601 205.888,171.185 205.796,170.867 205.807 L 170.289 205.826 170.867 206.012 M230.289 206.012 C 229.851 206.295,230.561 206.295,231.445 206.012 C 232.012 205.830,232.009 205.826,231.329 205.807 C 230.948 205.796,230.480 205.888,230.289 206.012 M172.601 206.474 C 173.292 206.771,173.870 206.771,173.410 206.474 C 173.220 206.351,172.855 206.256,172.601 206.263 L 172.139 206.275 172.601 206.474 M228.671 206.474 C 228.211 206.771,228.789 206.771,229.480 206.474 L 229.942 206.275 229.480 206.263 C 229.225 206.256,228.861 206.351,228.671 206.474 M174.335 206.936 C 174.526 207.060,174.838 207.161,175.029 207.161 C 175.337 207.161,175.337 207.136,175.029 206.936 C 174.838 206.813,174.526 206.712,174.335 206.712 C 174.027 206.712,174.027 206.737,174.335 206.936 M226.936 206.936 L 226.474 207.135 226.936 207.148 C 227.191 207.155,227.555 207.060,227.746 206.936 C 228.205 206.639,227.628 206.639,226.936 206.936 M176.069 207.399 C 176.324 207.508,176.688 207.598,176.879 207.598 C 177.097 207.598,177.054 207.524,176.763 207.399 C 176.509 207.290,176.145 207.200,175.954 207.200 C 175.735 207.200,175.778 207.274,176.069 207.399 M225.087 207.399 C 224.498 207.652,225.105 207.652,225.896 207.399 C 226.361 207.250,226.383 207.212,226.012 207.207 C 225.757 207.203,225.341 207.290,225.087 207.399 " stroke="none" fill="#f48b40" fill-rule="evenodd"></path><path id="path4" d="M139.557 6.854 C 139.369 7.344,138.900 10.312,138.868 11.214 L 138.844 11.908 142.428 11.957 C 144.399 11.984,146.506 12.010,147.110 12.015 C 147.714 12.019,148.208 12.101,148.208 12.197 C 148.208 12.292,145.997 12.370,143.295 12.370 L 138.382 12.370 138.456 26.012 C 138.497 33.514,138.582 39.837,138.646 40.062 C 138.800 40.605,148.671 40.579,148.852 40.035 C 148.933 39.789,148.855 39.777,148.481 39.978 C 147.778 40.354,139.323 40.322,139.007 39.942 C 138.849 39.751,138.746 35.128,138.705 26.358 L 138.644 13.064 143.628 13.001 L 148.612 12.939 148.930 11.498 L 149.249 10.058 149.364 12.948 C 149.428 14.538,149.404 16.358,149.312 16.994 C 149.220 17.630,149.075 18.700,148.990 19.371 C 148.905 20.042,148.746 20.647,148.637 20.714 C 148.303 20.920,148.417 21.676,148.805 21.825 C 149.275 22.005,156.149 22.009,156.618 21.829 C 156.906 21.719,156.947 21.420,156.838 20.248 C 156.764 19.453,156.779 17.485,156.872 15.875 L 157.041 12.948 162.092 12.948 L 167.142 12.948 167.229 11.850 C 167.277 11.246,167.328 16.214,167.343 22.890 C 167.358 29.566,167.284 35.913,167.179 36.994 C 167.004 38.801,167.023 39.310,167.256 39.056 C 167.862 38.396,168.185 13.411,167.656 8.136 L 167.514 6.729 162.709 6.635 C 160.067 6.584,157.857 6.618,157.800 6.711 C 157.720 6.840,156.994 11.559,156.994 11.948 C 156.994 11.989,159.153 12.035,161.792 12.050 C 164.978 12.068,166.227 12.139,165.509 12.260 C 164.914 12.360,162.804 12.434,160.819 12.425 C 156.744 12.405,156.815 12.376,156.718 14.104 L 156.647 15.376 153.295 15.376 L 149.942 15.376 149.879 11.231 C 149.840 8.652,149.720 6.971,149.562 6.780 C 149.140 6.272,139.754 6.341,139.557 6.854 M171.686 6.690 C 171.466 7.046,171.071 11.110,171.213 11.557 C 171.359 12.017,171.532 12.023,184.524 12.023 C 196.210 12.023,197.688 12.063,197.688 12.378 C 197.688 12.712,180.985 12.758,173.295 12.445 C 170.535 12.333,170.636 12.146,170.636 17.352 C 170.636 22.504,170.080 21.965,175.395 21.965 L 179.422 21.965 179.422 31.214 C 179.422 36.301,179.500 40.462,179.595 40.463 C 179.691 40.463,179.740 36.249,179.706 31.098 L 179.643 21.734 176.122 21.707 C 174.186 21.692,172.289 21.613,171.908 21.531 L 171.214 21.383 171.214 17.223 L 171.214 13.064 184.566 13.004 L 197.919 12.944 197.916 16.819 C 197.911 22.290,198.385 21.734,193.730 21.734 L 189.827 21.734 189.795 27.225 C 189.777 30.246,189.699 34.434,189.621 36.532 L 189.480 40.347 184.740 40.470 L 180.000 40.593 184.624 40.640 C 187.168 40.665,189.372 40.608,189.524 40.512 C 189.749 40.368,190.281 27.912,190.288 22.601 L 190.289 21.965 193.931 21.962 C 195.934 21.960,197.711 21.870,197.881 21.763 C 198.348 21.467,198.582 6.990,198.123 6.843 C 197.552 6.661,171.796 6.512,171.686 6.690 M202.017 9.191 C 201.854 12.297,201.411 12.031,207.030 12.191 C 213.395 12.371,213.352 12.717,206.966 12.717 C 202.317 12.717,201.872 12.751,201.777 13.121 C 201.719 13.344,201.677 19.613,201.681 27.052 L 201.690 40.578 201.943 26.821 L 202.197 13.064 206.821 13.140 C 212.488 13.234,211.892 13.037,213.401 15.318 C 214.095 16.367,214.719 17.277,214.788 17.341 C 214.857 17.405,215.017 17.627,215.145 17.835 C 216.160 19.496,218.373 22.428,218.611 22.428 C 218.774 22.428,219.092 22.144,219.319 21.798 C 219.546 21.452,219.825 21.061,219.939 20.931 C 220.265 20.559,222.350 17.590,223.273 16.185 C 223.732 15.486,224.422 14.514,224.806 14.026 L 225.504 13.139 230.190 13.217 C 232.767 13.260,234.947 13.367,235.035 13.455 C 235.123 13.543,235.198 19.057,235.201 25.709 L 235.206 37.803 235.405 30.058 C 235.514 25.798,235.578 20.179,235.547 17.572 L 235.491 12.832 230.462 12.770 C 227.248 12.730,225.434 12.623,225.434 12.473 C 225.434 12.320,227.046 12.243,230.000 12.255 C 232.512 12.264,234.697 12.268,234.855 12.263 C 235.253 12.251,235.264 7.380,234.867 6.983 C 234.669 6.784,233.232 6.707,229.838 6.711 L 225.087 6.716 223.649 8.849 C 219.744 14.641,218.266 16.482,218.266 15.552 C 218.266 15.439,218.082 15.146,217.858 14.899 C 217.633 14.653,217.096 13.895,216.664 13.216 C 216.232 12.537,215.764 11.860,215.624 11.713 C 215.484 11.566,214.701 10.457,213.884 9.249 C 211.999 6.462,212.677 6.713,207.027 6.709 L 202.147 6.705 202.017 9.191 M240.078 6.892 C 239.621 6.957,239.566 7.141,239.430 9.089 C 239.195 12.434,239.203 36.904,239.440 38.960 L 239.653 40.809 251.618 40.869 L 263.584 40.929 263.539 39.135 L 263.495 37.341 263.411 38.838 C 263.365 39.661,263.239 40.390,263.131 40.456 C 262.805 40.658,240.054 40.593,239.851 40.390 C 239.564 40.103,239.612 16.204,239.904 14.382 L 240.059 13.410 244.943 13.411 L 249.827 13.411 249.853 22.486 L 249.880 31.561 256.732 31.676 C 260.501 31.740,263.584 31.714,263.584 31.618 C 263.584 31.523,260.570 31.445,256.886 31.445 C 250.783 31.445,250.201 31.411,250.333 31.067 C 250.464 30.725,251.066 30.705,256.773 30.857 C 264.088 31.051,263.459 31.331,263.108 28.040 C 262.748 24.666,263.380 24.943,256.445 25.121 C 251.501 25.248,250.479 25.220,250.272 24.949 C 250.100 24.724,250.074 22.912,250.188 19.075 C 250.397 11.983,250.986 12.717,245.079 12.717 C 242.001 12.717,240.231 12.632,240.231 12.486 C 240.231 12.339,241.961 12.254,244.957 12.254 C 247.557 12.254,249.726 12.176,249.777 12.081 C 249.926 11.806,249.500 7.327,249.307 7.136 C 249.136 6.967,241.053 6.753,240.078 6.892 M212.985 8.728 C 213.399 9.332,213.908 10.010,214.115 10.235 C 214.323 10.460,214.639 10.928,214.818 11.276 C 214.997 11.623,215.204 11.960,215.278 12.023 C 215.351 12.087,216.080 13.117,216.896 14.314 L 218.381 16.488 218.447 18.533 C 218.515 20.637,218.280 21.139,217.761 20.000 C 217.617 19.682,217.411 19.422,217.304 19.422 C 217.197 19.422,217.110 19.314,217.110 19.181 C 217.110 19.049,216.902 18.717,216.647 18.444 C 216.393 18.171,216.185 17.811,216.185 17.644 C 216.185 17.477,216.105 17.341,216.008 17.341 C 215.911 17.341,215.574 16.925,215.260 16.416 C 214.946 15.908,214.609 15.491,214.512 15.491 C 214.415 15.491,214.335 15.386,214.335 15.257 C 214.335 15.030,212.750 12.491,212.461 12.254 C 212.287 12.111,211.950 7.630,212.114 7.630 C 212.179 7.630,212.571 8.124,212.985 8.728 M156.301 21.393 C 156.301 21.865,149.117 21.803,148.959 21.329 C 148.885 21.106,149.710 21.040,152.582 21.040 C 155.761 21.040,156.301 21.092,156.301 21.393 M211.946 28.131 C 211.861 28.216,211.792 31.023,211.792 34.369 L 211.792 40.453 206.879 40.520 L 201.965 40.588 206.994 40.641 L 212.023 40.694 212.023 34.566 C 212.023 27.970,212.047 27.855,213.064 29.595 C 213.435 30.231,213.821 30.751,213.921 30.751 C 214.022 30.751,214.104 30.888,214.104 31.055 C 214.104 31.221,214.290 31.560,214.518 31.806 C 214.746 32.053,215.692 33.372,216.621 34.739 C 217.808 36.485,218.401 37.173,218.616 37.051 C 218.987 36.842,220.554 34.718,222.890 31.258 L 224.624 28.689 224.740 34.557 C 224.870 41.173,224.750 40.725,226.396 40.745 C 230.374 40.791,235.145 40.669,235.145 40.520 C 235.145 40.425,232.995 40.377,230.368 40.414 C 227.741 40.451,225.506 40.396,225.403 40.293 C 225.299 40.189,225.143 37.480,225.056 34.272 C 224.969 31.064,224.812 28.439,224.708 28.439 C 224.604 28.439,223.792 29.506,222.903 30.809 C 219.955 35.134,218.698 36.792,218.435 36.704 C 218.291 36.656,216.868 34.678,215.272 32.308 C 212.383 28.018,212.239 27.838,211.946 28.131 M149.901 31.497 C 149.437 32.109,148.545 39.695,148.985 39.289 C 149.115 39.169,149.497 36.394,149.747 33.757 C 149.961 31.489,149.631 31.676,153.415 31.676 L 156.763 31.676 156.763 36.057 L 156.763 40.437 157.861 40.508 C 159.779 40.631,167.168 40.449,167.168 40.279 C 167.168 40.189,164.905 40.116,162.139 40.116 L 157.110 40.116 156.994 35.723 L 156.879 31.329 153.501 31.266 C 150.973 31.218,150.068 31.276,149.901 31.497 M144.682 42.485 C 147.512 42.522,152.142 42.522,154.971 42.485 C 157.801 42.449,155.486 42.418,149.827 42.418 C 144.168 42.418,141.853 42.449,144.682 42.485 M176.144 42.717 C 180.254 42.752,186.913 42.752,190.942 42.717 C 194.970 42.681,191.607 42.652,183.468 42.652 C 175.329 42.652,172.034 42.681,176.144 42.717 M204.566 42.716 C 205.997 42.757,208.338 42.757,209.769 42.716 C 211.199 42.675,210.029 42.642,207.168 42.642 C 204.306 42.642,203.136 42.675,204.566 42.716 M227.354 42.716 C 228.728 42.757,230.913 42.757,232.209 42.716 C 233.506 42.675,232.382 42.641,229.711 42.641 C 227.040 42.641,225.980 42.675,227.354 42.716 M222.365 42.941 C 222.775 42.993,223.504 42.993,223.983 42.943 C 224.463 42.893,224.127 42.851,223.237 42.850 C 222.347 42.849,221.954 42.890,222.365 42.941 M235.202 42.934 C 235.425 42.992,235.789 42.992,236.012 42.934 C 236.234 42.876,236.052 42.828,235.607 42.828 C 235.162 42.828,234.980 42.876,235.202 42.934 M243.873 42.948 C 247.211 42.984,252.673 42.984,256.012 42.948 C 259.350 42.912,256.618 42.882,249.942 42.882 C 243.266 42.882,240.535 42.912,243.873 42.948 M193.699 48.495 C 194.494 48.540,195.795 48.540,196.590 48.495 C 197.384 48.450,196.734 48.413,195.145 48.413 C 193.555 48.413,192.905 48.450,193.699 48.495 M216.705 48.483 C 216.928 48.541,217.292 48.541,217.514 48.483 C 217.737 48.425,217.555 48.377,217.110 48.377 C 216.665 48.377,216.483 48.425,216.705 48.483 M166.958 48.889 L 165.938 49.162 166.654 49.459 C 167.250 49.706,167.596 49.696,168.714 49.403 C 169.453 49.209,169.850 49.033,169.595 49.011 C 169.202 48.977,169.220 48.943,169.711 48.786 C 170.674 48.478,168.138 48.572,166.958 48.889 M170.616 48.857 C 170.718 48.959,172.766 48.944,175.169 48.823 L 179.538 48.603 174.985 48.637 C 172.481 48.655,170.515 48.754,170.616 48.857 M221.188 48.902 C 221.347 49.316,221.121 49.299,227.052 49.353 C 229.659 49.377,232.208 49.469,232.717 49.558 C 233.479 49.691,233.542 49.676,233.079 49.476 C 232.770 49.342,230.221 49.080,227.414 48.894 C 220.973 48.468,221.022 48.468,221.188 48.902 M186.314 49.884 C 187.879 49.924,190.376 49.924,191.863 49.884 C 193.350 49.843,192.069 49.811,189.017 49.811 C 185.965 49.811,184.749 49.844,186.314 49.884 M209.191 49.882 C 209.986 49.927,211.286 49.927,212.081 49.882 C 212.876 49.837,212.225 49.800,210.636 49.800 C 209.046 49.800,208.396 49.837,209.191 49.882 M217.286 49.875 C 217.574 49.930,217.990 49.928,218.211 49.870 C 218.432 49.812,218.197 49.767,217.688 49.769 C 217.179 49.772,216.998 49.819,217.286 49.875 M123.072 53.526 C 123.074 54.162,123.119 54.395,123.172 54.043 C 123.225 53.692,123.223 53.171,123.169 52.887 C 123.114 52.603,123.070 52.890,123.072 53.526 M278.213 55.723 C 278.213 56.295,278.258 56.529,278.313 56.243 C 278.369 55.957,278.369 55.488,278.313 55.202 C 278.258 54.916,278.213 55.150,278.213 55.723 M123.496 57.938 C 123.511 58.436,123.606 59.156,123.708 59.538 C 123.825 59.975,123.846 59.675,123.766 58.728 C 123.623 57.044,123.454 56.550,123.496 57.938 M277.751 60.116 C 277.751 60.688,277.796 60.922,277.851 60.636 C 277.906 60.350,277.906 59.882,277.851 59.595 C 277.796 59.309,277.751 59.543,277.751 60.116 M277.279 63.815 C 277.279 64.260,277.327 64.442,277.385 64.220 C 277.443 63.997,277.443 63.633,277.385 63.410 C 277.327 63.188,277.279 63.370,277.279 63.815 M124.909 70.520 C 124.909 70.965,124.957 71.147,125.015 70.925 C 125.073 70.702,125.073 70.338,125.015 70.116 C 124.957 69.893,124.909 70.075,124.909 70.520 M276.204 73.314 C 276.117 73.969,276.093 74.551,276.150 74.608 C 276.207 74.665,276.326 74.178,276.416 73.526 C 276.506 72.874,276.530 72.291,276.471 72.232 C 276.411 72.172,276.291 72.659,276.204 73.314 M275.892 76.763 C 275.892 77.208,275.939 77.390,275.998 77.168 C 276.056 76.945,276.056 76.581,275.998 76.358 C 275.939 76.136,275.892 76.318,275.892 76.763 M223.642 80.868 L 200.694 80.927 200.694 81.920 C 200.694 83.582,202.359 83.468,178.104 83.468 L 156.069 83.468 156.069 84.822 C 156.069 85.566,156.147 86.840,156.241 87.654 L 156.412 89.133 156.530 87.977 L 156.647 86.821 178.448 86.762 L 200.249 86.703 200.694 85.664 L 201.140 84.624 223.460 84.586 C 235.736 84.565,245.962 84.539,246.185 84.528 C 246.529 84.512,246.607 84.785,246.705 86.358 L 246.821 88.208 246.992 86.936 C 247.281 84.795,247.209 80.986,246.879 80.892 C 246.720 80.846,236.263 80.836,223.642 80.868 M126.528 84.855 C 126.528 85.301,126.575 85.483,126.633 85.260 C 126.692 85.038,126.692 84.673,126.633 84.451 C 126.575 84.228,126.528 84.410,126.528 84.855 M274.967 85.087 C 274.967 85.532,275.015 85.714,275.073 85.491 C 275.131 85.269,275.131 84.905,275.073 84.682 C 275.015 84.460,274.967 84.642,274.967 85.087 M246.384 91.529 C 246.293 92.847,246.265 93.972,246.323 94.030 C 246.469 94.176,246.782 89.825,246.653 89.442 C 246.596 89.272,246.475 90.211,246.384 91.529 M156.575 91.214 C 156.574 91.723,156.653 92.659,156.752 93.295 L 156.932 94.451 156.940 92.948 C 156.945 92.121,156.865 91.185,156.763 90.867 C 156.604 90.372,156.577 90.422,156.575 91.214 M157.158 97.225 C 157.229 98.497,157.324 99.581,157.371 99.634 C 157.536 99.820,157.400 96.293,157.216 95.607 C 157.110 95.208,157.085 95.897,157.158 97.225 M127.927 97.919 C 127.929 98.555,127.974 98.788,128.027 98.436 C 128.080 98.085,128.079 97.564,128.024 97.280 C 127.969 96.996,127.926 97.283,127.927 97.919 M273.358 99.422 C 273.358 99.994,273.403 100.228,273.458 99.942 C 273.513 99.656,273.513 99.188,273.458 98.902 C 273.403 98.616,273.358 98.850,273.358 99.422 M173.926 100.347 C 173.926 100.792,173.974 100.974,174.032 100.751 C 174.090 100.529,174.090 100.165,174.032 99.942 C 173.974 99.720,173.926 99.902,173.926 100.347 M157.627 102.081 C 157.696 103.353,157.789 104.436,157.835 104.489 C 157.996 104.674,157.863 101.151,157.684 100.462 C 157.583 100.077,157.558 100.797,157.627 102.081 M189.075 100.054 C 189.616 100.102,190.500 100.102,191.040 100.054 C 191.581 100.005,191.139 99.965,190.058 99.965 C 188.977 99.965,188.535 100.005,189.075 100.054 M226.527 100.051 C 226.937 100.102,227.665 100.103,228.145 100.053 C 228.625 100.003,228.289 99.961,227.399 99.960 C 226.509 99.959,226.116 100.000,226.527 100.051 M194.740 100.288 C 195.853 100.330,197.673 100.330,198.786 100.288 C 199.899 100.245,198.988 100.211,196.763 100.211 C 194.538 100.211,193.627 100.245,194.740 100.288 M220.058 100.287 C 220.980 100.331,222.488 100.331,223.410 100.287 C 224.332 100.243,223.578 100.207,221.734 100.207 C 219.890 100.207,219.136 100.243,220.058 100.287 M128.382 102.081 C 128.385 102.590,128.432 102.770,128.487 102.483 C 128.543 102.195,128.540 101.779,128.483 101.558 C 128.425 101.337,128.379 101.572,128.382 102.081 M174.176 103.006 C 174.177 103.769,174.220 104.053,174.272 103.637 C 174.323 103.222,174.322 102.598,174.269 102.250 C 174.216 101.903,174.174 102.243,174.176 103.006 M272.886 103.584 C 272.886 104.029,272.934 104.211,272.992 103.988 C 273.050 103.766,273.050 103.402,272.992 103.179 C 272.934 102.957,272.886 103.139,272.886 103.584 M157.925 105.222 C 157.928 105.529,158.036 106.821,158.164 108.092 C 158.293 109.364,158.508 111.549,158.644 112.948 C 158.779 114.347,158.974 116.324,159.078 117.341 L 159.267 119.191 159.184 117.225 C 159.138 116.145,158.988 114.116,158.851 112.717 C 158.714 111.318,158.506 108.992,158.389 107.547 C 158.200 105.207,157.909 103.750,157.925 105.222 M128.840 106.127 C 128.840 106.572,128.887 106.754,128.946 106.532 C 129.004 106.309,129.004 105.945,128.946 105.723 C 128.887 105.500,128.840 105.682,128.840 106.127 M174.580 107.649 C 174.587 108.147,174.684 108.971,174.794 109.480 C 174.943 110.165,174.962 109.956,174.866 108.671 C 174.727 106.790,174.558 106.191,174.580 107.649 M272.424 107.514 C 272.424 107.960,272.471 108.142,272.529 107.919 C 272.587 107.697,272.587 107.332,272.529 107.110 C 272.471 106.887,272.424 107.069,272.424 107.514 M175.056 112.852 C 175.071 113.413,175.166 114.185,175.266 114.566 C 175.377 114.987,175.399 114.623,175.323 113.642 C 175.180 111.804,175.015 111.316,175.056 112.852 M129.765 114.451 C 129.765 114.896,129.812 115.078,129.870 114.855 C 129.929 114.633,129.929 114.269,129.870 114.046 C 129.812 113.824,129.765 114.006,129.765 114.451 M271.508 116.301 C 271.508 116.873,271.553 117.107,271.608 116.821 C 271.663 116.535,271.663 116.066,271.608 115.780 C 271.553 115.494,271.508 115.728,271.508 116.301 M175.613 118.035 C 175.670 119.768,175.971 121.819,176.401 123.412 L 176.666 124.397 188.622 124.337 L 200.578 124.277 200.834 123.486 C 201.195 122.368,200.045 122.422,221.923 122.488 L 241.881 122.548 241.744 124.453 C 241.669 125.501,241.565 127.087,241.513 127.977 C 241.343 130.887,241.762 128.029,242.056 124.277 C 242.206 122.370,242.408 120.279,242.505 119.632 L 242.683 118.455 231.226 118.300 C 224.924 118.216,210.353 118.134,198.844 118.119 C 187.335 118.104,177.607 118.069,177.225 118.040 C 176.844 118.012,176.356 117.973,176.142 117.954 C 175.886 117.931,175.719 117.661,175.656 117.168 C 175.603 116.754,175.584 117.145,175.613 118.035 M130.196 119.210 C 130.209 119.581,130.308 120.145,130.416 120.462 C 130.548 120.852,130.569 120.664,130.479 119.884 C 130.329 118.584,130.161 118.184,130.196 119.210 M189.075 118.841 L 200.925 118.844 200.925 119.553 C 200.925 121.275,201.839 121.156,188.575 121.156 L 176.704 121.156 176.455 120.520 C 176.220 119.918,176.099 119.202,176.158 118.759 C 176.173 118.649,176.419 118.622,176.705 118.698 C 176.991 118.775,182.558 118.839,189.075 118.841 M159.365 120.116 C 159.367 120.624,159.415 120.805,159.470 120.518 C 159.525 120.230,159.523 119.814,159.465 119.593 C 159.407 119.372,159.362 119.607,159.365 120.116 M271.022 120.260 C 271.000 120.721,270.931 121.449,270.868 121.879 L 270.753 122.659 270.996 121.884 C 271.130 121.458,271.199 120.730,271.150 120.266 L 271.060 119.422 271.022 120.260 M159.565 122.678 C 159.580 123.558,159.675 124.590,159.775 124.971 C 159.879 125.365,159.904 124.716,159.832 123.468 C 159.683 120.871,159.526 120.407,159.565 122.678 M130.652 123.487 C 130.661 123.922,130.759 124.486,130.869 124.740 C 130.998 125.037,131.021 124.790,130.936 124.046 C 130.777 122.672,130.629 122.381,130.652 123.487 M160.058 127.977 C 160.056 128.613,160.134 129.445,160.231 129.827 L 160.408 130.520 160.415 129.827 C 160.419 129.445,160.341 128.613,160.242 127.977 L 160.062 126.821 160.058 127.977 M241.087 131.768 C 240.992 132.708,240.961 133.524,241.017 133.579 C 241.170 133.732,241.443 131.262,241.344 130.619 C 241.297 130.310,241.181 130.827,241.087 131.768 M240.612 136.038 C 240.516 137.038,240.487 137.905,240.546 137.964 C 240.697 138.115,240.991 135.189,240.878 134.658 C 240.827 134.417,240.707 135.038,240.612 136.038 M183.983 135.196 C 184.394 135.247,185.122 135.248,185.602 135.198 C 186.081 135.148,185.746 135.106,184.855 135.105 C 183.965 135.104,183.573 135.145,183.983 135.196 M196.127 135.195 C 196.477 135.247,197.049 135.247,197.399 135.195 C 197.749 135.142,197.462 135.098,196.763 135.098 C 196.064 135.098,195.777 135.142,196.127 135.195 M132.077 135.954 C 132.077 136.399,132.124 136.581,132.183 136.358 C 132.241 136.136,132.241 135.772,132.183 135.549 C 132.124 135.327,132.077 135.509,132.077 135.954 M180.029 135.445 C 179.683 136.005,180.911 136.542,181.781 136.211 C 182.808 135.821,182.493 135.260,181.247 135.260 C 180.640 135.260,180.092 135.343,180.029 135.445 M199.538 135.607 C 200.144 135.783,200.367 135.918,200.071 135.931 C 199.049 135.977,199.280 136.416,200.326 136.416 C 201.226 136.416,201.352 136.359,201.223 136.012 C 200.999 135.403,200.680 135.265,199.538 135.286 L 198.497 135.306 199.538 135.607 M201.770 136.060 C 201.674 136.310,201.775 136.416,202.107 136.416 C 202.371 136.416,202.541 136.294,202.490 136.142 C 202.348 135.714,201.921 135.665,201.770 136.060 M190.581 136.582 C 190.933 136.635,191.453 136.634,191.737 136.579 C 192.022 136.524,191.734 136.481,191.098 136.482 C 190.462 136.484,190.230 136.529,190.581 136.582 M132.308 137.803 C 132.308 138.249,132.356 138.431,132.414 138.208 C 132.472 137.986,132.472 137.621,132.414 137.399 C 132.356 137.176,132.308 137.358,132.308 137.803 M268.955 138.728 C 268.955 139.173,269.003 139.355,269.061 139.133 C 269.119 138.910,269.119 138.546,269.061 138.324 C 269.003 138.101,268.955 138.283,268.955 138.728 M240.124 140.703 C 240.035 141.418,240.010 142.052,240.069 142.111 C 240.127 142.170,240.248 141.632,240.338 140.916 C 240.427 140.200,240.453 139.566,240.394 139.508 C 240.335 139.449,240.214 139.987,240.124 140.703 M268.729 141.387 C 268.731 141.896,268.779 142.077,268.834 141.789 C 268.889 141.502,268.887 141.085,268.829 140.864 C 268.772 140.643,268.726 140.879,268.729 141.387 M239.648 145.051 C 239.560 145.752,239.535 146.464,239.591 146.631 C 239.648 146.799,239.769 146.275,239.861 145.467 C 239.953 144.659,239.979 143.948,239.918 143.887 C 239.857 143.826,239.735 144.350,239.648 145.051 M162.171 145.764 C 162.100 145.949,162.091 146.288,162.150 146.518 C 162.217 146.777,162.269 146.680,162.285 146.264 L 162.312 145.591 167.341 145.743 C 170.107 145.826,173.635 145.895,175.181 145.895 L 177.992 145.896 178.112 147.110 C 178.178 147.777,178.350 149.260,178.495 150.405 C 178.639 151.549,178.829 153.231,178.916 154.143 C 179.004 155.054,179.166 155.887,179.278 155.993 C 179.393 156.102,179.415 155.589,179.329 154.798 C 179.092 152.627,178.689 149.423,178.397 147.399 L 178.130 145.549 170.215 145.488 C 163.463 145.436,162.281 145.477,162.171 145.764 M162.333 147.977 C 162.361 150.130,162.713 151.325,162.742 149.364 C 162.756 148.410,162.667 147.474,162.543 147.283 C 162.381 147.032,162.323 147.224,162.333 147.977 M239.240 148.786 C 239.152 149.295,239.092 150.075,239.106 150.520 C 239.124 151.099,239.190 150.934,239.337 149.942 C 239.570 148.369,239.486 147.368,239.240 148.786 M133.700 150.405 C 133.702 150.913,133.750 151.094,133.805 150.807 C 133.860 150.519,133.858 150.103,133.800 149.882 C 133.743 149.661,133.697 149.896,133.700 150.405 M267.573 151.329 C 267.575 151.838,267.623 152.019,267.678 151.731 C 267.733 151.444,267.731 151.028,267.673 150.807 C 267.615 150.585,267.570 150.821,267.573 151.329 M162.776 151.688 C 162.779 152.265,163.767 161.772,164.349 166.820 C 164.523 168.332,164.681 168.455,167.168 169.028 C 167.613 169.131,169.121 169.533,170.520 169.921 C 173.473 170.741,173.245 170.698,173.064 170.405 C 172.985 170.277,172.673 170.173,172.370 170.173 C 172.067 170.173,171.755 170.069,171.676 169.942 C 171.598 169.815,171.297 169.711,171.007 169.711 C 170.718 169.711,169.814 169.501,168.998 169.245 C 168.182 168.989,167.098 168.666,166.590 168.528 C 164.453 167.945,164.666 168.503,164.262 162.428 C 164.194 161.410,164.045 160.370,163.930 160.116 C 163.815 159.861,163.660 158.717,163.585 157.572 C 163.509 156.428,163.393 154.659,163.325 153.642 C 163.225 152.118,162.771 150.503,162.776 151.688 M238.728 153.526 C 238.638 154.305,238.616 154.994,238.680 155.057 C 238.743 155.121,238.869 154.536,238.960 153.757 C 239.050 152.979,239.072 152.290,239.008 152.226 C 238.945 152.162,238.819 152.747,238.728 153.526 M267.106 155.376 C 267.106 155.821,267.153 156.003,267.211 155.780 C 267.270 155.558,267.270 155.194,267.211 154.971 C 267.153 154.749,267.106 154.931,267.106 155.376 M179.529 161.040 C 179.653 167.405,179.854 168.284,181.272 168.675 C 184.408 169.539,186.156 169.996,187.399 170.276 C 188.162 170.449,190.607 171.078,192.832 171.675 C 197.033 172.802,200.530 173.651,200.616 173.565 C 200.644 173.537,200.776 172.639,200.910 171.568 C 201.202 169.244,201.077 169.385,203.237 168.925 C 204.191 168.722,206.584 168.134,208.555 167.619 C 216.493 165.546,219.351 164.807,220.272 164.590 C 221.445 164.314,221.669 163.814,221.886 160.992 L 222.035 159.057 221.364 159.395 C 220.995 159.582,220.277 159.845,219.769 159.981 C 219.260 160.116,217.491 160.593,215.838 161.039 C 214.185 161.485,212.000 162.069,210.983 162.336 C 209.965 162.603,208.873 162.903,208.555 163.002 C 208.237 163.102,207.535 163.299,206.994 163.441 C 206.454 163.583,205.569 163.816,205.029 163.957 C 204.488 164.099,203.786 164.296,203.468 164.394 C 203.150 164.492,202.448 164.692,201.908 164.839 C 200.950 165.098,200.925 165.130,200.921 166.079 C 200.916 167.647,200.805 167.702,198.713 167.174 C 197.704 166.920,196.695 166.711,196.471 166.709 C 196.247 166.707,195.882 166.609,195.662 166.492 C 195.285 166.292,191.669 165.327,187.746 164.380 C 179.909 162.489,180.118 162.575,180.106 161.219 C 180.100 160.612,179.947 159.231,179.766 158.150 C 179.437 156.197,179.436 156.215,179.529 161.040 M238.308 157.574 C 238.224 158.082,238.167 158.809,238.181 159.191 C 238.195 159.572,238.298 159.260,238.409 158.497 C 238.636 156.945,238.546 156.131,238.308 157.574 M266.643 159.538 C 266.643 159.983,266.691 160.165,266.749 159.942 C 266.807 159.720,266.807 159.355,266.749 159.133 C 266.691 158.910,266.643 159.092,266.643 159.538 M237.757 163.468 C 237.757 164.168,237.800 164.454,237.853 164.104 C 237.906 163.754,237.906 163.182,237.853 162.832 C 237.800 162.483,237.757 162.769,237.757 163.468 M135.092 163.468 C 135.092 164.040,135.137 164.275,135.192 163.988 C 135.247 163.702,135.247 163.234,135.192 162.948 C 135.137 162.662,135.092 162.896,135.092 163.468 M266.190 164.162 C 266.190 164.734,266.235 164.968,266.290 164.682 C 266.345 164.396,266.345 163.928,266.290 163.642 C 266.235 163.355,266.190 163.590,266.190 164.162 M237.288 167.399 C 237.288 167.971,237.333 168.205,237.389 167.919 C 237.444 167.633,237.444 167.165,237.389 166.879 C 237.333 166.592,237.288 166.827,237.288 167.399 M135.550 167.746 C 135.552 168.254,135.600 168.435,135.655 168.148 C 135.710 167.860,135.708 167.444,135.650 167.223 C 135.592 167.002,135.547 167.237,135.550 167.746 M265.723 168.208 C 265.726 168.717,265.773 168.898,265.828 168.610 C 265.884 168.322,265.881 167.906,265.824 167.685 C 265.766 167.464,265.720 167.699,265.723 168.208 M173.430 170.719 C 173.702 170.954,174.822 171.094,174.688 170.876 C 174.606 170.744,174.268 170.636,173.936 170.636 C 173.605 170.636,173.377 170.673,173.430 170.719 M175.048 171.181 C 175.321 171.416,176.441 171.556,176.306 171.339 C 176.225 171.206,175.886 171.098,175.555 171.098 C 175.223 171.098,174.995 171.136,175.048 171.181 M177.110 171.785 C 178.022 172.081,180.625 172.815,184.509 173.871 C 186.480 174.407,188.353 174.928,188.671 175.029 C 189.947 175.434,192.626 176.207,195.145 176.896 C 196.607 177.296,198.002 177.681,198.244 177.750 C 198.516 177.828,198.628 177.784,198.536 177.635 C 198.454 177.503,198.100 177.339,197.748 177.271 C 197.397 177.203,196.694 177.026,196.185 176.876 C 195.676 176.727,194.921 176.551,194.507 176.485 C 194.092 176.419,193.696 176.273,193.626 176.159 C 193.556 176.046,193.199 175.954,192.832 175.954 C 192.466 175.954,192.102 175.850,192.023 175.723 C 191.945 175.595,191.674 175.491,191.422 175.491 C 191.170 175.491,190.266 175.279,189.413 175.019 C 186.444 174.116,184.842 173.653,182.659 173.067 C 181.451 172.743,179.779 172.271,178.943 172.019 C 177.473 171.575,175.809 171.363,177.110 171.785 M199.306 178.035 C 199.497 178.158,199.861 178.259,200.116 178.259 C 200.499 178.259,200.518 178.220,200.231 178.035 C 200.040 177.911,199.676 177.811,199.422 177.811 C 199.039 177.811,199.019 177.849,199.306 178.035 M136.932 180.347 C 136.932 180.792,136.980 180.974,137.038 180.751 C 137.096 180.529,137.096 180.165,137.038 179.942 C 136.980 179.720,136.932 179.902,136.932 180.347 M264.331 180.809 C 264.331 181.254,264.379 181.436,264.437 181.214 C 264.495 180.991,264.495 180.627,264.437 180.405 C 264.379 180.182,264.331 180.364,264.331 180.809 M263.849 185.087 C 263.827 185.468,263.755 186.040,263.690 186.358 L 263.571 186.936 263.819 186.366 C 263.956 186.053,264.028 185.481,263.979 185.095 L 263.889 184.393 263.849 185.087 M151.329 200.906 C 151.584 201.017,152.260 201.234,152.832 201.389 C 153.405 201.544,154.081 201.752,154.335 201.850 C 154.590 201.948,155.266 202.154,155.838 202.308 C 156.410 202.462,157.059 202.682,157.280 202.797 C 157.501 202.912,157.897 203.006,158.161 203.006 C 158.439 203.006,158.577 203.108,158.489 203.251 C 158.403 203.389,158.053 203.433,157.685 203.352 C 157.326 203.273,155.801 203.449,154.297 203.743 L 151.561 204.277 152.832 204.428 C 153.532 204.511,154.806 204.589,155.665 204.601 C 156.606 204.615,157.225 204.723,157.225 204.872 C 157.225 205.008,156.991 205.093,156.705 205.061 C 155.853 204.964,153.079 205.337,152.937 205.567 C 152.654 206.025,151.214 205.811,151.214 205.311 C 151.214 204.422,149.036 204.486,144.563 205.505 C 142.307 206.020,142.480 205.890,142.224 207.260 C 142.003 208.439,141.428 209.142,140.492 209.378 C 139.395 209.653,138.516 211.950,139.233 212.667 C 139.673 213.106,139.403 213.183,136.436 213.455 C 133.650 213.711,133.461 213.807,134.516 214.420 C 134.765 214.564,135.239 214.875,135.571 215.110 C 135.903 215.345,136.515 215.629,136.931 215.740 C 137.347 215.851,138.608 216.256,139.733 216.641 C 142.078 217.443,142.084 217.442,142.289 216.164 C 142.459 215.099,142.231 215.127,144.855 215.851 C 145.618 216.062,146.348 216.319,146.476 216.423 C 146.604 216.526,147.437 216.775,148.326 216.976 C 149.215 217.177,150.172 217.394,150.452 217.458 C 150.816 217.542,151.006 217.808,151.114 218.386 C 151.289 219.318,151.122 219.259,155.029 219.759 C 156.555 219.955,158.243 220.180,158.781 220.260 C 159.690 220.396,159.774 220.363,159.998 219.775 C 160.213 219.208,160.327 219.155,161.102 219.256 C 163.913 219.626,167.766 220.073,168.356 220.099 C 168.565 220.108,168.801 220.376,168.881 220.694 C 168.961 221.012,169.154 221.285,169.311 221.301 C 169.934 221.367,170.870 221.431,173.526 221.590 C 175.052 221.681,176.569 221.807,176.897 221.870 C 177.355 221.958,177.547 221.864,177.725 221.464 C 178.100 220.625,186.020 220.775,186.667 221.633 C 187.207 222.351,195.607 222.545,195.607 221.840 C 195.607 221.340,204.296 221.378,204.488 221.880 C 204.721 222.485,213.037 222.325,213.447 221.708 C 213.954 220.945,221.735 220.720,222.364 221.451 C 222.757 221.908,222.900 221.920,225.780 221.726 C 227.434 221.615,229.280 221.520,229.884 221.514 C 230.630 221.506,230.983 221.406,230.983 221.200 C 230.983 220.364,231.548 220.142,234.335 219.883 C 240.188 219.340,239.709 219.341,239.991 219.868 C 240.277 220.401,241.816 220.516,243.584 220.137 C 244.092 220.028,245.464 219.808,246.632 219.649 L 248.756 219.359 248.907 218.466 C 249.022 217.785,249.166 217.572,249.510 217.572 C 250.261 217.572,253.447 216.867,254.740 216.414 C 255.408 216.180,255.954 216.039,255.954 216.100 C 255.954 216.161,256.270 216.024,256.657 215.796 C 257.445 215.330,257.793 215.570,257.800 216.581 C 257.804 217.203,258.621 217.718,259.045 217.366 C 259.203 217.235,259.899 216.974,260.591 216.787 C 264.272 215.792,267.108 214.314,266.502 213.708 C 266.448 213.654,265.447 213.520,264.277 213.410 C 261.818 213.180,261.877 213.209,262.197 212.369 C 262.536 211.478,262.126 210.333,261.323 209.925 C 260.977 209.749,260.382 209.377,260.000 209.098 C 259.618 208.819,259.026 208.521,258.684 208.436 C 258.235 208.324,258.026 208.094,257.933 207.608 C 257.862 207.239,257.748 206.647,257.680 206.293 C 257.549 205.602,257.741 205.662,253.064 204.857 C 250.747 204.458,248.990 204.564,248.847 205.112 C 248.734 205.541,248.620 205.577,247.886 205.413 C 247.427 205.311,246.387 205.242,245.574 205.260 C 243.396 205.306,244.121 204.847,246.690 204.552 C 247.843 204.420,248.786 204.249,248.786 204.172 C 248.786 203.967,245.576 203.423,244.549 203.455 C 243.995 203.472,243.719 203.393,243.811 203.244 C 243.892 203.113,244.161 203.006,244.410 203.006 C 244.658 203.006,245.042 202.912,245.263 202.797 C 245.484 202.682,246.133 202.459,246.705 202.301 C 248.372 201.841,249.618 201.410,249.318 201.398 C 249.165 201.392,248.437 201.553,247.699 201.756 C 246.962 201.959,245.994 202.211,245.549 202.315 C 245.104 202.420,243.491 202.835,241.965 203.239 C 235.989 204.819,228.379 206.791,225.896 207.402 C 224.275 207.801,223.394 208.032,218.786 209.266 C 217.801 209.530,216.526 209.861,215.954 210.003 C 215.366 210.148,215.089 210.298,215.318 210.349 C 215.540 210.398,215.723 210.528,215.723 210.637 C 215.723 210.747,216.008 210.869,216.356 210.909 C 217.155 211.002,217.362 211.723,216.621 211.832 C 215.949 211.930,215.759 212.486,216.397 212.486 C 216.662 212.486,216.879 212.579,216.879 212.693 C 216.879 213.021,213.647 213.277,213.343 212.974 C 212.936 212.566,212.377 212.672,211.823 213.261 C 211.200 213.924,205.231 214.562,204.482 214.046 C 204.166 213.828,196.609 213.794,195.481 214.006 C 194.455 214.198,189.827 213.895,189.827 213.635 C 189.827 213.528,190.113 213.398,190.462 213.345 C 190.974 213.267,190.929 213.242,190.231 213.214 C 189.630 213.190,189.364 213.073,189.364 212.832 C 189.364 212.591,189.121 212.486,188.563 212.486 C 187.999 212.486,187.689 212.349,187.514 212.023 C 187.158 211.356,186.792 211.455,186.870 212.197 C 186.927 212.743,186.844 212.843,186.276 212.908 C 184.326 213.131,183.487 211.536,185.164 210.796 C 186.290 210.299,186.428 210.305,186.936 210.867 C 187.376 211.352,188.088 211.480,188.314 211.114 C 188.478 210.849,188.143 210.631,187.198 210.390 C 185.429 209.939,182.868 209.247,181.272 208.790 C 180.318 208.516,179.173 208.204,178.728 208.095 C 177.795 207.868,175.358 207.220,172.370 206.407 C 165.282 204.477,161.518 203.465,157.572 202.430 C 154.550 201.637,152.995 201.215,152.601 201.081 C 151.887 200.839,150.841 200.695,151.329 200.906 M161.387 203.838 C 161.945 204.007,161.937 204.019,161.159 204.185 C 160.393 204.349,160.014 204.165,160.004 203.626 C 160.000 203.443,160.169 203.469,161.387 203.838 M266.821 211.222 L 266.821 213.179 267.612 213.179 C 269.072 213.179,269.080 210.597,267.623 209.738 L 266.821 209.264 266.821 211.222 M132.428 210.611 C 131.880 211.167,131.911 212.287,132.488 212.781 C 133.161 213.357,133.179 213.327,133.179 211.676 C 133.179 210.090,133.080 209.950,132.428 210.611 " stroke="none" fill="#8d8d8d" fill-rule="evenodd"></path></g></svg>