<svg id="svg" version="1.1" xmlns="http://www.w3.org/2000/svg" xmlns:xlink="http://www.w3.org/1999/xlink" width="400" height="188.88888888888889" viewBox="0, 0, 400,188.88888888888889"><g id="svgg"><path id="path0" d="M145.387 41.615 C 145.338 41.745,145.319 65.744,145.346 94.946 L 145.394 148.040 200.331 148.087 L 255.267 148.135 255.267 94.757 L 255.267 41.379 200.372 41.379 C 156.630 41.379,145.459 41.427,145.387 41.615 M249.970 46.468 C 250.243 46.979,250.243 142.534,249.970 143.045 C 249.662 143.621,150.905 143.621,150.597 143.045 C 150.464 142.796,150.402 127.430,150.402 94.757 C 150.402 62.084,150.464 46.718,150.597 46.468 C 150.790 46.109,151.547 46.103,200.283 46.103 C 249.020 46.103,249.777 46.109,249.970 46.468 M172.744 66.265 L 172.319 66.347 172.319 90.896 L 172.319 115.446 176.193 115.446 L 180.066 115.446 180.066 106.766 C 180.066 100.029,180.119 98.051,180.302 97.933 C 180.432 97.849,182.282 97.727,184.412 97.662 C 188.210 97.547,189.123 97.434,191.214 96.821 C 192.594 96.417,194.763 95.491,194.993 95.207 C 195.045 95.143,195.257 95.036,195.465 94.969 C 195.673 94.902,196.226 94.510,196.693 94.097 C 197.161 93.684,197.591 93.344,197.650 93.343 C 197.798 93.338,199.705 91.015,200.003 90.476 C 201.803 87.219,202.225 85.356,202.115 81.145 C 202.027 77.775,201.791 76.390,201.022 74.728 C 200.781 74.209,200.537 73.656,200.481 73.500 C 200.054 72.331,197.935 69.917,196.407 68.858 C 195.640 68.327,193.422 67.265,193.079 67.265 C 192.926 67.265,192.717 67.181,192.614 67.078 C 192.426 66.890,191.378 66.627,189.608 66.322 C 188.668 66.160,173.555 66.109,172.744 66.265 M186.508 73.134 C 191.583 73.775,194.271 76.746,194.278 81.719 C 194.286 87.799,190.945 90.693,183.844 90.759 C 179.808 90.796,180.255 91.885,180.255 82.016 C 180.255 72.544,180.137 73.167,181.956 73.071 C 184.558 72.934,184.966 72.939,186.508 73.134 M217.761 78.598 C 215.500 78.955,214.348 79.203,214.180 79.369 C 214.082 79.466,213.869 79.549,213.708 79.553 C 211.697 79.597,207.274 84.160,207.274 86.191 C 207.274 86.473,207.189 86.757,207.085 86.821 C 206.976 86.889,206.897 87.921,206.897 89.277 C 206.897 90.633,206.976 91.666,207.085 91.734 C 207.189 91.798,207.274 92.049,207.274 92.291 C 207.274 93.724,209.376 96.565,211.504 98.007 C 211.932 98.297,212.324 98.577,212.376 98.630 C 212.428 98.682,212.853 98.921,213.321 99.160 C 220.577 102.877,222.010 104.252,221.327 106.843 C 220.400 110.362,213.338 110.557,207.700 107.219 L 206.897 106.744 206.897 110.591 C 206.897 114.396,206.901 114.440,207.322 114.636 C 208.224 115.057,209.286 115.431,209.920 115.553 C 210.283 115.622,210.666 115.746,210.770 115.827 C 211.242 116.197,216.486 116.465,218.551 116.225 C 221.126 115.925,223.772 115.042,224.959 114.085 C 225.757 113.441,227.540 111.573,227.694 111.217 C 227.790 110.997,227.941 110.690,228.029 110.534 C 228.507 109.687,228.646 109.286,228.928 107.944 C 229.278 106.280,229.320 104.089,229.017 103.294 C 228.906 103.002,228.814 102.577,228.813 102.350 C 228.813 102.122,228.685 101.693,228.530 101.396 C 228.375 101.098,228.248 100.781,228.248 100.692 C 228.248 100.443,227.089 98.828,226.426 98.154 C 225.131 96.836,223.363 95.629,220.690 94.236 C 216.643 92.126,216.006 91.682,214.646 90.014 C 214.307 89.599,214.286 87.657,214.617 87.271 C 214.739 87.127,214.987 86.838,215.166 86.627 C 216.843 84.666,221.758 84.677,225.888 86.652 C 227.729 87.531,227.681 87.610,227.681 83.736 C 227.681 80.036,227.596 79.764,226.358 79.490 C 226.098 79.432,225.546 79.302,225.130 79.200 C 223.015 78.681,219.205 78.370,217.761 78.598 " stroke="none" fill="#33c3f3" fill-rule="evenodd"></path><path id="path1" d="M227.539 47.000 C 225.206 47.034,223.713 47.128,223.713 47.241 C 223.713 47.342,223.840 47.426,223.996 47.426 C 224.185 47.426,224.280 47.615,224.280 47.992 C 224.280 48.370,224.374 48.559,224.563 48.559 C 224.752 48.559,224.846 48.748,224.846 49.126 C 224.846 49.438,224.932 49.693,225.035 49.693 C 225.139 49.693,225.224 49.948,225.224 50.260 C 225.224 50.638,225.319 50.827,225.508 50.827 C 225.718 50.827,225.791 51.047,225.791 51.677 C 225.791 52.307,225.865 52.527,226.075 52.527 C 226.285 52.527,226.358 52.748,226.358 53.377 C 226.358 54.007,226.432 54.228,226.641 54.228 C 226.851 54.228,226.925 54.448,226.925 55.078 C 226.925 55.708,226.998 55.928,227.208 55.928 C 227.413 55.928,227.492 56.138,227.492 56.684 C 227.492 57.230,227.570 57.440,227.775 57.440 C 227.996 57.440,228.059 57.692,228.059 58.573 C 228.059 59.455,228.122 59.707,228.342 59.707 C 228.573 59.707,228.625 60.022,228.625 61.408 C 228.625 62.793,228.678 63.108,228.909 63.108 C 229.154 63.108,229.192 63.790,229.192 68.115 C 229.192 72.440,229.154 73.122,228.909 73.122 C 228.678 73.122,228.625 73.437,228.625 74.823 C 228.625 76.208,228.573 76.523,228.342 76.523 C 228.124 76.523,228.059 76.765,228.059 77.563 C 228.059 78.360,227.993 78.602,227.775 78.602 C 227.619 78.602,227.492 78.729,227.492 78.885 C 227.492 79.041,227.621 79.169,227.779 79.169 C 228.028 79.169,228.059 79.737,228.015 83.562 L 227.964 87.955 227.256 88.013 C 226.714 88.058,226.547 88.002,226.547 87.777 C 226.547 87.578,226.370 87.482,226.000 87.482 C 225.689 87.482,225.407 87.360,225.345 87.199 C 225.204 86.832,224.846 86.832,224.846 87.199 C 224.846 87.355,224.719 87.482,224.563 87.482 C 224.374 87.482,224.280 87.671,224.280 88.049 C 224.280 88.427,224.185 88.616,223.996 88.616 C 223.807 88.616,223.713 88.805,223.713 89.183 C 223.713 89.561,223.618 89.750,223.429 89.750 C 223.240 89.750,223.146 89.939,223.146 90.316 C 223.146 90.694,223.051 90.883,222.863 90.883 C 222.707 90.883,222.579 91.011,222.579 91.167 C 222.579 91.323,222.452 91.450,222.296 91.450 C 222.107 91.450,222.012 91.639,222.012 92.017 C 222.012 92.395,221.918 92.584,221.729 92.584 C 221.573 92.584,221.445 92.711,221.445 92.867 C 221.445 93.023,221.318 93.151,221.162 93.151 C 221.006 93.151,220.879 93.278,220.879 93.434 C 220.879 93.610,221.057 93.718,221.351 93.718 C 221.645 93.718,221.823 93.825,221.823 94.001 C 221.823 94.178,222.002 94.284,222.302 94.284 C 222.565 94.284,222.829 94.412,222.889 94.568 C 222.949 94.724,223.116 94.851,223.261 94.851 C 223.405 94.851,223.524 94.979,223.524 95.135 C 223.524 95.312,223.703 95.418,224.002 95.418 C 224.265 95.418,224.529 95.546,224.589 95.701 C 224.649 95.857,224.773 95.985,224.865 95.985 C 225.038 95.985,225.629 96.427,226.150 96.948 C 227.156 97.951,228.059 98.999,228.059 99.163 C 228.059 99.268,228.126 99.383,228.209 99.417 C 228.475 99.529,229.192 101.084,229.192 101.549 C 229.192 101.797,229.299 102.035,229.428 102.079 C 229.605 102.138,229.665 102.954,229.665 105.297 C 229.665 107.557,229.598 108.503,229.428 108.673 C 229.299 108.803,229.192 109.088,229.192 109.307 C 229.192 109.526,229.067 109.871,228.915 110.073 C 228.762 110.274,228.635 110.546,228.631 110.677 C 228.617 111.241,226.237 114.124,225.785 114.124 C 225.684 114.124,225.602 114.207,225.602 114.309 C 225.602 114.411,225.396 114.546,225.144 114.610 C 224.891 114.673,224.639 114.845,224.583 114.991 C 224.526 115.138,224.274 115.257,224.022 115.257 C 223.770 115.257,223.515 115.385,223.456 115.541 C 223.396 115.697,223.153 115.827,222.916 115.830 C 222.679 115.834,222.320 115.961,222.118 116.114 C 221.916 116.266,221.449 116.394,221.079 116.397 C 220.709 116.400,220.241 116.528,220.039 116.681 C 219.502 117.087,212.430 117.087,211.893 116.681 C 211.681 116.520,211.104 116.401,210.528 116.397 C 209.819 116.393,209.498 116.309,209.421 116.108 C 209.355 115.934,209.068 115.824,208.685 115.824 C 208.340 115.824,207.930 115.697,207.774 115.541 C 207.618 115.385,207.312 115.257,207.094 115.257 C 206.444 115.257,206.330 114.520,206.330 110.333 C 206.330 107.821,206.261 106.377,206.141 106.377 C 206.037 106.377,205.952 106.504,205.952 106.660 C 205.952 106.849,205.763 106.944,205.385 106.944 C 205.007 106.944,204.818 107.038,204.818 107.227 C 204.818 107.416,204.629 107.511,204.251 107.511 C 203.873 107.511,203.684 107.605,203.684 107.794 C 203.684 107.983,203.496 108.077,203.118 108.077 C 202.740 108.077,202.551 108.172,202.551 108.361 C 202.551 108.550,202.362 108.644,201.984 108.644 C 201.606 108.644,201.417 108.739,201.417 108.928 C 201.417 109.138,201.197 109.211,200.567 109.211 C 199.937 109.211,199.717 109.285,199.717 109.495 C 199.717 109.705,199.496 109.778,198.866 109.778 C 198.236 109.778,198.016 109.851,198.016 110.061 C 198.016 110.266,197.806 110.345,197.260 110.345 C 196.714 110.345,196.504 110.424,196.504 110.628 C 196.504 110.849,196.253 110.912,195.371 110.912 C 194.489 110.912,194.237 110.975,194.237 111.195 C 194.237 111.416,193.985 111.479,193.103 111.479 C 192.222 111.479,191.970 111.541,191.970 111.762 C 191.970 111.996,191.623 112.045,189.986 112.045 C 188.348 112.045,188.002 112.095,188.002 112.329 C 188.002 112.571,187.477 112.612,184.412 112.612 L 180.822 112.612 180.822 114.205 C 180.822 116.499,181.051 116.391,176.201 116.391 C 171.464 116.391,171.948 116.751,171.944 113.226 L 171.941 110.912 171.091 110.912 C 170.461 110.912,170.241 110.838,170.241 110.628 C 170.241 110.418,170.020 110.345,169.391 110.345 C 168.761 110.345,168.540 110.271,168.540 110.061 C 168.540 109.857,168.330 109.778,167.785 109.778 C 167.239 109.778,167.029 109.699,167.029 109.495 C 167.029 109.306,166.840 109.211,166.462 109.211 C 166.084 109.211,165.895 109.117,165.895 108.928 C 165.895 108.718,165.675 108.644,165.045 108.644 C 164.415 108.644,164.195 108.571,164.195 108.361 C 164.195 108.172,164.006 108.077,163.628 108.077 C 163.250 108.077,163.061 107.983,163.061 107.794 C 163.061 107.605,162.872 107.511,162.494 107.511 C 162.116 107.511,161.927 107.416,161.927 107.227 C 161.927 107.038,161.738 106.944,161.360 106.944 C 160.983 106.944,160.794 106.849,160.794 106.660 C 160.794 106.471,160.605 106.377,160.227 106.377 C 159.849 106.377,159.660 106.282,159.660 106.094 C 159.660 105.938,159.532 105.810,159.376 105.810 C 159.221 105.810,159.093 105.725,159.093 105.621 C 159.093 105.517,158.880 105.432,158.621 105.432 C 158.327 105.432,158.148 105.325,158.148 105.149 C 158.148 104.993,158.021 104.865,157.865 104.865 C 157.709 104.865,157.581 104.738,157.581 104.582 C 157.581 104.393,157.393 104.299,157.015 104.299 C 156.637 104.299,156.448 104.204,156.448 104.015 C 156.448 103.859,156.320 103.732,156.164 103.732 C 156.009 103.732,155.881 103.604,155.881 103.448 C 155.881 103.259,155.692 103.165,155.314 103.165 C 154.936 103.165,154.747 103.070,154.747 102.881 C 154.747 102.726,154.620 102.598,154.464 102.598 C 154.308 102.598,154.180 102.470,154.180 102.315 C 154.180 102.159,154.053 102.031,153.897 102.031 C 153.741 102.031,153.614 101.904,153.614 101.748 C 153.614 101.592,153.486 101.464,153.330 101.464 C 153.174 101.464,153.047 101.337,153.047 101.181 C 153.047 101.025,152.919 100.897,152.763 100.897 C 152.607 100.897,152.480 100.770,152.480 100.614 C 152.480 100.458,152.352 100.331,152.197 100.331 C 152.041 100.331,151.913 100.203,151.913 100.047 C 151.913 99.891,151.786 99.764,151.630 99.764 C 151.474 99.764,151.346 99.636,151.346 99.480 C 151.346 99.325,151.219 99.197,151.063 99.197 C 150.813 99.197,150.779 101.737,150.779 120.926 L 150.779 142.655 200.283 142.655 L 249.787 142.655 249.787 94.757 L 249.787 46.859 240.576 46.902 C 235.510 46.926,229.643 46.970,227.539 47.000 M213.699 101.181 C 213.699 101.337,213.571 101.464,213.415 101.464 C 213.259 101.464,213.132 101.592,213.132 101.748 C 213.132 101.904,213.004 102.031,212.848 102.031 C 212.692 102.031,212.565 102.159,212.565 102.315 C 212.565 102.470,212.437 102.598,212.282 102.598 C 212.126 102.598,211.998 102.726,211.998 102.881 C 211.998 103.070,211.809 103.165,211.431 103.165 C 211.053 103.165,210.864 103.259,210.864 103.448 C 210.864 103.604,210.737 103.732,210.581 103.732 C 210.425 103.732,210.298 103.859,210.298 104.015 C 210.298 104.171,210.170 104.299,210.014 104.299 C 209.858 104.299,209.731 104.426,209.731 104.582 C 209.731 104.771,209.542 104.865,209.164 104.865 C 208.786 104.865,208.597 104.960,208.597 105.149 C 208.597 105.338,208.408 105.432,208.030 105.432 C 207.718 105.432,207.463 105.517,207.463 105.621 C 207.463 105.725,207.336 105.810,207.180 105.810 C 207.024 105.810,206.897 105.938,206.897 106.094 C 206.897 106.289,207.093 106.377,207.529 106.377 C 207.890 106.377,208.348 106.539,208.597 106.755 C 208.837 106.963,209.147 107.133,209.287 107.133 C 209.427 107.133,209.542 107.218,209.542 107.322 C 209.542 107.426,209.744 107.511,209.991 107.511 C 210.238 107.511,210.546 107.638,210.675 107.794 C 210.805 107.950,211.149 108.077,211.441 108.077 C 211.733 108.077,212.087 108.194,212.230 108.336 C 212.396 108.502,213.102 108.624,214.210 108.677 C 215.244 108.726,216.052 108.859,216.233 109.008 C 216.414 109.159,216.533 109.178,216.533 109.057 C 216.533 108.946,217.121 108.798,217.839 108.727 C 219.689 108.545,220.879 107.481,220.879 106.008 C 220.879 105.484,220.795 105.054,220.693 105.054 C 220.591 105.054,220.455 104.842,220.389 104.582 C 220.324 104.322,220.198 104.110,220.109 104.110 C 220.020 104.110,219.706 103.876,219.412 103.590 C 219.118 103.304,218.563 102.902,218.178 102.697 C 217.793 102.491,217.478 102.257,217.478 102.177 C 217.478 102.097,217.274 102.031,217.025 102.031 C 216.777 102.031,216.524 101.904,216.465 101.748 C 216.405 101.592,216.180 101.464,215.966 101.464 C 215.752 101.464,215.527 101.337,215.467 101.181 C 215.394 100.989,215.092 100.897,214.529 100.897 C 213.917 100.897,213.699 100.972,213.699 101.181 " stroke="none" fill="#14122c" fill-rule="evenodd"></path><path id="path2" d="M157.770 46.868 C 161.667 46.938,166.960 47.007,169.532 47.021 C 172.506 47.038,174.209 47.116,174.209 47.237 C 174.209 47.341,173.954 47.426,173.642 47.426 C 173.264 47.426,173.075 47.520,173.075 47.709 C 173.075 47.898,172.886 47.992,172.508 47.992 C 172.130 47.992,171.941 48.087,171.941 48.276 C 171.941 48.465,171.752 48.559,171.375 48.559 C 170.997 48.559,170.808 48.654,170.808 48.843 C 170.808 48.999,170.680 49.126,170.524 49.126 C 170.368 49.126,170.241 49.254,170.241 49.410 C 170.241 49.598,170.052 49.693,169.674 49.693 C 169.296 49.693,169.107 49.787,169.107 49.976 C 169.107 50.132,168.980 50.260,168.824 50.260 C 168.668 50.260,168.540 50.387,168.540 50.543 C 168.540 50.699,168.413 50.827,168.257 50.827 C 168.101 50.827,167.974 50.954,167.974 51.110 C 167.974 51.266,167.846 51.393,167.690 51.393 C 167.534 51.393,167.407 51.521,167.407 51.677 C 167.407 51.833,167.322 51.960,167.218 51.960 C 167.114 51.960,167.029 52.088,167.029 52.244 C 167.029 52.400,166.901 52.527,166.745 52.527 C 166.590 52.527,166.462 52.655,166.462 52.811 C 166.462 52.966,166.334 53.094,166.179 53.094 C 166.023 53.094,165.895 53.222,165.895 53.377 C 165.895 53.533,165.768 53.661,165.612 53.661 C 165.456 53.661,165.328 53.788,165.328 53.944 C 165.328 54.100,165.201 54.228,165.045 54.228 C 164.889 54.228,164.761 54.355,164.761 54.511 C 164.761 54.667,164.634 54.795,164.478 54.795 C 164.322 54.795,164.195 54.922,164.195 55.078 C 164.195 55.234,164.067 55.361,163.911 55.361 C 163.722 55.361,163.628 55.550,163.628 55.928 C 163.628 56.306,163.533 56.495,163.344 56.495 C 163.188 56.495,163.061 56.580,163.061 56.684 C 163.061 56.788,162.933 56.873,162.778 56.873 C 162.589 56.873,162.494 57.062,162.494 57.440 C 162.494 57.818,162.400 58.007,162.211 58.007 C 162.022 58.007,161.927 58.196,161.927 58.573 C 161.927 58.951,161.833 59.140,161.644 59.140 C 161.434 59.140,161.360 59.361,161.360 59.991 C 161.360 60.620,161.287 60.841,161.077 60.841 C 160.867 60.841,160.794 61.061,160.794 61.691 C 160.794 62.321,160.720 62.541,160.510 62.541 C 160.283 62.541,160.227 62.825,160.227 63.958 C 160.227 65.092,160.170 65.376,159.943 65.376 C 159.703 65.376,159.660 65.837,159.660 68.399 C 159.660 70.960,159.703 71.422,159.943 71.422 C 160.164 71.422,160.227 71.674,160.227 72.556 C 160.227 73.437,160.290 73.689,160.510 73.689 C 160.720 73.689,160.794 73.910,160.794 74.539 C 160.794 75.169,160.867 75.390,161.077 75.390 C 161.287 75.390,161.360 75.610,161.360 76.240 C 161.360 76.870,161.434 77.090,161.644 77.090 C 161.820 77.090,161.927 77.269,161.927 77.563 C 161.927 77.857,162.034 78.035,162.211 78.035 C 162.400 78.035,162.494 78.224,162.494 78.602 C 162.494 78.980,162.589 79.169,162.778 79.169 C 162.966 79.169,163.061 79.358,163.061 79.735 C 163.061 80.113,163.155 80.302,163.344 80.302 C 163.500 80.302,163.628 80.430,163.628 80.586 C 163.628 80.742,163.755 80.869,163.911 80.869 C 164.067 80.869,164.195 80.997,164.195 81.153 C 164.195 81.308,164.322 81.436,164.478 81.436 C 164.667 81.436,164.761 81.625,164.761 82.003 C 164.761 82.381,164.856 82.570,165.045 82.570 C 165.201 82.570,165.328 82.697,165.328 82.853 C 165.328 83.009,165.456 83.137,165.612 83.137 C 165.768 83.137,165.895 83.264,165.895 83.420 C 165.895 83.576,166.023 83.703,166.179 83.703 C 166.334 83.703,166.462 83.831,166.462 83.987 C 166.462 84.143,166.590 84.270,166.745 84.270 C 166.901 84.270,167.029 84.398,167.029 84.554 C 167.029 84.709,167.114 84.837,167.218 84.837 C 167.322 84.837,167.407 84.965,167.407 85.120 C 167.407 85.276,167.534 85.404,167.690 85.404 C 167.846 85.404,167.974 85.531,167.974 85.687 C 167.974 85.876,168.162 85.971,168.540 85.971 C 168.918 85.971,169.107 86.065,169.107 86.254 C 169.107 86.410,169.235 86.538,169.391 86.538 C 169.547 86.538,169.674 86.623,169.674 86.726 C 169.674 86.830,169.929 86.915,170.241 86.915 C 170.619 86.915,170.808 87.010,170.808 87.199 C 170.808 87.355,170.935 87.482,171.091 87.482 C 171.247 87.482,171.375 87.610,171.375 87.766 C 171.375 87.922,171.502 88.049,171.658 88.049 C 171.907 88.049,171.947 89.723,171.988 101.795 C 172.023 112.272,172.057 109.658,172.129 90.802 L 172.225 66.064 172.792 65.886 C 174.525 65.341,190.876 65.717,191.474 66.316 C 191.580 66.422,191.884 66.510,192.149 66.510 C 192.414 66.511,192.849 66.625,193.116 66.765 C 193.383 66.904,193.829 67.075,194.108 67.145 C 194.387 67.215,194.615 67.356,194.615 67.458 C 194.615 67.559,194.779 67.643,194.979 67.643 C 195.180 67.643,195.471 67.770,195.627 67.926 C 195.783 68.082,195.984 68.210,196.075 68.210 C 197.279 68.210,201.795 74.049,201.795 75.607 C 201.795 75.774,201.938 76.240,202.113 76.642 C 202.586 77.729,202.588 85.155,202.116 86.230 C 201.940 86.632,201.795 87.196,201.795 87.482 C 201.795 87.769,201.667 88.109,201.512 88.238 C 201.356 88.367,201.228 88.588,201.228 88.728 C 201.228 88.952,201.035 89.348,200.158 90.921 C 199.377 92.323,195.887 95.458,194.789 95.745 C 194.589 95.797,194.426 95.909,194.426 95.993 C 194.426 96.077,194.277 96.185,194.095 96.233 C 193.833 96.301,193.847 96.323,194.167 96.341 C 194.388 96.353,194.675 96.235,194.804 96.079 C 194.933 95.923,195.199 95.796,195.394 95.796 C 195.589 95.796,195.749 95.668,195.749 95.513 C 195.749 95.357,195.908 95.229,196.103 95.229 C 196.299 95.229,196.564 95.102,196.693 94.946 C 196.823 94.790,197.046 94.662,197.189 94.662 C 197.332 94.662,197.449 94.535,197.449 94.379 C 197.449 94.223,197.534 94.095,197.638 94.095 C 197.883 94.095,198.583 93.396,198.583 93.151 C 198.583 93.047,198.710 92.962,198.866 92.962 C 199.022 92.962,199.151 92.898,199.153 92.820 C 199.154 92.742,199.409 92.390,199.720 92.039 C 200.030 91.687,200.283 91.292,200.283 91.161 C 200.283 91.031,200.411 90.875,200.567 90.815 C 200.723 90.755,200.850 90.570,200.850 90.403 C 200.850 90.237,200.978 89.973,201.134 89.817 C 201.290 89.661,201.417 89.336,201.417 89.095 C 201.417 88.854,201.545 88.607,201.701 88.548 C 201.880 88.479,201.984 88.189,201.984 87.758 C 201.984 87.384,202.111 86.950,202.267 86.794 C 202.460 86.602,202.551 86.125,202.551 85.312 C 202.551 84.550,202.633 84.085,202.777 84.037 C 202.923 83.989,203.031 83.321,203.083 82.132 C 203.144 80.741,203.225 80.302,203.424 80.302 C 203.587 80.302,203.684 80.092,203.684 79.735 C 203.684 79.358,203.779 79.169,203.968 79.169 C 204.157 79.169,204.251 78.980,204.251 78.602 C 204.251 78.224,204.346 78.035,204.535 78.035 C 204.711 78.035,204.818 77.857,204.818 77.563 C 204.818 77.269,204.925 77.090,205.102 77.090 C 205.291 77.090,205.385 76.901,205.385 76.523 C 205.385 76.145,205.479 75.957,205.668 75.957 C 205.878 75.957,205.952 75.736,205.952 75.106 C 205.952 74.639,206.037 74.256,206.141 74.256 C 206.250 74.256,206.330 73.658,206.330 72.839 C 206.330 71.705,206.386 71.422,206.613 71.422 C 206.854 71.422,206.897 70.928,206.897 68.115 C 206.897 65.302,206.854 64.809,206.613 64.809 C 206.393 64.809,206.330 64.557,206.330 63.675 C 206.330 63.045,206.246 62.541,206.141 62.541 C 206.037 62.541,205.952 62.159,205.952 61.691 C 205.952 61.061,205.878 60.841,205.668 60.841 C 205.458 60.841,205.385 60.620,205.385 59.991 C 205.385 59.361,205.311 59.140,205.102 59.140 C 204.913 59.140,204.818 58.951,204.818 58.573 C 204.818 58.196,204.724 58.007,204.535 58.007 C 204.346 58.007,204.251 57.818,204.251 57.440 C 204.251 57.062,204.157 56.873,203.968 56.873 C 203.812 56.873,203.684 56.788,203.684 56.684 C 203.684 56.580,203.557 56.495,203.401 56.495 C 203.212 56.495,203.118 56.306,203.118 55.928 C 203.118 55.550,203.023 55.361,202.834 55.361 C 202.678 55.361,202.551 55.234,202.551 55.078 C 202.551 54.922,202.423 54.795,202.267 54.795 C 202.111 54.795,201.984 54.667,201.984 54.511 C 201.984 54.355,201.856 54.228,201.701 54.228 C 201.512 54.228,201.417 54.039,201.417 53.661 C 201.417 53.283,201.323 53.094,201.134 53.094 C 200.978 53.094,200.850 52.966,200.850 52.811 C 200.850 52.655,200.723 52.527,200.567 52.527 C 200.411 52.527,200.283 52.400,200.283 52.244 C 200.283 52.088,200.156 51.960,200.000 51.960 C 199.844 51.960,199.717 51.833,199.717 51.677 C 199.717 51.488,199.528 51.393,199.150 51.393 C 198.772 51.393,198.583 51.299,198.583 51.110 C 198.583 50.954,198.455 50.827,198.299 50.827 C 198.144 50.827,198.016 50.699,198.016 50.543 C 198.016 50.387,197.889 50.260,197.733 50.260 C 197.577 50.260,197.449 50.132,197.449 49.976 C 197.449 49.821,197.364 49.693,197.260 49.693 C 197.156 49.693,197.071 49.565,197.071 49.410 C 197.071 49.221,196.882 49.126,196.504 49.126 C 196.127 49.126,195.938 49.032,195.938 48.843 C 195.938 48.654,195.749 48.559,195.371 48.559 C 194.993 48.559,194.804 48.465,194.804 48.276 C 194.804 48.087,194.615 47.992,194.237 47.992 C 193.859 47.992,193.670 47.898,193.670 47.709 C 193.670 47.520,193.481 47.426,193.103 47.426 C 192.792 47.426,192.537 47.354,192.537 47.267 C 192.537 47.021,207.134 46.859,229.412 46.859 L 249.787 46.859 249.835 94.757 L 249.883 142.655 249.882 94.709 L 249.882 46.764 200.283 46.753 C 173.004 46.747,153.873 46.799,157.770 46.868 M180.735 79.594 C 180.663 82.945,180.632 86.750,180.666 88.049 L 180.727 90.411 183.056 90.464 C 184.337 90.493,185.825 90.424,186.363 90.311 C 186.901 90.198,187.596 90.060,187.907 90.005 C 189.755 89.681,192.329 87.723,192.992 86.136 C 193.182 85.681,193.434 85.105,193.551 84.855 C 193.924 84.061,193.828 79.402,193.420 78.507 C 192.509 76.510,192.242 76.131,191.175 75.321 C 190.256 74.625,189.152 74.069,188.670 74.060 C 188.459 74.057,188.073 73.932,187.813 73.784 C 187.455 73.579,186.553 73.512,184.103 73.507 L 180.866 73.500 180.735 79.594 M218.850 78.171 C 219.137 78.214,219.562 78.213,219.795 78.168 C 220.027 78.123,219.792 78.088,219.273 78.089 C 218.753 78.090,218.563 78.127,218.850 78.171 M214.832 78.533 L 214.171 78.797 214.832 78.714 C 215.196 78.669,215.791 78.549,216.155 78.447 L 216.816 78.263 216.155 78.266 C 215.791 78.268,215.196 78.388,214.832 78.533 M223.051 78.417 C 223.571 78.497,224.166 78.630,224.374 78.712 C 224.710 78.845,224.723 78.826,224.493 78.543 C 224.300 78.306,223.960 78.230,223.170 78.247 L 222.107 78.271 223.051 78.417 M213.226 78.980 C 213.162 79.084,212.951 79.169,212.756 79.169 C 212.562 79.169,212.289 79.275,212.150 79.405 C 212.012 79.535,211.583 79.802,211.199 79.998 C 210.073 80.573,207.740 83.004,207.537 83.815 C 207.474 84.065,207.347 84.270,207.254 84.270 C 207.161 84.270,207.085 84.376,207.084 84.506 C 207.084 84.636,206.935 84.998,206.754 85.309 C 206.264 86.156,206.264 92.263,206.755 92.957 C 207.059 93.386,207.085 93.393,207.085 93.042 C 207.085 92.831,206.979 92.553,206.849 92.423 C 206.024 91.599,206.591 85.867,207.665 84.176 C 207.863 83.864,208.102 83.436,208.196 83.224 C 208.425 82.712,210.396 80.753,211.026 80.411 C 211.301 80.262,212.121 79.841,212.848 79.476 C 213.700 79.049,214.024 78.809,213.757 78.802 C 213.529 78.796,213.290 78.876,213.226 78.980 M226.333 79.082 C 227.139 79.432,227.284 79.431,226.819 79.080 C 226.618 78.928,226.282 78.803,226.075 78.804 C 225.813 78.805,225.892 78.890,226.333 79.082 M227.561 79.708 C 227.839 80.014,227.872 80.511,227.827 83.714 L 227.775 87.371 227.303 87.483 C 226.882 87.582,226.869 87.609,227.185 87.730 C 227.923 88.014,228.046 87.434,228.053 83.644 C 228.058 80.204,227.940 79.358,227.456 79.358 C 227.338 79.358,227.384 79.512,227.561 79.708 M218.665 85.733 C 219.267 85.770,220.202 85.770,220.744 85.732 C 221.286 85.694,220.794 85.663,219.650 85.663 C 218.507 85.664,218.064 85.695,218.665 85.733 M216.090 86.279 C 215.691 86.540,215.414 86.804,215.475 86.865 C 215.536 86.926,215.742 86.835,215.932 86.662 C 216.123 86.490,216.411 86.349,216.572 86.349 C 216.733 86.349,216.970 86.221,217.100 86.065 C 217.476 85.612,216.935 85.726,216.090 86.279 M222.555 86.030 C 222.719 86.231,223.066 86.341,223.500 86.329 L 224.185 86.310 223.618 86.164 C 223.307 86.083,222.881 85.949,222.674 85.864 C 222.337 85.728,222.324 85.746,222.555 86.030 M224.469 86.517 C 224.469 86.694,224.918 86.915,225.276 86.915 C 225.391 86.915,225.321 86.791,225.119 86.638 C 224.696 86.318,224.469 86.276,224.469 86.517 M225.791 87.109 C 225.791 87.274,226.525 87.568,226.642 87.450 C 226.679 87.414,226.502 87.286,226.250 87.167 C 225.998 87.048,225.791 87.022,225.791 87.109 M214.880 87.662 C 214.533 88.222,214.576 88.576,214.945 88.206 C 215.111 88.041,215.217 87.764,215.181 87.593 C 215.125 87.324,215.083 87.334,214.880 87.662 M214.649 89.136 C 214.653 89.214,214.780 89.442,214.933 89.644 C 215.216 90.018,215.302 89.831,215.096 89.293 C 214.980 88.992,214.638 88.872,214.649 89.136 M215.210 90.234 C 215.210 90.490,217.592 92.240,218.706 92.803 C 219.017 92.960,219.761 93.357,220.359 93.684 C 220.957 94.012,221.445 94.204,221.445 94.112 C 221.445 94.019,221.212 93.849,220.926 93.733 C 220.155 93.421,218.553 92.531,218.267 92.257 C 218.130 92.125,217.932 92.017,217.828 92.017 C 217.725 92.017,217.528 91.911,217.393 91.781 C 217.257 91.651,216.953 91.417,216.718 91.261 C 216.483 91.105,216.077 90.786,215.817 90.553 C 215.328 90.113,215.210 90.051,215.210 90.234 M207.085 93.620 C 207.085 94.028,207.774 95.220,208.012 95.224 C 208.222 95.228,208.213 95.157,207.965 94.884 C 207.793 94.694,207.650 94.460,207.646 94.364 C 207.639 94.138,207.085 93.404,207.085 93.620 M223.168 95.201 C 223.416 95.393,223.966 95.768,224.391 96.035 C 224.816 96.301,225.305 96.659,225.478 96.832 C 225.650 97.004,225.791 97.073,225.791 96.983 C 225.791 96.820,224.007 95.418,223.799 95.418 C 223.737 95.418,223.558 95.291,223.402 95.135 C 223.247 94.979,223.029 94.851,222.918 94.851 C 222.808 94.851,222.920 95.009,223.168 95.201 M208.219 95.616 C 208.219 95.715,208.304 95.796,208.408 95.796 C 208.512 95.796,208.597 95.907,208.597 96.042 C 208.597 96.298,209.738 97.496,209.982 97.496 C 210.059 97.496,210.371 97.752,210.675 98.063 C 210.980 98.375,211.317 98.630,211.425 98.630 C 211.532 98.630,211.620 98.709,211.620 98.806 C 211.620 98.903,211.812 99.042,212.045 99.115 C 212.279 99.188,212.513 99.307,212.565 99.378 C 212.725 99.599,215.078 100.715,215.176 100.617 C 215.227 100.566,214.979 100.393,214.625 100.232 C 212.648 99.334,211.083 98.261,209.561 96.759 C 208.823 96.032,208.219 95.517,208.219 95.616 M193.198 96.552 C 193.134 96.656,192.950 96.741,192.790 96.741 C 192.630 96.741,192.231 96.863,191.904 97.013 C 191.576 97.163,191.096 97.321,190.836 97.365 C 190.541 97.415,190.660 97.455,191.153 97.471 C 191.633 97.486,192.054 97.385,192.226 97.213 C 192.382 97.057,192.719 96.930,192.975 96.930 C 193.231 96.930,193.490 96.802,193.550 96.646 C 193.670 96.331,193.382 96.254,193.198 96.552 M189.628 97.634 C 189.552 97.710,189.049 97.825,188.510 97.891 L 187.530 98.010 188.687 98.037 C 189.511 98.056,189.913 97.982,190.080 97.780 C 190.332 97.476,189.919 97.343,189.628 97.634 M180.748 98.362 C 180.685 98.527,180.633 102.389,180.633 106.946 C 180.633 114.308,180.599 115.264,180.329 115.535 C 180.065 115.798,179.503 115.831,176.093 115.784 C 172.965 115.741,172.202 115.778,172.358 115.966 C 172.754 116.442,179.777 116.287,180.348 115.790 L 180.822 115.378 180.822 107.004 L 180.822 98.630 183.452 98.630 C 186.067 98.630,186.679 98.555,186.679 98.232 C 186.679 97.899,180.877 98.026,180.748 98.362 M227.547 98.964 C 227.721 99.157,228.119 99.777,228.430 100.342 C 228.742 100.907,228.998 101.270,229.000 101.149 C 229.005 100.793,227.801 98.841,227.502 98.722 C 227.299 98.642,227.311 98.703,227.547 98.964 M215.694 100.986 C 216.174 101.349,216.454 101.353,216.155 100.992 C 216.026 100.836,215.786 100.709,215.623 100.709 C 215.386 100.709,215.400 100.764,215.694 100.986 M216.699 101.532 C 216.841 101.702,217.064 101.842,217.194 101.842 C 217.325 101.842,217.537 101.970,217.667 102.126 C 217.796 102.282,217.981 102.409,218.079 102.409 C 218.427 102.409,218.005 102.019,217.230 101.623 C 216.617 101.310,216.499 101.290,216.699 101.532 M229.007 101.748 C 229.011 102.169,229.554 103.438,229.562 103.045 C 229.566 102.823,229.443 102.398,229.288 102.100 C 229.133 101.802,229.006 101.644,229.007 101.748 M219.378 103.334 C 219.944 103.842,220.449 104.218,220.501 104.168 C 220.553 104.118,220.383 103.907,220.123 103.699 C 219.863 103.491,219.417 103.116,219.132 102.865 C 218.848 102.614,218.555 102.409,218.482 102.409 C 218.410 102.409,218.813 102.825,219.378 103.334 M220.914 105.937 C 220.876 106.985,220.412 108.015,219.904 108.180 C 219.731 108.235,219.476 108.421,219.337 108.592 C 219.132 108.844,219.205 108.833,219.711 108.538 C 220.684 107.970,221.101 107.148,221.018 105.960 L 220.949 104.960 220.914 105.937 M207.758 106.843 C 208.239 107.207,208.514 107.212,208.152 106.849 C 207.996 106.693,207.761 106.566,207.630 106.566 C 207.496 106.566,207.552 106.688,207.758 106.843 M208.786 107.416 C 208.915 107.572,209.155 107.700,209.318 107.700 C 209.555 107.700,209.541 107.644,209.247 107.422 C 208.767 107.059,208.487 107.056,208.786 107.416 M229.344 107.700 C 229.277 107.959,229.166 108.385,229.096 108.644 C 228.983 109.063,229.003 109.053,229.277 108.560 C 229.448 108.253,229.559 107.828,229.525 107.615 C 229.471 107.270,229.451 107.279,229.344 107.700 M210.025 107.977 C 210.227 108.130,210.515 108.257,210.664 108.260 C 210.856 108.265,210.828 108.185,210.570 107.989 C 210.368 107.836,210.081 107.709,209.931 107.706 C 209.739 107.701,209.767 107.781,210.025 107.977 M211.595 108.557 C 211.944 108.709,212.369 108.830,212.539 108.826 C 212.709 108.822,212.562 108.694,212.213 108.542 C 211.863 108.391,211.438 108.270,211.268 108.274 C 211.098 108.278,211.245 108.405,211.595 108.557 M213.982 109.045 C 214.758 109.291,217.654 109.297,218.233 109.055 C 218.661 108.876,218.624 108.856,217.846 108.845 C 217.373 108.839,216.887 108.933,216.766 109.054 C 216.597 109.222,216.370 109.222,215.808 109.054 C 215.403 108.933,214.699 108.841,214.244 108.849 C 213.441 108.865,213.433 108.871,213.982 109.045 M228.332 110.665 C 228.032 111.258,227.274 112.294,226.647 112.968 C 226.021 113.643,225.617 114.129,225.751 114.049 C 226.677 113.496,229.252 109.964,228.950 109.661 C 228.909 109.621,228.631 110.073,228.332 110.665 M224.846 114.515 C 224.587 114.726,224.204 114.973,223.996 115.066 C 223.748 115.176,223.715 115.236,223.902 115.240 C 224.058 115.244,224.483 114.997,224.846 114.691 C 225.586 114.068,225.586 113.916,224.846 114.515 M206.830 114.877 C 207.053 115.111,207.332 115.270,207.451 115.230 C 207.569 115.191,207.387 114.999,207.045 114.805 L 206.424 114.451 206.830 114.877 M208.114 115.547 C 208.315 115.699,208.698 115.813,208.964 115.799 L 209.447 115.773 208.975 115.688 C 208.715 115.641,208.422 115.526,208.323 115.430 C 208.224 115.335,208.054 115.260,207.945 115.263 C 207.836 115.267,207.912 115.394,208.114 115.547 M209.542 115.969 C 209.542 116.190,210.485 116.401,211.313 116.366 C 211.791 116.345,211.742 116.315,211.053 116.206 C 210.586 116.132,210.054 116.007,209.872 115.928 C 209.684 115.846,209.542 115.864,209.542 115.969 M221.762 115.948 C 221.694 116.016,221.319 116.134,220.928 116.210 C 220.255 116.340,220.248 116.349,220.795 116.369 C 221.113 116.381,221.538 116.266,221.740 116.114 C 221.942 115.961,222.057 115.834,221.997 115.830 C 221.936 115.827,221.831 115.880,221.762 115.948 M212.187 116.569 C 212.442 116.744,214.061 116.868,213.872 116.699 C 213.829 116.660,213.368 116.572,212.848 116.502 C 212.177 116.412,211.986 116.432,212.187 116.569 M219.494 116.516 C 219.425 116.585,218.157 116.705,216.676 116.783 L 213.982 116.925 216.735 116.876 C 218.332 116.847,219.640 116.737,219.852 116.614 C 220.140 116.448,220.154 116.401,219.918 116.397 C 219.754 116.394,219.563 116.447,219.494 116.516 M150.678 133.491 C 150.678 138.583,150.702 140.639,150.732 138.060 C 150.762 135.480,150.762 131.314,150.732 128.801 C 150.702 126.288,150.678 128.399,150.678 133.491 " stroke="none" fill="#2c2d45" fill-rule="evenodd"></path><path id="path3" d="M150.779 73.028 C 150.779 96.163,150.812 99.197,151.063 99.197 C 151.219 99.197,151.346 99.325,151.346 99.480 C 151.346 99.636,151.474 99.764,151.630 99.764 C 151.786 99.764,151.913 99.891,151.913 100.047 C 151.913 100.203,152.041 100.331,152.197 100.331 C 152.352 100.331,152.480 100.458,152.480 100.614 C 152.480 100.770,152.607 100.897,152.763 100.897 C 152.919 100.897,153.047 101.025,153.047 101.181 C 153.047 101.337,153.174 101.464,153.330 101.464 C 153.486 101.464,153.614 101.592,153.614 101.748 C 153.614 101.904,153.741 102.031,153.897 102.031 C 154.053 102.031,154.180 102.159,154.180 102.315 C 154.180 102.470,154.308 102.598,154.464 102.598 C 154.620 102.598,154.747 102.726,154.747 102.881 C 154.747 103.070,154.936 103.165,155.314 103.165 C 155.692 103.165,155.881 103.259,155.881 103.448 C 155.881 103.604,156.009 103.732,156.164 103.732 C 156.320 103.732,156.448 103.859,156.448 104.015 C 156.448 104.204,156.637 104.299,157.015 104.299 C 157.393 104.299,157.581 104.393,157.581 104.582 C 157.581 104.738,157.709 104.865,157.865 104.865 C 158.021 104.865,158.148 104.993,158.148 105.149 C 158.148 105.325,158.327 105.432,158.621 105.432 C 158.880 105.432,159.093 105.517,159.093 105.621 C 159.093 105.725,159.221 105.810,159.376 105.810 C 159.532 105.810,159.660 105.938,159.660 106.094 C 159.660 106.282,159.849 106.377,160.227 106.377 C 160.605 106.377,160.794 106.471,160.794 106.660 C 160.794 106.849,160.983 106.944,161.360 106.944 C 161.738 106.944,161.927 107.038,161.927 107.227 C 161.927 107.416,162.116 107.511,162.494 107.511 C 162.872 107.511,163.061 107.605,163.061 107.794 C 163.061 107.983,163.250 108.077,163.628 108.077 C 164.006 108.077,164.195 108.172,164.195 108.361 C 164.195 108.571,164.415 108.644,165.045 108.644 C 165.675 108.644,165.895 108.718,165.895 108.928 C 165.895 109.117,166.084 109.211,166.462 109.211 C 166.840 109.211,167.029 109.306,167.029 109.495 C 167.029 109.699,167.239 109.778,167.785 109.778 C 168.330 109.778,168.540 109.857,168.540 110.061 C 168.540 110.271,168.761 110.345,169.391 110.345 C 170.020 110.345,170.241 110.418,170.241 110.628 C 170.241 110.838,170.461 110.912,171.091 110.912 L 171.941 110.912 171.941 99.480 C 171.941 89.445,171.907 88.049,171.658 88.049 C 171.502 88.049,171.375 87.922,171.375 87.766 C 171.375 87.610,171.247 87.482,171.091 87.482 C 170.935 87.482,170.808 87.355,170.808 87.199 C 170.808 87.010,170.619 86.915,170.241 86.915 C 169.929 86.915,169.674 86.830,169.674 86.726 C 169.674 86.623,169.547 86.538,169.391 86.538 C 169.235 86.538,169.107 86.410,169.107 86.254 C 169.107 86.065,168.918 85.971,168.540 85.971 C 168.162 85.971,167.974 85.876,167.974 85.687 C 167.974 85.531,167.846 85.404,167.690 85.404 C 167.534 85.404,167.407 85.276,167.407 85.120 C 167.407 84.965,167.322 84.837,167.218 84.837 C 167.114 84.837,167.029 84.709,167.029 84.554 C 167.029 84.398,166.901 84.270,166.745 84.270 C 166.590 84.270,166.462 84.143,166.462 83.987 C 166.462 83.831,166.334 83.703,166.179 83.703 C 166.023 83.703,165.895 83.576,165.895 83.420 C 165.895 83.264,165.768 83.137,165.612 83.137 C 165.456 83.137,165.328 83.009,165.328 82.853 C 165.328 82.697,165.201 82.570,165.045 82.570 C 164.856 82.570,164.761 82.381,164.761 82.003 C 164.761 81.625,164.667 81.436,164.478 81.436 C 164.322 81.436,164.195 81.308,164.195 81.153 C 164.195 80.997,164.067 80.869,163.911 80.869 C 163.755 80.869,163.628 80.742,163.628 80.586 C 163.628 80.430,163.500 80.302,163.344 80.302 C 163.155 80.302,163.061 80.113,163.061 79.735 C 163.061 79.358,162.966 79.169,162.778 79.169 C 162.589 79.169,162.494 78.980,162.494 78.602 C 162.494 78.224,162.400 78.035,162.211 78.035 C 162.034 78.035,161.927 77.857,161.927 77.563 C 161.927 77.269,161.820 77.090,161.644 77.090 C 161.434 77.090,161.360 76.870,161.360 76.240 C 161.360 75.610,161.287 75.390,161.077 75.390 C 160.867 75.390,160.794 75.169,160.794 74.539 C 160.794 73.910,160.720 73.689,160.510 73.689 C 160.290 73.689,160.227 73.437,160.227 72.556 C 160.227 71.674,160.164 71.422,159.943 71.422 C 159.703 71.422,159.660 70.960,159.660 68.399 C 159.660 65.837,159.703 65.376,159.943 65.376 C 160.170 65.376,160.227 65.092,160.227 63.958 C 160.227 62.825,160.283 62.541,160.510 62.541 C 160.720 62.541,160.794 62.321,160.794 61.691 C 160.794 61.061,160.867 60.841,161.077 60.841 C 161.287 60.841,161.360 60.620,161.360 59.991 C 161.360 59.361,161.434 59.140,161.644 59.140 C 161.833 59.140,161.927 58.951,161.927 58.573 C 161.927 58.196,162.022 58.007,162.211 58.007 C 162.400 58.007,162.494 57.818,162.494 57.440 C 162.494 57.062,162.589 56.873,162.778 56.873 C 162.933 56.873,163.061 56.788,163.061 56.684 C 163.061 56.580,163.188 56.495,163.344 56.495 C 163.533 56.495,163.628 56.306,163.628 55.928 C 163.628 55.550,163.722 55.361,163.911 55.361 C 164.067 55.361,164.195 55.234,164.195 55.078 C 164.195 54.922,164.322 54.795,164.478 54.795 C 164.634 54.795,164.761 54.667,164.761 54.511 C 164.761 54.355,164.889 54.228,165.045 54.228 C 165.201 54.228,165.328 54.100,165.328 53.944 C 165.328 53.788,165.456 53.661,165.612 53.661 C 165.768 53.661,165.895 53.533,165.895 53.377 C 165.895 53.222,166.023 53.094,166.179 53.094 C 166.334 53.094,166.462 52.966,166.462 52.811 C 166.462 52.655,166.590 52.527,166.745 52.527 C 166.901 52.527,167.029 52.400,167.029 52.244 C 167.029 52.088,167.114 51.960,167.218 51.960 C 167.322 51.960,167.407 51.833,167.407 51.677 C 167.407 51.521,167.534 51.393,167.690 51.393 C 167.846 51.393,167.974 51.266,167.974 51.110 C 167.974 50.954,168.101 50.827,168.257 50.827 C 168.413 50.827,168.540 50.699,168.540 50.543 C 168.540 50.387,168.668 50.260,168.824 50.260 C 168.980 50.260,169.107 50.132,169.107 49.976 C 169.107 49.787,169.296 49.693,169.674 49.693 C 170.052 49.693,170.241 49.598,170.241 49.410 C 170.241 49.254,170.368 49.126,170.524 49.126 C 170.680 49.126,170.808 48.999,170.808 48.843 C 170.808 48.654,170.997 48.559,171.375 48.559 C 171.752 48.559,171.941 48.465,171.941 48.276 C 171.941 48.087,172.130 47.992,172.508 47.992 C 172.886 47.992,173.075 47.898,173.075 47.709 C 173.075 47.520,173.264 47.426,173.642 47.426 C 173.954 47.426,174.209 47.354,174.209 47.267 C 174.209 47.117,161.604 46.859,154.244 46.859 L 150.779 46.859 150.779 73.028 M198.063 47.000 C 194.597 47.034,192.537 47.123,192.537 47.240 C 192.537 47.342,192.792 47.426,193.103 47.426 C 193.481 47.426,193.670 47.520,193.670 47.709 C 193.670 47.898,193.859 47.992,194.237 47.992 C 194.615 47.992,194.804 48.087,194.804 48.276 C 194.804 48.465,194.993 48.559,195.371 48.559 C 195.749 48.559,195.938 48.654,195.938 48.843 C 195.938 49.032,196.127 49.126,196.504 49.126 C 196.882 49.126,197.071 49.221,197.071 49.410 C 197.071 49.565,197.156 49.693,197.260 49.693 C 197.364 49.693,197.449 49.821,197.449 49.976 C 197.449 50.132,197.577 50.260,197.733 50.260 C 197.889 50.260,198.016 50.387,198.016 50.543 C 198.016 50.699,198.144 50.827,198.299 50.827 C 198.455 50.827,198.583 50.954,198.583 51.110 C 198.583 51.299,198.772 51.393,199.150 51.393 C 199.528 51.393,199.717 51.488,199.717 51.677 C 199.717 51.833,199.844 51.960,200.000 51.960 C 200.156 51.960,200.283 52.088,200.283 52.244 C 200.283 52.400,200.411 52.527,200.567 52.527 C 200.723 52.527,200.850 52.655,200.850 52.811 C 200.850 52.966,200.978 53.094,201.134 53.094 C 201.323 53.094,201.417 53.283,201.417 53.661 C 201.417 54.039,201.512 54.228,201.701 54.228 C 201.856 54.228,201.984 54.355,201.984 54.511 C 201.984 54.667,202.111 54.795,202.267 54.795 C 202.423 54.795,202.551 54.922,202.551 55.078 C 202.551 55.234,202.678 55.361,202.834 55.361 C 203.023 55.361,203.118 55.550,203.118 55.928 C 203.118 56.306,203.212 56.495,203.401 56.495 C 203.557 56.495,203.684 56.580,203.684 56.684 C 203.684 56.788,203.812 56.873,203.968 56.873 C 204.157 56.873,204.251 57.062,204.251 57.440 C 204.251 57.818,204.346 58.007,204.535 58.007 C 204.724 58.007,204.818 58.196,204.818 58.573 C 204.818 58.951,204.913 59.140,205.102 59.140 C 205.311 59.140,205.385 59.361,205.385 59.991 C 205.385 60.620,205.458 60.841,205.668 60.841 C 205.878 60.841,205.952 61.061,205.952 61.691 C 205.952 62.159,206.037 62.541,206.141 62.541 C 206.246 62.541,206.330 63.045,206.330 63.675 C 206.330 64.557,206.393 64.809,206.613 64.809 C 206.854 64.809,206.897 65.302,206.897 68.115 C 206.897 70.928,206.854 71.422,206.613 71.422 C 206.386 71.422,206.330 71.705,206.330 72.839 C 206.330 73.658,206.250 74.256,206.141 74.256 C 206.037 74.256,205.952 74.639,205.952 75.106 C 205.952 75.736,205.878 75.957,205.668 75.957 C 205.479 75.957,205.385 76.145,205.385 76.523 C 205.385 76.901,205.291 77.090,205.102 77.090 C 204.925 77.090,204.818 77.269,204.818 77.563 C 204.818 77.857,204.711 78.035,204.535 78.035 C 204.346 78.035,204.251 78.224,204.251 78.602 C 204.251 78.980,204.157 79.169,203.968 79.169 C 203.779 79.169,203.684 79.358,203.684 79.735 C 203.684 80.092,203.587 80.302,203.424 80.302 C 203.225 80.302,203.144 80.741,203.083 82.132 C 203.031 83.321,202.923 83.989,202.777 84.037 C 202.633 84.085,202.551 84.550,202.551 85.312 C 202.551 86.125,202.460 86.602,202.267 86.794 C 202.111 86.950,201.984 87.384,201.984 87.758 C 201.984 88.189,201.880 88.479,201.701 88.548 C 201.545 88.607,201.417 88.854,201.417 89.095 C 201.417 89.336,201.290 89.661,201.134 89.817 C 200.978 89.973,200.850 90.237,200.850 90.403 C 200.850 90.570,200.723 90.755,200.567 90.815 C 200.411 90.875,200.283 91.031,200.283 91.161 C 200.283 91.292,200.030 91.687,199.720 92.039 C 199.409 92.390,199.154 92.742,199.153 92.820 C 199.151 92.898,199.022 92.962,198.866 92.962 C 198.710 92.962,198.583 93.047,198.583 93.151 C 198.583 93.396,197.883 94.095,197.638 94.095 C 197.534 94.095,197.449 94.223,197.449 94.379 C 197.449 94.535,197.332 94.662,197.189 94.662 C 197.046 94.662,196.823 94.790,196.693 94.946 C 196.564 95.102,196.299 95.229,196.103 95.229 C 195.908 95.229,195.749 95.357,195.749 95.513 C 195.749 95.668,195.589 95.796,195.394 95.796 C 195.199 95.796,194.933 95.923,194.804 96.079 C 194.675 96.235,194.364 96.363,194.114 96.363 C 193.863 96.363,193.609 96.490,193.550 96.646 C 193.490 96.802,193.231 96.930,192.975 96.930 C 192.719 96.930,192.382 97.057,192.226 97.213 C 192.062 97.377,191.600 97.496,191.129 97.496 C 190.636 97.496,190.223 97.608,190.080 97.780 C 189.907 97.988,189.448 98.063,188.343 98.063 C 187.260 98.063,186.762 98.142,186.558 98.347 C 186.332 98.572,185.720 98.630,183.548 98.630 L 180.822 98.630 180.822 105.621 L 180.822 112.612 184.412 112.612 C 187.477 112.612,188.002 112.571,188.002 112.329 C 188.002 112.095,188.348 112.045,189.986 112.045 C 191.623 112.045,191.970 111.996,191.970 111.762 C 191.970 111.541,192.222 111.479,193.103 111.479 C 193.985 111.479,194.237 111.416,194.237 111.195 C 194.237 110.975,194.489 110.912,195.371 110.912 C 196.253 110.912,196.504 110.849,196.504 110.628 C 196.504 110.424,196.714 110.345,197.260 110.345 C 197.806 110.345,198.016 110.266,198.016 110.061 C 198.016 109.851,198.236 109.778,198.866 109.778 C 199.496 109.778,199.717 109.705,199.717 109.495 C 199.717 109.285,199.937 109.211,200.567 109.211 C 201.197 109.211,201.417 109.138,201.417 108.928 C 201.417 108.739,201.606 108.644,201.984 108.644 C 202.362 108.644,202.551 108.550,202.551 108.361 C 202.551 108.172,202.740 108.077,203.118 108.077 C 203.496 108.077,203.684 107.983,203.684 107.794 C 203.684 107.605,203.873 107.511,204.251 107.511 C 204.629 107.511,204.818 107.416,204.818 107.227 C 204.818 107.038,205.007 106.944,205.385 106.944 C 205.763 106.944,205.952 106.849,205.952 106.660 C 205.952 106.504,206.037 106.377,206.141 106.377 C 206.260 106.377,206.346 107.902,206.373 110.487 L 206.416 114.596 206.471 110.581 L 206.526 106.566 207.278 106.566 C 207.692 106.566,208.030 106.631,208.030 106.710 C 208.030 106.839,208.962 107.304,210.581 107.983 C 211.595 108.408,212.376 108.615,212.376 108.459 C 212.376 108.259,211.886 108.077,211.344 108.077 C 211.106 108.077,210.805 107.950,210.675 107.794 C 210.546 107.638,210.238 107.511,209.991 107.511 C 209.744 107.511,209.542 107.426,209.542 107.322 C 209.542 107.218,209.427 107.133,209.287 107.133 C 209.147 107.133,208.837 106.963,208.597 106.755 C 208.348 106.539,207.890 106.377,207.529 106.377 C 207.093 106.377,206.897 106.289,206.897 106.094 C 206.897 105.938,207.024 105.810,207.180 105.810 C 207.336 105.810,207.463 105.725,207.463 105.621 C 207.463 105.517,207.718 105.432,208.030 105.432 C 208.408 105.432,208.597 105.338,208.597 105.149 C 208.597 104.960,208.786 104.865,209.164 104.865 C 209.542 104.865,209.731 104.771,209.731 104.582 C 209.731 104.426,209.858 104.299,210.014 104.299 C 210.170 104.299,210.298 104.171,210.298 104.015 C 210.298 103.859,210.425 103.732,210.581 103.732 C 210.737 103.732,210.864 103.604,210.864 103.448 C 210.864 103.259,211.053 103.165,211.431 103.165 C 211.809 103.165,211.998 103.070,211.998 102.881 C 211.998 102.726,212.126 102.598,212.282 102.598 C 212.437 102.598,212.565 102.470,212.565 102.315 C 212.565 102.159,212.692 102.031,212.848 102.031 C 213.004 102.031,213.132 101.904,213.132 101.748 C 213.132 101.592,213.259 101.464,213.415 101.464 C 213.571 101.464,213.699 101.337,213.699 101.181 C 213.699 100.972,213.917 100.897,214.529 100.897 C 215.092 100.897,215.394 100.989,215.467 101.181 C 215.527 101.337,215.752 101.464,215.966 101.464 C 216.180 101.464,216.405 101.592,216.465 101.748 C 216.524 101.904,216.777 102.031,217.025 102.031 C 217.274 102.031,217.478 102.097,217.478 102.177 C 217.478 102.257,217.793 102.491,218.178 102.697 C 218.563 102.902,219.124 103.310,219.425 103.602 C 219.726 103.895,220.010 104.096,220.057 104.050 C 220.165 103.942,218.636 102.616,218.139 102.388 C 217.931 102.293,217.506 102.050,217.194 101.848 C 216.882 101.647,215.735 101.040,214.643 100.499 C 213.552 99.959,212.617 99.456,212.565 99.382 C 212.513 99.308,212.279 99.188,212.045 99.115 C 211.812 99.042,211.620 98.903,211.620 98.806 C 211.620 98.709,211.532 98.630,211.425 98.630 C 211.317 98.630,210.980 98.375,210.675 98.063 C 210.371 97.752,210.050 97.496,209.963 97.496 C 209.723 97.496,208.597 96.282,208.597 96.023 C 208.597 95.898,208.512 95.796,208.408 95.796 C 208.304 95.796,208.219 95.668,208.219 95.513 C 208.219 95.357,208.113 95.227,207.983 95.224 C 207.853 95.222,207.593 94.860,207.405 94.421 C 207.217 93.982,206.920 93.332,206.744 92.977 C 206.269 92.016,206.278 86.138,206.756 85.309 C 206.936 84.998,207.084 84.636,207.084 84.506 C 207.085 84.376,207.161 84.270,207.254 84.270 C 207.347 84.270,207.474 84.065,207.537 83.815 C 207.740 83.004,210.073 80.573,211.199 79.998 C 211.583 79.802,212.012 79.535,212.150 79.405 C 212.289 79.275,212.562 79.169,212.756 79.169 C 212.951 79.169,213.162 79.084,213.226 78.980 C 213.290 78.876,213.505 78.791,213.703 78.791 C 213.901 78.791,214.470 78.651,214.967 78.481 C 216.263 78.037,223.963 78.050,224.457 78.496 C 224.636 78.659,225.118 78.791,225.530 78.791 C 226.292 78.791,227.627 79.347,227.901 79.780 C 228.003 79.941,228.054 79.881,228.056 79.594 C 228.057 79.341,227.944 79.169,227.775 79.169 C 227.619 79.169,227.492 79.041,227.492 78.885 C 227.492 78.729,227.619 78.602,227.775 78.602 C 227.993 78.602,228.059 78.360,228.059 77.563 C 228.059 76.765,228.124 76.523,228.342 76.523 C 228.573 76.523,228.625 76.208,228.625 74.823 C 228.625 73.437,228.678 73.122,228.909 73.122 C 229.154 73.122,229.192 72.440,229.192 68.115 C 229.192 63.790,229.154 63.108,228.909 63.108 C 228.678 63.108,228.625 62.793,228.625 61.408 C 228.625 60.022,228.573 59.707,228.342 59.707 C 228.122 59.707,228.059 59.455,228.059 58.573 C 228.059 57.692,227.996 57.440,227.775 57.440 C 227.570 57.440,227.492 57.230,227.492 56.684 C 227.492 56.138,227.413 55.928,227.208 55.928 C 226.998 55.928,226.925 55.708,226.925 55.078 C 226.925 54.448,226.851 54.228,226.641 54.228 C 226.432 54.228,226.358 54.007,226.358 53.377 C 226.358 52.748,226.285 52.527,226.075 52.527 C 225.865 52.527,225.791 52.307,225.791 51.677 C 225.791 51.047,225.718 50.827,225.508 50.827 C 225.319 50.827,225.224 50.638,225.224 50.260 C 225.224 49.948,225.139 49.693,225.035 49.693 C 224.932 49.693,224.846 49.438,224.846 49.126 C 224.846 48.748,224.752 48.559,224.563 48.559 C 224.374 48.559,224.280 48.370,224.280 47.992 C 224.280 47.615,224.185 47.426,223.996 47.426 C 223.840 47.426,223.713 47.342,223.713 47.241 C 223.713 47.128,225.206 47.034,227.539 47.000 C 229.643 46.970,225.116 46.945,217.478 46.946 C 209.839 46.947,201.103 46.971,198.063 47.000 M217.100 86.065 C 216.970 86.221,216.715 86.349,216.533 86.349 C 216.350 86.349,216.095 86.476,215.966 86.632 C 215.837 86.788,215.614 86.915,215.470 86.915 C 215.310 86.915,215.210 87.123,215.210 87.459 C 215.210 87.758,215.083 88.109,214.927 88.238 C 214.609 88.502,214.545 88.994,214.829 88.994 C 214.931 88.994,215.069 89.228,215.137 89.513 C 215.258 90.022,215.868 90.697,216.719 91.261 C 216.954 91.417,217.257 91.651,217.393 91.781 C 217.528 91.911,217.725 92.017,217.828 92.017 C 217.932 92.017,218.130 92.128,218.267 92.263 C 218.404 92.398,218.920 92.703,219.413 92.941 C 219.906 93.178,220.358 93.450,220.416 93.545 C 220.584 93.817,220.879 93.746,220.879 93.434 C 220.879 93.278,221.006 93.151,221.162 93.151 C 221.318 93.151,221.445 93.023,221.445 92.867 C 221.445 92.711,221.573 92.584,221.729 92.584 C 221.918 92.584,222.012 92.395,222.012 92.017 C 222.012 91.639,222.107 91.450,222.296 91.450 C 222.452 91.450,222.579 91.323,222.579 91.167 C 222.579 91.011,222.707 90.883,222.863 90.883 C 223.051 90.883,223.146 90.694,223.146 90.316 C 223.146 89.939,223.240 89.750,223.429 89.750 C 223.618 89.750,223.713 89.561,223.713 89.183 C 223.713 88.805,223.807 88.616,223.996 88.616 C 224.185 88.616,224.280 88.427,224.280 88.049 C 224.280 87.671,224.374 87.482,224.563 87.482 C 224.719 87.482,224.846 87.349,224.846 87.185 C 224.846 86.679,224.339 86.349,223.560 86.349 C 223.128 86.349,222.716 86.230,222.579 86.065 C 222.392 85.839,221.835 85.782,219.839 85.782 C 217.844 85.782,217.287 85.839,217.100 86.065 M225.345 87.199 C 225.405 87.355,225.621 87.482,225.825 87.482 C 226.155 87.482,226.165 87.451,225.913 87.199 C 225.757 87.043,225.541 86.915,225.433 86.915 C 225.325 86.915,225.285 87.043,225.345 87.199 M227.726 87.584 C 227.581 87.842,227.472 87.863,227.154 87.693 C 226.637 87.416,226.547 87.427,226.547 87.766 C 226.547 88.163,227.840 88.156,227.993 87.758 C 228.153 87.342,227.939 87.203,227.726 87.584 M221.324 94.001 C 221.480 94.157,221.656 94.284,221.715 94.284 C 221.775 94.284,221.823 94.157,221.823 94.001 C 221.823 93.840,221.654 93.718,221.432 93.718 C 221.084 93.718,221.072 93.749,221.324 94.001 M222.317 94.554 C 222.451 94.903,223.026 94.962,222.910 94.615 C 222.867 94.485,222.690 94.351,222.517 94.318 C 222.298 94.275,222.237 94.347,222.317 94.554 M225.693 96.841 C 226.191 97.312,226.630 97.665,226.669 97.626 C 226.803 97.492,225.186 95.985,224.909 95.985 C 224.841 95.985,225.194 96.370,225.693 96.841 M227.114 98.158 C 227.507 98.704,228.059 99.237,228.053 99.063 C 228.050 98.981,227.777 98.658,227.445 98.347 C 227.114 98.035,226.965 97.950,227.114 98.158 M229.645 105.149 C 229.645 106.604,229.675 107.174,229.711 106.416 C 229.747 105.658,229.746 104.468,229.710 103.771 C 229.674 103.074,229.644 103.694,229.645 105.149 M220.315 104.427 C 220.320 104.716,220.668 105.139,220.796 105.011 C 220.866 104.941,220.786 104.746,220.618 104.577 C 220.449 104.409,220.313 104.341,220.315 104.427 M219.859 107.898 C 219.259 108.505,218.978 108.650,218.347 108.676 L 217.572 108.708 218.253 108.780 C 219.037 108.864,220.154 108.251,220.481 107.558 C 220.739 107.010,220.730 107.015,219.859 107.898 M214.171 108.821 C 215.002 108.900,215.853 109.033,216.060 109.116 C 216.368 109.239,216.395 109.220,216.206 109.016 C 216.055 108.853,215.400 108.750,214.317 108.721 L 212.659 108.677 214.171 108.821 M226.547 113.274 C 226.303 113.533,226.148 113.746,226.203 113.746 C 226.258 113.746,226.532 113.533,226.813 113.274 C 227.093 113.014,227.248 112.801,227.157 112.801 C 227.065 112.801,226.791 113.014,226.547 113.274 M172.013 115.698 C 172.077 115.888,172.130 116.122,172.130 116.218 C 172.130 116.552,180.186 116.434,180.525 116.094 C 180.947 115.673,180.893 115.399,180.444 115.679 C 180.236 115.809,180.066 115.980,180.066 116.059 C 180.066 116.479,172.534 116.209,172.212 115.777 C 171.975 115.460,171.925 115.440,172.013 115.698 M209.401 116.013 C 209.443 116.169,209.683 116.312,209.934 116.332 C 210.295 116.359,210.312 116.344,210.014 116.262 C 209.806 116.205,209.566 116.062,209.480 115.944 C 209.377 115.803,209.350 115.826,209.401 116.013 M221.740 116.114 C 221.538 116.266,221.458 116.391,221.562 116.391 C 221.666 116.391,221.916 116.266,222.118 116.114 C 222.320 115.961,222.400 115.836,222.296 115.836 C 222.192 115.836,221.942 115.961,221.740 116.114 M211.893 116.659 C 212.132 116.854,212.591 116.949,213.215 116.931 L 214.171 116.905 213.226 116.773 C 212.707 116.700,212.111 116.578,211.904 116.501 C 211.531 116.362,211.531 116.365,211.893 116.659 M220.056 116.521 C 219.985 116.592,219.567 116.709,219.127 116.780 L 218.328 116.911 219.000 116.934 C 219.516 116.952,220.791 116.424,220.296 116.397 C 220.235 116.394,220.128 116.449,220.056 116.521 M175.484 142.796 C 189.124 142.823,211.443 142.823,225.083 142.796 C 238.722 142.770,227.563 142.748,200.283 142.748 C 173.004 142.748,161.845 142.770,175.484 142.796 " stroke="none" fill="#24233d" fill-rule="evenodd"></path><path id="path4" d="M150.597 46.468 C 150.324 46.979,150.324 142.534,150.597 143.045 C 150.905 143.621,249.662 143.621,249.970 143.045 C 250.103 142.796,250.165 127.430,250.165 94.757 C 250.165 62.084,250.103 46.718,249.970 46.468 C 249.777 46.109,249.020 46.103,200.283 46.103 C 151.547 46.103,150.790 46.109,150.597 46.468 M249.882 94.757 L 249.882 142.749 200.388 142.797 C 173.166 142.823,150.837 142.780,150.767 142.702 C 150.698 142.624,150.683 120.985,150.736 94.615 L 150.831 46.669 200.356 46.717 L 249.882 46.764 249.882 94.757 M174.054 65.751 C 173.190 65.829,172.403 65.972,172.306 66.069 C 172.197 66.178,172.147 75.812,172.177 90.988 L 172.225 115.730 176.128 115.781 C 179.491 115.825,180.073 115.790,180.332 115.531 C 180.598 115.265,180.633 114.270,180.633 106.946 C 180.633 102.389,180.685 98.527,180.748 98.362 C 180.846 98.107,181.332 98.061,184.101 98.047 C 187.934 98.028,190.229 97.715,192.029 96.963 C 192.322 96.841,192.678 96.741,192.821 96.741 C 192.964 96.741,193.130 96.662,193.189 96.566 C 193.248 96.470,193.551 96.336,193.861 96.268 C 194.172 96.200,194.426 96.075,194.426 95.992 C 194.426 95.908,194.589 95.797,194.789 95.745 C 195.887 95.458,199.377 92.323,200.158 90.921 C 201.035 89.348,201.228 88.952,201.228 88.728 C 201.228 88.588,201.356 88.367,201.512 88.238 C 201.667 88.109,201.795 87.769,201.795 87.482 C 201.795 87.196,201.940 86.632,202.116 86.230 C 202.588 85.155,202.586 77.729,202.113 76.642 C 201.938 76.240,201.795 75.774,201.795 75.607 C 201.795 73.978,197.271 68.210,195.994 68.210 C 195.859 68.210,195.749 68.126,195.749 68.024 C 195.749 67.922,195.516 67.781,195.231 67.709 C 194.946 67.638,194.600 67.466,194.462 67.328 C 194.323 67.189,194.098 67.076,193.962 67.076 C 193.825 67.076,193.470 66.949,193.172 66.794 C 192.875 66.639,192.414 66.511,192.149 66.510 C 191.884 66.510,191.579 66.420,191.470 66.312 C 190.928 65.769,178.353 65.364,174.054 65.751 M189.608 66.322 C 191.378 66.627,192.426 66.890,192.614 67.078 C 192.717 67.181,192.926 67.265,193.079 67.265 C 193.422 67.265,195.640 68.327,196.407 68.858 C 197.935 69.917,200.054 72.331,200.481 73.500 C 200.537 73.656,200.781 74.209,201.022 74.728 C 201.791 76.390,202.027 77.775,202.115 81.145 C 202.225 85.356,201.803 87.219,200.003 90.476 C 199.705 91.015,197.798 93.338,197.650 93.343 C 197.591 93.344,197.161 93.684,196.693 94.097 C 196.226 94.510,195.673 94.902,195.465 94.969 C 195.257 95.036,195.045 95.143,194.993 95.207 C 194.763 95.491,192.594 96.417,191.214 96.821 C 189.123 97.434,188.210 97.547,184.412 97.662 C 182.282 97.727,180.432 97.849,180.302 97.933 C 180.119 98.051,180.066 100.029,180.066 106.766 L 180.066 115.446 176.193 115.446 L 172.319 115.446 172.319 90.896 L 172.319 66.347 172.744 66.265 C 173.555 66.109,188.668 66.160,189.608 66.322 M181.956 73.071 C 180.137 73.167,180.255 72.544,180.255 82.016 C 180.255 91.885,179.808 90.796,183.844 90.759 C 190.945 90.693,194.286 87.799,194.278 81.719 C 194.271 76.746,191.583 73.775,186.508 73.134 C 184.966 72.939,184.558 72.934,181.956 73.071 M187.813 73.784 C 188.073 73.932,188.459 74.057,188.670 74.060 C 189.152 74.069,190.256 74.625,191.175 75.321 C 192.242 76.131,192.509 76.510,193.420 78.507 C 193.828 79.402,193.924 84.061,193.551 84.855 C 193.434 85.105,193.182 85.681,192.992 86.136 C 192.329 87.723,189.755 89.681,187.907 90.005 C 187.596 90.060,186.901 90.198,186.363 90.311 C 185.825 90.424,184.337 90.493,183.056 90.464 L 180.727 90.411 180.666 88.049 C 180.632 86.750,180.663 82.945,180.735 79.594 L 180.866 73.500 184.103 73.507 C 186.553 73.512,187.455 73.579,187.813 73.784 M216.155 78.444 C 215.791 78.544,215.154 78.691,214.738 78.770 C 214.077 78.897,212.661 79.523,211.026 80.411 C 210.396 80.753,208.425 82.713,208.196 83.224 C 208.102 83.436,207.863 83.864,207.665 84.176 C 206.591 85.867,206.024 91.599,206.849 92.423 C 206.979 92.553,207.085 92.813,207.085 93.000 C 207.085 93.838,208.693 96.091,210.237 97.417 C 211.195 98.239,211.738 98.609,213.604 99.711 C 213.812 99.834,214.365 100.114,214.832 100.335 C 215.300 100.555,215.810 100.814,215.966 100.909 C 216.122 101.005,216.632 101.297,217.100 101.559 C 218.205 102.177,218.631 102.450,218.950 102.743 C 219.094 102.874,219.501 103.203,219.856 103.474 C 220.210 103.744,220.501 104.076,220.501 104.211 C 220.501 104.346,220.597 104.488,220.714 104.527 C 220.967 104.611,221.164 106.346,220.996 107.013 C 220.367 109.520,214.569 110.005,209.920 107.938 C 209.235 107.634,209.174 107.603,207.964 106.947 C 206.533 106.170,206.504 106.246,206.562 110.676 L 206.613 114.569 207.652 115.079 C 211.992 117.209,219.088 117.296,223.524 115.275 C 225.842 114.219,228.992 110.651,229.006 109.067 C 229.008 108.886,229.132 108.399,229.281 107.983 C 229.655 106.945,229.652 103.866,229.275 102.572 C 228.086 98.492,225.961 96.530,218.706 92.807 C 214.481 90.640,213.473 87.951,216.230 86.205 C 217.954 85.113,222.737 85.482,225.740 86.939 C 227.808 87.942,227.766 88.006,227.827 83.728 C 227.889 79.291,227.863 79.246,224.941 78.759 C 224.317 78.655,223.382 78.498,222.863 78.410 C 221.586 78.196,216.977 78.219,216.155 78.444 M222.957 78.816 C 223.736 78.925,224.714 79.098,225.130 79.200 C 225.546 79.302,226.098 79.432,226.358 79.490 C 227.596 79.764,227.681 80.036,227.681 83.736 C 227.681 87.610,227.729 87.531,225.888 86.652 C 221.758 84.677,216.843 84.666,215.166 86.627 C 214.987 86.838,214.739 87.127,214.617 87.271 C 214.286 87.657,214.307 89.599,214.646 90.014 C 216.006 91.682,216.643 92.126,220.690 94.236 C 223.363 95.629,225.131 96.836,226.426 98.154 C 227.089 98.828,228.248 100.443,228.248 100.692 C 228.248 100.781,228.375 101.098,228.530 101.396 C 228.685 101.693,228.813 102.122,228.813 102.350 C 228.814 102.577,228.906 103.002,229.017 103.294 C 229.320 104.089,229.278 106.280,228.928 107.944 C 228.646 109.286,228.507 109.687,228.029 110.534 C 227.941 110.690,227.790 110.997,227.694 111.217 C 227.540 111.573,225.757 113.441,224.959 114.085 C 223.772 115.042,221.126 115.925,218.551 116.225 C 216.486 116.465,211.242 116.197,210.770 115.827 C 210.666 115.746,210.283 115.622,209.920 115.553 C 209.286 115.431,208.224 115.057,207.322 114.636 C 206.901 114.440,206.897 114.396,206.897 110.591 L 206.897 106.744 207.700 107.219 C 213.338 110.557,220.400 110.362,221.327 106.843 C 222.010 104.252,220.577 102.877,213.321 99.160 C 212.853 98.921,212.428 98.682,212.376 98.630 C 212.324 98.577,211.932 98.297,211.504 98.007 C 209.376 96.565,207.274 93.724,207.274 92.291 C 207.274 92.049,207.189 91.798,207.085 91.734 C 206.976 91.666,206.897 90.633,206.897 89.277 C 206.897 87.921,206.976 86.889,207.085 86.821 C 207.189 86.757,207.274 86.473,207.274 86.191 C 207.274 84.160,211.697 79.597,213.708 79.553 C 213.869 79.549,214.082 79.466,214.180 79.369 C 214.348 79.203,215.500 78.955,217.761 78.598 C 218.811 78.432,220.808 78.516,222.957 78.816 " stroke="none" fill="#206489" fill-rule="evenodd"></path></g></svg>