<svg id="svg" version="1.1" xmlns="http://www.w3.org/2000/svg" xmlns:xlink="http://www.w3.org/1999/xlink" width="400" height="234.66666666666666" viewBox="0, 0, 400,234.66666666666666"><g id="svgg"><path id="path0" d="M188.419 7.903 C 188.333 7.989,188.263 11.422,188.263 15.532 L 188.263 23.005 183.333 23.005 L 178.404 23.005 178.404 27.347 L 178.404 31.690 188.028 31.690 L 197.653 31.690 197.653 19.718 L 197.653 7.746 193.114 7.746 C 190.618 7.746,188.505 7.817,188.419 7.903 M199.765 11.286 L 199.765 14.826 200.803 15.864 C 201.374 16.434,201.955 16.901,202.094 16.901 C 202.233 16.901,202.347 17.060,202.347 17.254 C 202.347 17.447,202.506 17.606,202.700 17.606 C 202.893 17.606,203.052 17.764,203.052 17.958 C 203.052 18.151,203.210 18.310,203.404 18.310 C 203.597 18.310,203.756 18.468,203.756 18.662 C 203.756 18.856,203.854 19.014,203.975 19.014 C 204.095 19.014,204.268 19.252,204.360 19.542 C 204.451 19.833,204.775 20.303,205.080 20.587 C 205.384 20.872,205.634 21.215,205.634 21.350 C 205.634 21.486,205.792 21.596,205.986 21.596 C 206.180 21.596,206.338 21.755,206.338 21.948 C 206.338 22.142,206.496 22.300,206.690 22.300 C 206.884 22.300,207.042 22.459,207.042 22.653 C 207.042 22.846,207.201 23.005,207.394 23.005 C 207.588 23.005,207.746 23.155,207.746 23.340 C 207.746 23.524,207.931 23.727,208.157 23.792 C 208.383 23.857,206.756 23.896,204.541 23.879 C 199.381 23.840,199.765 23.502,199.765 28.080 L 199.765 31.690 210.681 31.690 L 221.596 31.690 221.596 28.052 C 221.596 25.811,221.507 24.413,221.364 24.413 C 221.062 24.413,220.188 23.663,220.188 23.403 C 220.188 23.111,218.158 21.127,217.859 21.127 C 217.720 21.127,217.606 20.968,217.606 20.775 C 217.606 20.581,217.447 20.423,217.254 20.423 C 217.060 20.423,216.901 20.303,216.901 20.156 C 216.901 20.009,216.637 19.645,216.315 19.346 C 215.992 19.047,215.728 18.691,215.728 18.556 C 215.728 18.421,215.569 18.310,215.376 18.310 C 215.182 18.310,215.023 18.151,215.023 17.958 C 215.023 17.764,214.865 17.606,214.671 17.606 C 214.478 17.606,214.319 17.447,214.319 17.254 C 214.319 17.060,214.173 16.901,213.995 16.901 C 213.816 16.901,213.620 16.640,213.559 16.320 L 213.447 15.738 217.463 15.674 L 221.479 15.610 221.543 11.678 L 221.608 7.746 210.686 7.746 L 199.765 7.746 199.765 11.286 M20.479 68.246 L 20.540 80.164 24.529 80.229 C 29.476 80.309,29.108 80.658,29.108 75.894 L 29.108 72.300 31.690 72.300 L 34.272 72.300 34.272 75.894 C 34.272 80.658,33.904 80.309,38.851 80.229 L 42.840 80.164 42.901 68.251 L 42.962 56.338 38.617 56.338 L 34.272 56.338 34.272 59.977 L 34.272 63.615 31.696 63.615 L 29.120 63.615 29.055 60.035 L 28.991 56.455 24.704 56.391 L 20.418 56.327 20.479 68.246 M45.070 60.681 L 45.070 65.023 48.181 65.023 L 51.291 65.023 51.226 72.176 C 51.144 81.120,50.657 80.282,55.939 80.282 C 58.602 80.282,59.851 80.196,60.047 80.000 C 60.254 79.793,60.329 77.773,60.329 72.371 L 60.329 65.023 63.615 65.023 L 66.901 65.023 66.901 60.681 L 66.901 56.338 55.986 56.338 L 45.070 56.338 45.070 60.681 M68.466 56.495 C 68.059 56.901,68.298 79.323,68.714 79.810 C 69.089 80.247,69.402 80.282,73.005 80.282 C 78.013 80.282,77.700 80.587,77.700 75.709 C 77.700 72.580,77.748 72.099,78.052 72.216 C 78.245 72.290,78.404 72.498,78.404 72.678 C 78.404 72.858,78.562 73.005,78.756 73.005 C 78.969 73.005,79.108 73.223,79.108 73.557 C 79.108 73.861,79.372 74.395,79.695 74.743 C 80.018 75.091,80.282 75.582,80.282 75.834 C 80.282 76.085,80.440 76.291,80.634 76.291 C 80.827 76.291,80.986 76.450,80.986 76.643 C 80.986 77.150,82.232 77.094,82.710 76.566 C 82.924 76.330,83.099 76.013,83.099 75.862 C 83.099 75.711,83.204 75.587,83.333 75.587 C 83.462 75.587,83.568 75.323,83.568 75.000 C 83.568 74.635,83.701 74.413,83.920 74.413 C 84.114 74.413,84.272 74.266,84.272 74.086 C 84.272 73.906,84.431 73.698,84.624 73.624 C 84.818 73.550,84.977 73.222,84.977 72.895 C 84.977 72.523,85.108 72.300,85.329 72.300 C 85.522 72.300,85.681 72.155,85.681 71.977 C 85.681 71.799,85.837 71.524,86.028 71.366 C 86.331 71.114,86.383 71.644,86.439 75.621 L 86.502 80.164 90.492 80.229 C 94.037 80.286,94.514 80.249,94.776 79.891 C 95.003 79.580,95.070 76.827,95.070 67.913 L 95.070 56.338 90.376 56.338 C 86.519 56.338,85.681 56.396,85.681 56.665 C 85.681 56.845,85.522 57.053,85.329 57.127 C 85.135 57.201,84.977 57.530,84.977 57.856 C 84.977 58.228,84.845 58.451,84.624 58.451 C 84.426 58.451,84.272 58.661,84.272 58.931 C 84.272 59.196,84.008 59.657,83.685 59.956 C 83.346 60.271,83.099 60.760,83.099 61.118 C 83.099 61.512,82.970 61.737,82.746 61.737 C 82.553 61.737,82.394 61.935,82.394 62.178 C 82.394 62.420,82.236 62.750,82.042 62.911 C 81.754 63.150,81.690 63.134,81.690 62.822 C 81.690 62.613,81.532 62.441,81.338 62.441 C 81.103 62.441,80.986 62.207,80.986 61.737 C 80.986 61.268,80.869 61.033,80.634 61.033 C 80.440 61.033,80.282 60.882,80.282 60.698 C 80.282 60.513,80.142 60.223,79.972 60.052 C 79.802 59.881,79.465 59.293,79.223 58.744 C 78.981 58.195,78.698 57.746,78.593 57.746 C 78.489 57.746,78.404 57.588,78.404 57.394 C 78.404 57.201,78.245 57.042,78.052 57.042 C 77.858 57.042,77.700 56.884,77.700 56.690 C 77.700 56.320,68.828 56.132,68.466 56.495 M97.110 56.490 C 96.700 56.900,96.933 79.319,97.353 79.810 C 97.745 80.268,98.030 80.282,106.930 80.282 L 116.103 80.282 116.385 79.502 C 116.681 78.682,116.771 73.551,116.516 72.007 L 116.370 71.127 111.358 71.127 L 106.345 71.127 106.283 63.791 L 106.221 56.455 101.746 56.392 C 99.285 56.357,97.199 56.401,97.110 56.490 M297.709 68.251 L 297.770 80.164 307.336 80.226 L 316.901 80.287 316.901 76.294 L 316.901 72.300 311.620 72.300 L 306.338 72.300 306.338 68.310 L 306.338 64.319 311.620 64.319 L 316.901 64.319 316.901 60.329 L 316.901 56.338 307.275 56.338 L 297.648 56.338 297.709 68.251 M319.171 56.495 C 318.812 56.853,318.997 62.911,319.366 62.911 C 319.560 62.911,319.718 63.069,319.718 63.263 C 319.718 63.457,319.877 63.615,320.070 63.615 C 320.264 63.615,320.423 63.726,320.423 63.861 C 320.423 63.996,320.687 64.352,321.009 64.651 C 321.332 64.950,321.596 65.315,321.596 65.461 C 321.596 65.608,321.755 65.728,321.948 65.728 C 322.142 65.728,322.300 65.886,322.300 66.080 C 322.300 66.273,322.411 66.432,322.546 66.432 C 322.682 66.432,323.037 66.696,323.336 67.019 C 323.635 67.342,324.000 67.606,324.147 67.606 C 324.293 67.606,324.413 67.764,324.413 67.958 C 324.413 68.151,324.572 68.310,324.765 68.310 C 324.975 68.310,325.117 68.526,325.117 68.845 C 325.117 69.139,325.302 69.545,325.528 69.748 C 325.754 69.951,326.203 70.445,326.526 70.846 C 326.849 71.248,327.245 71.581,327.406 71.586 C 327.567 71.592,327.700 71.755,327.700 71.948 C 327.700 72.247,327.102 72.300,323.728 72.300 C 318.518 72.300,319.014 71.908,319.014 76.037 C 319.014 80.824,317.571 80.299,330.516 80.226 L 341.432 80.164 341.497 76.734 L 341.561 73.304 340.488 72.216 C 339.898 71.617,339.314 71.127,339.191 71.127 C 339.068 71.127,338.967 70.968,338.967 70.775 C 338.967 70.581,338.809 70.423,338.615 70.423 C 338.421 70.423,338.263 70.264,338.263 70.070 C 338.263 69.877,338.104 69.718,337.911 69.718 C 337.717 69.718,337.559 69.598,337.559 69.452 C 337.559 69.305,337.295 68.941,336.972 68.641 C 336.649 68.342,336.385 67.987,336.385 67.852 C 336.385 67.716,336.227 67.606,336.033 67.606 C 335.839 67.606,335.681 67.500,335.681 67.371 C 335.681 67.242,335.522 67.136,335.329 67.136 C 335.135 67.136,334.977 66.978,334.977 66.784 C 334.977 66.590,334.818 66.432,334.624 66.432 C 334.404 66.432,334.272 66.209,334.272 65.838 C 334.272 65.511,334.114 65.183,333.920 65.108 C 333.727 65.034,333.568 64.835,333.568 64.666 C 333.568 64.497,333.436 64.301,333.275 64.230 C 333.113 64.160,334.566 64.117,336.502 64.134 C 341.362 64.177,341.080 64.437,341.080 59.920 L 341.080 56.338 330.203 56.338 C 324.221 56.338,319.257 56.408,319.171 56.495 M343.662 59.622 C 343.662 62.389,343.718 62.911,344.014 62.911 C 344.208 62.911,344.366 63.069,344.366 63.263 C 344.366 63.457,344.525 63.615,344.718 63.615 C 344.912 63.615,345.070 63.773,345.070 63.967 C 345.070 64.161,345.229 64.319,345.423 64.319 C 345.618 64.319,345.775 64.528,345.775 64.789 C 345.775 65.047,346.197 65.681,346.714 66.197 C 347.230 66.714,347.653 67.242,347.653 67.371 C 347.653 67.500,347.811 67.606,348.005 67.606 C 348.198 67.606,348.357 67.764,348.357 67.958 C 348.357 68.151,348.515 68.310,348.709 68.310 C 348.903 68.310,349.061 68.468,349.061 68.662 C 349.061 68.856,349.219 69.014,349.413 69.014 C 349.607 69.014,349.765 69.128,349.765 69.267 C 349.765 69.597,351.764 71.596,352.094 71.596 C 352.233 71.596,352.347 71.755,352.347 71.948 C 352.347 72.249,351.708 72.300,347.999 72.300 L 343.651 72.300 343.715 76.232 L 343.779 80.164 354.695 80.164 L 365.610 80.164 365.675 76.585 C 365.731 73.503,365.690 73.005,365.382 73.005 C 365.185 73.005,365.023 72.846,365.023 72.653 C 365.023 72.459,364.865 72.300,364.671 72.300 C 364.478 72.300,364.319 72.142,364.319 71.948 C 364.319 71.755,364.161 71.596,363.967 71.596 C 363.773 71.596,363.615 71.491,363.615 71.362 C 363.615 71.232,363.457 71.127,363.263 71.127 C 363.028 71.127,362.911 70.892,362.911 70.423 C 362.911 69.953,362.793 69.718,362.559 69.718 C 362.365 69.718,362.207 69.624,362.207 69.508 C 362.207 69.191,360.204 67.136,359.894 67.136 C 359.746 67.136,359.624 66.978,359.624 66.784 C 359.624 66.590,359.466 66.432,359.272 66.432 C 359.079 66.432,358.920 66.273,358.920 66.080 C 358.920 65.886,358.762 65.728,358.568 65.728 C 358.374 65.728,358.216 65.569,358.216 65.376 C 358.216 65.182,358.110 65.023,357.981 65.023 C 357.852 65.023,357.746 64.873,357.746 64.689 C 357.746 64.504,357.562 64.301,357.336 64.237 C 357.110 64.173,358.661 64.134,360.782 64.151 C 363.609 64.174,364.664 64.106,364.733 63.898 C 364.785 63.743,365.033 63.615,365.284 63.615 C 365.718 63.615,365.737 63.446,365.675 60.035 L 365.610 56.455 354.636 56.394 L 343.662 56.333 343.662 59.622 M273.298 88.418 C 272.829 88.608,272.884 95.274,273.357 95.455 C 273.651 95.568,273.709 96.247,273.709 99.556 C 273.709 102.924,273.762 103.521,274.061 103.521 C 274.356 103.521,274.413 104.017,274.413 106.573 C 274.413 109.129,274.470 109.624,274.765 109.624 C 275.065 109.624,275.117 110.236,275.117 113.719 C 275.117 116.195,275.210 117.870,275.352 117.958 C 275.491 118.044,275.587 119.510,275.587 121.565 C 275.587 124.246,275.665 125.130,275.932 125.483 C 276.195 125.832,276.278 126.710,276.285 129.225 C 276.292 131.670,276.384 132.684,276.645 133.184 C 276.905 133.683,276.995 134.669,276.995 137.006 C 276.995 139.589,277.059 140.180,277.347 140.291 C 277.639 140.403,277.700 141.042,277.700 144.022 C 277.700 146.906,277.769 147.689,278.052 147.971 C 278.336 148.256,278.404 149.066,278.404 152.188 C 278.404 155.407,278.463 156.076,278.756 156.188 C 279.043 156.298,279.108 156.861,279.108 159.218 C 279.108 160.810,279.205 162.213,279.324 162.336 C 279.443 162.458,279.575 164.270,279.618 166.362 C 279.671 169.002,279.785 170.255,279.988 170.458 C 280.197 170.667,280.282 171.776,280.282 174.314 C 280.282 177.114,280.353 177.936,280.617 178.155 C 280.872 178.367,280.970 179.249,281.028 181.862 C 281.082 184.340,281.185 185.317,281.397 185.388 C 281.614 185.460,281.690 186.388,281.690 188.958 C 281.690 191.759,281.758 192.487,282.042 192.723 C 282.327 192.960,282.394 193.704,282.394 196.632 C 282.394 199.631,282.455 200.273,282.746 200.385 C 283.040 200.497,283.099 201.164,283.099 204.368 C 283.099 206.484,283.192 208.216,283.306 208.216 C 283.420 208.216,283.569 208.427,283.636 208.685 C 283.734 209.058,283.956 209.155,284.720 209.155 C 285.248 209.155,285.681 209.261,285.681 209.390 C 285.681 209.519,286.156 209.624,286.737 209.624 C 287.520 209.624,287.793 209.716,287.793 209.977 C 287.793 210.229,288.051 210.329,288.704 210.329 C 289.226 210.329,289.738 210.479,289.906 210.681 C 290.093 210.906,290.612 211.033,291.343 211.033 C 292.205 211.033,292.488 211.120,292.488 211.385 C 292.488 211.655,292.788 211.737,293.779 211.737 C 294.770 211.737,295.070 211.819,295.070 212.089 C 295.070 212.349,295.342 212.441,296.107 212.441 C 296.677 212.441,297.183 212.557,297.230 212.699 C 297.277 212.841,297.838 213.016,298.476 213.088 C 299.115 213.160,299.779 213.361,299.953 213.534 C 300.126 213.708,300.736 213.850,301.308 213.850 C 301.880 213.850,302.347 213.955,302.347 214.085 C 302.347 214.214,302.810 214.319,303.375 214.319 C 304.002 214.319,304.517 214.457,304.695 214.671 C 304.873 214.886,305.388 215.023,306.015 215.023 C 306.772 215.023,307.042 215.116,307.042 215.376 C 307.042 215.642,307.330 215.728,308.223 215.728 C 309.057 215.728,309.444 215.831,309.540 216.080 C 309.628 216.311,309.995 216.432,310.605 216.432 C 311.119 216.432,311.693 216.589,311.888 216.784 C 312.082 216.978,312.537 217.136,312.901 217.136 C 313.264 217.136,313.864 217.294,314.234 217.487 C 314.604 217.680,315.249 217.838,315.669 217.839 C 316.089 217.840,316.432 217.946,316.432 218.075 C 316.432 218.204,317.013 218.310,317.723 218.310 C 318.714 218.310,319.014 218.392,319.014 218.662 C 319.014 218.928,319.302 219.014,320.195 219.014 C 321.028 219.014,321.416 219.118,321.511 219.366 C 321.603 219.605,321.978 219.718,322.678 219.718 C 323.438 219.718,323.709 219.811,323.709 220.070 C 323.709 220.340,324.006 220.423,324.975 220.423 C 325.861 220.423,326.280 220.524,326.371 220.761 C 326.453 220.976,326.915 221.126,327.628 221.172 C 328.534 221.230,328.801 221.348,328.988 221.772 C 329.252 222.375,334.272 222.622,334.272 222.033 C 334.272 221.561,335.068 221.142,335.982 221.134 C 336.549 221.129,336.918 221.000,337.004 220.775 C 337.101 220.522,337.497 220.423,338.405 220.423 C 339.374 220.423,339.671 220.340,339.671 220.070 C 339.671 219.819,339.927 219.718,340.565 219.718 C 341.057 219.718,341.665 219.563,341.915 219.374 C 342.166 219.184,342.820 219.026,343.369 219.022 C 344.096 219.016,344.366 218.919,344.366 218.662 C 344.366 218.392,344.666 218.310,345.657 218.310 C 346.367 218.310,346.948 218.219,346.948 218.108 C 346.948 217.997,347.502 217.840,348.179 217.760 C 348.856 217.680,349.446 217.507,349.490 217.375 C 349.534 217.244,349.923 217.136,350.355 217.136 C 350.787 217.136,351.299 216.978,351.492 216.784 C 351.686 216.590,352.260 216.432,352.771 216.432 C 353.309 216.432,353.821 216.284,353.991 216.080 C 354.169 215.865,354.683 215.728,355.310 215.728 C 356.067 215.728,356.338 215.635,356.338 215.376 C 356.338 215.109,356.626 215.023,357.519 215.023 C 358.352 215.023,358.740 214.920,358.835 214.671 C 358.927 214.432,359.302 214.319,360.002 214.319 C 360.569 214.319,361.033 214.214,361.033 214.085 C 361.033 213.955,361.501 213.850,362.072 213.850 C 362.644 213.850,363.254 213.708,363.428 213.534 C 363.601 213.361,364.265 213.160,364.904 213.088 C 365.542 213.016,366.103 212.841,366.150 212.699 C 366.198 212.557,366.703 212.441,367.273 212.441 C 368.038 212.441,368.310 212.349,368.310 212.089 C 368.310 211.819,368.610 211.737,369.601 211.737 C 370.592 211.737,370.892 211.655,370.892 211.385 C 370.892 211.119,371.180 211.033,372.073 211.033 C 372.906 211.033,373.294 210.929,373.389 210.681 C 373.481 210.442,373.856 210.329,374.556 210.329 C 375.316 210.329,375.587 210.236,375.587 209.977 C 375.587 209.711,375.872 209.624,376.747 209.624 C 377.385 209.624,377.972 209.519,378.052 209.390 C 378.131 209.261,378.507 209.155,378.887 209.155 C 379.344 209.155,379.577 209.036,379.577 208.803 C 379.577 208.609,379.736 208.451,379.930 208.451 C 380.222 208.451,380.282 207.997,380.282 205.780 C 380.282 203.692,380.359 203.045,380.634 202.817 C 380.920 202.579,380.986 201.822,380.986 198.781 C 380.986 195.766,381.054 194.968,381.338 194.685 C 381.623 194.400,381.690 193.581,381.690 190.384 C 381.690 187.091,381.749 186.413,382.042 186.300 C 382.328 186.191,382.394 185.640,382.394 183.388 C 382.394 181.625,382.492 180.513,382.661 180.343 C 382.829 180.176,382.972 178.629,383.046 176.188 C 383.111 174.050,383.255 172.300,383.366 172.300 C 383.477 172.300,383.568 170.505,383.568 168.310 C 383.568 164.919,383.621 164.319,383.920 164.319 C 384.217 164.319,384.272 163.787,384.272 160.941 C 384.272 158.154,384.334 157.538,384.624 157.427 C 384.915 157.315,384.977 156.694,384.977 153.864 C 384.977 151.130,385.048 150.365,385.329 150.084 C 385.611 149.801,385.681 149.014,385.681 146.093 C 385.681 143.172,385.750 142.385,386.033 142.103 C 386.318 141.818,386.385 140.999,386.385 137.805 C 386.385 134.585,386.450 133.807,386.737 133.568 C 387.012 133.340,387.089 132.694,387.089 130.619 C 387.089 129.101,387.190 127.900,387.324 127.817 C 387.464 127.730,387.559 126.205,387.559 124.030 C 387.559 121.107,387.628 120.320,387.911 120.037 C 388.196 119.752,388.263 118.933,388.263 115.736 C 388.263 112.443,388.321 111.765,388.615 111.652 C 388.903 111.542,388.967 110.964,388.967 108.487 C 388.967 106.080,389.040 105.396,389.319 105.164 C 389.604 104.928,389.671 104.187,389.671 101.287 C 389.671 98.318,389.732 97.680,390.023 97.568 C 390.566 97.360,390.547 88.614,390.004 88.405 C 389.560 88.235,273.721 88.248,273.298 88.418 M368.285 112.764 C 368.432 112.941,368.499 113.231,368.434 113.409 C 368.369 113.587,368.206 115.211,368.072 117.019 C 367.939 118.826,367.676 121.942,367.489 123.944 C 367.303 125.945,367.044 128.955,366.914 130.634 C 366.784 132.312,366.571 134.742,366.441 136.033 C 366.175 138.672,365.530 145.686,365.372 147.653 C 365.315 148.363,365.162 150.106,365.032 151.526 C 364.902 152.946,364.632 155.957,364.433 158.216 C 363.653 167.061,363.370 170.165,363.131 172.535 C 362.994 173.891,362.790 176.162,362.678 177.582 C 361.911 187.307,361.947 187.146,360.480 187.451 C 360.074 187.536,359.266 187.743,358.685 187.913 C 358.104 188.082,356.995 188.391,356.221 188.601 C 355.446 188.811,354.495 189.076,354.108 189.191 C 353.721 189.305,351.608 189.892,349.413 190.496 C 347.218 191.099,344.947 191.729,344.366 191.897 C 343.214 192.230,341.036 192.834,339.554 193.232 C 337.774 193.711,333.948 194.788,332.945 195.094 C 332.378 195.266,331.800 195.204,330.480 194.828 C 327.875 194.086,326.250 193.632,325.469 193.427 C 325.082 193.326,321.860 192.433,318.310 191.442 C 314.759 190.451,311.062 189.432,310.094 189.177 C 309.126 188.922,307.858 188.571,307.277 188.397 C 306.696 188.223,305.376 187.844,304.343 187.555 C 301.859 186.860,301.980 187.039,301.671 183.625 C 301.522 181.980,301.242 178.891,301.049 176.761 C 300.856 174.630,300.541 171.184,300.349 169.102 C 300.157 167.019,300.000 165.039,300.000 164.700 L 300.000 164.085 307.263 164.085 L 314.525 164.085 314.648 165.082 C 314.930 167.380,315.245 170.687,315.385 172.811 C 315.555 175.397,315.717 175.659,317.375 176.032 C 317.954 176.163,319.378 176.538,320.540 176.865 C 323.579 177.723,324.852 178.072,328.325 179.003 L 331.415 179.831 333.606 179.231 C 334.812 178.902,336.379 178.470,337.089 178.272 C 337.799 178.074,338.750 177.816,339.202 177.700 C 339.654 177.583,340.604 177.326,341.315 177.130 C 342.025 176.933,343.569 176.517,344.746 176.204 C 347.838 175.384,347.800 175.416,347.951 173.542 C 348.203 170.408,348.601 166.035,348.877 163.380 C 349.032 161.896,349.163 159.836,349.168 158.803 L 349.178 156.925 332.590 156.808 C 323.466 156.743,315.920 156.608,315.820 156.508 C 315.720 156.408,315.510 154.771,315.354 152.870 C 315.198 150.969,314.936 147.852,314.771 145.945 C 314.588 143.820,314.556 142.396,314.689 142.267 C 314.810 142.151,322.834 141.988,332.746 141.901 L 350.587 141.745 350.775 141.243 C 350.878 140.967,351.126 138.731,351.326 136.274 C 351.525 133.817,351.766 130.910,351.861 129.812 C 351.956 128.715,351.970 127.741,351.892 127.648 C 351.814 127.554,339.372 127.405,324.242 127.316 L 296.734 127.153 296.623 126.546 C 296.562 126.212,296.392 124.566,296.245 122.887 C 296.099 121.209,295.827 118.309,295.642 116.444 C 295.456 114.579,295.389 112.968,295.491 112.866 C 295.594 112.763,303.807 112.651,313.743 112.617 C 369.151 112.428,368.004 112.425,368.285 112.764 " stroke="none" fill="#14679a" fill-rule="evenodd"></path><path id="path1" d="M186.630 56.335 L 172.908 56.455 172.515 60.094 C 172.299 62.095,171.950 65.634,171.738 67.958 C 171.526 70.282,171.243 73.292,171.110 74.648 C 170.977 76.004,170.770 78.327,170.650 79.812 C 170.530 81.297,170.271 84.255,170.074 86.385 C 169.877 88.515,169.611 91.579,169.482 93.192 C 169.353 94.806,169.146 97.130,169.022 98.357 C 168.520 103.293,168.209 106.986,168.201 108.099 L 168.192 109.272 192.762 109.390 C 206.275 109.454,217.390 109.565,217.461 109.637 C 217.533 109.708,217.436 111.557,217.247 113.745 C 217.058 115.933,216.793 119.043,216.658 120.657 C 216.006 128.453,216.070 128.232,214.363 128.624 C 213.758 128.763,212.735 129.025,212.089 129.206 C 210.862 129.550,207.376 130.489,202.840 131.698 C 201.368 132.090,200.100 132.449,200.023 132.495 C 199.717 132.679,184.252 128.459,183.879 128.090 C 183.727 127.940,183.485 126.444,183.341 124.765 C 182.773 118.149,182.670 117.157,182.521 116.916 C 182.235 116.454,168.328 116.582,168.149 117.048 C 168.018 117.389,168.361 121.780,169.018 128.169 C 169.145 129.396,169.356 131.825,169.488 133.568 C 169.745 136.942,170.040 139.367,170.217 139.544 C 170.319 139.646,171.520 139.996,174.413 140.767 C 176.148 141.228,176.786 141.403,178.991 142.019 C 180.023 142.307,181.185 142.627,181.573 142.729 C 181.960 142.832,184.020 143.411,186.150 144.018 C 188.281 144.624,190.340 145.202,190.728 145.302 C 191.115 145.402,193.354 146.024,195.703 146.684 L 199.975 147.884 203.802 146.805 C 205.907 146.211,208.157 145.587,208.803 145.418 C 209.448 145.248,211.719 144.617,213.850 144.014 C 215.980 143.411,218.251 142.774,218.897 142.597 C 225.352 140.827,226.805 140.433,228.001 140.127 C 229.582 139.723,229.772 139.493,229.921 137.804 C 229.996 136.959,230.163 135.158,230.292 133.803 C 230.422 132.447,230.628 130.123,230.751 128.638 C 231.038 125.181,231.585 119.022,232.044 114.085 C 233.678 96.509,233.767 95.068,233.236 94.784 C 232.904 94.606,225.574 94.559,208.538 94.625 C 195.214 94.676,184.234 94.640,184.139 94.545 C 183.985 94.391,184.140 92.450,184.991 83.920 C 185.120 82.629,185.329 80.305,185.456 78.756 C 185.891 73.451,186.052 72.271,186.369 72.076 C 186.961 71.710,200.807 71.518,205.634 71.809 C 218.043 72.558,217.516 72.477,217.712 73.669 C 217.847 74.490,217.927 75.410,218.554 83.333 C 218.702 85.205,218.904 86.896,219.003 87.089 C 219.216 87.508,232.939 87.748,233.428 87.342 C 233.699 87.118,233.660 86.419,232.880 77.465 C 232.615 74.430,232.085 68.764,231.683 64.671 C 231.557 63.380,231.388 61.162,231.309 59.742 C 231.221 58.167,231.036 56.954,230.835 56.631 L 230.506 56.103 215.429 56.159 C 207.137 56.190,194.177 56.269,186.630 56.335 M313.743 112.617 C 303.807 112.651,295.594 112.763,295.491 112.866 C 295.389 112.968,295.456 114.579,295.642 116.444 C 295.827 118.309,296.099 121.209,296.245 122.887 C 296.392 124.566,296.562 126.212,296.623 126.546 L 296.734 127.153 324.242 127.316 C 339.372 127.405,351.814 127.554,351.892 127.648 C 351.970 127.741,351.956 128.715,351.861 129.812 C 351.766 130.910,351.525 133.817,351.326 136.274 C 351.126 138.731,350.878 140.967,350.775 141.243 L 350.587 141.745 332.746 141.901 C 322.834 141.988,314.810 142.151,314.689 142.267 C 314.556 142.396,314.588 143.820,314.771 145.945 C 314.936 147.852,315.198 150.969,315.354 152.870 C 315.510 154.771,315.720 156.408,315.820 156.508 C 315.920 156.608,323.466 156.743,332.590 156.808 L 349.178 156.925 349.168 158.803 C 349.163 159.836,349.032 161.896,348.877 163.380 C 348.601 166.035,348.203 170.408,347.951 173.542 C 347.800 175.416,347.838 175.384,344.746 176.204 C 343.569 176.517,342.025 176.933,341.315 177.130 C 340.604 177.326,339.654 177.583,339.202 177.700 C 338.750 177.816,337.799 178.074,337.089 178.272 C 336.379 178.470,334.812 178.902,333.606 179.231 L 331.415 179.831 328.325 179.003 C 324.852 178.072,323.579 177.723,320.540 176.865 C 319.378 176.538,317.954 176.163,317.375 176.032 C 315.717 175.659,315.555 175.397,315.385 172.811 C 315.245 170.687,314.930 167.380,314.648 165.082 L 314.525 164.085 307.263 164.085 L 300.000 164.085 300.000 164.700 C 300.000 165.039,300.157 167.019,300.349 169.102 C 300.541 171.184,300.856 174.630,301.049 176.761 C 301.242 178.891,301.522 181.980,301.671 183.625 C 301.980 187.039,301.859 186.860,304.343 187.555 C 305.376 187.844,306.696 188.223,307.277 188.397 C 307.858 188.571,309.126 188.922,310.094 189.177 C 311.062 189.432,314.759 190.451,318.310 191.442 C 321.860 192.433,325.082 193.326,325.469 193.427 C 326.250 193.632,327.875 194.086,330.480 194.828 C 331.800 195.204,332.378 195.266,332.945 195.094 C 333.948 194.788,337.774 193.711,339.554 193.232 C 341.036 192.834,343.214 192.230,344.366 191.897 C 344.947 191.729,347.218 191.099,349.413 190.496 C 351.608 189.892,353.721 189.305,354.108 189.191 C 354.495 189.076,355.446 188.811,356.221 188.601 C 356.995 188.391,358.104 188.082,358.685 187.913 C 359.266 187.743,360.074 187.536,360.480 187.451 C 361.947 187.146,361.911 187.307,362.678 177.582 C 362.790 176.162,362.994 173.891,363.131 172.535 C 363.370 170.165,363.653 167.061,364.433 158.216 C 364.632 155.957,364.902 152.946,365.032 151.526 C 365.162 150.106,365.315 148.363,365.372 147.653 C 365.530 145.686,366.175 138.672,366.441 136.033 C 366.571 134.742,366.784 132.312,366.914 130.634 C 367.044 128.955,367.303 125.945,367.489 123.944 C 367.676 121.942,367.939 118.826,368.072 117.019 C 368.206 115.211,368.369 113.587,368.434 113.409 C 368.499 113.231,368.432 112.941,368.285 112.764 C 368.004 112.425,369.151 112.428,313.743 112.617 M32.022 113.934 C 31.955 114.110,32.015 115.510,32.156 117.045 C 32.459 120.342,32.992 126.449,33.323 130.399 C 33.452 131.948,33.663 134.325,33.792 135.681 C 34.032 138.219,34.497 143.308,35.089 149.883 C 35.275 151.948,35.487 154.423,35.560 155.382 C 35.632 156.340,35.808 157.265,35.950 157.436 C 36.161 157.690,40.696 157.746,60.915 157.746 C 80.403 157.746,85.672 157.808,85.852 158.040 C 85.992 158.220,86.008 159.011,85.894 160.094 C 85.791 161.062,85.596 163.333,85.459 165.141 C 85.323 166.948,85.155 168.762,85.087 169.170 C 85.019 169.579,84.862 171.316,84.740 173.030 C 84.486 176.583,84.523 176.518,82.394 177.102 C 81.555 177.332,80.393 177.656,79.812 177.822 C 79.231 177.988,77.066 178.566,75.000 179.107 C 72.934 179.647,70.776 180.238,70.205 180.420 C 68.769 180.877,67.424 180.835,65.431 180.269 C 64.497 180.004,62.570 179.482,61.150 179.108 C 59.730 178.735,57.987 178.271,57.277 178.076 C 56.567 177.881,55.206 177.514,54.252 177.260 C 51.803 176.607,51.787 176.558,51.281 168.545 C 51.203 167.318,51.029 166.024,50.894 165.669 L 50.647 165.023 43.780 165.023 C 36.532 165.023,36.274 165.061,36.509 166.092 C 36.566 166.344,36.727 167.923,36.867 169.601 C 37.008 171.279,37.268 174.343,37.446 176.408 C 37.624 178.474,37.885 181.696,38.025 183.568 C 38.321 187.494,38.449 187.926,39.360 188.085 C 39.725 188.149,41.344 188.583,42.958 189.050 C 44.572 189.516,46.473 190.060,47.183 190.257 C 47.893 190.455,50.006 191.041,51.878 191.561 C 53.750 192.080,55.968 192.698,56.808 192.933 C 57.647 193.169,58.967 193.536,59.742 193.750 C 60.516 193.964,62.471 194.530,64.085 195.007 C 67.728 196.085,68.798 196.097,72.183 195.101 C 73.603 194.683,75.663 194.096,76.761 193.795 C 78.518 193.313,81.075 192.607,84.507 191.654 C 85.088 191.493,88.099 190.650,91.197 189.782 C 94.296 188.914,97.065 188.152,97.352 188.090 C 98.124 187.921,98.000 188.840,99.418 172.770 C 99.606 170.640,99.865 167.735,99.992 166.315 C 100.120 164.894,100.336 162.412,100.472 160.798 C 100.607 159.184,100.822 156.913,100.949 155.751 C 101.075 154.589,101.286 152.160,101.417 150.352 C 101.547 148.545,101.749 146.339,101.865 145.451 C 101.980 144.563,102.019 143.691,101.951 143.514 C 101.848 143.244,97.594 143.192,75.570 143.192 C 50.701 143.192,49.301 143.171,49.090 142.777 C 48.968 142.549,48.801 141.466,48.718 140.371 C 48.636 139.276,48.420 136.849,48.238 134.977 C 47.927 131.763,47.792 129.507,47.858 128.580 C 47.886 128.191,49.367 128.169,75.441 128.169 C 97.203 128.169,103.043 128.107,103.227 127.876 C 103.461 127.580,103.558 126.756,103.987 121.362 C 104.115 119.748,104.337 117.498,104.479 116.363 C 104.621 115.228,104.678 114.145,104.606 113.957 C 104.415 113.459,32.213 113.437,32.022 113.934 " stroke="none" fill="#f3f3f3" fill-rule="evenodd"></path><path id="path2" d="M141.147 41.670 C 141.105 42.748,141.162 42.958,141.499 42.961 C 141.844 42.964,141.851 42.997,141.549 43.189 C 141.267 43.369,141.252 43.501,141.475 43.862 C 141.654 44.150,141.774 45.726,141.812 48.270 C 141.844 50.448,141.968 52.360,142.087 52.519 C 142.207 52.678,142.314 53.920,142.326 55.278 C 142.338 56.635,142.429 57.746,142.528 57.746 C 142.627 57.746,142.647 57.905,142.573 58.099 C 142.499 58.292,142.530 58.451,142.643 58.451 C 142.874 58.451,142.953 59.480,143.025 63.409 C 143.059 65.253,143.158 66.106,143.329 66.040 C 143.469 65.986,143.584 66.101,143.584 66.294 C 143.584 66.488,143.469 66.578,143.329 66.494 C 143.181 66.405,143.192 66.486,143.354 66.687 C 143.527 66.901,143.657 68.140,143.696 69.960 C 143.735 71.783,143.870 73.065,144.052 73.358 C 144.241 73.662,144.357 74.918,144.379 76.922 C 144.408 79.462,144.479 80.040,144.774 80.153 C 145.086 80.273,145.075 80.361,144.692 80.811 C 144.324 81.242,144.319 81.276,144.660 81.012 C 145.034 80.722,145.070 80.771,145.070 81.573 C 145.070 82.375,145.034 82.424,144.660 82.134 C 144.273 81.834,144.271 81.843,144.640 82.281 C 144.946 82.644,145.049 83.354,145.110 85.507 C 145.169 87.595,145.259 88.240,145.481 88.155 C 145.707 88.069,145.781 88.839,145.800 91.498 C 145.831 95.643,145.895 96.558,146.161 96.647 C 146.272 96.684,146.342 98.184,146.316 99.980 C 146.280 102.498,146.340 103.273,146.579 103.365 C 146.751 103.431,146.859 103.751,146.822 104.088 C 146.785 104.421,146.825 104.736,146.910 104.789 C 146.996 104.841,147.058 105.793,147.049 106.902 C 147.039 108.012,147.122 108.920,147.233 108.920 C 147.344 108.920,147.325 109.125,147.191 109.374 C 146.871 109.973,146.885 110.104,147.254 109.962 C 147.453 109.885,147.559 110.045,147.559 110.424 C 147.559 110.742,147.472 110.949,147.367 110.884 C 147.262 110.819,147.236 110.667,147.310 110.547 C 147.385 110.427,147.334 110.329,147.197 110.329 C 146.854 110.329,146.886 110.575,147.286 111.016 C 147.538 111.296,147.641 112.253,147.696 114.849 C 147.737 116.753,147.841 118.310,147.927 118.310 C 148.218 118.310,148.341 119.579,148.408 123.275 C 148.444 125.296,148.546 126.905,148.633 126.851 C 148.927 126.671,149.040 127.563,149.092 130.446 C 149.121 132.021,149.233 133.255,149.341 133.188 C 149.449 133.121,149.467 132.951,149.381 132.811 C 149.287 132.659,149.332 132.624,149.494 132.724 C 149.682 132.840,149.765 134.111,149.765 136.849 C 149.765 139.647,149.845 140.833,150.038 140.897 C 150.229 140.960,150.308 141.975,150.301 144.262 C 150.294 146.522,150.386 147.722,150.599 148.139 C 150.778 148.489,150.944 149.824,150.994 151.314 C 151.042 152.728,151.171 154.031,151.281 154.209 C 151.417 154.428,151.394 154.479,151.210 154.365 C 151.061 154.273,150.939 154.310,150.939 154.446 C 150.939 154.583,151.039 154.695,151.161 154.695 C 151.296 154.695,151.285 154.978,151.135 155.410 C 150.934 155.987,150.959 156.206,151.267 156.546 C 151.531 156.837,151.655 157.442,151.671 158.513 C 151.690 159.824,151.780 160.140,152.255 160.587 C 152.632 160.941,152.817 161.009,152.817 160.792 C 152.817 160.541,152.879 160.532,153.099 160.751 C 153.254 160.906,153.614 161.033,153.901 161.033 C 154.187 161.033,154.462 161.154,154.511 161.303 C 154.561 161.452,155.209 161.624,155.953 161.685 C 156.827 161.758,157.268 161.891,157.202 162.064 C 157.135 162.238,157.553 162.355,158.411 162.402 C 159.892 162.483,160.170 162.589,159.943 162.986 C 159.855 163.138,159.859 163.196,159.951 163.114 C 160.096 162.985,160.503 163.053,162.207 163.489 C 162.400 163.539,163.014 163.587,163.570 163.597 C 164.127 163.607,164.523 163.710,164.452 163.825 C 164.276 164.110,164.886 164.319,165.889 164.319 C 166.526 164.319,166.686 164.400,166.583 164.669 C 166.509 164.861,166.524 165.007,166.616 164.993 C 167.664 164.837,168.993 165.074,169.087 165.434 C 169.186 165.814,169.196 165.813,169.222 165.420 C 169.237 165.187,169.356 165.062,169.487 165.143 C 169.619 165.224,169.682 165.363,169.628 165.450 C 169.574 165.538,169.862 165.634,170.268 165.664 C 170.674 165.694,171.042 165.826,171.086 165.959 C 171.131 166.092,171.263 166.140,171.382 166.067 C 171.500 165.994,171.728 166.018,171.890 166.119 C 172.051 166.220,172.540 166.324,172.975 166.350 C 173.411 166.376,173.887 166.526,174.032 166.684 C 174.232 166.902,174.217 166.925,173.966 166.782 C 173.745 166.656,173.692 166.683,173.804 166.866 C 173.897 167.016,174.213 167.077,174.512 167.003 C 174.808 166.928,175.448 167.033,175.934 167.236 C 176.420 167.439,177.234 167.606,177.742 167.606 C 178.256 167.606,178.606 167.703,178.530 167.825 C 178.456 167.946,178.898 168.113,179.514 168.197 C 181.075 168.409,181.483 168.544,181.328 168.796 C 181.251 168.919,181.720 169.014,182.406 169.014 C 183.316 169.014,183.589 169.092,183.499 169.325 C 183.411 169.555,183.696 169.651,184.587 169.692 C 185.347 169.726,185.866 169.872,185.984 170.085 C 186.091 170.275,186.521 170.423,186.970 170.423 C 187.407 170.423,187.827 170.522,187.902 170.644 C 188.019 170.833,188.788 170.994,190.663 171.222 C 190.886 171.249,191.150 171.361,191.250 171.471 C 191.350 171.581,191.284 171.585,191.102 171.480 C 190.889 171.356,190.828 171.379,190.929 171.543 C 191.016 171.682,191.570 171.769,192.162 171.736 C 192.794 171.700,193.279 171.784,193.338 171.938 C 193.394 172.083,193.776 172.227,194.187 172.259 C 194.598 172.290,194.996 172.415,195.071 172.537 C 195.232 172.796,195.990 172.956,197.300 173.006 C 197.817 173.026,198.107 173.095,197.946 173.160 C 197.265 173.435,197.767 173.596,199.524 173.668 C 200.943 173.726,201.524 173.655,201.924 173.375 C 202.214 173.171,202.798 173.005,203.221 173.005 C 203.651 173.005,203.991 172.884,203.991 172.731 C 203.991 172.580,204.060 172.526,204.145 172.611 C 204.230 172.696,204.416 172.669,204.559 172.550 C 204.702 172.432,205.276 172.292,205.834 172.240 C 206.391 172.188,206.918 172.045,207.004 171.922 C 207.089 171.798,207.477 171.678,207.864 171.654 C 209.064 171.580,209.501 171.487,209.657 171.273 C 209.739 171.160,210.188 171.055,210.654 171.039 C 211.120 171.023,211.502 170.899,211.502 170.764 C 211.502 170.629,211.893 170.492,212.371 170.460 C 212.849 170.428,213.398 170.274,213.590 170.119 C 213.865 169.896,213.902 169.898,213.765 170.126 C 213.647 170.324,213.707 170.372,213.955 170.277 C 214.155 170.200,214.319 170.050,214.319 169.942 C 214.319 169.835,214.794 169.676,215.373 169.589 C 215.953 169.502,216.369 169.337,216.298 169.223 C 216.227 169.108,216.577 169.014,217.075 169.014 C 217.574 169.014,218.108 168.887,218.263 168.732 C 218.418 168.577,218.546 168.551,218.548 168.674 C 218.550 168.796,218.634 168.767,218.734 168.609 C 218.835 168.451,219.477 168.302,220.161 168.278 C 220.950 168.250,221.450 168.119,221.526 167.920 C 221.592 167.747,221.984 167.606,222.396 167.606 C 222.808 167.606,223.246 167.507,223.369 167.387 C 223.491 167.267,224.120 167.108,224.765 167.033 C 225.411 166.959,225.974 166.793,226.017 166.665 C 226.060 166.537,226.612 166.432,227.242 166.432 C 228.165 166.432,228.363 166.363,228.254 166.080 C 228.127 165.748,228.947 165.574,229.992 165.711 C 230.155 165.732,230.521 165.586,230.807 165.387 C 231.092 165.187,231.663 165.023,232.075 165.023 C 232.487 165.023,232.867 164.896,232.919 164.741 C 232.971 164.585,233.587 164.398,234.288 164.326 C 235.122 164.240,235.543 164.094,235.505 163.905 C 235.465 163.707,235.804 163.615,236.573 163.615 C 237.192 163.615,237.816 163.499,237.958 163.357 C 238.099 163.215,238.621 163.060,239.117 163.012 C 239.613 162.964,240.055 162.816,240.099 162.683 C 240.144 162.550,240.546 162.441,240.994 162.441 C 241.441 162.441,242.115 162.282,242.492 162.087 C 242.869 161.892,243.471 161.712,243.830 161.686 C 244.190 161.661,244.552 161.541,244.635 161.422 C 244.718 161.302,245.351 161.150,246.043 161.084 C 247.959 160.901,248.285 160.544,248.335 158.575 C 248.358 157.673,248.528 156.630,248.713 156.258 C 248.950 155.785,248.982 155.455,248.820 155.153 C 248.694 154.917,248.673 154.672,248.774 154.610 C 248.874 154.548,248.988 153.195,249.025 151.603 C 249.064 149.958,249.217 148.456,249.379 148.122 C 249.563 147.742,249.658 146.376,249.648 144.249 C 249.636 141.567,249.699 140.909,249.993 140.673 C 250.311 140.417,250.312 140.358,250.000 140.149 C 249.764 139.991,249.744 139.912,249.941 139.910 C 250.103 139.908,250.222 139.827,250.207 139.730 C 250.019 138.540,250.284 133.568,250.528 133.706 C 250.756 133.835,250.759 133.804,250.543 133.571 C 250.328 133.338,250.336 133.199,250.579 132.956 C 250.799 132.736,250.910 131.784,250.952 129.760 C 251.040 125.572,251.035 125.622,251.291 125.665 C 251.435 125.689,251.551 124.521,251.591 122.653 C 251.627 120.974,251.723 119.442,251.804 119.249 C 251.886 119.055,251.929 118.757,251.901 118.586 C 251.872 118.415,251.946 118.151,252.065 117.999 C 252.183 117.847,252.303 116.298,252.332 114.556 C 252.365 112.560,252.486 111.263,252.659 111.048 C 252.873 110.784,252.869 110.747,252.641 110.884 C 252.479 110.981,252.347 110.949,252.347 110.812 C 252.347 110.675,252.453 110.563,252.582 110.563 C 252.711 110.563,252.817 110.452,252.817 110.315 C 252.817 110.178,252.685 110.143,252.523 110.238 C 252.362 110.332,252.398 110.206,252.602 109.958 C 252.873 109.630,252.986 108.932,253.015 107.394 C 253.070 104.444,253.184 103.171,253.426 102.791 C 253.540 102.612,253.649 101.222,253.669 99.703 C 253.694 97.768,253.800 96.824,254.023 96.549 C 254.305 96.202,254.289 96.176,253.886 96.328 C 253.462 96.487,253.457 96.470,253.808 96.078 C 254.117 95.733,254.191 95.004,254.214 92.027 C 254.235 89.467,254.327 88.344,254.528 88.216 C 254.684 88.117,254.712 88.034,254.589 88.032 C 254.467 88.030,254.493 87.901,254.648 87.746 C 254.830 87.565,254.930 86.625,254.930 85.094 C 254.930 83.519,255.027 82.625,255.221 82.432 C 255.453 82.199,255.441 82.091,255.162 81.897 C 254.899 81.714,254.885 81.625,255.106 81.535 C 255.267 81.470,255.399 81.313,255.399 81.187 C 255.399 81.061,255.298 81.021,255.174 81.097 C 255.051 81.174,255.103 80.942,255.290 80.583 C 255.532 80.119,255.631 79.118,255.632 77.131 C 255.634 74.808,255.704 74.251,256.045 73.849 C 256.442 73.381,256.440 73.376,256.006 73.713 C 255.576 74.046,255.571 74.036,255.887 73.474 C 256.236 72.853,256.246 72.743,256.332 68.603 C 256.369 66.808,256.473 65.962,256.656 65.962 C 256.831 65.962,256.934 65.368,256.950 64.261 C 257.012 60.138,257.125 58.557,257.369 58.392 C 257.552 58.268,257.534 58.155,257.309 58.010 C 257.054 57.845,257.050 57.783,257.292 57.702 C 257.510 57.630,257.605 56.933,257.630 55.224 C 257.654 53.558,257.764 52.723,257.999 52.435 C 258.291 52.074,258.289 52.049,257.981 52.230 C 257.703 52.394,257.681 52.366,257.877 52.099 C 258.019 51.904,258.146 50.217,258.176 48.122 C 258.207 45.892,258.334 44.273,258.504 43.940 C 258.728 43.501,258.716 43.355,258.440 43.181 C 258.157 43.002,258.168 42.964,258.509 42.961 C 259.026 42.957,259.101 41.053,258.601 40.637 C 258.365 40.442,242.920 40.373,199.739 40.378 L 141.197 40.383 141.147 41.670 M230.835 56.631 C 231.036 56.954,231.221 58.167,231.309 59.742 C 231.388 61.162,231.557 63.380,231.683 64.671 C 232.085 68.764,232.615 74.430,232.880 77.465 C 233.660 86.419,233.699 87.118,233.428 87.342 C 232.939 87.748,219.216 87.508,219.003 87.089 C 218.904 86.896,218.702 85.205,218.554 83.333 C 217.927 75.410,217.847 74.490,217.712 73.669 C 217.516 72.477,218.043 72.558,205.634 71.809 C 200.807 71.518,186.961 71.710,186.369 72.076 C 186.052 72.271,185.891 73.451,185.456 78.756 C 185.329 80.305,185.120 82.629,184.991 83.920 C 184.140 92.450,183.985 94.391,184.139 94.545 C 184.234 94.640,195.214 94.676,208.538 94.625 C 225.574 94.559,232.904 94.606,233.236 94.784 C 233.767 95.068,233.678 96.509,232.044 114.085 C 231.585 119.022,231.038 125.181,230.751 128.638 C 230.628 130.123,230.422 132.447,230.292 133.803 C 230.163 135.158,229.996 136.959,229.921 137.804 C 229.772 139.493,229.582 139.723,228.001 140.127 C 226.805 140.433,225.352 140.827,218.897 142.597 C 218.251 142.774,215.980 143.411,213.850 144.014 C 211.719 144.617,209.448 145.248,208.803 145.418 C 208.157 145.587,205.907 146.211,203.802 146.805 L 199.975 147.884 195.703 146.684 C 193.354 146.024,191.115 145.402,190.728 145.302 C 190.340 145.202,188.281 144.624,186.150 144.018 C 184.020 143.411,181.960 142.832,181.573 142.729 C 181.185 142.627,180.023 142.307,178.991 142.019 C 176.786 141.403,176.148 141.228,174.413 140.767 C 171.520 139.996,170.319 139.646,170.217 139.544 C 170.040 139.367,169.745 136.942,169.488 133.568 C 169.356 131.825,169.145 129.396,169.018 128.169 C 168.361 121.780,168.018 117.389,168.149 117.048 C 168.328 116.582,182.235 116.454,182.521 116.916 C 182.670 117.157,182.773 118.149,183.341 124.765 C 183.485 126.444,183.727 127.940,183.879 128.090 C 184.252 128.459,199.717 132.679,200.023 132.495 C 200.100 132.449,201.368 132.090,202.840 131.698 C 207.376 130.489,210.862 129.550,212.089 129.206 C 212.735 129.025,213.758 128.763,214.363 128.624 C 216.070 128.232,216.006 128.453,216.658 120.657 C 216.793 119.043,217.058 115.933,217.247 113.745 C 217.436 111.557,217.533 109.708,217.461 109.637 C 217.390 109.565,206.275 109.454,192.762 109.390 L 168.192 109.272 168.201 108.099 C 168.209 106.986,168.520 103.293,169.022 98.357 C 169.146 97.130,169.353 94.806,169.482 93.192 C 169.611 91.579,169.877 88.515,170.074 86.385 C 170.271 84.255,170.530 81.297,170.650 79.812 C 170.770 78.327,170.977 76.004,171.110 74.648 C 171.243 73.292,171.526 70.282,171.738 67.958 C 171.950 65.634,172.299 62.095,172.515 60.094 L 172.908 56.455 186.630 56.335 C 194.177 56.269,207.137 56.190,215.429 56.159 L 230.506 56.103 230.835 56.631 M32.079 113.556 C 32.019 113.653,48.323 113.732,68.310 113.732 C 88.297 113.732,104.601 113.653,104.541 113.556 C 104.481 113.460,88.177 113.380,68.310 113.380 C 48.442 113.380,32.138 113.460,32.079 113.556 M104.519 116.315 C 104.522 116.831,104.570 117.015,104.626 116.723 C 104.682 116.431,104.680 116.008,104.621 115.784 C 104.563 115.559,104.517 115.798,104.519 116.315 M31.998 117.019 C 31.999 117.793,32.043 118.082,32.095 117.660 C 32.147 117.238,32.146 116.604,32.093 116.252 C 32.039 115.899,31.996 116.244,31.998 117.019 M104.280 118.075 C 104.280 118.527,104.328 118.712,104.387 118.486 C 104.446 118.260,104.446 117.890,104.387 117.664 C 104.328 117.438,104.280 117.623,104.280 118.075 M32.219 119.601 C 32.221 120.117,32.269 120.301,32.326 120.009 C 32.382 119.717,32.380 119.294,32.321 119.070 C 32.262 118.846,32.216 119.085,32.219 119.601 M104.050 120.775 C 104.052 121.291,104.100 121.475,104.157 121.183 C 104.213 120.891,104.211 120.468,104.152 120.244 C 104.093 120.019,104.047 120.258,104.050 120.775 M32.458 121.596 C 32.458 122.177,32.504 122.415,32.560 122.124 C 32.616 121.834,32.616 121.359,32.560 121.068 C 32.504 120.778,32.458 121.015,32.458 121.596 M32.696 124.531 C 32.698 125.176,32.744 125.412,32.798 125.055 C 32.852 124.699,32.850 124.170,32.794 123.882 C 32.739 123.593,32.694 123.885,32.696 124.531 M103.810 124.178 C 103.810 124.630,103.859 124.815,103.918 124.589 C 103.977 124.363,103.977 123.994,103.918 123.768 C 103.859 123.542,103.810 123.727,103.810 124.178 M32.918 127.465 C 32.918 127.917,32.967 128.102,33.026 127.876 C 33.085 127.650,33.085 127.280,33.026 127.054 C 32.967 126.828,32.918 127.013,32.918 127.465 M103.147 127.933 C 102.995 128.085,93.446 128.188,75.928 128.228 L 48.944 128.288 75.969 128.346 C 99.752 128.397,103.029 128.362,103.286 128.052 C 103.613 127.658,103.509 127.570,103.147 127.933 M33.163 129.577 C 33.163 130.158,33.208 130.396,33.264 130.106 C 33.320 129.815,33.320 129.340,33.264 129.049 C 33.208 128.759,33.163 128.996,33.163 129.577 M47.958 131.455 C 47.958 132.165,48.002 132.456,48.055 132.101 C 48.109 131.746,48.109 131.165,48.055 130.810 C 48.002 130.455,47.958 130.745,47.958 131.455 M33.400 132.746 C 33.402 133.392,33.448 133.628,33.502 133.271 C 33.556 132.915,33.554 132.386,33.499 132.098 C 33.443 131.809,33.399 132.101,33.400 132.746 M48.181 134.155 C 48.184 134.671,48.232 134.855,48.288 134.563 C 48.344 134.271,48.342 133.848,48.283 133.624 C 48.225 133.400,48.179 133.638,48.181 134.155 M33.623 135.446 C 33.623 135.898,33.671 136.083,33.730 135.857 C 33.789 135.631,33.789 135.261,33.730 135.035 C 33.671 134.809,33.623 134.994,33.623 135.446 M48.421 136.150 C 48.421 136.731,48.467 136.969,48.522 136.678 C 48.578 136.388,48.578 135.913,48.522 135.622 C 48.467 135.332,48.421 135.569,48.421 136.150 M33.870 137.676 C 33.872 138.322,33.917 138.558,33.971 138.201 C 34.025 137.844,34.024 137.316,33.968 137.027 C 33.912 136.739,33.868 137.031,33.870 137.676 M48.659 139.554 C 48.660 140.200,48.706 140.436,48.760 140.079 C 48.814 139.722,48.813 139.194,48.757 138.905 C 48.701 138.617,48.657 138.908,48.659 139.554 M34.097 140.728 C 34.099 141.244,34.147 141.428,34.204 141.136 C 34.260 140.844,34.258 140.421,34.199 140.197 C 34.140 139.972,34.094 140.211,34.097 140.728 M34.331 143.075 C 34.334 143.592,34.382 143.775,34.438 143.483 C 34.494 143.191,34.492 142.769,34.434 142.544 C 34.375 142.320,34.329 142.559,34.331 143.075 M76.484 143.134 C 81.174 143.169,88.780 143.169,93.386 143.134 C 97.992 143.098,94.155 143.069,84.859 143.069 C 75.563 143.069,71.795 143.098,76.484 143.134 M34.574 145.188 C 34.576 145.833,34.622 146.070,34.675 145.713 C 34.729 145.356,34.728 144.828,34.672 144.539 C 34.617 144.250,34.572 144.542,34.574 145.188 M101.937 145.188 C 101.940 145.704,101.988 145.888,102.044 145.596 C 102.100 145.304,102.098 144.881,102.039 144.657 C 101.980 144.432,101.935 144.671,101.937 145.188 M101.698 147.183 C 101.698 147.635,101.746 147.820,101.805 147.594 C 101.864 147.368,101.864 146.998,101.805 146.772 C 101.746 146.546,101.698 146.731,101.698 147.183 M34.801 148.709 C 34.804 149.225,34.852 149.409,34.908 149.117 C 34.964 148.825,34.962 148.402,34.903 148.178 C 34.844 147.954,34.798 148.192,34.801 148.709 M101.472 149.296 C 101.472 149.877,101.518 150.114,101.574 149.824 C 101.630 149.533,101.630 149.058,101.574 148.768 C 101.518 148.477,101.472 148.715,101.472 149.296 M35.031 150.704 C 35.031 151.156,35.079 151.341,35.138 151.115 C 35.197 150.889,35.197 150.519,35.138 150.293 C 35.079 150.067,35.031 150.252,35.031 150.704 M35.282 153.286 C 35.282 153.996,35.326 154.287,35.379 153.932 C 35.433 153.577,35.433 152.996,35.379 152.641 C 35.326 152.286,35.282 152.576,35.282 153.286 M101.241 153.169 C 101.243 153.815,101.288 154.051,101.342 153.694 C 101.396 153.337,101.395 152.809,101.339 152.520 C 101.283 152.232,101.239 152.523,101.241 153.169 M35.481 156.485 C 35.459 156.938,35.603 157.343,35.857 157.542 C 36.214 157.822,36.232 157.818,35.995 157.512 C 35.845 157.318,35.676 156.843,35.619 156.455 L 35.516 155.751 35.481 156.485 M100.768 157.512 C 100.768 158.093,100.814 158.330,100.870 158.040 C 100.926 157.749,100.926 157.274,100.870 156.984 C 100.814 156.693,100.768 156.931,100.768 157.512 M60.915 157.921 C 83.757 157.976,85.585 158.010,85.857 158.378 C 86.018 158.596,86.150 158.670,86.150 158.543 C 86.150 157.753,85.912 157.746,60.927 157.804 L 36.268 157.862 60.915 157.921 M85.735 160.563 C 85.735 161.015,85.784 161.200,85.843 160.974 C 85.902 160.748,85.902 160.379,85.843 160.153 C 85.784 159.927,85.735 160.112,85.735 160.563 M100.529 160.681 C 100.531 161.197,100.579 161.381,100.636 161.089 C 100.692 160.797,100.690 160.374,100.631 160.150 C 100.572 159.925,100.526 160.164,100.529 160.681 M85.500 162.441 C 85.500 162.893,85.549 163.078,85.608 162.852 C 85.667 162.626,85.667 162.256,85.608 162.031 C 85.549 161.805,85.500 161.989,85.500 162.441 M36.678 164.944 C 36.517 165.009,36.385 165.172,36.385 165.307 C 36.385 165.467,36.492 165.462,36.698 165.291 C 36.907 165.117,39.275 165.009,43.799 164.965 L 50.587 164.899 43.779 164.862 C 40.035 164.842,36.840 164.879,36.678 164.944 M85.275 165.728 C 85.275 166.309,85.321 166.546,85.377 166.256 C 85.433 165.965,85.433 165.490,85.377 165.200 C 85.321 164.909,85.275 165.147,85.275 165.728 M100.059 165.610 C 100.062 166.127,100.110 166.310,100.166 166.018 C 100.222 165.726,100.220 165.304,100.161 165.079 C 100.103 164.855,100.057 165.094,100.059 165.610 M36.444 166.784 C 36.447 167.300,36.495 167.484,36.551 167.192 C 36.607 166.900,36.605 166.478,36.546 166.253 C 36.488 166.029,36.442 166.268,36.444 166.784 M51.244 167.606 C 51.244 168.316,51.288 168.606,51.342 168.251 C 51.396 167.896,51.396 167.315,51.342 166.960 C 51.288 166.605,51.244 166.896,51.244 167.606 M99.824 168.662 C 99.827 169.178,99.875 169.362,99.931 169.070 C 99.987 168.778,99.985 168.355,99.927 168.131 C 99.868 167.907,99.822 168.146,99.824 168.662 M36.687 169.366 C 36.689 170.012,36.734 170.248,36.788 169.891 C 36.842 169.534,36.841 169.006,36.785 168.717 C 36.729 168.429,36.685 168.721,36.687 169.366 M84.796 170.423 C 84.796 170.874,84.845 171.059,84.904 170.833 C 84.963 170.607,84.963 170.238,84.904 170.012 C 84.845 169.786,84.796 169.971,84.796 170.423 M99.585 170.657 C 99.585 171.109,99.633 171.294,99.692 171.068 C 99.751 170.842,99.751 170.472,99.692 170.246 C 99.633 170.021,99.585 170.205,99.585 170.657 M51.472 171.127 C 51.472 171.708,51.518 171.945,51.574 171.655 C 51.630 171.364,51.630 170.889,51.574 170.599 C 51.518 170.308,51.472 170.546,51.472 171.127 M37.015 173.122 C 37.088 174.026,37.187 174.809,37.235 174.863 C 37.399 175.044,37.299 173.367,37.090 172.418 C 36.931 171.696,36.914 171.859,37.015 173.122 M51.698 173.239 C 51.698 173.691,51.746 173.876,51.805 173.650 C 51.864 173.424,51.864 173.055,51.805 172.829 C 51.746 172.603,51.698 172.788,51.698 173.239 M99.360 173.709 C 99.360 174.290,99.405 174.528,99.461 174.237 C 99.517 173.947,99.517 173.471,99.461 173.181 C 99.405 172.890,99.360 173.128,99.360 173.709 M84.571 173.944 C 84.571 174.525,84.617 174.762,84.673 174.472 C 84.729 174.181,84.729 173.706,84.673 173.415 C 84.617 173.125,84.571 173.363,84.571 173.944 M51.937 175.469 C 51.940 175.986,51.988 176.170,52.044 175.878 C 52.100 175.586,52.098 175.163,52.039 174.939 C 51.980 174.714,51.935 174.953,51.937 175.469 M99.120 176.643 C 99.123 177.160,99.171 177.343,99.227 177.051 C 99.283 176.759,99.281 176.337,99.222 176.112 C 99.164 175.888,99.118 176.127,99.120 176.643 M37.391 177.582 C 37.393 178.228,37.438 178.464,37.492 178.107 C 37.546 177.750,37.545 177.222,37.489 176.933 C 37.433 176.645,37.389 176.937,37.391 177.582 M37.613 180.282 C 37.613 180.734,37.661 180.918,37.720 180.692 C 37.780 180.467,37.780 180.097,37.720 179.871 C 37.661 179.645,37.613 179.830,37.613 180.282 M98.655 181.221 C 98.655 181.802,98.701 182.039,98.757 181.749 C 98.813 181.458,98.813 180.983,98.757 180.692 C 98.701 180.402,98.655 180.640,98.655 181.221 M37.853 182.042 C 37.855 182.559,37.903 182.742,37.959 182.450 C 38.016 182.158,38.013 181.736,37.955 181.511 C 37.896 181.287,37.850 181.526,37.853 182.042 M98.416 184.624 C 98.419 185.141,98.467 185.324,98.523 185.032 C 98.579 184.740,98.577 184.318,98.518 184.094 C 98.459 183.869,98.413 184.108,98.416 184.624 M38.092 185.681 C 38.092 186.262,38.138 186.499,38.194 186.209 C 38.250 185.918,38.250 185.443,38.194 185.153 C 38.138 184.862,38.092 185.100,38.092 185.681 M98.177 186.385 C 98.177 186.837,98.225 187.022,98.284 186.796 C 98.343 186.570,98.343 186.200,98.284 185.974 C 98.225 185.748,98.177 185.933,98.177 186.385 M38.987 188.113 C 39.040 188.159,39.401 188.268,39.789 188.354 C 40.303 188.469,40.398 188.448,40.141 188.274 C 39.824 188.059,38.751 187.909,38.987 188.113 M51.995 191.784 C 52.254 191.895,52.623 191.986,52.817 191.986 C 53.039 191.986,52.995 191.911,52.700 191.784 C 52.441 191.673,52.072 191.582,51.878 191.582 C 51.656 191.582,51.699 191.657,51.995 191.784 M83.920 191.784 C 83.624 191.911,83.581 191.986,83.803 191.986 C 83.996 191.986,84.366 191.895,84.624 191.784 C 84.920 191.657,84.964 191.582,84.742 191.582 C 84.548 191.582,84.178 191.673,83.920 191.784 M61.737 194.484 C 62.189 194.658,62.717 194.800,62.911 194.800 C 63.104 194.800,62.893 194.658,62.441 194.484 C 61.989 194.310,61.461 194.167,61.268 194.167 C 61.074 194.167,61.285 194.310,61.737 194.484 M67.899 196.171 C 68.125 196.230,68.495 196.230,68.721 196.171 C 68.947 196.112,68.762 196.064,68.310 196.064 C 67.858 196.064,67.673 196.112,67.899 196.171 " stroke="none" fill="#e4a42b" fill-rule="evenodd"></path><path id="path3" d="M258.509 44.028 C 258.164 44.403,258.124 44.836,258.435 44.836 C 258.652 44.836,259.037 43.932,258.883 43.785 C 258.839 43.744,258.671 43.853,258.509 44.028 M141.083 44.073 C 141.085 44.170,141.185 44.404,141.305 44.594 C 141.576 45.022,141.893 44.754,141.703 44.259 C 141.563 43.893,141.077 43.747,141.083 44.073 M257.206 58.778 C 257.110 59.022,257.087 59.277,257.154 59.345 C 257.368 59.559,257.557 59.208,257.467 58.763 C 257.385 58.354,257.372 58.355,257.206 58.778 M142.488 59.155 C 142.488 59.593,142.551 59.656,142.770 59.437 C 142.989 59.218,142.989 59.092,142.770 58.873 C 142.551 58.654,142.488 58.717,142.488 59.155 M9.918 88.418 C 9.445 88.609,9.501 97.385,9.977 97.568 C 10.267 97.679,10.329 98.303,10.329 101.154 C 10.329 103.825,10.407 104.708,10.673 105.061 C 10.933 105.404,11.020 106.247,11.025 108.484 C 11.031 110.901,11.098 111.477,11.385 111.587 C 11.679 111.700,11.737 112.381,11.737 115.704 C 11.737 118.929,11.804 119.752,12.089 120.037 C 12.372 120.319,12.441 121.103,12.441 123.997 C 12.441 125.982,12.539 127.706,12.658 127.829 C 12.778 127.951,12.896 129.108,12.920 130.399 C 12.972 133.148,13.101 134.093,13.399 133.908 C 13.527 133.829,13.615 135.395,13.615 137.751 C 13.615 140.998,13.680 141.780,13.967 142.019 C 14.254 142.257,14.319 143.025,14.319 146.163 C 14.319 149.370,14.378 150.037,14.671 150.150 C 14.963 150.262,15.023 150.891,15.023 153.788 C 15.023 156.686,15.084 157.315,15.376 157.427 C 15.665 157.538,15.728 158.142,15.728 160.831 C 15.728 163.520,15.790 164.123,16.080 164.234 C 16.373 164.347,16.432 165.024,16.432 168.315 C 16.432 170.497,16.528 172.296,16.647 172.340 C 16.766 172.383,16.927 174.154,17.006 176.275 C 17.085 178.396,17.247 180.250,17.366 180.393 C 17.485 180.537,17.600 181.892,17.621 183.405 C 17.649 185.436,17.741 186.203,17.975 186.333 C 18.218 186.470,18.298 187.415,18.321 190.442 C 18.344 193.484,18.426 194.449,18.683 194.705 C 18.940 194.962,19.014 195.855,19.014 198.675 C 19.014 201.597,19.083 202.383,19.366 202.666 C 19.639 202.938,19.718 203.633,19.718 205.734 C 19.718 207.992,19.778 208.451,20.070 208.451 C 20.264 208.451,20.423 208.609,20.423 208.803 C 20.423 209.038,20.657 209.155,21.127 209.155 C 21.514 209.155,21.831 209.261,21.831 209.390 C 21.831 209.519,22.412 209.624,23.122 209.624 C 24.113 209.624,24.413 209.706,24.413 209.977 C 24.413 210.231,24.675 210.329,25.359 210.329 C 25.984 210.329,26.352 210.448,26.441 210.681 C 26.538 210.934,26.933 211.033,27.842 211.033 C 28.811 211.033,29.108 211.116,29.108 211.385 C 29.108 211.655,29.408 211.737,30.399 211.737 C 31.390 211.737,31.690 211.819,31.690 212.089 C 31.690 212.349,31.962 212.441,32.727 212.441 C 33.297 212.441,33.802 212.557,33.850 212.699 C 33.897 212.841,34.458 213.016,35.096 213.088 C 35.735 213.160,36.399 213.361,36.572 213.534 C 36.746 213.708,37.356 213.850,37.928 213.850 C 38.499 213.850,38.967 213.955,38.967 214.085 C 38.967 214.214,39.431 214.319,39.998 214.319 C 40.698 214.319,41.073 214.432,41.165 214.671 C 41.253 214.901,41.618 215.023,42.217 215.023 C 42.747 215.023,43.259 215.172,43.427 215.376 C 43.606 215.591,44.121 215.728,44.754 215.728 C 45.458 215.728,45.833 215.840,45.925 216.080 C 46.019 216.325,46.401 216.432,47.183 216.432 C 47.965 216.432,48.348 216.539,48.442 216.784 C 48.530 217.015,48.896 217.136,49.504 217.136 C 50.013 217.136,50.466 217.244,50.510 217.375 C 50.554 217.507,51.144 217.680,51.821 217.760 C 52.498 217.840,53.052 217.997,53.052 218.108 C 53.052 218.219,53.633 218.310,54.343 218.310 C 55.334 218.310,55.634 218.392,55.634 218.662 C 55.634 218.921,55.904 219.014,56.661 219.014 C 57.288 219.014,57.803 219.151,57.981 219.366 C 58.160 219.581,58.674 219.718,59.301 219.718 C 60.058 219.718,60.329 219.811,60.329 220.070 C 60.329 220.340,60.626 220.423,61.595 220.423 C 62.503 220.423,62.899 220.522,62.996 220.775 C 63.085 221.007,63.453 221.127,64.077 221.127 C 64.598 221.127,65.023 221.232,65.023 221.362 C 65.023 221.491,65.182 221.596,65.376 221.596 C 65.569 221.596,65.728 221.758,65.728 221.957 C 65.728 222.623,70.471 222.340,70.772 221.655 C 70.970 221.203,71.182 221.127,72.246 221.127 C 73.134 221.127,73.527 221.026,73.624 220.775 C 73.719 220.528,74.104 220.423,74.915 220.423 C 75.726 220.423,76.111 220.317,76.206 220.070 C 76.295 219.840,76.660 219.718,77.263 219.718 C 77.865 219.718,78.231 219.596,78.319 219.366 C 78.414 219.119,78.799 219.014,79.610 219.014 C 80.421 219.014,80.806 218.909,80.901 218.662 C 80.995 218.416,81.379 218.310,82.171 218.310 C 82.795 218.310,83.371 218.204,83.451 218.075 C 83.530 217.946,83.886 217.840,84.241 217.840 C 84.596 217.840,85.092 217.685,85.342 217.496 C 85.593 217.306,86.194 217.148,86.678 217.144 C 87.301 217.138,87.559 217.033,87.559 216.784 C 87.559 216.513,87.859 216.432,88.857 216.432 C 89.795 216.432,90.193 216.334,90.291 216.080 C 90.388 215.827,90.783 215.728,91.692 215.728 C 92.661 215.728,92.958 215.645,92.958 215.376 C 92.958 215.115,93.232 215.023,94.014 215.023 C 94.797 215.023,95.070 214.932,95.070 214.671 C 95.070 214.401,95.370 214.319,96.362 214.319 C 97.072 214.319,97.653 214.227,97.653 214.114 C 97.653 214.002,98.203 213.857,98.875 213.792 C 99.547 213.727,100.137 213.556,100.186 213.410 C 100.234 213.265,100.682 213.146,101.182 213.146 C 101.728 213.146,102.165 213.011,102.279 212.807 C 102.394 212.600,102.910 212.446,103.606 212.410 C 104.280 212.375,104.792 212.226,104.862 212.044 C 104.934 211.857,105.375 211.737,105.994 211.737 C 106.583 211.737,107.156 211.589,107.361 211.385 C 107.559 211.187,108.132 211.033,108.669 211.033 C 109.362 211.033,109.624 210.936,109.624 210.681 C 109.624 210.420,109.898 210.329,110.681 210.329 C 111.463 210.329,111.737 210.237,111.737 209.977 C 111.737 209.706,112.037 209.624,113.028 209.624 C 113.738 209.624,114.319 209.519,114.319 209.390 C 114.319 209.261,114.734 209.155,115.241 209.155 C 116.685 209.155,116.901 208.492,116.901 204.065 C 116.901 201.072,116.962 200.432,117.254 200.320 C 117.546 200.207,117.606 199.557,117.606 196.483 C 117.606 193.478,117.672 192.725,117.958 192.488 C 118.241 192.253,118.310 191.537,118.310 188.841 C 118.310 186.365,118.387 185.460,118.603 185.387 C 118.815 185.317,118.920 184.344,118.979 181.911 C 119.038 179.510,119.157 178.397,119.390 178.064 C 119.635 177.714,119.718 176.724,119.718 174.173 C 119.718 171.748,119.804 170.666,120.012 170.458 C 120.217 170.254,120.329 168.965,120.384 166.186 C 120.427 163.991,120.558 162.207,120.677 162.207 C 120.796 162.207,120.892 160.857,120.892 159.184 C 120.892 156.783,120.964 156.101,121.244 155.869 C 121.530 155.631,121.596 154.879,121.596 151.878 C 121.596 148.877,121.663 148.124,121.948 147.887 C 122.233 147.651,122.300 146.911,122.300 144.014 C 122.300 141.117,122.368 140.377,122.653 140.141 C 122.933 139.908,123.005 139.219,123.005 136.755 C 123.005 134.599,123.093 133.573,123.297 133.369 C 123.498 133.169,123.616 131.920,123.675 129.391 C 123.731 126.969,123.852 125.647,124.028 125.537 C 124.204 125.427,124.321 124.141,124.370 121.781 C 124.411 119.807,124.543 118.092,124.664 117.969 C 124.784 117.847,124.883 116.038,124.883 113.949 C 124.883 110.860,124.948 110.097,125.235 109.859 C 125.513 109.628,125.587 108.956,125.587 106.645 C 125.587 104.360,125.664 103.645,125.939 103.370 C 126.222 103.087,126.291 102.292,126.291 99.304 C 126.291 96.219,126.351 95.567,126.643 95.455 C 127.312 95.198,127.147 88.593,126.467 88.411 C 125.833 88.241,10.339 88.248,9.918 88.418 M254.333 88.513 C 254.248 88.651,254.235 88.820,254.304 88.889 C 254.472 89.057,254.930 88.761,254.930 88.484 C 254.930 88.184,254.524 88.204,254.333 88.513 M145.846 96.649 C 145.886 96.936,145.992 97.244,146.082 97.334 C 146.331 97.583,146.268 96.878,146.005 96.479 C 145.821 96.199,145.788 96.235,145.846 96.649 M104.910 116.021 C 104.899 117.603,104.787 119.531,104.661 120.305 C 104.535 121.080,104.351 123.111,104.252 124.819 C 104.104 127.387,103.995 128.012,103.621 128.432 L 103.169 128.941 75.646 128.783 C 53.359 128.655,48.121 128.682,48.119 128.925 C 48.113 129.423,48.849 137.502,49.141 140.141 L 49.413 142.606 75.587 142.529 C 92.907 142.478,101.875 142.532,102.100 142.689 C 102.481 142.954,102.479 144.491,102.093 148.944 C 101.970 150.364,101.772 152.952,101.653 154.695 C 101.534 156.438,101.328 158.392,101.195 159.038 C 101.061 159.683,100.911 161.432,100.861 162.923 C 100.811 164.415,100.650 165.860,100.503 166.135 C 100.348 166.424,100.233 167.760,100.231 169.292 C 100.228 170.753,100.070 172.688,99.879 173.591 C 99.687 174.495,99.531 176.142,99.531 177.250 C 99.531 178.359,99.373 180.313,99.180 181.593 C 98.987 182.873,98.828 184.677,98.828 185.603 C 98.826 187.957,98.025 188.967,96.163 188.967 C 95.850 188.967,95.291 189.125,94.921 189.318 C 94.551 189.511,93.970 189.669,93.630 189.670 C 93.290 189.671,92.709 189.829,92.339 190.022 C 91.969 190.215,91.394 190.373,91.060 190.374 C 90.727 190.375,90.375 190.455,90.278 190.551 C 90.105 190.725,88.685 191.118,86.629 191.562 C 86.054 191.686,85.478 191.893,85.350 192.021 C 85.222 192.149,84.795 192.257,84.401 192.262 C 84.008 192.266,83.421 192.421,83.099 192.606 C 82.776 192.790,82.124 192.945,81.651 192.949 C 81.178 192.954,80.753 193.070,80.707 193.208 C 80.661 193.345,80.151 193.518,79.572 193.591 C 78.994 193.665,78.415 193.807,78.286 193.907 C 78.157 194.008,77.629 194.165,77.113 194.258 C 76.596 194.351,76.068 194.506,75.939 194.602 C 75.810 194.698,75.205 194.849,74.595 194.937 C 73.984 195.025,73.424 195.197,73.348 195.319 C 73.273 195.440,72.896 195.540,72.510 195.540 C 72.124 195.540,71.482 195.708,71.084 195.914 C 70.113 196.416,67.558 196.435,66.080 195.951 C 65.434 195.739,64.272 195.398,63.498 195.193 C 62.723 194.988,61.772 194.729,61.385 194.617 C 60.998 194.505,60.047 194.234,59.272 194.016 C 58.498 193.798,57.388 193.478,56.808 193.307 C 56.227 193.135,55.354 192.921,54.868 192.832 C 54.383 192.743,53.928 192.576,53.857 192.462 C 53.786 192.347,53.497 192.254,53.214 192.255 C 52.931 192.255,52.224 192.104,51.643 191.918 C 51.062 191.732,49.900 191.399,49.061 191.178 C 47.565 190.783,46.851 190.587,44.014 189.787 C 42.572 189.380,42.185 189.269,39.850 188.591 C 37.877 188.019,38.090 188.821,37.332 179.108 C 37.206 177.494,36.997 175.329,36.868 174.296 C 36.277 169.550,36.053 164.994,36.402 164.773 C 36.950 164.427,50.542 164.496,50.979 164.847 C 51.345 165.142,51.721 168.177,52.083 173.749 C 52.250 176.331,52.225 176.286,53.709 176.701 C 56.586 177.505,57.455 177.739,58.216 177.917 C 58.668 178.023,59.883 178.346,60.915 178.636 C 68.337 180.718,68.095 180.672,69.108 180.191 C 69.547 179.983,70.175 179.812,70.503 179.812 C 70.831 179.812,71.162 179.710,71.240 179.584 C 71.317 179.459,71.907 179.287,72.550 179.201 C 73.193 179.116,73.776 178.954,73.845 178.842 C 73.915 178.730,74.164 178.638,74.400 178.638 C 74.817 178.638,76.211 178.270,78.435 177.572 C 79.034 177.384,79.773 177.226,80.078 177.222 C 80.384 177.217,80.898 177.062,81.221 176.878 C 81.543 176.693,82.256 176.539,82.805 176.534 C 83.802 176.526,83.803 176.525,83.803 175.636 C 83.803 175.147,83.961 174.138,84.155 173.395 C 84.349 172.651,84.509 171.176,84.512 170.118 C 84.514 169.059,84.672 167.031,84.862 165.610 C 85.052 164.190,85.208 162.341,85.209 161.501 C 85.210 160.661,85.307 159.638,85.425 159.229 C 85.732 158.157,87.171 158.216,60.544 158.216 C 32.832 158.216,35.211 158.397,35.211 156.285 C 35.211 155.270,34.722 149.719,34.244 145.305 C 34.097 143.950,33.891 141.626,33.787 140.141 C 33.550 136.769,33.163 132.258,32.861 129.343 C 32.344 124.357,31.638 116.033,31.597 114.437 L 31.573 113.498 49.648 113.378 C 59.589 113.312,76.094 113.233,86.326 113.202 L 104.930 113.146 104.910 116.021 M147.746 118.663 C 147.815 119.136,148.357 119.696,148.357 119.296 C 148.357 119.141,148.245 119.014,148.108 119.014 C 147.971 119.014,147.920 118.916,147.995 118.796 C 148.069 118.675,148.032 118.516,147.912 118.442 C 147.792 118.368,147.717 118.468,147.746 118.663 M250.507 133.895 C 250.162 134.859,250.241 135.183,250.688 134.644 C 250.845 134.455,250.939 134.011,250.897 133.657 C 250.824 133.033,250.812 133.040,250.507 133.895 M149.155 134.157 C 149.261 134.884,149.765 135.115,149.765 134.437 C 149.765 134.047,149.637 133.803,149.434 133.803 C 149.252 133.803,149.126 133.962,149.155 134.157 " stroke="none" fill="#e45424" fill-rule="evenodd"></path><path id="path4" d="M143.669 73.167 C 143.665 73.321,143.769 73.513,143.901 73.594 C 144.032 73.675,144.078 73.840,144.004 73.960 C 143.930 74.080,143.981 74.178,144.118 74.178 C 144.462 74.178,144.428 73.881,144.022 73.343 C 143.832 73.092,143.674 73.013,143.669 73.167 M255.887 73.440 C 255.697 73.795,255.707 73.958,255.927 74.084 C 256.088 74.178,256.142 74.167,256.047 74.062 C 255.951 73.956,255.992 73.725,256.139 73.549 C 256.285 73.372,256.346 73.169,256.273 73.096 C 256.201 73.024,256.027 73.178,255.887 73.440 M144.366 80.545 C 144.366 80.960,144.425 80.995,144.716 80.753 C 145.069 80.460,144.994 80.047,144.587 80.047 C 144.466 80.047,144.366 80.271,144.366 80.545 M144.601 81.103 C 144.383 81.366,144.379 81.455,144.586 81.455 C 144.739 81.455,144.811 81.540,144.748 81.643 C 144.684 81.746,144.729 81.983,144.848 82.171 C 145.001 82.414,145.064 82.258,145.067 81.631 C 145.071 80.651,145.022 80.596,144.601 81.103 M253.268 102.993 C 253.259 103.090,253.215 103.354,253.172 103.580 C 253.129 103.806,253.176 103.991,253.278 103.991 C 253.379 103.991,253.462 103.727,253.462 103.404 C 253.462 102.876,253.313 102.559,253.268 102.993 M146.479 103.834 C 146.479 104.178,146.567 104.460,146.674 104.460 C 146.903 104.460,146.876 103.605,146.640 103.369 C 146.551 103.281,146.479 103.490,146.479 103.834 M147.257 110.323 C 147.363 111.021,147.559 111.096,147.559 110.438 C 147.559 110.120,147.475 109.859,147.372 109.859 C 147.270 109.859,147.218 110.068,147.257 110.323 M86.033 113.378 L 104.577 113.498 104.569 115.376 C 104.554 118.865,103.630 127.591,103.221 128.114 C 103.035 128.351,97.433 128.409,75.633 128.400 C 59.596 128.393,48.190 128.476,48.066 128.601 C 47.949 128.718,47.897 129.170,47.950 129.606 L 48.047 130.399 48.084 129.512 L 48.122 128.624 75.646 128.783 L 103.169 128.941 103.621 128.432 C 103.995 128.012,104.104 127.387,104.252 124.819 C 104.351 123.111,104.535 121.080,104.661 120.305 C 104.787 119.531,104.899 117.603,104.910 116.021 L 104.930 113.146 86.209 113.202 L 67.488 113.259 86.033 113.378 M31.544 113.723 C 31.471 113.912,31.522 114.731,31.657 115.543 L 31.903 117.019 31.823 115.593 C 31.778 114.809,31.841 113.991,31.963 113.774 C 32.109 113.512,32.098 113.380,31.929 113.380 C 31.790 113.380,31.616 113.535,31.544 113.723 M32.069 120.188 C 32.137 121.285,32.275 122.923,32.377 123.826 L 32.562 125.469 32.574 124.178 C 32.580 123.468,32.441 121.831,32.266 120.540 L 31.947 118.192 32.069 120.188 M32.643 126.897 C 32.650 127.661,32.749 128.709,32.862 129.225 C 33.004 129.878,33.027 129.484,32.936 127.934 C 32.787 125.401,32.622 124.820,32.643 126.897 M251.124 126.217 C 251.207 126.648,251.290 126.720,251.436 126.489 C 251.715 126.049,251.692 125.890,251.328 125.751 C 251.100 125.663,251.043 125.792,251.124 126.217 M33.249 133.333 C 33.313 134.947,33.460 136.637,33.575 137.089 C 33.788 137.925,33.735 136.960,33.316 132.394 C 33.166 130.763,33.154 130.934,33.249 133.333 M48.275 132.629 C 48.536 136.879,48.750 138.853,48.772 137.207 C 48.783 136.432,48.644 134.583,48.464 133.099 L 48.138 130.399 48.275 132.629 M149.226 132.618 C 149.409 132.823,149.434 133.075,149.297 133.330 C 149.145 133.615,149.181 133.725,149.426 133.725 C 149.898 133.725,149.851 132.986,149.354 132.610 C 149.010 132.350,148.989 132.351,149.226 132.618 M250.587 133.044 C 250.458 133.138,250.328 133.480,250.299 133.803 C 250.270 134.129,250.310 134.233,250.390 134.038 C 250.469 133.844,250.628 133.501,250.744 133.275 C 250.975 132.826,250.944 132.781,250.587 133.044 M33.950 141.315 C 34.085 144.156,34.439 146.933,34.458 145.305 C 34.464 144.853,34.323 143.163,34.145 141.549 L 33.822 138.615 33.950 141.315 M48.948 140.580 C 49.004 141.661,49.174 142.693,49.324 142.874 C 49.557 143.155,53.376 143.180,75.218 143.043 C 89.309 142.954,101.125 142.953,101.475 143.041 C 102.217 143.228,102.292 143.970,101.875 146.990 C 101.745 147.935,101.539 150.082,101.418 151.761 C 101.298 153.439,101.033 156.555,100.831 158.685 C 100.628 160.816,100.298 164.407,100.097 166.667 C 99.896 168.926,99.585 172.412,99.405 174.413 C 99.225 176.414,98.914 180.047,98.714 182.486 C 98.202 188.740,100.064 187.537,84.155 191.894 C 82.993 192.212,81.461 192.641,80.751 192.847 C 80.041 193.053,78.879 193.378,78.169 193.570 C 77.459 193.761,76.561 194.006,76.174 194.114 C 72.792 195.059,71.616 195.387,71.009 195.553 C 70.622 195.659,69.777 195.905,69.131 196.099 L 67.958 196.453 69.249 196.317 C 69.959 196.242,70.825 196.036,71.174 195.860 C 71.522 195.684,72.124 195.540,72.510 195.540 C 72.896 195.540,73.273 195.440,73.348 195.319 C 73.424 195.197,73.984 195.025,74.595 194.937 C 75.205 194.849,75.810 194.698,75.939 194.602 C 76.068 194.506,76.596 194.351,77.113 194.258 C 77.629 194.165,78.157 194.008,78.286 193.907 C 78.415 193.807,78.994 193.665,79.572 193.591 C 80.151 193.518,80.661 193.345,80.707 193.208 C 80.753 193.070,81.178 192.954,81.651 192.949 C 82.124 192.945,82.776 192.790,83.099 192.606 C 83.421 192.421,84.008 192.266,84.401 192.262 C 84.795 192.257,85.222 192.149,85.350 192.021 C 85.478 191.893,86.054 191.686,86.629 191.562 C 88.685 191.118,90.105 190.725,90.278 190.551 C 90.375 190.455,90.727 190.375,91.060 190.374 C 91.394 190.373,91.969 190.215,92.339 190.022 C 92.709 189.829,93.290 189.671,93.630 189.670 C 93.970 189.669,94.551 189.511,94.921 189.318 C 95.291 189.125,95.850 188.967,96.163 188.967 C 98.025 188.967,98.826 187.957,98.828 185.603 C 98.828 184.677,98.987 182.873,99.180 181.593 C 99.373 180.313,99.531 178.359,99.531 177.250 C 99.531 176.142,99.687 174.495,99.879 173.591 C 100.070 172.688,100.228 170.753,100.231 169.292 C 100.233 167.760,100.348 166.424,100.503 166.135 C 100.650 165.860,100.811 164.415,100.861 162.923 C 100.911 161.432,101.061 159.683,101.195 159.038 C 101.328 158.392,101.534 156.438,101.653 154.695 C 101.772 152.952,101.970 150.364,102.093 148.944 C 102.479 144.491,102.481 142.954,102.100 142.689 C 101.875 142.532,92.907 142.478,75.587 142.529 L 49.413 142.606 49.129 140.610 L 48.845 138.615 48.948 140.580 M34.559 147.535 C 34.547 148.310,34.685 150.158,34.864 151.643 L 35.190 154.343 35.056 152.113 C 34.802 147.892,34.583 145.882,34.559 147.535 M35.256 155.810 C 35.174 158.480,32.396 158.216,60.544 158.216 C 87.171 158.216,85.732 158.157,85.425 159.229 C 85.307 159.638,85.210 160.661,85.209 161.501 C 85.208 162.341,85.052 164.190,84.862 165.610 C 84.672 167.031,84.514 169.059,84.512 170.118 C 84.509 171.176,84.349 172.651,84.155 173.395 C 83.961 174.138,83.803 175.147,83.803 175.636 C 83.803 176.525,83.802 176.526,82.805 176.534 C 82.256 176.539,81.543 176.693,81.221 176.878 C 80.898 177.062,80.384 177.217,80.078 177.222 C 79.773 177.226,79.034 177.384,78.435 177.572 C 76.211 178.270,74.817 178.638,74.400 178.638 C 74.164 178.638,73.915 178.730,73.845 178.842 C 73.776 178.954,73.193 179.116,72.550 179.201 C 71.907 179.287,71.317 179.459,71.240 179.584 C 71.162 179.710,70.831 179.812,70.503 179.812 C 70.175 179.812,69.547 179.983,69.108 180.191 C 68.651 180.408,68.034 180.514,67.664 180.440 C 65.569 180.019,65.547 180.018,66.432 180.379 C 67.497 180.815,68.448 180.829,69.735 180.426 C 70.307 180.247,71.408 179.929,72.183 179.719 C 72.958 179.510,75.733 178.758,78.350 178.049 C 80.967 177.341,83.251 176.761,83.427 176.761 C 84.147 176.761,84.393 175.949,84.661 172.676 C 84.811 170.855,85.120 167.254,85.348 164.671 C 85.577 162.089,85.771 159.554,85.781 159.038 L 85.798 158.099 61.010 157.981 C 33.008 157.849,35.515 158.063,35.385 155.790 L 35.302 154.343 35.256 155.810 M245.012 161.211 C 244.786 161.261,244.601 161.400,244.601 161.520 C 244.601 161.795,244.855 161.792,245.298 161.512 C 245.720 161.245,245.569 161.087,245.012 161.211 M36.410 164.768 C 36.138 164.941,36.124 165.421,36.330 167.640 L 36.577 170.305 36.456 167.752 C 36.304 164.530,35.653 164.797,43.676 164.792 C 50.844 164.788,51.044 164.819,51.243 165.962 C 51.328 166.455,51.350 166.429,51.376 165.795 C 51.399 165.267,51.272 164.967,50.954 164.797 C 50.392 164.496,36.882 164.469,36.410 164.768 M169.249 165.297 C 169.249 165.479,169.472 165.645,169.745 165.665 C 170.018 165.686,170.203 165.678,170.156 165.649 C 170.109 165.619,169.886 165.453,169.660 165.280 C 169.314 165.016,169.249 165.018,169.249 165.297 M51.466 168.662 C 51.459 169.308,51.595 170.945,51.769 172.300 L 52.086 174.765 51.950 172.535 C 51.875 171.309,51.738 169.671,51.647 168.897 L 51.480 167.488 51.466 168.662 M36.776 172.535 C 36.844 173.762,36.987 175.452,37.095 176.291 C 37.258 177.559,37.269 177.440,37.162 175.587 C 37.091 174.360,36.948 172.670,36.843 171.831 C 36.686 170.575,36.674 170.699,36.776 172.535 M53.521 176.878 C 54.597 177.292,55.251 177.285,54.343 176.869 C 53.955 176.692,53.427 176.550,53.169 176.554 C 52.864 176.559,52.988 176.673,53.521 176.878 M56.573 177.700 C 56.766 177.825,57.083 177.927,57.277 177.927 C 57.590 177.927,57.590 177.902,57.277 177.700 C 57.083 177.574,56.766 177.472,56.573 177.472 C 56.260 177.472,56.260 177.497,56.573 177.700 M58.685 178.299 C 59.266 178.482,59.900 178.625,60.094 178.617 C 60.663 178.594,58.859 177.970,58.216 177.968 C 57.814 177.966,57.962 178.071,58.685 178.299 M37.352 179.949 C 37.367 180.713,37.465 181.655,37.569 182.042 C 37.683 182.463,37.707 181.942,37.629 180.751 C 37.477 178.421,37.312 177.943,37.352 179.949 M60.915 178.858 C 61.174 178.962,61.755 179.113,62.207 179.193 L 63.028 179.339 62.207 179.006 C 61.755 178.824,61.174 178.673,60.915 178.671 L 60.446 178.668 60.915 178.858 M63.850 179.695 C 64.302 179.869,64.883 180.015,65.141 180.019 C 65.399 180.023,65.188 179.874,64.671 179.688 C 63.487 179.261,62.740 179.268,63.850 179.695 M37.872 184.507 C 37.872 185.475,37.914 185.871,37.964 185.387 C 38.015 184.903,38.015 184.111,37.964 183.627 C 37.914 183.143,37.872 183.539,37.872 184.507 M38.060 187.101 C 38.028 187.705,38.395 188.263,38.824 188.263 C 38.952 188.263,38.886 188.131,38.676 187.969 C 38.467 187.808,38.250 187.412,38.194 187.089 L 38.092 186.502 38.060 187.101 M39.437 188.483 C 39.630 188.597,40.211 188.753,40.728 188.831 L 41.667 188.973 40.610 188.622 C 39.437 188.231,38.897 188.168,39.437 188.483 M42.136 189.201 C 42.575 189.391,43.556 189.678,46.714 190.541 C 47.424 190.735,48.472 191.041,49.044 191.222 C 50.047 191.538,50.888 191.655,50.683 191.450 C 50.563 191.330,42.057 188.960,41.828 188.983 C 41.739 188.992,41.878 189.090,42.136 189.201 M51.761 191.910 C 52.148 192.087,52.676 192.230,52.934 192.227 C 53.192 192.224,52.928 192.072,52.347 191.889 C 51.044 191.479,50.835 191.486,51.761 191.910 M53.885 192.470 C 54.008 192.589,54.531 192.749,55.047 192.825 L 55.986 192.964 54.930 192.612 C 53.683 192.197,53.591 192.185,53.885 192.470 M56.338 193.192 C 56.532 193.318,56.849 193.420,57.042 193.420 C 57.355 193.420,57.355 193.395,57.042 193.192 C 56.849 193.067,56.532 192.965,56.338 192.965 C 56.025 192.965,56.025 192.990,56.338 193.192 M58.920 193.897 C 59.114 194.022,59.431 194.124,59.624 194.124 C 59.937 194.124,59.937 194.099,59.624 193.897 C 59.431 193.772,59.114 193.669,58.920 193.669 C 58.607 193.669,58.607 193.694,58.920 193.897 M60.915 194.490 C 61.432 194.676,62.013 194.822,62.207 194.814 C 62.701 194.794,61.019 194.169,60.446 194.160 C 60.188 194.155,60.399 194.304,60.915 194.490 M63.498 195.195 C 64.014 195.381,64.595 195.526,64.789 195.519 C 65.283 195.498,63.601 194.873,63.028 194.864 C 62.770 194.860,62.981 195.009,63.498 195.195 M66.080 195.900 C 66.467 196.078,66.995 196.223,67.254 196.223 C 67.512 196.223,67.300 196.071,66.784 195.885 C 65.605 195.461,65.141 195.471,66.080 195.900 " stroke="none" fill="#f3912a" fill-rule="evenodd"></path></g></svg>