<svg id="svg" version="1.1" xmlns="http://www.w3.org/2000/svg" xmlns:xlink="http://www.w3.org/1999/xlink" width="400" height="398.44357976653697" viewBox="0, 0, 400,398.44357976653697"><g id="svgg"><path id="path0" d="M307.876 125.823 C 307.876 142.705,308.013 151.545,308.275 151.545 C 308.537 151.545,308.674 142.705,308.674 125.823 C 308.674 108.940,308.537 100.100,308.275 100.100 C 308.013 100.100,307.876 108.940,307.876 125.823 M347.213 100.696 C 347.339 101.023,347.628 101.176,347.856 101.035 C 348.084 100.894,348.786 100.794,349.417 100.812 C 350.047 100.830,350.459 100.677,350.333 100.472 C 349.917 99.800,346.951 100.013,347.213 100.696 M354.935 102.094 C 354.935 102.313,355.204 102.493,355.533 102.493 C 355.862 102.493,356.132 102.313,356.132 102.094 C 356.132 101.874,355.862 101.695,355.533 101.695 C 355.204 101.695,354.935 101.874,354.935 102.094 M357.868 103.024 C 358.009 103.425,358.126 103.829,358.126 103.921 C 358.126 104.013,358.574 104.088,359.123 104.088 C 359.671 104.088,360.120 103.908,360.120 103.689 C 360.120 103.470,359.797 103.290,359.402 103.290 C 359.007 103.290,358.442 103.066,358.147 102.792 C 357.707 102.384,357.656 102.426,357.868 103.024 M365.304 107.116 C 365.304 107.466,365.663 107.846,366.102 107.960 C 366.540 108.075,366.899 108.357,366.899 108.588 C 366.899 108.818,367.008 108.898,367.141 108.765 C 367.273 108.632,367.787 108.961,368.283 109.496 C 368.779 110.031,369.554 110.469,370.007 110.469 C 370.459 110.469,371.201 110.941,371.656 111.519 C 372.111 112.097,372.487 112.411,372.493 112.217 C 372.499 112.023,372.816 112.561,373.199 113.412 C 373.819 114.792,373.952 114.889,374.433 114.310 C 374.947 113.691,371.832 110.088,370.770 110.074 C 370.596 110.072,369.970 109.621,369.378 109.073 C 368.787 108.524,368.027 108.076,367.689 108.076 C 367.352 108.076,366.817 107.717,366.500 107.278 C 365.808 106.318,365.304 106.249,365.304 107.116 M374.770 114.695 C 374.512 114.953,375.598 116.251,376.072 116.251 C 376.470 116.251,377.667 117.545,377.667 117.975 C 377.667 118.400,378.871 118.969,379.160 118.680 C 379.461 118.379,376.486 115.596,376.110 115.829 C 375.919 115.947,375.788 115.750,375.818 115.393 C 375.875 114.708,375.204 114.261,374.770 114.695 M379.129 119.907 C 378.582 120.454,378.896 120.837,379.889 120.837 C 380.800 120.837,380.848 120.771,380.316 120.239 C 379.644 119.567,379.508 119.529,379.129 119.907 M381.439 123.257 C 381.122 123.769,381.201 123.850,382.353 124.205 C 383.382 124.521,383.503 124.224,382.681 123.401 C 381.999 122.720,381.786 122.695,381.439 123.257 M383.250 125.325 C 383.250 125.682,383.430 126.086,383.650 126.222 C 383.913 126.385,383.916 126.719,383.660 127.198 C 383.338 127.799,383.442 127.960,384.248 128.114 C 385.509 128.355,385.707 128.124,385.121 127.096 C 384.216 125.507,383.250 124.593,383.250 125.325 M384.869 129.384 C 384.491 129.839,384.551 130.038,385.166 130.367 C 386.051 130.841,386.441 130.589,386.441 129.545 C 386.441 128.674,385.534 128.582,384.869 129.384 M386.411 130.508 C 386.026 131.805,386.106 132.463,386.625 132.264 C 386.954 132.138,387.394 132.340,387.614 132.718 C 387.986 133.357,388.012 133.356,388.024 132.702 C 388.030 132.318,387.856 132.004,387.637 132.004 C 387.418 132.004,387.238 131.645,387.238 131.206 C 387.238 130.590,386.558 130.015,386.411 130.508 M388.178 134.193 C 388.306 134.525,388.204 134.744,387.946 134.691 C 387.692 134.639,387.416 134.910,387.332 135.294 C 387.140 136.175,388.256 136.235,388.591 135.361 C 388.967 134.383,388.878 133.599,388.392 133.599 C 388.149 133.599,388.053 133.866,388.178 134.193 M389.869 139.077 C 389.738 139.208,389.631 139.644,389.631 140.047 C 389.631 140.449,389.452 140.778,389.232 140.778 C 389.013 140.778,388.833 141.047,388.833 141.376 C 388.833 142.053,389.458 142.178,389.831 141.575 C 390.310 140.800,390.714 141.190,390.515 142.235 C 390.385 142.914,388.154 145.476,384.289 149.386 C 377.469 156.285,377.273 156.503,377.256 157.211 C 377.250 157.495,376.698 158.175,376.030 158.724 C 373.714 160.626,362.911 171.469,362.911 171.892 C 362.911 172.587,362.901 172.597,354.237 181.044 C 351.770 183.450,349.751 185.608,349.751 185.839 C 349.751 186.418,346.647 189.675,339.880 196.197 C 338.071 197.941,336.590 199.557,336.590 199.789 C 336.590 200.021,335.110 201.719,333.300 203.563 C 331.491 205.407,329.561 207.464,329.013 208.134 C 328.465 208.805,327.702 209.459,327.318 209.589 C 326.934 209.718,326.620 210.083,326.620 210.399 C 326.620 210.715,323.659 213.934,320.040 217.553 C 316.421 221.172,313.460 224.452,313.460 224.840 C 313.460 225.229,313.074 225.811,312.602 226.133 C 311.181 227.105,299.900 238.433,299.900 238.888 C 299.900 239.305,298.973 240.435,297.200 242.180 C 296.702 242.670,293.966 245.354,291.119 248.145 C 288.272 250.935,285.942 253.407,285.942 253.637 C 285.942 253.867,285.000 255.031,283.848 256.224 C 281.203 258.965,281.730 258.440,276.471 263.583 C 274.003 265.996,271.984 268.159,271.984 268.389 C 271.984 268.618,270.659 270.170,269.039 271.837 C 265.123 275.867,265.103 275.886,261.316 279.542 C 259.506 281.289,258.026 282.907,258.026 283.138 C 258.026 283.369,256.142 285.443,253.838 287.746 C 251.535 290.049,249.651 292.082,249.651 292.264 C 249.651 293.197,246.972 293.475,235.443 293.738 C 208.262 294.358,225.029 294.692,283.848 294.704 C 324.867 294.712,345.763 294.581,345.763 294.317 C 345.763 294.098,346.660 293.918,347.757 293.918 C 348.853 293.918,349.751 293.739,349.751 293.519 C 349.751 293.300,350.469 293.121,351.346 293.121 C 352.223 293.121,352.941 292.941,352.941 292.722 C 352.941 292.502,353.480 292.323,354.138 292.323 C 354.796 292.323,355.334 292.144,355.334 291.924 C 355.334 291.705,355.682 291.525,356.108 291.525 C 356.534 291.525,356.993 291.346,357.129 291.127 C 357.264 290.907,357.679 290.727,358.049 290.725 C 358.420 290.724,359.238 290.455,359.866 290.127 C 360.494 289.799,361.257 289.531,361.561 289.531 C 361.865 289.531,362.114 289.352,362.114 289.133 C 362.114 288.913,362.473 288.734,362.911 288.734 C 363.350 288.734,363.709 288.576,363.709 288.383 C 363.709 288.191,364.247 287.810,364.905 287.537 C 365.563 287.265,366.102 286.884,366.102 286.691 C 366.102 286.499,366.373 286.341,366.704 286.341 C 367.035 286.341,367.869 285.803,368.557 285.145 C 369.246 284.487,369.976 283.948,370.180 283.948 C 370.384 283.948,371.241 283.230,372.084 282.353 C 372.927 281.476,373.726 280.758,373.860 280.758 C 374.252 280.758,376.869 278.029,376.869 277.621 C 376.869 277.417,377.767 276.333,378.863 275.213 C 379.960 274.093,380.857 273.086,380.857 272.975 C 380.857 272.865,381.396 272.211,382.054 271.522 C 382.712 270.834,383.250 270.110,383.250 269.914 C 383.250 269.718,383.609 269.173,384.048 268.702 C 384.487 268.231,384.845 267.610,384.845 267.323 C 384.845 267.035,385.025 266.800,385.244 266.800 C 385.464 266.800,385.643 266.523,385.643 266.185 C 385.643 265.847,386.002 265.185,386.441 264.714 C 386.879 264.243,387.238 263.622,387.238 263.335 C 387.238 263.047,387.418 262.812,387.637 262.812 C 387.856 262.812,388.036 262.578,388.036 262.292 C 388.036 262.006,388.466 260.884,388.993 259.799 C 389.519 258.714,390.252 257.109,390.621 256.231 C 390.991 255.354,391.462 254.318,391.667 253.929 C 391.873 253.541,392.152 252.419,392.286 251.437 C 392.421 250.455,392.686 249.651,392.876 249.651 C 393.065 249.651,393.220 249.113,393.220 248.455 C 393.220 247.797,393.400 247.258,393.619 247.258 C 393.838 247.258,394.018 246.720,394.018 246.062 C 394.018 245.404,394.197 244.865,394.417 244.865 C 394.636 244.865,394.816 244.148,394.816 243.270 C 394.816 242.393,394.995 241.675,395.214 241.675 C 395.434 241.675,395.613 241.057,395.613 240.303 C 395.613 239.548,395.793 238.820,396.012 238.684 C 396.231 238.548,396.411 237.640,396.411 236.666 C 396.411 235.692,396.590 234.895,396.810 234.895 C 397.029 234.895,397.208 234.009,397.208 232.925 C 397.208 231.841,397.388 230.843,397.607 230.708 C 397.827 230.572,398.006 229.320,398.006 227.926 C 398.006 226.288,398.182 225.308,398.504 225.158 C 398.903 224.972,398.903 224.879,398.504 224.693 C 398.230 224.565,398.009 224.161,398.012 223.795 C 398.017 223.220,398.070 223.211,398.405 223.729 C 398.675 224.146,398.793 223.478,398.797 221.515 C 398.801 219.969,398.995 218.513,399.229 218.279 C 399.820 217.688,399.816 179.334,399.224 179.137 C 398.983 179.056,398.804 177.811,398.804 176.214 C 398.804 174.095,398.685 173.504,398.305 173.732 C 398.015 173.907,398.056 173.718,398.405 173.280 C 398.753 172.842,398.795 172.654,398.504 172.828 C 398.230 172.993,398.006 172.953,398.006 172.739 C 398.006 172.525,398.230 172.267,398.504 172.167 C 398.903 172.021,398.903 171.878,398.504 171.456 C 398.205 171.139,398.006 169.832,398.006 168.188 C 398.006 165.534,397.978 165.458,397.109 165.721 C 396.377 165.942,396.303 165.896,396.710 165.469 C 397.301 164.848,397.386 161.117,396.810 161.117 C 396.590 161.117,396.411 160.219,396.411 159.123 C 396.411 158.026,396.231 157.129,396.012 157.129 C 395.793 157.129,395.613 156.785,395.613 156.364 C 395.613 155.944,395.389 155.509,395.115 155.399 C 394.716 155.238,394.716 155.191,395.115 155.166 C 395.702 155.129,395.799 153.938,395.214 153.938 C 394.995 153.938,394.816 153.208,394.816 152.316 C 394.816 150.875,394.726 150.722,394.018 150.947 C 393.560 151.092,393.220 151.019,393.220 150.775 C 393.220 150.541,393.400 150.349,393.619 150.349 C 393.838 150.349,394.018 149.821,394.018 149.176 C 394.018 148.531,393.838 147.892,393.619 147.757 C 393.400 147.621,393.220 147.790,393.220 148.132 C 393.220 148.474,392.951 148.754,392.622 148.754 C 392.293 148.754,392.024 148.479,392.024 148.143 C 392.024 147.807,392.293 147.429,392.622 147.303 C 393.352 147.023,393.450 145.021,392.722 145.264 C 392.448 145.356,392.223 145.640,392.223 145.896 C 392.223 146.437,391.799 146.668,391.449 146.318 C 391.316 146.185,391.481 145.849,391.815 145.571 C 392.590 144.928,392.579 144.334,391.739 141.505 C 391.104 139.365,390.442 138.505,389.869 139.077 M307.876 152.765 C 307.876 153.217,308.056 153.476,308.275 153.340 C 308.495 153.204,308.674 152.835,308.674 152.519 C 308.674 152.203,308.495 151.944,308.275 151.944 C 308.056 151.944,307.876 152.314,307.876 152.765 M307.079 157.926 C 307.079 158.365,307.258 158.724,307.478 158.724 C 307.697 158.724,307.876 158.365,307.876 157.926 C 307.876 157.488,307.697 157.129,307.478 157.129 C 307.258 157.129,307.079 157.488,307.079 157.926 M307.079 160.120 C 307.079 160.449,307.258 160.718,307.478 160.718 C 307.697 160.718,307.876 160.449,307.876 160.120 C 307.876 159.791,307.697 159.521,307.478 159.521 C 307.258 159.521,307.079 159.791,307.079 160.120 M306.281 162.114 C 306.281 162.443,306.441 162.712,306.637 162.712 C 306.833 162.712,307.097 162.443,307.223 162.114 C 307.363 161.749,307.224 161.515,306.867 161.515 C 306.545 161.515,306.281 161.785,306.281 162.114 M304.977 167.738 C 304.817 167.898,304.686 168.304,304.686 168.641 C 304.686 169.090,304.804 169.134,305.130 168.809 C 305.374 168.565,305.504 168.159,305.420 167.906 C 305.336 167.654,305.137 167.579,304.977 167.738 M303.097 172.782 C 303.102 173.507,303.177 173.564,303.490 173.081 C 303.989 172.308,303.989 171.884,303.490 171.884 C 303.270 171.884,303.093 172.288,303.097 172.782 M301.633 176.189 C 301.506 176.673,301.244 177.069,301.050 177.069 C 300.856 177.069,300.698 177.428,300.698 177.866 C 300.698 178.305,300.558 178.664,300.387 178.664 C 300.215 178.664,299.863 179.158,299.603 179.761 C 299.017 181.123,298.231 182.360,297.707 182.746 C 297.117 183.179,297.979 183.119,298.676 182.678 C 298.989 182.479,299.289 182.024,299.341 181.666 C 299.477 180.742,300.637 179.063,301.139 179.063 C 301.372 179.063,301.482 178.838,301.384 178.564 C 301.286 178.290,301.464 177.556,301.779 176.932 C 302.094 176.308,302.242 175.688,302.107 175.554 C 301.973 175.419,301.759 175.705,301.633 176.189 M296.646 184.646 C 296.355 185.304,295.981 185.842,295.815 185.842 C 295.649 185.842,295.513 186.112,295.513 186.441 C 295.513 186.770,295.616 187.039,295.741 187.039 C 296.272 187.039,297.109 185.836,297.109 185.073 C 297.109 184.619,297.288 184.247,297.507 184.247 C 297.727 184.247,297.906 184.068,297.906 183.848 C 297.906 183.020,297.155 183.496,296.646 184.646 M292.803 188.869 C 292.071 189.635,291.612 190.445,291.768 190.697 C 291.935 190.969,291.870 191.041,291.605 190.876 C 291.156 190.599,289.133 192.090,289.133 192.697 C 289.133 193.072,290.586 192.312,291.510 191.454 C 291.847 191.141,292.124 190.699,292.124 190.473 C 292.124 190.247,292.752 189.640,293.519 189.125 C 295.028 188.112,295.498 187.421,294.649 187.465 C 294.357 187.480,293.526 188.112,292.803 188.869 M286.839 193.906 C 286.346 194.144,285.942 194.491,285.942 194.677 C 285.942 195.202,286.328 195.083,287.429 194.217 C 288.527 193.353,288.269 193.217,286.839 193.906 M283.549 196.070 C 283.549 196.285,282.921 196.708,282.154 197.009 C 281.036 197.448,280.239 198.205,280.896 198.205 C 281.913 198.205,284.238 196.368,283.789 195.919 C 283.657 195.787,283.549 195.856,283.549 196.070 M273.446 200.864 C 272.962 201.348,273.171 201.773,273.779 201.540 C 274.108 201.414,274.377 201.150,274.377 200.954 C 274.377 200.536,273.827 200.483,273.446 200.864 M270.389 201.795 C 270.389 202.014,270.837 202.193,271.386 202.193 C 271.934 202.193,272.383 202.014,272.383 201.795 C 272.383 201.575,271.934 201.396,271.386 201.396 C 270.837 201.396,270.389 201.575,270.389 201.795 M267.198 202.592 C 267.198 202.812,267.468 202.991,267.797 202.991 C 268.126 202.991,268.395 202.812,268.395 202.592 C 268.395 202.373,268.126 202.193,267.797 202.193 C 267.468 202.193,267.198 202.373,267.198 202.592 M262.812 203.390 C 262.812 203.609,263.081 203.789,263.410 203.789 C 263.739 203.789,264.008 203.609,264.008 203.390 C 264.008 203.170,263.739 202.991,263.410 202.991 C 263.081 202.991,262.812 203.170,262.812 203.390 M153.539 204.181 C 153.539 204.606,155.874 204.605,156.136 204.180 C 156.215 204.053,155.663 203.907,154.909 203.856 C 154.156 203.805,153.539 203.952,153.539 204.181 M239.083 204.049 C 242.749 204.329,254.726 204.364,254.300 204.094 C 254.046 203.933,250.160 203.829,245.663 203.864 C 241.167 203.899,238.205 203.983,239.083 204.049 M146.760 204.985 C 146.760 205.204,147.018 205.384,147.334 205.384 C 147.650 205.384,148.020 205.204,148.156 204.985 C 148.291 204.766,148.032 204.586,147.581 204.586 C 147.129 204.586,146.760 204.766,146.760 204.985 M142.772 205.783 C 142.772 206.002,143.131 206.181,143.569 206.181 C 144.008 206.181,144.367 206.002,144.367 205.783 C 144.367 205.563,144.008 205.384,143.569 205.384 C 143.131 205.384,142.772 205.563,142.772 205.783 M139.781 206.580 C 139.641 206.806,139.976 206.979,140.555 206.979 C 141.116 206.979,141.575 206.800,141.575 206.580 C 141.575 206.361,141.227 206.181,140.801 206.181 C 140.375 206.181,139.916 206.361,139.781 206.580 M134.098 208.223 C 132.666 208.636,132.347 209.372,133.599 209.372 C 134.038 209.372,134.397 209.192,134.397 208.973 C 134.397 208.754,134.655 208.574,134.971 208.574 C 135.288 208.574,135.657 208.395,135.793 208.175 C 136.080 207.710,135.851 207.717,134.098 208.223 M124.726 212.719 C 123.713 213.488,123.871 213.757,125.022 213.223 C 125.568 212.969,126.017 212.627,126.019 212.463 C 126.023 212.019,125.514 212.120,124.726 212.719 M122.257 214.370 C 121.831 214.692,121.662 214.955,121.881 214.955 C 122.101 214.955,122.629 214.692,123.054 214.370 C 123.480 214.048,123.649 213.784,123.430 213.784 C 123.210 213.784,122.683 214.048,122.257 214.370 M119.342 216.773 C 118.755 217.411,118.706 217.747,119.200 217.747 C 119.540 217.747,120.177 216.547,119.950 216.334 C 119.890 216.278,119.616 216.476,119.342 216.773 M112.921 223.199 C 112.182 223.997,112.671 224.375,113.444 223.602 C 113.785 223.261,113.928 222.900,113.762 222.799 C 113.596 222.698,113.217 222.878,112.921 223.199 M104.729 239.514 C 104.387 240.406,104.414 240.479,105.085 240.479 C 105.417 240.479,105.683 240.124,105.683 239.681 C 105.683 238.730,105.071 238.623,104.729 239.514 M104.366 241.832 C 104.202 242.247,104.163 242.681,104.278 242.796 C 104.641 243.159,104.962 242.563,104.809 241.806 C 104.669 241.112,104.648 241.113,104.366 241.832 M103.290 246.261 C 103.290 246.590,103.470 246.859,103.689 246.859 C 103.908 246.859,104.088 246.590,104.088 246.261 C 104.088 245.932,103.908 245.663,103.689 245.663 C 103.470 245.663,103.290 245.932,103.290 246.261 M102.493 300.921 C 102.493 330.745,102.626 345.727,102.891 345.563 C 103.153 345.401,103.290 330.006,103.290 300.674 C 103.290 271.179,103.155 256.032,102.891 256.032 C 102.628 256.032,102.493 271.261,102.493 300.921 M209.372 307.826 C 209.372 308.017,214.966 308.307,221.803 308.470 C 230.870 308.686,234.030 308.879,233.481 309.187 C 232.425 309.778,230.907 311.348,230.907 311.849 C 230.907 312.080,227.991 315.217,224.427 318.819 C 217.768 325.550,216.949 326.425,216.949 326.811 C 216.949 326.934,213.719 330.258,209.771 334.197 C 205.823 338.137,202.592 341.551,202.592 341.785 C 202.592 342.019,199.452 345.337,195.613 349.158 C 191.775 352.979,188.634 356.291,188.634 356.517 C 188.634 356.744,185.494 360.067,181.655 363.903 C 177.817 367.738,174.676 371.059,174.676 371.283 C 174.676 371.507,171.535 374.826,167.697 378.658 C 163.858 382.491,160.718 385.812,160.718 386.040 C 160.718 386.267,159.372 387.800,157.727 389.445 C 154.828 392.344,154.097 393.619,155.334 393.619 C 155.663 393.619,155.932 393.799,155.932 394.018 C 155.932 394.237,156.212 394.417,156.554 394.417 C 156.896 394.417,157.065 394.237,156.929 394.018 C 156.794 393.799,156.873 393.619,157.105 393.619 C 157.337 393.619,157.527 393.799,157.527 394.018 C 157.527 394.237,158.066 394.417,158.724 394.417 C 159.382 394.417,159.920 394.596,159.920 394.816 C 159.920 395.035,160.918 395.214,162.137 395.214 C 163.514 395.214,164.261 395.063,164.108 394.816 C 163.972 394.596,164.051 394.417,164.284 394.417 C 164.516 394.417,164.706 394.776,164.706 395.214 C 164.706 395.936,164.972 396.012,167.498 396.012 C 169.093 396.012,170.289 396.183,170.289 396.411 C 170.289 396.649,171.818 396.810,174.078 396.810 C 176.338 396.810,177.866 396.970,177.866 397.208 C 177.866 397.428,178.415 397.607,179.086 397.607 C 179.947 397.607,180.223 397.460,180.025 397.109 C 179.800 396.710,179.851 396.710,180.280 397.109 C 180.649 397.451,182.346 397.607,185.699 397.607 C 188.384 397.607,190.683 397.772,190.808 397.974 C 191.167 398.555,195.892 398.467,195.565 397.886 C 195.376 397.548,195.454 397.554,195.834 397.906 C 196.173 398.221,197.579 398.405,199.648 398.405 C 201.879 398.405,202.999 398.246,203.157 397.906 C 203.343 397.507,203.436 397.507,203.622 397.906 C 203.929 398.562,207.378 398.581,207.378 397.926 C 207.378 397.554,207.484 397.554,207.856 397.926 C 208.433 398.503,211.765 398.571,211.765 398.006 C 211.765 397.756,214.283 397.607,218.521 397.607 C 222.595 397.607,225.375 397.449,225.523 397.208 C 225.659 396.989,227.339 396.810,229.256 396.810 C 231.173 396.810,232.921 396.630,233.141 396.411 C 233.360 396.191,234.832 395.992,236.411 395.968 C 237.990 395.944,239.282 395.765,239.282 395.569 C 239.282 395.374,240.359 395.214,241.675 395.214 C 243.004 395.214,244.068 395.037,244.068 394.816 C 244.068 394.596,244.865 394.417,245.839 394.417 C 246.813 394.417,247.721 394.237,247.856 394.018 C 247.992 393.799,248.900 393.619,249.874 393.619 C 250.848 393.619,251.645 393.440,251.645 393.220 C 251.645 393.001,252.363 392.822,253.240 392.822 C 254.118 392.822,254.835 392.642,254.835 392.423 C 254.835 392.203,255.453 392.024,256.208 392.024 C 256.963 392.024,257.691 391.844,257.827 391.625 C 257.962 391.406,258.601 391.226,259.246 391.226 C 259.891 391.226,260.419 391.070,260.419 390.879 C 260.419 390.688,261.309 390.413,262.396 390.269 C 263.484 390.125,264.460 389.868,264.565 389.699 C 264.669 389.529,265.664 389.143,266.774 388.840 C 267.885 388.538,268.794 388.143,268.794 387.964 C 268.794 387.784,269.153 387.637,269.591 387.637 C 270.030 387.637,270.389 387.458,270.389 387.238 C 270.389 387.019,270.641 386.839,270.949 386.839 C 271.614 386.839,274.917 385.177,275.108 384.746 C 275.181 384.581,275.585 384.447,276.005 384.447 C 276.426 384.447,276.770 384.311,276.770 384.145 C 276.770 383.979,277.263 383.623,277.866 383.353 C 278.470 383.083,279.591 382.322,280.359 381.661 C 281.127 381.001,281.907 380.460,282.093 380.460 C 282.279 380.459,282.935 379.920,283.549 379.262 C 284.164 378.604,284.836 378.066,285.042 378.066 C 285.467 378.066,289.133 374.692,289.133 374.300 C 289.133 374.159,289.508 373.648,289.968 373.164 C 291.167 371.899,293.121 369.024,293.121 368.522 C 293.121 368.288,293.300 368.096,293.519 368.096 C 293.739 368.096,293.918 367.737,293.918 367.298 C 293.918 366.859,294.098 366.500,294.317 366.500 C 294.536 366.500,294.716 366.177,294.716 365.783 C 294.716 365.388,294.900 364.881,295.125 364.655 C 295.350 364.430,295.645 363.318,295.779 362.183 C 295.913 361.048,296.178 360.120,296.367 360.120 C 296.555 360.120,296.707 348.230,296.704 333.699 C 296.700 316.494,296.563 307.487,296.311 307.876 C 296.053 308.275,295.922 308.308,295.918 307.976 C 295.914 307.580,286.989 307.478,252.642 307.478 C 228.248 307.478,209.372 307.629,209.372 307.826 M258.824 333.400 C 258.824 333.619,259.072 333.799,259.376 333.799 C 259.680 333.799,260.443 334.065,261.071 334.392 C 261.699 334.718,262.550 334.878,262.961 334.748 C 263.440 334.596,263.613 334.666,263.443 334.942 C 263.296 335.179,263.561 335.691,264.031 336.081 C 266.065 337.768,267.198 338.934,267.198 339.342 C 267.198 339.583,267.602 339.783,268.096 339.787 C 268.821 339.792,268.879 339.867,268.395 340.179 C 267.996 340.437,267.963 340.568,268.295 340.572 C 268.569 340.576,268.794 340.937,268.794 341.376 C 268.794 341.815,268.973 342.173,269.192 342.173 C 269.412 342.173,269.591 342.532,269.591 342.971 C 269.591 343.410,269.771 343.769,269.990 343.769 C 270.209 343.769,270.389 344.487,270.389 345.364 C 270.389 346.241,270.568 346.959,270.788 346.959 C 271.009 346.959,271.186 348.015,271.186 349.328 C 271.186 350.632,271.007 351.809,270.788 351.944 C 270.568 352.080,270.389 352.808,270.389 353.563 C 270.389 354.318,270.209 354.935,269.990 354.935 C 269.771 354.935,269.591 355.294,269.591 355.733 C 269.591 356.171,269.412 356.530,269.192 356.530 C 268.973 356.530,268.794 356.798,268.794 357.124 C 268.794 357.724,268.122 358.672,266.525 360.327 C 266.044 360.824,265.760 361.340,265.893 361.473 C 266.026 361.606,265.825 361.715,265.447 361.715 C 265.068 361.715,264.869 361.894,265.005 362.114 C 265.141 362.333,264.922 362.512,264.518 362.512 C 264.115 362.512,263.527 362.871,263.210 363.310 C 262.894 363.749,262.316 364.108,261.926 364.108 C 261.536 364.108,261.216 364.287,261.216 364.506 C 261.216 364.726,260.678 364.905,260.020 364.905 C 259.362 364.905,258.824 365.085,258.824 365.304 C 258.824 365.546,257.095 365.703,254.437 365.703 C 251.778 365.703,250.050 365.546,250.050 365.304 C 250.050 365.085,249.688 364.905,249.247 364.905 C 248.359 364.905,247.119 364.276,245.907 363.210 C 245.471 362.827,244.954 362.512,244.759 362.512 C 244.564 362.512,243.745 361.814,242.940 360.961 C 240.728 358.618,240.080 357.768,240.080 357.212 C 240.080 356.934,239.725 356.451,239.291 356.138 C 238.711 355.720,238.632 355.487,238.992 355.258 C 239.376 355.014,239.374 354.946,238.983 354.941 C 238.668 354.937,238.485 354.347,238.485 353.340 C 238.485 352.463,238.305 351.745,238.086 351.745 C 237.864 351.745,237.687 350.681,237.687 349.352 C 237.687 348.036,237.848 346.959,238.046 346.959 C 238.243 346.959,238.405 346.292,238.405 345.477 C 238.405 344.662,238.602 343.929,238.843 343.848 C 239.085 343.768,239.282 343.358,239.282 342.938 C 239.282 342.517,239.462 342.173,239.681 342.173 C 239.900 342.173,240.080 341.854,240.080 341.464 C 240.080 341.074,240.439 340.496,240.877 340.179 C 241.316 339.863,241.675 339.447,241.675 339.254 C 241.675 338.783,243.891 336.740,245.313 335.900 C 245.944 335.527,246.461 335.081,246.461 334.909 C 246.461 334.737,246.809 334.596,247.235 334.596 C 247.660 334.596,248.120 334.417,248.255 334.197 C 248.391 333.978,248.850 333.799,249.276 333.799 C 249.702 333.799,250.050 333.619,250.050 333.400 C 250.050 333.158,251.778 333.001,254.437 333.001 C 257.095 333.001,258.824 333.158,258.824 333.400 M102.558 348.348 C 102.538 349.323,102.695 350.228,102.906 350.358 C 103.131 350.497,103.290 349.849,103.290 348.801 C 103.290 346.458,102.604 346.034,102.558 348.348 M105.039 360.308 C 105.281 361.082,105.615 361.715,105.781 361.715 C 105.946 361.715,106.082 362.055,106.082 362.470 C 106.082 362.885,106.334 363.322,106.642 363.440 C 107.123 363.624,107.124 363.503,106.645 362.585 C 106.338 361.997,106.086 361.229,106.084 360.879 C 106.083 360.530,105.748 359.941,105.340 359.572 C 104.625 358.925,104.614 358.951,105.039 360.308 M107.677 366.102 C 107.677 366.321,107.826 366.500,108.008 366.500 C 108.191 366.500,108.594 366.994,108.906 367.597 C 109.748 369.230,110.569 370.030,110.400 369.053 C 110.328 368.636,109.955 368.061,109.571 367.774 C 109.187 367.487,108.873 366.904,108.873 366.478 C 108.873 366.052,108.604 365.703,108.275 365.703 C 107.946 365.703,107.677 365.882,107.677 366.102 M110.867 370.330 C 110.867 370.697,114.980 374.855,115.354 374.866 C 116.045 374.887,115.548 374.036,113.958 372.475 C 112.244 370.793,110.867 369.838,110.867 370.330 M115.857 374.868 C 115.567 375.337,118.381 378.262,118.759 377.885 C 118.902 377.741,118.843 377.499,118.626 377.346 C 118.410 377.194,117.753 376.485,117.167 375.771 C 116.580 375.057,115.991 374.651,115.857 374.868 M120.439 379.091 C 120.439 379.217,120.716 379.597,121.056 379.936 C 121.824 380.705,122.332 380.302,121.643 379.471 C 121.145 378.871,120.439 378.648,120.439 379.091 M122.433 380.562 C 122.433 381.034,123.973 382.258,124.220 381.982 C 124.282 381.912,124.181 381.451,123.994 380.957 C 123.636 380.010,122.433 379.706,122.433 380.562 M124.829 382.353 C 124.830 382.517,125.275 382.858,125.818 383.109 C 126.720 383.528,126.769 383.503,126.399 382.810 C 126.009 382.083,124.822 381.737,124.829 382.353 M127.218 383.848 C 127.218 384.177,127.510 384.447,127.865 384.447 C 128.395 384.447,128.423 384.338,128.016 383.848 C 127.743 383.519,127.452 383.250,127.369 383.250 C 127.286 383.250,127.218 383.519,127.218 383.848 M129.096 384.297 C 128.575 384.818,128.807 385.244,129.611 385.244 C 130.050 385.244,130.409 385.424,130.409 385.643 C 130.409 385.862,130.768 386.042,131.206 386.042 C 131.645 386.042,132.004 386.221,132.004 386.441 C 132.004 386.660,132.239 386.839,132.527 386.839 C 132.815 386.839,133.793 387.198,134.701 387.637 C 135.609 388.076,136.543 388.435,136.776 388.435 C 137.185 388.435,137.633 388.621,139.432 389.542 C 141.473 390.585,143.210 390.603,142.820 389.577 C 142.512 388.768,142.228 388.649,140.819 388.741 C 139.662 388.817,139.208 388.699,139.280 388.343 C 139.336 388.064,139.113 387.832,138.784 387.826 C 138.455 387.820,137.961 387.675,137.687 387.503 C 137.413 387.332,137.029 387.290,136.835 387.410 C 136.641 387.530,136.386 387.264,136.270 386.819 C 136.101 386.174,135.849 386.063,135.028 386.269 C 134.411 386.423,133.998 386.359,133.998 386.109 C 133.998 385.879,133.325 385.636,132.502 385.567 C 131.494 385.484,131.007 385.249,131.007 384.845 C 131.007 384.218,129.583 383.810,129.096 384.297 M145.165 390.452 C 145.165 390.685,144.985 390.764,144.766 390.628 C 144.546 390.493,144.367 390.572,144.367 390.804 C 144.367 391.036,144.816 391.226,145.364 391.226 C 145.984 391.226,146.361 391.000,146.361 390.628 C 146.361 390.299,146.092 390.030,145.763 390.030 C 145.434 390.030,145.165 390.220,145.165 390.452 M149.153 391.255 C 149.153 391.951,150.231 392.822,151.095 392.822 C 152.225 392.822,152.595 392.015,151.585 391.751 C 151.125 391.631,150.748 391.374,150.748 391.180 C 150.748 390.986,150.389 390.828,149.950 390.828 C 149.511 390.828,149.153 391.020,149.153 391.255 M152.609 392.689 C 152.078 393.220,152.363 393.619,153.274 393.619 C 153.835 393.619,154.204 393.382,154.204 393.021 C 154.204 392.420,153.106 392.191,152.609 392.689 " stroke="none" fill="#fccc3b" fill-rule="evenodd"></path><path id="path1" d="M308.674 125.816 C 308.674 146.130,308.569 151.547,308.175 151.551 C 307.844 151.556,307.878 151.685,308.275 151.938 C 308.768 152.252,308.786 152.460,308.375 153.123 C 307.773 154.094,307.736 154.471,308.275 154.138 C 308.495 154.002,308.674 154.171,308.674 154.513 C 308.674 154.855,308.495 155.135,308.275 155.135 C 308.056 155.135,307.876 155.927,307.876 156.896 C 307.876 157.915,307.666 158.755,307.378 158.890 C 306.979 159.076,306.979 159.169,307.378 159.355 C 307.994 159.643,308.039 160.718,307.435 160.718 C 307.192 160.718,307.095 160.982,307.219 161.305 C 307.342 161.627,307.182 162.153,306.862 162.472 C 306.543 162.792,306.281 163.594,306.281 164.255 C 306.281 164.916,306.102 165.567,305.882 165.703 C 305.663 165.838,305.484 166.556,305.484 167.298 C 305.484 168.040,305.304 168.758,305.085 168.893 C 304.865 169.029,304.686 169.578,304.686 170.113 C 304.686 170.649,304.529 171.087,304.337 171.087 C 304.050 171.087,303.660 172.299,303.471 173.781 C 303.450 173.944,303.206 174.347,302.929 174.676 C 302.238 175.495,301.284 177.955,301.419 178.564 C 301.481 178.838,301.341 179.063,301.108 179.063 C 300.585 179.063,299.074 181.485,299.334 181.906 C 299.438 182.075,299.160 182.408,298.715 182.646 C 298.270 182.884,297.906 183.342,297.906 183.663 C 297.906 183.984,297.727 184.247,297.507 184.247 C 297.288 184.247,297.109 184.619,297.109 185.073 C 297.109 186.049,296.172 187.098,295.435 186.946 C 295.138 186.885,294.964 187.132,295.028 187.520 C 295.097 187.931,294.702 188.428,294.031 188.775 C 293.419 189.091,292.561 189.758,292.123 190.257 C 291.645 190.801,291.565 191.033,291.924 190.837 C 292.253 190.658,292.164 190.851,291.725 191.267 C 291.286 191.683,290.389 192.293,289.731 192.622 C 289.073 192.951,288.088 193.624,287.541 194.118 C 286.995 194.611,286.322 195.015,286.046 195.015 C 285.770 195.015,285.543 195.194,285.543 195.414 C 285.543 195.633,285.204 195.813,284.788 195.813 C 284.373 195.813,283.938 196.062,283.821 196.367 C 283.589 196.972,281.358 198.205,280.497 198.205 C 280.202 198.205,279.960 198.485,279.960 198.827 C 279.960 199.169,279.776 199.335,279.552 199.197 C 279.092 198.913,276.770 199.831,276.770 200.297 C 276.770 200.463,276.308 200.598,275.744 200.598 C 275.180 200.598,274.457 200.860,274.137 201.179 C 273.818 201.499,273.292 201.659,272.970 201.536 C 272.647 201.412,272.383 201.509,272.383 201.752 C 272.383 202.016,271.581 202.193,270.389 202.193 C 269.292 202.193,268.395 202.373,268.395 202.592 C 268.395 202.812,267.692 202.991,266.833 202.991 C 265.957 202.991,265.182 203.210,265.069 203.490 C 264.912 203.876,264.781 203.866,264.485 203.444 C 264.205 203.044,264.062 203.027,263.945 203.380 C 263.840 203.694,262.761 203.863,260.806 203.870 C 259.137 203.877,257.708 204.069,257.558 204.308 C 257.376 204.596,257.118 204.605,256.760 204.334 C 256.469 204.114,255.693 203.903,255.035 203.865 C 254.124 203.813,253.981 203.890,254.437 204.189 C 254.844 204.455,254.398 204.491,253.041 204.298 C 250.405 203.925,155.762 203.904,155.633 204.277 C 155.578 204.435,160.334 204.646,166.202 204.746 C 181.235 205.000,194.221 205.463,194.196 205.744 C 194.184 205.875,193.280 206.790,192.188 207.777 C 188.062 211.506,181.854 217.978,181.854 218.550 C 181.854 218.782,180.015 220.758,177.767 222.943 C 169.191 231.277,168.694 231.800,168.694 232.497 C 168.694 232.905,160.499 241.128,156.365 244.865 C 155.274 245.852,154.371 246.973,154.359 247.355 C 154.339 247.983,144.567 258.005,141.620 260.419 C 140.951 260.967,140.397 261.645,140.391 261.926 C 140.377 262.520,139.593 263.382,132.502 270.592 C 129.596 273.547,127.218 276.059,127.218 276.175 C 127.218 276.399,124.915 278.822,117.747 286.140 C 115.279 288.658,113.260 290.951,113.260 291.234 C 113.260 291.517,112.873 292.012,112.401 292.335 C 111.607 292.876,107.078 297.360,104.985 299.676 C 104.492 300.223,104.049 300.900,104.001 301.182 C 103.954 301.464,103.813 298.285,103.689 294.118 C 103.565 289.950,103.424 299.740,103.376 315.872 C 103.311 338.057,103.174 345.321,102.812 345.683 C 102.439 346.055,102.439 346.268,102.812 346.640 C 103.115 346.944,103.290 348.475,103.290 350.828 C 103.290 353.034,103.452 354.536,103.689 354.536 C 103.908 354.536,104.088 355.075,104.088 355.733 C 104.088 356.391,104.267 356.929,104.487 356.929 C 104.706 356.929,104.885 357.446,104.885 358.077 C 104.885 358.708,105.155 359.448,105.484 359.721 C 105.813 359.994,106.082 360.453,106.082 360.741 C 106.082 361.029,106.240 361.680,106.433 362.187 C 106.626 362.695,106.799 363.252,106.817 363.424 C 106.836 363.596,107.128 364.015,107.467 364.353 C 107.806 364.692,107.981 365.135,107.857 365.336 C 107.732 365.538,107.910 365.703,108.252 365.703 C 108.601 365.703,108.873 366.042,108.873 366.478 C 108.873 366.904,109.187 367.487,109.571 367.774 C 109.955 368.061,110.322 368.564,110.386 368.893 C 110.450 369.222,110.899 369.815,111.383 370.209 C 113.347 371.811,115.653 374.138,115.653 374.518 C 115.653 374.740,115.833 374.812,116.052 374.676 C 116.271 374.540,116.453 374.575,116.455 374.752 C 116.463 375.384,119.964 378.863,120.591 378.863 C 120.942 378.863,121.439 379.198,121.694 379.607 C 121.971 380.051,122.452 380.274,122.887 380.161 C 123.399 380.027,123.732 380.279,124.011 381.012 C 124.255 381.653,124.712 382.054,125.200 382.054 C 125.637 382.054,126.194 382.428,126.439 382.886 C 126.684 383.343,126.988 383.614,127.114 383.487 C 127.241 383.361,127.613 383.480,127.942 383.752 C 128.271 384.024,129.094 384.247,129.770 384.247 C 130.596 384.247,131.001 384.444,131.003 384.845 C 131.006 385.248,131.496 385.484,132.502 385.567 C 133.325 385.636,133.998 385.879,133.998 386.109 C 133.998 386.359,134.411 386.423,135.028 386.269 C 135.849 386.063,136.101 386.174,136.270 386.819 C 136.386 387.264,136.641 387.530,136.835 387.410 C 137.029 387.290,137.413 387.332,137.687 387.503 C 137.961 387.675,138.455 387.820,138.784 387.826 C 139.113 387.832,139.331 388.078,139.270 388.372 C 139.183 388.785,139.527 388.845,140.762 388.637 C 142.216 388.391,142.401 388.457,142.739 389.345 C 143.092 390.273,145.165 391.152,145.165 390.373 C 145.165 390.184,145.434 390.030,145.763 390.030 C 146.092 390.030,146.361 390.234,146.361 390.484 C 146.361 391.097,147.593 391.996,148.455 392.011 C 148.838 392.018,149.153 391.755,149.153 391.426 C 149.153 391.093,149.507 390.828,149.950 390.828 C 150.389 390.828,150.748 390.986,150.748 391.180 C 150.748 391.374,151.125 391.631,151.585 391.751 C 152.046 391.872,152.307 392.159,152.164 392.390 C 151.992 392.669,152.334 392.724,153.183 392.554 C 154.056 392.379,154.376 392.436,154.193 392.732 C 154.046 392.970,154.108 393.278,154.330 393.416 C 154.553 393.553,154.736 393.389,154.736 393.051 C 154.736 392.712,156.082 391.090,157.727 389.445 C 159.372 387.800,160.718 386.267,160.718 386.040 C 160.718 385.812,163.858 382.491,167.697 378.658 C 171.535 374.826,174.676 371.507,174.676 371.283 C 174.676 371.059,177.817 367.738,181.655 363.903 C 185.494 360.067,188.634 356.744,188.634 356.517 C 188.634 356.291,191.775 352.979,195.613 349.158 C 199.452 345.337,202.592 342.019,202.592 341.785 C 202.592 341.551,205.823 338.137,209.771 334.197 C 213.719 330.258,216.949 326.934,216.949 326.811 C 216.949 326.425,217.768 325.550,224.427 318.819 C 227.991 315.217,230.907 312.080,230.907 311.849 C 230.907 311.348,232.425 309.778,233.481 309.187 C 234.030 308.879,230.870 308.686,221.803 308.470 C 214.966 308.307,209.372 308.017,209.372 307.826 C 209.372 307.634,207.308 307.478,204.786 307.478 L 200.199 307.478 200.199 301.109 L 200.199 294.740 211.266 294.558 C 238.278 294.113,249.651 293.438,249.651 292.279 C 249.651 292.089,251.535 290.049,253.838 287.746 C 256.142 285.443,258.026 283.369,258.026 283.138 C 258.026 282.907,259.506 281.289,261.316 279.542 C 265.099 275.890,265.011 275.978,268.985 271.891 C 270.635 270.194,271.984 268.618,271.984 268.389 C 271.984 268.159,274.003 265.996,276.471 263.583 C 281.723 258.446,281.086 259.082,283.791 256.282 C 284.974 255.057,285.942 253.867,285.942 253.637 C 285.942 253.407,288.272 250.935,291.119 248.145 C 293.966 245.354,296.702 242.670,297.200 242.180 C 298.973 240.435,299.900 239.305,299.900 238.888 C 299.900 238.433,311.181 227.105,312.602 226.133 C 313.074 225.811,313.460 225.229,313.460 224.840 C 313.460 224.452,316.421 221.172,320.040 217.553 C 323.659 213.934,326.620 210.715,326.620 210.399 C 326.620 210.083,326.934 209.718,327.318 209.589 C 327.702 209.459,328.465 208.805,329.013 208.134 C 329.561 207.464,331.491 205.407,333.300 203.563 C 335.110 201.719,336.590 200.021,336.590 199.789 C 336.590 199.557,338.071 197.941,339.880 196.197 C 346.647 189.675,349.751 186.418,349.751 185.839 C 349.751 185.608,351.770 183.450,354.237 181.044 C 362.901 172.597,362.911 172.587,362.911 171.892 C 362.911 171.469,373.714 160.626,376.030 158.724 C 376.698 158.175,377.250 157.495,377.256 157.211 C 377.273 156.503,377.469 156.285,384.289 149.386 C 388.154 145.476,390.385 142.914,390.515 142.235 C 390.714 141.190,390.310 140.800,389.831 141.575 C 389.458 142.178,388.833 142.053,388.833 141.376 C 388.833 141.047,389.013 140.778,389.232 140.778 C 389.452 140.778,389.631 140.455,389.631 140.060 C 389.631 139.665,389.795 139.171,389.995 138.963 C 390.216 138.733,390.030 137.893,389.519 136.820 C 389.058 135.850,388.610 135.267,388.524 135.524 C 388.269 136.289,387.162 136.075,387.332 135.294 C 387.416 134.910,387.699 134.641,387.961 134.696 C 388.313 134.770,388.297 134.459,387.900 133.500 C 387.547 132.651,387.130 132.245,386.690 132.323 C 386.162 132.417,386.060 132.215,386.212 131.377 C 386.319 130.791,386.300 130.416,386.171 130.545 C 385.507 131.209,384.379 129.948,385.012 129.249 C 385.687 128.503,385.832 127.986,385.344 128.063 C 383.890 128.293,383.241 127.981,383.636 127.243 C 383.911 126.728,383.916 126.386,383.650 126.222 C 383.430 126.086,383.250 125.630,383.250 125.208 C 383.250 124.724,382.884 124.350,382.256 124.192 C 381.444 123.989,381.306 123.768,381.502 122.988 C 381.647 122.412,381.567 122.034,381.299 122.034 C 381.056 122.034,380.857 121.765,380.857 121.436 C 380.857 121.062,380.480 120.837,379.853 120.837 C 378.991 120.837,378.882 120.701,379.089 119.878 C 379.275 119.136,379.141 118.859,378.498 118.655 C 378.041 118.510,377.667 118.216,377.667 118.002 C 377.667 117.787,377.196 117.127,376.620 116.533 C 376.043 115.939,375.712 115.723,375.883 116.052 C 376.054 116.381,375.830 116.291,375.386 115.852 C 374.817 115.292,374.695 114.907,374.975 114.556 C 375.242 114.221,375.233 114.058,374.948 114.058 C 374.714 114.058,374.389 114.276,374.224 114.543 C 374.029 114.858,373.675 114.473,373.214 113.446 C 372.823 112.576,372.499 112.023,372.493 112.217 C 372.487 112.411,372.111 112.097,371.656 111.519 C 371.201 110.941,370.459 110.469,370.007 110.469 C 369.554 110.469,368.779 110.031,368.283 109.496 C 367.787 108.961,367.273 108.632,367.141 108.765 C 367.008 108.898,366.899 108.818,366.899 108.588 C 366.899 108.357,366.540 108.075,366.102 107.960 C 365.663 107.846,365.304 107.485,365.304 107.160 C 365.304 106.560,362.225 104.885,361.121 104.885 C 360.790 104.885,360.518 104.706,360.518 104.487 C 360.518 104.267,359.992 104.088,359.349 104.088 C 358.530 104.088,358.104 103.849,357.926 103.290 C 357.738 102.697,357.323 102.493,356.304 102.493 C 355.551 102.493,354.935 102.313,354.935 102.094 C 354.935 101.874,354.501 101.695,353.971 101.695 C 353.441 101.695,352.948 101.521,352.875 101.308 C 352.724 100.871,348.495 100.640,347.857 101.035 C 347.628 101.176,347.341 101.030,347.218 100.710 C 347.027 100.212,344.239 100.126,327.835 100.107 L 308.674 100.086 308.674 125.816 M391.655 145.727 C 391.335 146.112,391.320 146.372,391.606 146.548 C 391.836 146.690,392.038 146.751,392.054 146.684 C 392.442 145.120,392.347 144.893,391.655 145.727 M392.290 147.424 C 391.804 147.910,392.015 148.754,392.622 148.754 C 392.954 148.754,393.220 148.399,393.220 147.956 C 393.220 147.162,392.795 146.919,392.290 147.424 M148.176 204.953 C 147.904 205.391,150.154 205.950,150.738 205.589 C 150.963 205.450,151.147 205.168,151.147 204.962 C 151.147 204.478,148.474 204.470,148.176 204.953 M144.367 205.783 C 144.367 206.002,144.636 206.181,144.965 206.181 C 145.294 206.181,145.693 206.195,145.852 206.211 C 146.011 206.228,146.206 206.048,146.284 205.813 C 146.363 205.577,145.964 205.384,145.397 205.384 C 144.831 205.384,144.367 205.563,144.367 205.783 M141.190 206.871 C 140.667 207.459,140.681 207.500,141.322 207.254 C 141.716 207.103,142.114 206.979,142.206 206.979 C 142.298 206.979,142.373 206.800,142.373 206.580 C 142.373 205.994,141.856 206.120,141.190 206.871 M135.859 208.043 C 135.336 208.565,135.607 208.895,136.391 208.690 C 136.830 208.575,137.188 208.323,137.188 208.129 C 137.188 207.717,136.246 207.656,135.859 208.043 M131.206 209.771 C 130.738 210.073,130.842 210.159,131.681 210.163 C 132.272 210.167,132.865 209.990,133.001 209.771 C 133.316 209.261,131.994 209.261,131.206 209.771 M127.218 211.765 C 127.218 211.984,126.949 212.164,126.620 212.164 C 126.291 212.164,126.022 212.343,126.022 212.562 C 126.022 212.782,125.763 212.961,125.447 212.961 C 125.131 212.961,124.757 213.148,124.616 213.376 C 124.156 214.121,126.579 213.280,127.318 212.438 C 128.123 211.521,128.166 211.366,127.617 211.366 C 127.398 211.366,127.218 211.545,127.218 211.765 M122.408 214.924 C 121.654 215.557,121.157 216.196,121.304 216.346 C 121.451 216.496,122.152 216.063,122.862 215.385 C 124.537 213.784,124.189 213.431,122.408 214.924 M119.840 216.949 C 119.701 217.388,119.317 217.747,118.988 217.747 C 118.294 217.747,117.248 218.688,117.248 219.313 C 117.248 220.046,117.688 219.794,119.289 218.145 C 120.895 216.490,121.095 216.152,120.466 216.152 C 120.261 216.152,119.980 216.510,119.840 216.949 M115.644 220.633 C 115.101 221.316,114.440 222.091,114.177 222.356 C 113.913 222.620,113.808 222.947,113.944 223.083 C 114.080 223.219,113.981 223.330,113.725 223.330 C 113.470 223.330,113.260 223.543,113.260 223.803 C 113.260 224.491,115.581 222.161,116.268 220.783 C 117.061 219.194,116.832 219.139,115.644 220.633 M111.499 225.581 C 111.165 226.451,111.608 226.855,112.079 226.110 C 112.551 225.364,112.561 224.925,112.106 224.925 C 111.911 224.925,111.637 225.220,111.499 225.581 M108.474 230.709 C 108.265 231.258,107.742 232.482,107.310 233.429 C 105.777 236.796,105.315 238.485,105.929 238.485 C 106.293 238.485,106.481 238.011,106.481 237.089 C 106.481 236.321,106.660 235.693,106.879 235.693 C 107.099 235.693,107.278 235.424,107.278 235.095 C 107.278 234.766,107.458 234.497,107.677 234.497 C 107.896 234.497,108.076 233.958,108.076 233.300 C 108.076 232.642,108.255 232.104,108.475 232.104 C 108.694 232.104,108.873 231.781,108.873 231.386 C 108.873 230.991,109.089 230.453,109.352 230.189 C 109.724 229.817,109.722 229.711,109.342 229.711 C 109.073 229.711,108.683 230.160,108.474 230.709 M104.088 243.892 C 104.088 244.471,104.260 244.806,104.487 244.666 C 104.706 244.530,104.885 244.071,104.885 243.645 C 104.885 243.220,104.706 242.871,104.487 242.871 C 104.267 242.871,104.088 243.331,104.088 243.892 M103.290 248.853 C 103.290 249.950,103.470 250.847,103.689 250.847 C 103.908 250.847,104.088 249.950,104.088 248.853 C 104.088 247.757,103.908 246.859,103.689 246.859 C 103.470 246.859,103.290 247.757,103.290 248.853 " stroke="none" fill="#fcd646" fill-rule="evenodd"></path><path id="path2" d="M174.477 0.441 C 172.064 0.627,168.744 0.887,167.099 1.019 C 165.454 1.151,163.937 1.424,163.729 1.626 C 163.520 1.829,162.119 1.994,160.615 1.994 C 159.079 1.994,157.977 2.153,158.103 2.356 C 158.226 2.555,157.384 2.816,156.232 2.936 C 152.385 3.337,150.552 3.668,150.169 4.029 C 149.961 4.226,149.256 4.387,148.603 4.387 C 147.428 4.387,145.187 4.972,143.903 5.614 C 143.538 5.796,142.517 5.988,141.634 6.040 C 140.750 6.093,140.117 6.280,140.227 6.457 C 140.400 6.737,138.798 6.981,137.857 6.817 C 137.676 6.786,137.642 6.944,137.781 7.169 C 137.928 7.407,137.608 7.577,137.013 7.577 C 136.451 7.577,135.992 7.757,135.992 7.976 C 135.992 8.195,135.642 8.375,135.213 8.375 C 134.280 8.375,132.314 9.198,131.926 9.751 C 131.773 9.968,131.524 10.022,131.372 9.869 C 131.219 9.717,130.626 9.843,130.054 10.149 C 129.481 10.455,127.263 11.539,125.125 12.557 C 122.986 13.574,121.236 14.575,121.236 14.781 C 121.236 14.986,121.001 15.155,120.713 15.155 C 120.426 15.155,119.805 15.513,119.334 15.952 C 118.863 16.391,118.191 16.750,117.840 16.750 C 117.488 16.750,117.312 16.929,117.448 17.149 C 117.583 17.368,117.549 17.548,117.371 17.548 C 116.776 17.549,110.070 23.671,110.070 24.213 C 110.070 24.335,109.642 24.831,109.119 25.316 C 108.597 25.800,108.046 26.583,107.896 27.056 C 107.746 27.529,107.484 27.916,107.314 27.916 C 107.144 27.916,106.573 28.769,106.045 29.811 C 105.517 30.852,104.969 31.758,104.828 31.824 C 104.687 31.889,104.658 32.273,104.763 32.676 C 104.869 33.079,104.760 33.530,104.521 33.677 C 104.283 33.825,104.088 34.394,104.088 34.942 C 104.088 35.491,103.941 35.849,103.762 35.738 C 103.583 35.628,103.394 36.365,103.342 37.377 C 103.289 38.389,103.077 39.534,102.869 39.921 C 102.355 40.883,102.375 58.106,102.891 58.425 C 103.461 58.777,103.412 65.005,102.840 65.005 C 102.514 65.005,102.432 68.155,102.541 76.531 C 102.624 82.871,102.846 87.963,103.034 87.847 C 103.222 87.732,103.263 87.993,103.124 88.428 C 102.977 88.893,103.102 89.409,103.427 89.679 C 104.035 90.183,198.420 90.160,200.066 89.656 C 200.926 89.392,200.929 89.416,200.978 96.070 C 201.039 104.497,201.268 103.980,197.486 103.961 C 194.448 103.945,194.443 103.944,197.009 103.797 C 204.638 103.360,198.015 103.103,181.563 103.198 C 169.315 103.269,162.828 103.167,162.560 102.899 C 162.002 102.341,57.175 102.333,56.830 102.891 C 56.694 103.111,55.517 103.290,54.214 103.290 C 52.900 103.290,51.844 103.468,51.844 103.689 C 51.844 103.908,51.137 104.088,50.273 104.088 C 49.408 104.088,48.590 104.267,48.455 104.487 C 48.319 104.706,47.680 104.885,47.035 104.885 C 46.390 104.885,45.862 105.065,45.862 105.284 C 45.862 105.503,45.414 105.683,44.865 105.683 C 44.317 105.683,43.868 105.862,43.868 106.082 C 43.868 106.301,43.420 106.481,42.871 106.481 C 42.323 106.481,41.874 106.660,41.874 106.879 C 41.874 107.099,41.603 107.278,41.271 107.278 C 40.939 107.278,40.356 107.445,39.975 107.648 C 38.967 108.186,37.732 108.611,37.388 108.538 C 37.223 108.503,37.089 108.757,37.089 109.102 C 37.089 109.480,36.817 109.677,36.406 109.598 C 36.031 109.526,35.282 109.876,34.742 110.376 C 34.203 110.876,33.343 111.390,32.833 111.518 C 32.322 111.647,31.904 111.920,31.904 112.126 C 31.904 112.332,31.411 112.719,30.808 112.986 C 29.569 113.533,28.435 114.470,25.100 117.704 C 23.823 118.941,22.650 119.839,22.492 119.698 C 22.334 119.557,22.314 119.633,22.446 119.866 C 22.579 120.100,22.024 121.014,21.214 121.899 C 19.197 124.099,18.345 125.179,18.345 125.532 C 18.345 125.696,17.986 126.054,17.547 126.328 C 17.109 126.602,16.750 127.094,16.750 127.421 C 16.750 127.748,16.570 128.016,16.351 128.016 C 16.132 128.016,15.952 128.270,15.952 128.581 C 15.952 128.892,15.818 129.206,15.653 129.279 C 15.178 129.490,13.763 131.685,13.190 133.101 C 12.901 133.814,12.477 134.397,12.248 134.397 C 12.019 134.397,11.939 134.505,12.071 134.637 C 12.303 134.869,9.672 140.375,9.137 140.778 C 8.991 140.887,8.744 141.741,8.588 142.674 C 8.432 143.607,8.178 144.292,8.023 144.197 C 7.869 144.101,7.700 144.594,7.647 145.292 C 7.595 145.989,7.378 146.620,7.166 146.693 C 6.953 146.766,6.780 147.339,6.780 147.966 C 6.780 148.593,6.600 149.216,6.381 149.352 C 6.162 149.488,5.982 150.036,5.982 150.572 C 5.982 151.107,5.803 151.545,5.583 151.545 C 5.364 151.545,5.184 152.184,5.184 152.965 C 5.184 153.745,5.041 154.295,4.865 154.187 C 4.690 154.078,4.502 154.651,4.447 155.459 C 4.393 156.267,4.178 157.098,3.969 157.307 C 3.760 157.516,3.589 158.358,3.589 159.179 C 3.589 159.999,3.410 160.782,3.190 160.917 C 2.971 161.053,2.792 161.860,2.792 162.712 C 2.792 163.563,2.612 164.371,2.393 164.506 C 2.173 164.642,1.994 165.819,1.994 167.122 C 1.994 168.425,1.843 169.492,1.658 169.492 C 1.473 169.492,1.284 170.673,1.237 172.116 C 1.190 173.559,1.007 175.130,0.829 175.605 C -0.093 178.077,-0.076 222.873,0.847 222.303 C 1.039 222.184,1.196 223.353,1.196 224.902 C 1.196 226.450,1.345 227.717,1.527 227.717 C 1.709 227.717,1.857 228.031,1.855 228.415 C 1.843 231.081,2.042 232.520,2.393 232.303 C 2.612 232.168,2.792 232.247,2.792 232.479 C 2.792 232.711,2.623 232.901,2.418 232.901 C 2.212 232.901,2.070 233.248,2.102 233.671 C 2.133 234.095,2.302 234.353,2.476 234.246 C 2.649 234.139,2.792 234.948,2.792 236.045 C 2.792 237.141,2.971 238.150,3.190 238.285 C 3.410 238.421,3.589 239.139,3.589 239.880 C 3.589 240.622,3.769 241.340,3.988 241.476 C 4.207 241.611,4.387 242.525,4.387 243.506 C 4.387 244.983,4.541 245.352,5.284 245.651 C 5.778 245.849,5.957 246.023,5.683 246.037 C 5.409 246.050,5.184 246.531,5.184 247.105 C 5.184 247.953,5.335 248.110,5.982 247.940 C 6.421 247.826,6.780 247.894,6.780 248.093 C 6.780 248.292,6.600 248.455,6.381 248.455 C 5.791 248.455,5.897 250.280,6.517 250.795 C 6.812 251.039,7.194 251.106,7.367 250.944 C 7.540 250.781,7.434 251.075,7.131 251.597 C 6.699 252.342,6.688 252.586,7.079 252.727 C 7.353 252.827,7.577 253.147,7.577 253.440 C 7.577 253.732,7.802 254.062,8.076 254.174 C 8.461 254.330,8.448 254.464,8.022 254.762 C 7.574 255.075,7.631 255.235,8.321 255.604 C 8.789 255.855,9.172 256.323,9.172 256.644 C 9.172 256.965,9.365 257.228,9.600 257.228 C 9.835 257.228,9.725 257.531,9.355 257.901 C 8.724 258.531,8.736 258.592,9.535 258.888 C 10.003 259.061,10.507 259.522,10.655 259.911 C 10.802 260.300,11.156 260.855,11.442 261.144 C 11.800 261.506,11.844 261.891,11.585 262.376 C 10.877 263.699,12.221 266.583,13.345 266.152 C 13.625 266.045,13.948 266.317,14.063 266.758 C 14.178 267.198,14.102 267.616,13.893 267.685 C 13.211 267.913,14.001 269.138,14.738 268.996 C 15.348 268.879,16.466 270.341,16.412 271.186 C 16.405 271.296,16.762 271.772,17.206 272.245 C 17.981 273.070,17.984 273.120,17.282 273.529 C 16.879 273.762,16.775 273.959,17.049 273.966 C 17.323 273.973,17.547 274.254,17.547 274.591 C 17.547 275.021,17.872 275.170,18.632 275.090 C 19.526 274.995,19.859 275.236,20.519 276.450 C 20.960 277.262,21.722 278.026,22.212 278.149 C 23.080 278.367,23.127 279.561,22.267 279.561 C 22.058 279.561,22.015 279.354,22.172 279.101 C 22.339 278.830,22.282 278.748,22.033 278.902 C 21.801 279.046,21.700 279.505,21.809 279.924 C 22.001 280.657,22.038 280.654,22.847 279.844 L 23.687 279.005 24.188 280.180 C 24.464 280.827,24.698 281.194,24.708 280.996 C 24.718 280.798,25.061 281.022,25.471 281.494 C 26.748 282.967,26.578 283.099,37.589 272.084 C 40.056 269.616,43.913 265.758,46.162 263.509 C 48.410 261.261,51.909 257.761,53.938 255.732 C 61.906 247.762,66.755 242.915,70.288 239.386 C 75.845 233.837,77.365 232.173,77.392 231.614 C 77.405 231.335,78.487 230.120,79.797 228.913 C 81.106 227.707,84.012 224.880,86.253 222.632 C 88.495 220.383,92.348 216.525,94.815 214.057 C 97.283 211.590,100.782 208.090,102.592 206.280 C 104.402 204.470,108.080 200.791,110.767 198.104 C 118.135 190.737,121.541 187.331,127.016 181.854 C 132.118 176.753,133.403 175.467,143.519 165.351 C 146.727 162.142,150.406 158.463,151.694 157.175 C 158.084 150.788,161.517 147.121,161.534 146.665 C 161.544 146.388,162.271 145.533,163.149 144.766 C 164.027 143.998,165.859 142.247,167.218 140.875 C 168.578 139.502,172.293 135.778,175.474 132.597 C 182.492 125.579,184.212 123.859,192.121 115.949 C 195.520 112.549,199.199 108.870,200.296 107.774 C 201.393 106.677,205.048 103.021,208.419 99.649 C 211.790 96.278,215.289 92.778,216.195 91.872 C 217.101 90.966,220.779 87.287,224.370 83.697 C 227.960 80.106,231.662 76.408,232.597 75.478 C 235.587 72.504,236.889 71.021,236.889 70.589 C 236.889 70.357,239.267 67.839,242.173 64.992 C 245.080 62.145,247.972 59.300,248.601 58.669 C 249.230 58.038,252.885 54.381,256.724 50.542 C 260.562 46.704,264.217 43.048,264.846 42.420 C 265.475 41.791,269.127 38.136,272.963 34.297 C 276.798 30.459,280.345 26.924,280.845 26.442 C 282.722 24.633,282.850 24.369,282.175 23.694 C 281.834 23.353,281.555 22.787,281.555 22.437 C 281.555 22.088,281.444 21.912,281.308 22.048 C 280.804 22.553,280.050 21.246,280.248 20.210 C 280.455 19.126,279.415 18.583,279.077 19.599 C 278.890 20.160,277.494 19.476,275.999 18.090 C 275.440 17.572,274.836 17.149,274.657 17.149 C 274.477 17.149,274.458 16.941,274.614 16.688 C 274.782 16.417,274.725 16.335,274.474 16.490 C 273.598 17.032,272.779 16.346,273.299 15.506 C 273.938 14.475,273.156 13.972,270.900 13.964 C 269.624 13.960,269.269 13.823,269.432 13.400 C 269.549 13.093,269.454 12.724,269.220 12.579 C 268.985 12.434,268.794 12.506,268.794 12.738 C 268.794 12.970,268.505 13.161,268.153 13.161 C 267.753 13.161,267.596 12.940,267.737 12.575 C 267.860 12.253,267.805 11.893,267.614 11.775 C 267.423 11.657,267.196 11.773,267.109 12.032 C 267.020 12.301,266.736 12.371,266.450 12.194 C 266.174 12.023,266.044 11.632,266.162 11.326 C 266.279 11.019,266.196 10.768,265.977 10.768 C 265.758 10.768,265.475 11.036,265.349 11.364 C 265.224 11.691,264.948 11.853,264.737 11.722 C 264.525 11.591,264.442 11.251,264.552 10.966 C 264.847 10.196,264.353 9.898,263.848 10.541 C 263.477 11.013,263.196 10.981,262.020 10.335 C 261.256 9.915,260.784 9.571,260.972 9.571 C 261.160 9.571,261.091 9.302,260.818 8.973 C 260.215 8.247,258.965 8.188,258.689 8.873 C 258.528 9.272,258.481 9.272,258.456 8.873 C 258.439 8.599,257.997 8.375,257.474 8.375 C 256.859 8.375,256.450 8.093,256.315 7.577 C 256.174 7.038,255.771 6.780,255.072 6.780 C 254.503 6.780,254.038 6.600,254.038 6.381 C 254.038 5.751,253.177 5.916,252.641 6.649 C 252.199 7.254,252.087 7.217,251.454 6.251 C 250.970 5.511,250.410 5.184,249.629 5.184 C 249.009 5.184,248.391 5.005,248.255 4.786 C 248.120 4.566,247.047 4.387,245.872 4.387 C 244.553 4.387,243.646 4.196,243.503 3.888 C 243.317 3.490,243.224 3.490,243.038 3.888 C 242.672 4.672,241.357 4.471,241.077 3.589 C 240.869 2.935,240.473 2.792,238.880 2.792 C 237.811 2.792,236.825 2.612,236.690 2.393 C 236.353 1.847,234.895 1.887,234.895 2.442 C 234.895 2.737,234.726 2.760,234.397 2.508 C 233.675 1.955,229.785 1.208,227.854 1.252 C 226.942 1.273,225.955 1.139,225.660 0.955 C 225.366 0.771,224.855 0.554,224.526 0.473 C 223.223 0.153,178.586 0.123,174.477 0.441 M275.174 16.517 C 275.174 16.864,275.459 17.149,275.806 17.149 C 276.153 17.149,276.366 16.935,276.279 16.675 C 276.033 15.936,275.174 15.813,275.174 16.517 M282.752 22.150 C 282.752 22.484,283.029 22.863,283.367 22.993 C 284.320 23.359,284.407 22.961,283.537 22.216 C 282.863 21.638,282.752 21.629,282.752 22.150 M285.145 24.417 C 285.145 25.144,285.852 25.747,286.244 25.354 C 286.381 25.218,286.190 24.802,285.819 24.431 C 285.197 23.810,285.145 23.809,285.145 24.417 M289.531 30.521 C 289.531 30.843,289.801 31.107,290.130 31.107 C 290.459 31.107,290.728 30.946,290.728 30.751 C 290.728 30.555,290.459 30.291,290.130 30.165 C 289.765 30.025,289.531 30.164,289.531 30.521 M148.953 31.904 C 149.089 32.124,149.727 32.303,150.372 32.303 C 151.018 32.303,151.545 32.483,151.545 32.702 C 151.545 32.921,151.885 33.101,152.300 33.101 C 152.716 33.101,153.163 33.381,153.294 33.724 C 153.426 34.067,153.697 34.247,153.896 34.124 C 154.300 33.874,159.123 38.499,159.123 39.136 C 159.123 39.357,159.393 39.809,159.725 40.140 C 160.056 40.471,160.224 40.907,160.100 41.109 C 159.975 41.311,160.063 41.476,160.296 41.476 C 160.528 41.476,160.718 41.888,160.718 42.393 C 160.718 42.897,160.916 43.508,161.157 43.749 C 161.694 44.286,161.723 51.862,161.192 52.909 C 159.075 57.087,158.704 57.998,158.907 58.526 C 159.101 59.031,159.037 59.049,158.534 58.632 C 157.941 58.140,157.710 58.454,157.879 59.521 C 157.905 59.686,157.702 59.828,157.428 59.837 C 157.154 59.846,156.317 60.377,155.568 61.017 C 154.820 61.657,154.076 62.099,153.915 62.000 C 153.754 61.900,153.516 62.099,153.385 62.440 C 153.253 62.782,152.965 62.950,152.745 62.813 C 152.524 62.677,152.343 62.711,152.343 62.890 C 152.343 63.574,147.359 65.005,144.979 65.005 C 139.465 65.005,132.257 60.613,130.227 56.015 C 129.843 55.147,129.368 54.078,129.170 53.639 C 128.972 53.200,128.744 52.303,128.665 51.645 C 128.585 50.987,128.386 50.132,128.223 49.746 C 128.060 49.359,128.047 48.462,128.193 47.752 C 128.340 47.042,128.558 45.743,128.678 44.865 C 128.797 43.988,129.056 43.100,129.253 42.891 C 129.450 42.683,129.611 42.187,129.611 41.789 C 129.611 40.363,134.304 34.696,135.485 34.696 C 135.764 34.696,135.992 34.550,135.992 34.371 C 135.992 33.854,139.162 32.303,140.217 32.303 C 140.745 32.303,141.176 32.124,141.176 31.904 C 141.176 31.667,142.697 31.505,144.942 31.505 C 147.021 31.505,148.817 31.684,148.953 31.904 M131.605 194.616 C 131.605 195.116,132.028 195.116,132.802 194.616 C 133.285 194.304,133.228 194.228,132.502 194.223 C 132.009 194.220,131.605 194.397,131.605 194.616 M120.439 197.420 C 120.439 197.975,121.486 198.345,122.057 197.991 C 122.393 197.784,122.372 197.614,121.977 197.364 C 121.235 196.894,120.439 196.923,120.439 197.420 M104.326 208.911 C 104.188 209.134,104.269 209.437,104.507 209.584 C 105.120 209.963,105.515 209.444,105.003 208.932 C 104.717 208.645,104.494 208.638,104.326 208.911 M99.701 215.553 C 99.701 215.882,99.861 216.152,100.057 216.152 C 100.253 216.152,100.516 215.882,100.643 215.553 C 100.783 215.189,100.643 214.955,100.287 214.955 C 99.964 214.955,99.701 215.224,99.701 215.553 M91.725 235.693 C 91.725 235.912,91.994 236.092,92.323 236.092 C 92.652 236.092,92.921 235.912,92.921 235.693 C 92.921 235.474,92.652 235.294,92.323 235.294 C 91.994 235.294,91.725 235.474,91.725 235.693 M27.372 285.456 C 27.238 285.674,27.395 286.074,27.721 286.345 C 28.370 286.883,28.505 286.461,27.960 285.600 C 27.752 285.272,27.521 285.215,27.372 285.456 M29.201 287.203 C 29.426 287.880,30.708 287.965,30.708 287.303 C 30.708 286.993,30.334 286.740,29.877 286.740 C 29.420 286.740,29.116 286.948,29.201 287.203 " stroke="none" fill="#377cae" fill-rule="evenodd"></path><path id="path3" d="M168.694 0.798 C 168.694 1.297,169.117 1.297,169.890 0.798 C 170.374 0.485,170.317 0.410,169.591 0.405 C 169.098 0.402,168.694 0.578,168.694 0.798 M225.523 0.798 C 225.659 1.017,226.039 1.196,226.368 1.196 C 226.697 1.196,226.855 1.017,226.720 0.798 C 226.584 0.578,226.204 0.399,225.875 0.399 C 225.546 0.399,225.388 0.578,225.523 0.798 M162.313 1.595 C 162.313 2.113,163.389 2.113,163.709 1.595 C 163.844 1.376,163.586 1.196,163.134 1.196 C 162.683 1.196,162.313 1.376,162.313 1.595 M230.542 1.340 C 231.018 1.750,232.901 1.960,232.901 1.603 C 232.901 1.379,232.333 1.196,231.638 1.196 C 230.944 1.196,230.450 1.261,230.542 1.340 M156.929 2.393 C 156.794 2.612,157.063 2.792,157.527 2.792 C 157.992 2.792,158.261 2.612,158.126 2.393 C 157.990 2.173,157.721 1.994,157.527 1.994 C 157.334 1.994,157.065 2.173,156.929 2.393 M241.034 3.422 C 241.167 3.769,241.276 4.128,241.276 4.220 C 241.276 4.312,241.635 4.387,242.074 4.387 C 242.512 4.387,242.871 4.207,242.871 3.988 C 242.871 3.769,242.602 3.589,242.273 3.589 C 241.944 3.589,241.675 3.410,241.675 3.190 C 241.675 2.971,241.476 2.792,241.234 2.792 C 240.991 2.792,240.901 3.075,241.034 3.422 M243.669 4.075 C 243.669 4.247,244.118 4.387,244.666 4.387 C 245.214 4.387,245.663 4.209,245.663 3.993 C 245.663 3.776,245.214 3.635,244.666 3.681 C 244.118 3.726,243.669 3.904,243.669 4.075 M251.346 6.082 C 251.966 7.016,252.520 7.145,252.765 6.411 C 252.844 6.175,252.624 5.982,252.277 5.982 C 251.929 5.982,251.645 5.803,251.645 5.583 C 251.645 5.364,251.444 5.184,251.198 5.184 C 250.911 5.184,250.964 5.507,251.346 6.082 M256.315 7.577 C 256.450 8.093,256.859 8.375,257.474 8.375 C 257.997 8.375,258.425 8.567,258.425 8.802 C 258.425 9.037,258.694 8.960,259.023 8.631 C 259.771 7.883,259.795 7.425,259.073 7.702 C 258.771 7.818,258.032 7.658,257.432 7.346 C 256.051 6.630,256.067 6.627,256.315 7.577 M260.767 8.908 C 261.068 9.273,261.160 9.571,260.972 9.571 C 260.784 9.571,261.256 9.915,262.020 10.335 C 263.196 10.981,263.477 11.013,263.848 10.541 C 264.353 9.898,264.847 10.196,264.552 10.966 C 264.228 11.810,264.949 11.896,265.703 11.103 C 266.369 10.402,266.365 10.369,265.603 10.369 C 265.165 10.369,264.806 10.227,264.806 10.053 C 264.806 9.879,264.043 9.512,263.111 9.237 C 262.178 8.962,261.147 8.626,260.818 8.491 C 260.304 8.280,260.297 8.339,260.767 8.908 M131.617 9.157 C 131.294 9.361,131.169 9.667,131.339 9.837 C 131.509 10.007,131.773 9.954,131.926 9.719 C 132.079 9.484,132.473 9.190,132.802 9.064 C 133.333 8.862,133.333 8.834,132.802 8.811 C 132.473 8.797,131.939 8.953,131.617 9.157 M129.611 9.970 C 129.611 10.189,129.252 10.369,128.814 10.369 C 128.375 10.369,128.016 10.543,128.016 10.755 C 128.016 11.194,129.035 10.890,130.198 10.103 C 130.886 9.638,130.898 9.571,130.298 9.571 C 129.920 9.571,129.611 9.751,129.611 9.970 M266.002 11.542 C 266.002 12.139,266.936 12.553,267.109 12.032 C 267.196 11.773,267.423 11.657,267.614 11.775 C 267.805 11.893,267.860 12.253,267.737 12.575 C 267.596 12.940,267.753 13.161,268.153 13.161 C 268.505 13.161,268.794 12.970,268.794 12.738 C 268.794 12.506,268.985 12.434,269.220 12.579 C 269.454 12.724,269.549 13.093,269.432 13.400 C 269.265 13.834,269.637 13.946,271.099 13.904 C 272.134 13.874,272.577 13.772,272.084 13.677 C 271.590 13.582,271.186 13.318,271.186 13.090 C 271.186 12.863,270.878 12.795,270.501 12.940 C 270.124 13.084,269.943 13.074,270.100 12.917 C 270.517 12.501,268.146 11.167,266.989 11.167 C 266.446 11.167,266.002 11.335,266.002 11.542 M273.329 15.333 C 272.853 16.360,273.548 17.062,274.474 16.490 C 274.725 16.335,274.782 16.417,274.614 16.688 C 274.458 16.941,274.477 17.149,274.657 17.149 C 274.836 17.149,275.440 17.572,275.999 18.090 C 277.771 19.733,278.691 20.070,279.420 19.341 C 280.075 18.685,279.301 17.595,278.154 17.560 C 277.928 17.553,277.485 17.188,277.168 16.750 C 276.494 15.815,275.896 15.688,276.227 16.550 C 276.376 16.939,276.216 17.149,275.772 17.149 C 275.242 17.149,275.144 16.925,275.338 16.152 C 275.523 15.416,275.430 15.155,274.983 15.155 C 274.649 15.155,274.377 14.975,274.377 14.756 C 274.377 14.025,273.784 14.351,273.329 15.333 M114.556 18.942 C 113.816 19.782,113.952 20.013,114.855 19.449 C 115.294 19.175,115.653 18.814,115.653 18.648 C 115.653 18.173,115.103 18.320,114.556 18.942 M280.203 20.568 C 279.951 21.227,280.882 22.474,281.308 22.048 C 281.444 21.912,281.555 22.088,281.555 22.437 C 281.555 22.787,281.834 23.353,282.175 23.694 C 282.850 24.369,282.722 24.633,280.845 26.442 C 280.345 26.924,276.822 30.435,273.016 34.244 C 269.210 38.053,265.581 41.685,264.952 42.314 C 264.323 42.943,260.644 46.621,256.777 50.489 C 252.909 54.357,249.230 58.038,248.601 58.669 C 247.972 59.300,245.080 62.145,242.173 64.992 C 239.267 67.839,236.889 70.357,236.889 70.589 C 236.889 71.021,235.587 72.504,232.597 75.478 C 231.662 76.408,227.983 80.083,224.422 83.645 C 220.860 87.207,217.205 90.862,216.299 91.768 C 215.393 92.674,211.847 96.221,208.419 99.649 C 204.992 103.077,201.290 106.780,200.193 107.876 C 199.096 108.973,195.464 112.606,192.120 115.950 C 184.369 123.702,182.524 125.547,175.474 132.597 C 172.293 135.778,168.578 139.502,167.218 140.875 C 165.859 142.247,164.027 143.998,163.149 144.766 C 162.271 145.533,161.544 146.388,161.534 146.665 C 161.517 147.122,158.085 150.787,151.643 157.226 C 150.327 158.542,146.648 162.221,143.468 165.402 C 121.982 186.890,120.850 188.022,110.767 198.104 C 108.080 200.791,104.402 204.470,102.592 206.280 C 100.782 208.090,97.283 211.590,94.815 214.057 C 92.348 216.525,88.495 220.383,86.253 222.632 C 84.012 224.880,81.106 227.707,79.797 228.913 C 78.487 230.120,77.405 231.335,77.392 231.614 C 77.365 232.173,75.845 233.837,70.288 239.386 C 66.755 242.915,61.906 247.762,53.938 255.732 C 51.909 257.761,48.410 261.261,46.162 263.509 C 43.913 265.758,40.056 269.616,37.589 272.084 C 26.727 282.950,26.600 283.050,25.539 281.577 C 25.231 281.150,24.852 280.879,24.696 280.976 C 24.540 281.072,24.299 280.700,24.160 280.148 C 23.946 279.293,23.792 279.207,23.121 279.567 C 22.035 280.148,22.043 281.724,23.131 281.440 C 23.761 281.275,23.928 281.428,23.928 282.168 C 23.928 282.685,24.326 283.384,24.815 283.726 C 25.302 284.068,25.563 284.347,25.395 284.347 C 24.972 284.347,26.646 285.966,28.212 287.073 C 29.150 287.735,29.440 287.815,29.267 287.363 C 29.096 286.919,29.269 286.740,29.868 286.740 C 30.363 286.740,30.708 286.995,30.708 287.362 C 30.708 287.703,30.528 287.872,30.309 287.737 C 30.090 287.601,29.910 287.730,29.910 288.023 C 29.910 288.700,33.246 290.891,33.431 290.335 C 33.507 290.107,34.074 290.461,34.691 291.122 C 35.309 291.782,36.100 292.323,36.451 292.323 C 36.802 292.323,37.089 292.502,37.089 292.722 C 37.089 292.941,37.448 293.121,37.886 293.121 C 38.325 293.121,38.684 293.300,38.684 293.519 C 38.684 293.739,39.097 293.918,39.601 293.918 C 40.106 293.918,40.760 294.143,41.056 294.417 C 41.485 294.816,41.536 294.816,41.311 294.417 C 41.156 294.143,41.208 293.918,41.425 293.918 C 41.643 293.918,41.927 294.255,42.058 294.666 C 42.212 295.152,42.669 295.414,43.364 295.414 C 43.952 295.414,44.501 295.616,44.583 295.862 C 44.665 296.109,45.435 296.311,46.294 296.311 C 47.154 296.311,47.856 296.491,47.856 296.710 C 47.856 296.929,48.136 297.109,48.478 297.109 C 48.820 297.109,48.989 296.929,48.853 296.710 C 48.718 296.491,48.887 296.311,49.229 296.311 C 49.571 296.311,49.850 296.491,49.850 296.710 C 49.850 296.929,50.479 297.109,51.246 297.109 C 52.014 297.109,52.642 297.288,52.642 297.507 C 52.642 297.727,53.046 297.904,53.539 297.900 C 54.265 297.895,54.322 297.820,53.838 297.507 C 53.357 297.196,53.420 297.120,54.161 297.115 C 54.675 297.111,54.973 297.285,54.835 297.507 C 54.673 297.771,60.813 297.906,72.958 297.906 L 91.326 297.906 91.326 269.791 C 91.326 251.313,91.463 241.675,91.725 241.675 C 91.944 241.675,92.124 240.688,92.124 239.482 C 92.124 238.275,92.303 237.288,92.522 237.288 C 92.742 237.288,92.921 237.019,92.921 236.690 C 92.921 236.361,92.652 236.092,92.323 236.092 C 91.994 236.092,91.725 235.912,91.725 235.693 C 91.725 235.474,91.949 235.293,92.223 235.291 C 92.874 235.287,93.719 233.442,93.719 232.024 C 93.719 231.410,93.898 230.907,94.118 230.907 C 94.337 230.907,94.516 230.369,94.516 229.711 C 94.516 229.053,94.696 228.514,94.915 228.514 C 95.135 228.514,95.314 227.976,95.314 227.318 C 95.314 226.660,95.494 226.122,95.713 226.122 C 95.932 226.122,96.112 225.673,96.112 225.125 C 96.112 224.576,96.291 224.128,96.510 224.128 C 96.730 224.128,96.909 223.954,96.909 223.741 C 96.909 223.529,96.595 223.473,96.211 223.617 C 95.600 223.846,95.581 223.795,96.061 223.205 C 96.362 222.835,96.855 222.532,97.158 222.532 C 97.460 222.532,97.707 222.173,97.707 221.735 C 97.707 221.296,97.921 220.937,98.182 220.937 C 98.443 220.937,98.325 220.695,97.920 220.398 C 97.224 219.890,97.243 219.844,98.242 219.593 C 98.825 219.446,99.302 219.054,99.302 218.719 C 99.302 218.385,99.661 217.727,100.100 217.256 C 100.538 216.785,100.883 216.120,100.866 215.777 C 100.845 215.366,100.766 215.324,100.633 215.653 C 100.345 216.367,99.701 216.269,99.701 215.510 C 99.701 215.025,99.944 214.930,100.698 215.119 C 101.592 215.343,101.768 215.200,101.669 214.327 C 101.654 214.200,102.016 213.773,102.472 213.378 C 102.977 212.940,103.205 212.405,103.054 212.012 C 102.913 211.644,103.006 211.366,103.271 211.366 C 103.527 211.366,103.613 211.590,103.463 211.864 C 103.312 212.139,103.688 211.847,104.298 211.217 C 105.288 210.195,105.335 210.031,104.739 209.697 C 103.956 209.259,104.248 208.508,105.077 208.826 C 105.663 209.051,105.801 208.964,108.018 206.980 C 108.754 206.322,109.480 205.783,109.630 205.783 C 109.781 205.783,110.570 205.155,111.383 204.387 C 112.197 203.619,113.092 202.991,113.373 202.991 C 113.653 202.991,114.140 202.632,114.457 202.193 C 114.773 201.755,115.351 201.396,115.741 201.396 C 116.131 201.396,116.451 201.250,116.451 201.071 C 116.451 200.893,117.079 200.501,117.846 200.199 C 118.614 199.898,119.242 199.506,119.242 199.327 C 119.242 199.149,119.621 199.003,120.083 199.003 C 120.777 199.003,120.881 198.832,120.678 198.024 C 120.436 197.059,120.461 197.049,122.479 197.288 C 124.077 197.477,124.600 197.398,124.865 196.924 C 125.082 196.536,125.566 196.387,126.211 196.511 C 126.802 196.624,127.218 196.519,127.218 196.258 C 127.218 196.013,127.721 195.813,128.335 195.813 C 129.547 195.813,131.597 194.999,131.602 194.516 C 131.604 194.352,132.009 194.220,132.502 194.223 C 133.228 194.228,133.285 194.304,132.802 194.616 C 132.290 194.947,132.305 195.004,132.901 195.009 C 133.285 195.012,133.599 194.835,133.599 194.616 C 133.599 194.386,134.862 194.217,136.590 194.217 C 138.318 194.217,139.581 194.049,139.581 193.819 C 139.581 193.555,157.785 193.420,193.396 193.420 C 228.843 193.420,247.295 193.284,247.458 193.021 C 247.593 192.802,249.129 192.622,250.871 192.622 C 252.716 192.622,254.038 192.456,254.038 192.223 C 254.038 192.004,254.835 191.825,255.809 191.825 C 256.783 191.825,257.675 191.670,257.792 191.481 C 257.909 191.293,258.802 191.029,259.777 190.895 C 262.038 190.585,264.806 189.726,264.806 189.335 C 264.806 189.169,265.344 189.033,266.002 189.033 C 266.660 189.033,267.198 188.853,267.198 188.634 C 267.198 188.415,267.557 188.235,267.996 188.235 C 268.435 188.235,268.794 188.056,268.794 187.836 C 268.794 187.617,269.153 187.438,269.591 187.438 C 270.030 187.438,270.389 187.258,270.389 187.039 C 270.389 186.820,270.748 186.640,271.186 186.640 C 271.625 186.640,271.984 186.461,271.984 186.241 C 271.984 186.022,272.343 185.842,272.782 185.842 C 273.220 185.842,273.579 185.663,273.579 185.444 C 273.579 185.224,273.815 185.045,274.102 185.045 C 274.390 185.045,275.011 184.686,275.481 184.247 C 275.952 183.809,276.498 183.450,276.694 183.450 C 276.890 183.450,277.614 182.911,278.302 182.253 C 278.991 181.595,279.651 181.057,279.770 181.057 C 280.311 181.057,282.752 178.216,282.758 177.581 C 282.762 177.145,282.878 177.039,283.057 177.307 C 283.251 177.597,283.648 177.438,284.233 176.837 C 284.835 176.218,284.962 175.867,284.632 175.733 C 284.366 175.625,284.474 175.522,284.874 175.505 C 285.683 175.470,286.740 174.565,286.740 173.907 C 286.740 173.672,286.889 173.480,287.071 173.480 C 287.253 173.480,287.657 172.986,287.969 172.383 C 288.280 171.780,288.848 170.938,289.232 170.513 C 289.616 170.088,289.930 169.505,289.930 169.217 C 289.930 168.929,290.110 168.694,290.329 168.694 C 290.548 168.694,290.728 168.335,290.728 167.896 C 290.728 167.458,290.907 167.099,291.127 167.099 C 291.346 167.099,291.525 166.740,291.525 166.301 C 291.525 165.862,291.705 165.503,291.924 165.503 C 292.144 165.503,292.326 164.920,292.329 164.207 C 292.334 163.224,292.428 163.056,292.722 163.509 C 293.015 163.963,293.110 163.795,293.115 162.812 C 293.118 162.099,293.300 161.515,293.519 161.515 C 293.739 161.515,293.918 160.977,293.918 160.319 C 293.918 159.661,294.078 159.123,294.273 159.123 C 294.469 159.123,294.728 158.539,294.849 157.827 C 294.971 157.114,295.249 155.633,295.468 154.536 C 295.686 153.440,295.875 151.241,295.888 149.651 C 295.902 148.005,296.084 146.760,296.311 146.760 C 296.530 146.760,296.710 146.491,296.710 146.162 C 296.710 145.833,296.530 145.563,296.311 145.563 C 296.092 145.563,295.912 145.294,295.912 144.965 C 295.912 144.636,296.092 144.367,296.311 144.367 C 296.866 144.367,296.811 143.032,296.231 142.453 C 295.859 142.080,295.859 141.974,296.231 141.974 C 296.601 141.974,296.710 131.068,296.710 94.094 C 296.710 62.276,296.576 46.297,296.311 46.461 C 296.092 46.596,295.912 46.417,295.912 46.062 C 295.912 45.707,296.092 45.527,296.311 45.663 C 296.530 45.799,296.710 45.719,296.710 45.487 C 296.710 45.255,296.530 45.065,296.311 45.065 C 296.092 45.065,295.912 44.537,295.912 43.892 C 295.912 43.247,295.750 42.619,295.551 42.496 C 295.352 42.373,295.283 41.916,295.397 41.480 C 295.632 40.579,294.705 37.089,294.230 37.089 C 294.059 37.089,293.918 36.747,293.918 36.329 C 293.918 35.424,292.315 32.303,291.850 32.303 C 291.672 32.303,291.525 31.941,291.525 31.498 C 291.525 30.838,291.345 30.738,290.528 30.943 C 289.781 31.131,289.531 31.036,289.531 30.564 C 289.531 30.169,289.754 30.021,290.130 30.165 C 291.073 30.527,290.829 29.822,289.530 28.436 C 288.873 27.735,288.335 26.973,288.335 26.741 C 288.335 26.510,288.156 26.321,287.936 26.321 C 287.717 26.321,287.537 26.536,287.537 26.800 C 287.537 27.145,287.399 27.131,287.039 26.750 C 286.649 26.337,286.647 26.182,287.027 26.042 C 287.410 25.902,287.410 25.752,287.027 25.339 C 286.714 25.002,286.449 24.959,286.286 25.220 C 285.880 25.867,285.145 25.166,285.145 24.131 C 285.145 23.398,284.900 23.155,284.064 23.057 C 283.306 22.969,282.901 22.633,282.708 21.934 C 282.556 21.386,282.415 21.172,282.393 21.459 C 282.371 21.746,282.190 21.881,281.992 21.758 C 281.793 21.635,281.724 21.176,281.839 20.737 C 282.097 19.748,280.578 19.590,280.203 20.568 M110.953 22.557 C 110.452 23.092,110.196 23.529,110.385 23.529 C 110.574 23.529,111.150 23.081,111.665 22.532 C 112.180 21.984,112.436 21.546,112.233 21.560 C 112.030 21.573,111.454 22.022,110.953 22.557 M108.969 24.720 C 108.220 25.921,108.377 26.178,109.272 25.217 C 110.117 24.310,110.263 23.928,109.767 23.928 C 109.600 23.928,109.241 24.285,108.969 24.720 M107.378 26.943 C 106.791 27.580,106.741 27.916,107.235 27.916 C 107.576 27.916,108.213 26.716,107.985 26.504 C 107.925 26.447,107.652 26.645,107.378 26.943 M133.968 35.761 L 133.001 36.825 134.085 36.060 C 134.681 35.639,135.175 35.160,135.182 34.995 C 135.202 34.504,134.984 34.642,133.968 35.761 M131.807 37.884 C 131.409 38.324,131.213 38.684,131.372 38.684 C 131.793 38.684,132.930 37.483,132.714 37.267 C 132.613 37.166,132.205 37.444,131.807 37.884 M102.499 39.581 C 102.504 40.307,102.579 40.364,102.891 39.880 C 103.391 39.107,103.391 38.684,102.891 38.684 C 102.672 38.684,102.495 39.088,102.499 39.581 M130.256 39.781 C 130.120 40.165,129.905 40.703,129.777 40.977 C 129.649 41.251,129.718 41.476,129.930 41.476 C 130.142 41.476,130.427 41.162,130.562 40.778 C 130.697 40.394,130.913 39.855,131.040 39.581 C 131.168 39.307,131.099 39.083,130.887 39.083 C 130.675 39.083,130.391 39.397,130.256 39.781 M128.294 46.817 C 128.131 47.232,128.091 47.666,128.206 47.781 C 128.570 48.144,128.890 47.548,128.737 46.791 C 128.598 46.097,128.576 46.098,128.294 46.817 M128.016 49.229 C 128.016 49.545,128.195 49.914,128.415 50.050 C 128.634 50.185,128.814 49.927,128.814 49.475 C 128.814 49.024,128.634 48.654,128.415 48.654 C 128.195 48.654,128.016 48.913,128.016 49.229 M130.900 57.428 C 131.368 58.176,132.004 58.505,132.004 57.997 C 132.004 57.700,130.932 56.630,130.633 56.630 C 130.506 56.630,130.626 56.989,130.900 57.428 M102.493 61.592 C 102.493 63.601,102.657 65.005,102.891 65.005 C 103.124 65.005,103.290 63.683,103.290 61.838 C 103.290 60.096,103.111 58.560,102.891 58.425 C 102.637 58.268,102.493 59.418,102.493 61.592 M155.733 60.317 C 154.247 61.827,154.078 62.098,155.071 61.381 C 155.803 60.852,156.700 60.239,157.065 60.020 C 157.595 59.701,158.287 58.136,157.844 58.258 C 157.780 58.275,156.830 59.202,155.733 60.317 M134.972 61.628 C 135.983 62.393,136.618 62.384,135.850 61.615 C 135.521 61.286,135.014 61.023,134.724 61.030 C 134.394 61.038,134.486 61.260,134.972 61.628 M142.173 64.606 C 143.263 65.074,143.569 65.074,143.569 64.606 C 143.569 64.387,143.076 64.220,142.473 64.235 C 141.501 64.260,141.467 64.302,142.173 64.606 M102.521 85.763 C 102.560 88.545,102.736 89.714,103.193 90.229 C 103.777 90.887,106.600 90.927,151.807 90.927 L 199.801 90.927 199.801 96.710 L 199.801 102.493 180.977 102.493 C 168.185 102.493,162.284 102.623,162.560 102.899 C 162.828 103.167,169.315 103.269,181.563 103.198 C 198.015 103.103,204.638 103.360,197.009 103.797 C 194.443 103.944,194.448 103.945,197.486 103.961 C 201.268 103.980,201.039 104.497,200.978 96.070 C 200.929 89.416,200.926 89.392,200.066 89.656 C 198.622 90.098,104.042 90.189,103.510 89.748 C 103.229 89.515,103.000 87.951,102.943 85.866 C 102.890 83.946,102.761 82.289,102.657 82.185 C 102.553 82.081,102.491 83.691,102.521 85.763 M34.155 110.269 C 33.826 110.598,33.274 110.867,32.930 110.867 C 32.585 110.867,32.303 111.047,32.303 111.266 C 32.303 111.486,32.417 111.665,32.555 111.665 C 32.894 111.665,35.494 110.049,35.494 109.838 C 35.494 109.460,34.713 109.711,34.155 110.269 M31.505 111.997 C 31.505 112.253,31.247 112.463,30.931 112.463 C 30.615 112.463,30.245 112.642,30.110 112.861 C 29.750 113.443,30.434 113.349,31.329 112.695 C 31.754 112.384,31.968 111.995,31.804 111.831 C 31.640 111.666,31.505 111.741,31.505 111.997 M25.522 116.652 C 25.008 117.199,24.708 117.647,24.856 117.647 C 25.242 117.647,26.818 116.017,26.622 115.821 C 26.531 115.730,26.036 116.104,25.522 116.652 M21.355 121.045 C 20.512 121.817,19.894 122.520,19.982 122.607 C 20.190 122.815,21.098 122.079,22.303 120.726 C 23.649 119.215,23.181 119.372,21.355 121.045 M11.616 135.154 C 11.315 135.345,11.151 135.746,11.250 136.045 C 11.377 136.423,11.577 136.316,11.911 135.692 C 12.442 134.701,12.413 134.650,11.616 135.154 M10.368 137.789 C 10.136 138.399,9.851 139.052,9.735 139.240 C 9.619 139.428,9.620 139.581,9.737 139.581 C 10.085 139.581,11.244 137.133,11.008 136.897 C 10.888 136.777,10.600 137.178,10.368 137.789 M0.427 175.374 C 0.452 176.346,0.494 176.380,0.798 175.673 C 1.266 174.584,1.266 174.277,0.798 174.277 C 0.578 174.277,0.411 174.771,0.427 175.374 M0.488 222.761 C 0.444 223.293,0.585 223.729,0.802 223.729 C 1.269 223.729,1.336 222.267,0.882 221.986 C 0.709 221.880,0.532 222.228,0.488 222.761 M1.196 228.913 C 1.196 229.571,1.350 230.110,1.538 230.110 C 1.726 230.110,1.860 229.572,1.837 228.914 C 1.782 227.354,1.196 227.353,1.196 228.913 M5.882 247.959 C 5.499 248.044,5.184 248.281,5.184 248.484 C 5.184 248.951,5.617 248.946,6.369 248.470 C 7.086 248.017,6.830 247.748,5.882 247.959 M7.577 255.425 C 7.577 255.545,7.744 255.956,7.947 256.336 C 8.150 256.717,8.417 257.352,8.540 257.747 C 8.726 258.343,8.860 258.377,9.328 257.946 C 9.638 257.661,9.730 257.368,9.532 257.295 C 9.334 257.222,9.172 256.914,9.172 256.611 C 9.172 256.308,8.814 255.868,8.375 255.633 C 7.936 255.398,7.577 255.305,7.577 255.425 M8.774 259.193 C 8.774 259.429,9.046 259.621,9.379 259.621 C 9.819 259.621,9.920 259.883,9.746 260.575 C 9.614 261.099,9.701 261.648,9.938 261.795 C 10.175 261.941,10.369 262.409,10.369 262.835 C 10.369 263.261,10.536 263.609,10.740 263.609 C 10.944 263.609,11.189 263.923,11.284 264.307 C 11.380 264.691,11.398 264.519,11.326 263.926 C 11.219 263.058,11.328 262.890,11.878 263.066 C 12.412 263.237,12.441 263.199,12.013 262.894 C 11.710 262.678,11.577 262.317,11.717 262.091 C 11.857 261.865,11.745 261.433,11.469 261.132 C 11.193 260.831,10.768 260.233,10.526 259.804 C 10.042 258.949,8.774 258.507,8.774 259.193 M11.964 266.122 C 11.964 266.495,12.144 266.800,12.363 266.800 C 12.582 266.800,12.762 267.159,12.762 267.597 C 12.762 268.036,12.920 268.395,13.114 268.395 C 13.308 268.395,13.566 268.709,13.688 269.093 C 13.984 270.026,15.279 272.150,15.653 272.316 C 15.818 272.389,15.952 272.704,15.952 273.014 C 15.952 273.589,17.193 273.801,17.684 273.310 C 17.832 273.162,17.604 272.668,17.176 272.213 C 16.749 271.758,16.364 271.206,16.321 270.987 C 16.078 269.744,15.384 268.872,14.738 268.996 C 14.001 269.138,13.211 267.913,13.893 267.685 C 14.102 267.616,14.178 267.198,14.063 266.758 C 13.948 266.317,13.630 266.043,13.356 266.148 C 13.083 266.253,12.658 266.137,12.412 265.891 C 12.081 265.560,11.964 265.621,11.964 266.122 M18.245 275.053 C 17.013 275.371,17.542 276.225,18.843 276.019 C 19.008 275.993,19.145 276.376,19.149 276.869 C 19.154 277.595,19.229 277.652,19.541 277.168 C 19.842 276.704,19.929 276.819,19.934 277.685 C 19.938 278.356,20.365 279.225,21.007 279.866 C 22.015 280.875,22.060 280.884,21.842 280.048 C 21.714 279.561,21.801 279.046,22.033 278.902 C 22.282 278.748,22.339 278.830,22.172 279.101 C 22.015 279.354,22.058 279.561,22.267 279.561 C 23.127 279.561,23.080 278.367,22.212 278.149 C 21.722 278.026,20.965 277.274,20.531 276.477 C 19.701 274.956,19.385 274.759,18.245 275.053 M28.309 286.490 C 28.312 286.681,28.048 286.616,27.721 286.345 C 27.395 286.074,27.238 285.674,27.372 285.456 C 27.619 285.056,28.297 285.803,28.309 286.490 " stroke="none" fill="#346b94" fill-rule="evenodd"></path><path id="path4" d="M150.997 205.199 C 150.808 205.692,150.361 205.759,148.720 205.541 C 147.198 205.339,146.592 205.408,146.343 205.812 C 146.127 206.161,145.430 206.312,144.392 206.237 C 143.337 206.161,142.562 206.335,142.160 206.736 C 141.757 207.139,141.153 207.273,140.412 207.125 C 139.773 206.997,139.161 207.090,139.008 207.338 C 138.859 207.579,138.403 207.777,137.996 207.777 C 137.588 207.777,137.188 207.979,137.105 208.225 C 137.023 208.472,136.470 208.674,135.876 208.674 C 135.282 208.674,134.796 208.831,134.796 209.023 C 134.796 209.215,134.447 209.372,134.022 209.372 C 133.596 209.372,133.137 209.551,133.001 209.771 C 132.865 209.990,132.227 210.169,131.582 210.169 C 130.937 210.169,130.409 210.360,130.409 210.592 C 130.409 210.824,130.244 210.912,130.042 210.788 C 129.840 210.663,129.392 210.845,129.045 211.191 C 128.698 211.538,128.415 211.674,128.414 211.494 C 128.414 211.314,128.010 211.631,127.517 212.199 C 127.024 212.767,126.118 213.356,125.504 213.508 C 124.891 213.659,123.780 214.410,123.037 215.175 C 122.294 215.941,121.538 216.518,121.358 216.459 C 121.178 216.400,120.276 217.128,119.354 218.079 C 118.432 219.029,117.518 219.708,117.323 219.588 C 117.129 219.468,116.727 219.857,116.431 220.452 C 115.730 221.861,113.634 224.128,113.032 224.128 C 112.774 224.128,112.455 224.666,112.323 225.324 C 112.180 226.039,111.834 226.520,111.463 226.520 C 110.863 226.520,110.007 228.048,110.314 228.572 C 110.396 228.714,110.184 228.937,109.843 229.068 C 109.501 229.199,109.326 229.475,109.453 229.680 C 109.580 229.886,109.502 230.167,109.279 230.305 C 109.056 230.443,108.873 230.904,108.873 231.330 C 108.873 231.755,108.694 232.104,108.475 232.104 C 108.255 232.104,108.076 232.642,108.076 233.300 C 108.076 233.958,107.896 234.497,107.677 234.497 C 107.458 234.497,107.278 234.766,107.278 235.095 C 107.278 235.424,107.099 235.693,106.879 235.693 C 106.660 235.693,106.481 236.321,106.481 237.089 C 106.481 238.053,106.299 238.485,105.892 238.485 C 105.441 238.485,105.386 238.701,105.658 239.415 C 106.088 240.548,105.498 241.807,104.941 240.943 C 104.735 240.625,104.673 241.205,104.787 242.387 C 104.904 243.607,104.807 244.468,104.532 244.638 C 104.270 244.800,104.088 246.128,104.088 247.880 C 104.088 249.512,103.916 250.847,103.707 250.847 C 103.473 250.847,103.315 256.047,103.297 264.307 C 103.266 279.113,103.710 302.025,104.011 301.124 C 104.321 300.200,110.759 293.455,112.401 292.335 C 112.873 292.012,113.260 291.517,113.260 291.234 C 113.260 290.951,115.279 288.658,117.747 286.140 C 124.915 278.822,127.218 276.399,127.218 276.175 C 127.218 276.059,129.596 273.547,132.502 270.592 C 139.593 263.382,140.377 262.520,140.391 261.926 C 140.397 261.645,140.951 260.967,141.620 260.419 C 144.567 258.005,154.339 247.983,154.359 247.355 C 154.371 246.973,155.274 245.852,156.365 244.865 C 160.499 241.128,168.694 232.905,168.694 232.497 C 168.694 231.800,169.191 231.277,177.767 222.943 C 180.015 220.758,181.854 218.781,181.854 218.550 C 181.854 217.980,188.086 211.483,192.188 207.777 C 193.280 206.790,194.184 205.875,194.196 205.744 C 194.254 205.107,154.882 204.367,154.131 204.991 C 153.770 205.290,153.531 205.294,153.352 205.004 C 152.958 204.366,151.263 204.506,150.997 205.199 " stroke="none" fill="#fcdc54" fill-rule="evenodd"></path></g></svg>